<svg width="164" height="128" viewBox="0 0 164 128" fill="none" xmlns="http://www.w3.org/2000/svg">
<path d="M14.0917 112.461C8.02556 109.54 2.63882 104.263 0.961544 97.437C-0.509265 91.4496 7.68047 77.6696 8.40801 71.5307C9.9555 58.4586 1.26927 52.6639 2.39794 39.5436C3.52661 26.4243 8.83077 12.4024 20.084 6.77187C27.6622 2.97981 36.5343 3.68769 44.7653 5.36496C52.9963 7.04322 61.19 9.62107 69.5665 9.31432C84.1576 8.78046 97.7508 -0.450439 112.334 0.304629C126.898 1.0597 141.706 7.72848 152.002 18.0399C157.223 23.2683 161.856 30.1603 163.304 37.7562C165.04 46.8642 161.134 55.4502 160.619 64.4648C159.996 75.3729 164.699 86.4482 162.093 97.0231C159.809 106.289 152.105 113.263 143.571 116.446C135.037 119.63 125.735 119.549 116.722 118.697C107.709 117.845 98.7173 116.257 89.6741 116.559C79.9281 116.883 70.3717 119.394 60.6797 120.525C51.9896 121.539 44.1587 120.756 35.8294 118.106C28.6503 115.823 21.0328 115.802 14.0917 112.461Z" fill="#63E7D7"/>
<path d="M162.969 101.102C154.897 92.6669 141.133 92.0494 130.335 96.4904C119.537 100.932 111.007 109.431 102.785 117.721C112.729 124.593 124.813 128.906 136.267 125.042C147.719 121.179 159.221 112.594 162.969 101.102Z" fill="white"/>
<path d="M132.216 126.772C120.758 128.754 109.86 123.441 102.395 118.283L101.724 117.819L102.298 117.24C110.117 109.357 118.98 100.423 130.073 95.8597C140.367 91.6243 154.683 91.4581 163.46 100.631L163.743 100.927L163.617 101.315C159.503 113.925 146.903 122.175 136.481 125.691C135.057 126.171 133.631 126.526 132.216 126.772ZM103.846 117.618C111.972 123.086 123.943 128.48 136.046 124.395C146.044 121.022 158.1 113.191 162.188 101.281C153.831 92.8719 140.346 93.1098 130.593 97.1221C120.026 101.469 111.433 109.974 103.846 117.618Z" fill="#023575"/>
<path d="M115.122 57.5198C114.075 52.6748 114.572 47.5083 116.527 42.9533C115.139 38.7886 116.18 33.8709 119.29 30.7729C122.4 27.675 127.309 26.5316 131.469 27.9345C135.629 29.3375 138.84 33.223 139.436 37.5715C142.598 37.7671 146.122 38.1752 148.746 39.9507C149.916 40.7422 151.018 41.7077 151.654 42.97C152.289 44.2314 152.38 45.8369 151.598 47.0138C152.654 46.8535 154.252 47.2822 155.114 47.9134C155.975 48.5445 156.648 49.396 157.276 50.2602C158.381 51.7801 159.413 53.4476 159.627 55.3146C159.957 58.21 157.988 61.2008 155.197 62.0414C157.289 63.9645 156.757 67.3406 155.209 69.7228C153.661 72.106 151.211 73.7184 149.075 75.5943C145.042 79.1356 142.012 83.8056 140.419 88.9299C136.803 86.353 133.671 83.0997 131.232 79.3893L115.122 57.5198Z" fill="#344964"/>
<path d="M140.749 89.9062L140.07 89.4215C136.368 86.7827 133.225 83.5196 130.728 79.7206L114.559 57.7735L114.532 57.6467C113.475 52.7584 113.956 47.5398 115.884 42.9248C114.512 38.5291 115.697 33.5012 118.865 30.3453C122.14 27.0831 127.287 25.8857 131.663 27.3624C135.885 28.788 139.165 32.6233 139.958 37.0013C143.204 37.2254 146.517 37.7131 149.086 39.4513C150.611 40.4836 151.598 41.515 152.195 42.6987C152.801 43.9011 152.918 45.2618 152.554 46.4023C153.582 46.4996 154.735 46.887 155.473 47.4267C156.442 48.1356 157.165 49.0784 157.766 49.9053C158.853 51.3997 159.995 53.2028 160.228 55.2458C160.56 58.1442 158.848 61.07 156.233 62.2921C157.879 64.5327 157.194 67.7811 155.719 70.0532C154.516 71.9035 152.802 73.3016 151.146 74.6534C150.591 75.1067 150.017 75.5746 149.477 76.0485C145.502 79.5407 142.57 84.0573 141 89.1108L140.749 89.9062ZM115.685 57.2662L131.718 79.0314C133.998 82.499 136.811 85.4888 140.103 87.9517C141.792 83.0103 144.745 78.5939 148.676 75.1401C149.232 74.6514 149.815 74.1766 150.378 73.7165C152.037 72.3636 153.602 71.0865 154.701 69.3945C156.113 67.2207 156.597 64.1493 154.787 62.4858L154.007 61.7681L155.021 61.4623C157.526 60.7083 159.321 57.981 159.024 55.3825C158.821 53.6187 157.778 51.9827 156.785 50.6151C156.238 49.861 155.584 49.0067 154.755 48.401C153.998 47.8475 152.565 47.4788 151.687 47.6116L150.339 47.8161L151.093 46.6805C151.697 45.7701 151.705 44.4202 151.112 43.2424C150.613 42.2504 149.753 41.3636 148.406 40.4522C145.95 38.7897 142.625 38.3757 139.397 38.1752L138.904 38.1447L138.837 37.6541C138.268 33.5179 135.229 29.8419 131.274 28.5068C127.321 27.1716 122.673 28.2541 119.715 31.2006C116.811 34.0941 115.759 38.7395 117.098 42.7626L117.171 42.9799L117.08 43.1913C115.195 47.5899 114.7 52.5834 115.685 57.2662Z" fill="#344964"/>
<path d="M114.226 58.7832C112.494 64.0401 110.971 69.535 110.084 75.0044C109.495 78.6342 110.022 82.8067 112.376 85.828C115.309 89.5954 120.267 89.8776 124.616 90.5914C125.135 90.7172 125.115 103.392 125.124 104.806C127.883 106.896 131.826 107.455 135.137 106.444C138.447 105.432 141.205 102.764 142.325 99.489C141.38 95.0481 139.233 86.6194 139.994 81.5945C142.106 82.1392 144.606 81.4578 146.369 80.1866C147.567 79.3244 148.305 77.9194 148.149 76.4526C147.91 74.2149 145.954 73.33 144.138 73.3497C142.931 73.3625 141.759 73.7253 140.607 74.0841C142.14 68.1881 141.806 66.4243 140.61 60.4516C140.253 58.6721 141.035 56.8129 141.801 55.0098C142.306 53.8222 141.687 52.4595 140.463 52.0495C136.054 50.5738 131.39 48.8473 127.084 47.4739C124.388 46.6136 121.305 45.7887 118.858 47.2124C117.717 47.877 116.641 52.081 116.14 53.3964C115.461 55.1769 114.822 56.9732 114.226 58.7832Z" fill="white"/>
<path d="M128.838 107.183C127.342 106.819 125.937 106.18 124.759 105.287L124.522 105.107L124.518 104.127C124.493 94.78 124.311 91.9357 124.174 91.1314C123.762 91.0666 123.345 91.0046 122.926 90.9407C119.035 90.3597 114.626 89.7 111.898 86.1989C109.667 83.333 108.788 79.2175 109.487 74.9083C110.276 70.0426 111.638 64.706 113.651 58.5947L114.225 58.7835L113.651 58.5947C114.237 56.8132 114.884 54.9924 115.573 53.1824C115.681 52.9002 115.821 52.4617 115.984 51.9534C116.797 49.4198 117.55 47.2756 118.552 46.6916C121.184 45.1578 124.431 45.9955 127.265 46.899C129.79 47.7042 132.477 48.6441 135.075 49.5536C136.919 50.1985 138.824 50.8651 140.653 51.4776C141.397 51.7263 142.009 52.2789 142.331 52.9936C142.652 53.7064 142.661 54.5274 142.355 55.2461C141.628 56.9548 140.877 58.7215 141.201 60.3329C142.334 65.9891 142.723 67.9308 141.451 73.1976C142.312 72.9518 143.199 72.7562 144.13 72.7463C146.08 72.7247 148.458 73.6666 148.749 76.3889C148.922 78.0082 148.146 79.6521 146.723 80.6775C144.895 81.9939 142.531 82.6035 140.514 82.3135C140.091 86.6099 141.532 93.1017 142.501 97.4689C142.654 98.1561 142.795 98.7942 142.916 99.3654L142.952 99.5286L142.897 99.6869C141.715 103.145 138.809 105.956 135.315 107.023C133.222 107.659 130.94 107.693 128.838 107.183ZM125.727 104.499C128.251 106.28 131.84 106.819 134.959 105.866C138.038 104.926 140.606 102.476 141.698 99.45C141.586 98.925 141.457 98.3479 141.32 97.7295C140.284 93.0565 138.717 85.9954 139.397 81.5043L139.498 80.8427L140.146 81.0098C141.943 81.4827 144.262 80.9626 146.017 79.6983C147.089 78.9255 147.676 77.7074 147.549 76.5177C147.344 74.6025 145.655 73.9379 144.145 73.9556C143.017 73.9674 141.884 74.3214 140.787 74.6625L139.749 74.986L140.023 73.935C141.532 68.1284 141.181 66.3764 140.019 60.5728C139.623 58.5957 140.485 56.5664 141.246 54.7761C141.423 54.3602 141.418 53.904 141.232 53.4921C141.045 53.0772 140.704 52.7695 140.272 52.625C138.436 52.0105 136.526 51.3419 134.679 50.696C132.089 49.7895 129.409 48.8526 126.9 48.0523C124.195 47.19 121.368 46.4546 119.163 47.7377C118.48 48.1349 117.573 50.9644 117.138 52.3241C116.97 52.8491 116.824 53.3023 116.706 53.615C116.024 55.4083 115.383 57.2124 114.802 58.9762C112.809 65.0275 111.462 70.3032 110.683 75.1049C110.037 79.0848 110.829 82.8591 112.855 85.4606C115.285 88.5811 119.262 89.175 123.107 89.7511C123.649 89.8327 124.188 89.9123 124.717 89.9989L124.761 90.0087C125.38 90.1591 125.691 90.2338 125.729 104.128L125.727 104.499Z" fill="#023575"/>
<path d="M140.536 78.51C140.444 78.4883 140.357 78.4441 140.281 78.3773C140.031 78.157 140.005 77.7756 140.224 77.5248C141.415 76.1661 143.133 75.3353 144.938 75.2469C145.271 75.2301 145.554 75.4877 145.571 75.8201C145.587 76.1533 145.331 76.4365 144.998 76.4532C143.539 76.525 142.095 77.223 141.133 78.3212C140.98 78.4962 140.747 78.5611 140.536 78.51Z" fill="#023575"/>
<path d="M116.801 76.5489C116.768 76.541 116.735 76.5292 116.702 76.5154C115.873 76.1546 115.134 75.5952 114.562 74.8962C113.958 74.1578 113.673 73.3801 113.739 72.6467C113.836 71.5603 114.621 70.8033 115.416 70.1219L117.931 67.9668C118.184 67.7496 118.565 67.7791 118.782 68.0317C119 68.2854 118.97 68.6669 118.718 68.8832L116.204 71.0383C115.597 71.5583 115 72.1187 114.943 72.7539C114.897 73.274 115.219 73.7901 115.498 74.1303C115.949 74.6809 116.532 75.1223 117.186 75.4064C117.492 75.5401 117.631 75.8951 117.498 76.2018C117.378 76.4761 117.082 76.6167 116.801 76.5489Z" fill="#023575"/>
<path d="M116.612 80.8008C115.768 80.5963 115.077 80.1716 114.615 79.5532C114.414 79.2868 114.469 78.9083 114.737 78.7087C115.003 78.5081 115.382 78.5632 115.581 78.8306C116.094 79.5139 117.155 79.8403 118.422 79.7026C118.936 79.6466 119.444 79.5355 119.982 79.4175C120.675 79.2661 121.393 79.1098 122.138 79.0764C123.428 79.0203 125.184 79.4726 125.889 80.9336C126.033 81.2334 125.908 81.5942 125.608 81.7397C125.308 81.8843 124.947 81.7594 124.801 81.4586C124.351 80.5265 123.114 80.2424 122.191 80.2837C121.549 80.3122 120.913 80.4508 120.241 80.5973C119.695 80.7173 119.132 80.8402 118.552 80.9031C117.85 80.9788 117.195 80.9424 116.612 80.8008Z" fill="#023575"/>
<path d="M117.718 62.3404C117.414 62.2667 117.214 61.9698 117.266 61.6562C117.542 59.972 118.07 58.3449 118.836 56.82C118.986 56.5221 119.348 56.4021 119.647 56.5516C119.945 56.701 120.065 57.0638 119.916 57.3627C119.205 58.7784 118.714 60.2886 118.459 61.8518C118.405 62.1812 118.095 62.4043 117.765 62.3503C117.749 62.3473 117.733 62.3444 117.718 62.3404Z" fill="#023575"/>
<path d="M128.302 65.7223C127.998 65.6485 127.798 65.3516 127.85 65.038C128.125 63.3548 128.654 61.7267 129.42 60.2018C129.57 59.9039 129.934 59.784 130.23 59.9334C130.528 60.0829 130.649 60.4456 130.499 60.7445C129.788 62.1603 129.297 63.6714 129.042 65.2336C128.988 65.563 128.677 65.7862 128.348 65.7321C128.333 65.7292 128.317 65.7252 128.302 65.7223Z" fill="#023575"/>
<path d="M118.292 52.4581C118.142 52.4217 118.005 52.3273 117.919 52.1838C117.746 51.8987 117.837 51.528 118.122 51.354C119.876 50.2922 122.076 50.0651 124.01 50.7513C124.325 50.8624 124.489 51.2075 124.378 51.5221C124.267 51.8358 123.921 51.999 123.607 51.8898C122.012 51.3235 120.196 51.5113 118.748 52.3873C118.605 52.4738 118.442 52.4945 118.292 52.4581Z" fill="#023575"/>
<path d="M134.566 55.7873C134.486 55.7677 134.409 55.7323 134.34 55.6792C133.348 54.9162 132.114 54.4689 130.863 54.4188C130.725 54.4129 130.587 54.4119 130.448 54.4109C130.024 54.407 129.603 54.4089 129.137 54.29C128.314 54.0835 127.703 53.5251 127.542 52.8319C127.467 52.5065 127.669 52.1821 127.994 52.1074C128.32 52.0326 128.644 52.2342 128.719 52.5596C128.783 52.8388 129.123 53.0414 129.431 53.119C129.728 53.1849 130.089 53.1996 130.459 53.2026C130.61 53.2036 130.762 53.2055 130.912 53.2114C132.409 53.2714 133.888 53.8072 135.077 54.7216C135.341 54.9251 135.39 55.3036 135.188 55.5681C135.037 55.7637 134.791 55.8424 134.566 55.7873Z" fill="#023575"/>
<path d="M2.86049 95.6372C3.05712 95.4661 3.27636 95.3255 3.5192 95.2204C6.45197 93.955 10.5459 93.8813 13.692 93.8095C20.3617 93.6581 27.0708 94.9815 33.1546 97.7304C37.9456 99.8953 42.3315 102.937 46.0753 106.625C48.0122 108.532 49.7789 110.615 51.3421 112.84C52.4472 114.411 54.9956 116.505 54.8392 118.625C54.5187 122.959 48.9295 125.088 45.3694 126.074C29.6713 130.423 14.2327 118.81 4.54562 107.666C1.76524 104.468 -1.05053 99.3506 2.68548 95.7945C2.74251 95.7404 2.8015 95.6873 2.86049 95.6372Z" fill="white"/>
<path d="M29.5052 126.211C17.9579 122.638 8.50581 113.138 4.0924 108.061C-0.206963 103.114 -0.88731 98.3666 2.27159 95.3591C2.33353 95.2992 2.3994 95.2402 2.46625 95.1822C2.71303 94.9678 2.98733 94.7948 3.28129 94.669C6.27404 93.3771 10.2942 93.2857 13.5249 93.2129L13.6782 93.209C20.4856 93.0546 27.3039 94.4291 33.4024 97.1829C38.2366 99.3675 42.6422 102.4 46.4971 106.197C48.4635 108.133 50.2587 110.252 51.8337 112.495C52.11 112.887 52.4964 113.331 52.9064 113.802C54.156 115.238 55.5717 116.864 55.438 118.669C55.1794 122.168 51.7531 124.929 45.5297 126.653C39.9542 128.199 34.5311 127.766 29.5052 126.211ZM27.9193 96.3905C23.3594 94.9796 18.5311 94.3013 13.7058 94.4104L13.5524 94.4133C10.4259 94.4841 6.53556 94.5726 3.75813 95.7711C3.57821 95.8487 3.40911 95.9559 3.25475 96.0896L3.25278 96.0916C3.20166 96.1358 3.15053 96.1811 3.10236 96.2273C-0.702476 99.8483 3.16233 105.156 4.99986 107.271C11.1839 114.386 27.4838 130.405 45.2092 125.494C49.1772 124.395 53.9652 122.303 54.2395 118.579C54.3359 117.274 53.0951 115.848 51.9999 114.59C51.5693 114.095 51.1622 113.628 50.8516 113.184C49.3178 111 47.5688 108.938 45.6546 107.051C41.9009 103.354 37.6123 100.402 32.9079 98.2762C31.2925 97.5486 29.6251 96.9184 27.9193 96.3905Z" fill="#023575"/>
<path d="M25.6096 84.8662C21.4106 78.1777 19.0107 70.3724 18.7275 62.4796C15.7426 58.5597 13.7458 53.5849 13.912 48.6613C14.0781 43.7376 17.4651 38.695 22.3377 37.9635C24.4908 37.64 26.6872 38.1523 28.86 38.0018C32.0267 37.7826 34.9162 36.183 37.6317 34.5401C40.3472 32.8973 43.0961 31.1374 46.2128 30.5328C49.3294 29.9281 52.9651 30.7727 54.7112 33.4242C55.5086 34.6345 55.8448 36.1004 56.6284 37.3195C57.6745 38.9457 59.4127 39.9809 61.1283 40.8727C62.8439 41.7644 64.6431 42.602 65.9832 43.9962C67.3232 45.3903 68.1107 47.5198 67.3458 49.2974C66.4216 51.4436 63.4751 52.7719 63.7592 55.0911C63.9864 56.9552 66.3047 58.0613 66.4521 59.9342C66.574 61.4738 65.1858 62.6635 63.9362 63.5709C57.3215 68.3786 50.7078 73.1852 44.0941 77.9919C41.3923 79.9553 38.6591 81.9364 35.5769 83.2223C32.4947 84.5083 28.7951 85.869 25.6096 84.8662Z" fill="#344964"/>
<path d="M28.0095 85.8193C27.1335 85.8193 26.2684 85.7062 25.4287 85.4418L25.2164 85.3749L25.0984 85.1871C20.858 78.4338 18.4512 70.6589 18.1317 62.6934C14.9089 58.395 13.153 53.2845 13.3083 48.642C13.4735 43.7351 16.8625 38.1753 22.2482 37.3671C23.5126 37.1774 24.7808 37.26 26.0059 37.3406C26.9782 37.4045 27.8975 37.4645 28.8177 37.4006C31.8625 37.1892 34.6872 35.6171 37.3191 34.0244L37.8549 33.699C40.4229 32.1397 43.0794 30.5263 46.0968 29.9413C49.2055 29.3386 53.2306 30.08 55.2146 33.0943C55.6492 33.755 55.952 34.4717 56.243 35.1658C56.5183 35.8196 56.7778 36.4381 57.1357 36.9935C58.1395 38.5528 59.8659 39.537 61.4065 40.3373L61.9679 40.6273C63.5351 41.4315 65.1553 42.2643 66.4177 43.5788C67.8089 45.0269 68.8068 47.4298 67.8993 49.5367C67.4854 50.4992 66.7451 51.274 66.0303 52.0221C65.061 53.0377 64.2233 53.9138 64.358 55.0178C64.4484 55.7572 64.9921 56.4021 65.5673 57.0854C66.2535 57.9005 66.9634 58.743 67.0538 59.8865C67.1964 61.6915 65.7374 63.009 64.2911 64.06L44.45 78.48C41.7581 80.4365 38.9747 82.4589 35.8099 83.7792C33.3638 84.7988 30.6375 85.8193 28.0095 85.8193ZM26.0009 84.3524C28.9288 85.1655 32.3531 83.912 35.3439 82.6653C38.378 81.4 41.1033 79.4189 43.7391 77.5037L63.5803 63.0837C64.7552 62.2293 65.9438 61.1931 65.8495 59.9828C65.7895 59.2248 65.233 58.5651 64.6431 57.8651C63.9795 57.0766 63.2922 56.2615 63.1585 55.1653C62.954 53.4939 64.0739 52.322 65.1563 51.1884C65.7983 50.5159 66.462 49.8218 66.7903 49.0589C67.4785 47.4613 66.6625 45.5755 65.5476 44.4154C64.4239 43.2464 62.8951 42.4609 61.4164 41.7019L60.8491 41.4099C59.0479 40.4739 57.2281 39.3698 56.1201 37.6473C55.7052 37.0034 55.4132 36.3073 55.13 35.6338C54.8469 34.9613 54.5795 34.3252 54.2069 33.758C52.5296 31.2106 49.0413 30.601 46.3278 31.127C43.5228 31.6707 40.9607 33.2271 38.4832 34.7313L37.9454 35.0577C35.1866 36.7271 32.2165 38.3759 28.9023 38.6049C27.9004 38.6738 26.8976 38.6089 25.9282 38.545C24.713 38.4653 23.5647 38.3906 22.4281 38.5607C17.6647 39.2755 14.6651 44.268 14.5166 48.6814C14.3682 53.1056 16.0779 58.0017 19.2093 62.1143L19.3253 62.2667L19.3322 62.4584C19.6094 70.2028 21.9149 77.7692 26.0009 84.3524Z" fill="#344964"/>
<path d="M56.4625 63.581C56.9039 69.0975 57.0868 74.7969 56.6582 80.3213C56.373 83.9875 54.8757 87.9172 51.8761 90.2974C48.1361 93.2656 43.2508 92.3699 38.857 92.0366C38.3232 92.0366 35.3501 104.358 35.007 105.729C31.8324 107.108 27.8692 106.721 24.8912 104.957C21.9132 103.194 19.8633 99.9491 19.5477 96.5021C21.5141 92.4102 25.5903 84.7258 26.0366 79.6635C23.855 79.695 21.5878 78.4424 20.174 76.7917C19.2145 75.6709 18.8281 74.1323 19.3265 72.7431C20.0865 70.6243 22.1964 70.2262 23.9572 70.6745C25.1262 70.9724 26.1802 71.6006 27.2144 72.221C27.1171 66.1303 27.8564 64.4943 30.4304 58.9729C31.1972 57.3271 30.8767 55.3362 30.5572 53.4033C30.3468 52.1291 31.269 50.9513 32.556 50.8421C37.1896 50.4489 42.128 49.8718 46.6378 49.5532C49.4604 49.3546 52.6518 49.2799 54.6918 51.2413C55.6445 52.1566 55.6976 56.4953 55.8736 57.8924C56.1135 59.785 56.3101 61.6815 56.4625 63.581Z" fill="white"/>
<path d="M30.8372 107.162C28.6742 107.162 26.465 106.591 24.5843 105.478C21.4401 103.615 19.2801 100.197 18.9478 96.5588L18.9321 96.3927L19.0048 96.2422C19.2575 95.7153 19.5456 95.1303 19.8552 94.4991C21.8275 90.4848 24.7602 84.5151 25.3639 80.2403C23.3356 80.0466 21.1815 78.8963 19.7166 77.1856C18.5762 75.8534 18.2094 74.0729 18.759 72.5402C19.6842 69.9623 22.2178 69.6094 24.1064 70.0911C25.009 70.3202 25.825 70.7213 26.6037 71.1618C26.6106 65.7426 27.4472 63.9493 29.8835 58.7199C30.5776 57.2314 30.265 55.3368 29.9621 53.5042C29.8353 52.7334 30.0369 51.9371 30.5167 51.3206C30.9984 50.7022 31.723 50.3089 32.5046 50.2431C34.4257 50.0799 36.4353 49.8813 38.378 49.6896C41.1181 49.4192 43.9506 49.14 46.5953 48.9532C49.5644 48.7428 52.9141 48.6975 55.1104 50.8074C55.9471 51.6116 56.1732 53.8739 56.363 56.5265C56.4013 57.0593 56.4348 57.5185 56.4721 57.8183C56.714 59.7375 56.9126 61.6595 57.062 63.5325C57.5752 69.9476 57.6391 75.4543 57.2577 80.3681C56.9194 84.7215 55.0937 88.5136 52.2494 90.771C48.772 93.5297 44.332 93.1296 40.4141 92.7766C39.9914 92.7392 39.5725 92.7009 39.1567 92.6675C38.8342 93.4166 37.9857 96.137 35.7549 105.214L35.519 106.165L35.2466 106.284C33.8928 106.872 32.3768 107.162 30.8372 107.162ZM20.1669 96.6119C20.514 99.8101 22.4301 102.798 25.1997 104.438C28.0057 106.1 31.6198 106.424 34.4945 105.288L34.584 104.925C37.9002 91.4326 38.2197 91.4326 38.8578 91.4326L38.903 91.4336C39.4369 91.4749 39.9786 91.5231 40.5252 91.5722C44.3979 91.9213 48.4023 92.2821 51.5003 89.8232C54.083 87.7743 55.7436 84.2929 56.0552 80.2727C56.4318 75.4238 56.3679 69.979 55.8596 63.6268C55.7111 61.7726 55.5145 59.8692 55.2746 57.9678C55.2333 57.6364 55.1989 57.1616 55.1596 56.612C55.0573 55.1874 54.844 52.2251 54.2738 51.6765C52.4343 49.9078 49.5143 49.956 46.6808 50.1556C44.0528 50.3404 41.2282 50.6196 38.497 50.889C36.5503 51.0807 34.5368 51.2793 32.6069 51.4425C32.1526 51.4819 31.7486 51.7001 31.4693 52.059C31.1921 52.4159 31.08 52.8573 31.1537 53.3036C31.4703 55.2228 31.8292 57.3995 30.9778 59.2262C28.4776 64.5913 27.7225 66.2106 27.8189 72.2099L27.8366 73.2962L26.9045 72.7378C25.9204 72.1469 24.9018 71.5364 23.8085 71.2582C22.3426 70.8855 20.5454 71.1323 19.8956 72.9443C19.4915 74.071 19.7736 75.3933 20.6329 76.3962C22.0398 78.039 24.1497 79.0979 26.0285 79.0576L26.6971 79.0477L26.6381 79.7143C26.2389 84.2398 23.0495 90.7326 20.9387 95.028C20.6605 95.5983 20.3999 96.1292 20.1669 96.6119Z" fill="#023575"/>
<path d="M26.238 76.5394C26.0207 76.5394 25.8093 76.4215 25.7022 76.215C25.0267 74.9212 23.7879 73.9016 22.3879 73.4877C22.0684 73.3933 21.8855 73.0571 21.9799 72.7375C22.0743 72.418 22.4105 72.2351 22.7301 72.3295C24.4634 72.8418 25.9371 74.055 26.7728 75.6565C26.9272 75.9515 26.8131 76.3163 26.5172 76.4716C26.4277 76.5168 26.3324 76.5394 26.238 76.5394Z" fill="#023575"/>
<path d="M40.3704 67.0419C38.7639 67.0419 37.1899 66.0381 36.6295 64.6184C36.5066 64.3087 36.659 63.9577 36.9696 63.8348C37.2803 63.7119 37.6303 63.8643 37.7532 64.175C38.1534 65.1896 39.3892 65.9142 40.5631 65.8277C41.7331 65.7402 42.8214 64.8465 43.0407 63.7935C43.1085 63.4671 43.428 63.2557 43.7554 63.3245C44.0818 63.3924 44.2912 63.7129 44.2234 64.0393C43.895 65.6182 42.3603 66.9052 40.6535 67.032C40.5592 67.0379 40.4648 67.0419 40.3704 67.0419Z" fill="#023575"/>
<path d="M51.8703 66.4776C50.3543 66.4776 48.8737 65.4679 48.3506 64.0404C48.2356 63.7277 48.3968 63.3807 48.7095 63.2656C49.0231 63.1506 49.3692 63.3119 49.4842 63.6245C49.8529 64.6283 50.9737 65.347 52.0434 65.2634C53.1091 65.1779 54.1041 64.2872 54.3066 63.2371C54.3695 62.9098 54.6851 62.6954 55.0145 62.7593C55.3419 62.8222 55.5562 63.1388 55.4923 63.4662C55.1865 65.0481 53.7462 66.338 52.1397 66.4678C52.0493 66.4747 51.9598 66.4776 51.8703 66.4776Z" fill="#023575"/>
<path d="M35.9638 58.3163C35.8842 58.3163 35.8055 58.3154 35.7259 58.3134C35.3926 58.3036 35.1301 58.0253 35.1399 57.692C35.1497 57.3588 35.427 57.0962 35.7613 57.1061C38.0973 57.1818 40.4352 56.0698 41.8657 54.2235C42.0702 53.959 42.4497 53.9118 42.7132 54.1163C42.9767 54.3208 43.0249 54.7003 42.8204 54.9638C41.207 57.0451 38.5967 58.3163 35.9638 58.3163Z" fill="#023575"/>
<path d="M52.8575 56.9265C50.9727 56.9265 49.0733 56.2609 47.6241 55.0653C47.3665 54.853 47.3301 54.4725 47.5425 54.2149C47.7549 53.9573 48.1353 53.921 48.3929 54.1333C49.8431 55.3298 51.8222 55.903 53.6873 55.667C54.0166 55.6258 54.3204 55.8588 54.3627 56.1901C54.404 56.5204 54.17 56.8233 53.8396 56.8655C53.5132 56.9058 53.1858 56.9265 52.8575 56.9265Z" fill="#023575"/>
<path d="M30.7233 70.7382C29.8218 71.4864 29.28 72.6269 29.5553 74.3808C29.8198 76.062 30.9465 77.2939 31.9719 77.7649C35.3874 79.336 38.9534 79.4244 42.1191 78.0146C43.2291 77.5201 44.3804 76.5821 44.4895 74.5991C44.638 71.9151 42.8388 70.1287 41.312 69.4886C39.6829 68.8063 37.9102 68.8928 36.3185 69.0747C34.4731 69.2861 32.2993 69.4316 30.7233 70.7382Z" fill="#FF8A65"/>
<path d="M56.2735 69.3359C55.5538 69.564 54.9226 70.0301 54.3249 70.5256C53.4233 71.2738 52.8816 72.4152 53.1569 74.1682C53.4214 75.8494 54.5481 77.0813 55.5735 77.5532C56.0572 77.7754 55.8409 77.7105 56.3295 77.8727C56.4642 74.9508 56.421 72.6079 56.2735 69.3359Z" fill="#FF8A65"/>
<path d="M49.7659 80.236C49.4778 80.236 49.2222 80.0285 49.1721 79.7355C49.1151 79.4072 49.3353 79.0945 49.6637 79.0375C50.3656 78.9156 51.0361 78.6246 51.6054 78.1959C51.9564 77.9305 52.3919 77.5057 52.4696 76.9886C52.564 76.3584 52.1166 75.6731 51.6506 75.0242L49.7158 72.3363C49.5211 72.0659 49.583 71.6884 49.8534 71.4937C50.1238 71.299 50.5013 71.36 50.696 71.6313L52.6308 74.3193C53.2424 75.1687 53.8264 76.089 53.6641 77.1675C53.555 77.896 53.0949 78.5843 52.3329 79.1594C51.6123 79.7031 50.7609 80.0728 49.8711 80.2271C49.8347 80.233 49.8003 80.236 49.7659 80.236Z" fill="#023575"/>
<path d="M14.1737 88.4322C13.8738 89.8834 14.1786 91.542 13.2997 92.7355C12.4089 93.9458 10.6392 94.1788 9.63345 95.2947C8.08694 97.0093 9.07206 99.7415 10.3256 101.679C15.7536 110.069 25.2638 115.677 35.232 116.366C39.5186 116.663 44.1532 115.963 47.322 113.061C50.4907 110.16 51.3863 104.585 48.2904 101.605C50.1643 102.406 52.4629 100.773 52.75 98.7554C53.0371 96.738 51.7049 94.7412 49.9283 93.7433C48.1508 92.7454 46.0242 92.5812 43.989 92.6982C41.9549 92.8142 39.9345 93.1878 37.8964 93.175C32.1242 93.1386 28.6242 89.9896 24.5854 86.4246C21.4737 83.6777 15.2335 83.2992 14.1737 88.4322Z" fill="white"/>
<path d="M37.0187 117.033C36.3816 117.033 35.7681 117.009 35.19 116.969C25.0575 116.268 15.336 110.536 9.81855 102.008C7.97413 99.1565 7.73621 96.496 9.18441 94.8905C9.73301 94.282 10.437 93.9221 11.1183 93.5731C11.7908 93.229 12.4269 92.9036 12.8133 92.3786C13.2901 91.7307 13.3461 90.8458 13.4051 89.9089C13.4385 89.3838 13.473 88.8421 13.5821 88.3102C14.0048 86.2623 15.2643 84.7925 17.1303 84.1702C19.5745 83.3551 22.8779 84.1131 24.9858 85.9733L25.1274 86.0981C29.0423 89.5539 32.4224 92.5378 37.9016 92.5722C39.0912 92.589 40.3103 92.4484 41.4901 92.3206C42.2943 92.234 43.1271 92.1436 43.9559 92.0964C46.5632 91.947 48.6141 92.3146 50.2245 93.2182C52.3649 94.4196 53.6489 96.732 53.348 98.8419C53.172 100.079 52.3403 101.254 51.1772 101.907C50.7023 102.175 50.2009 102.338 49.7034 102.394C50.4428 103.569 50.8292 104.996 50.8095 106.544C50.777 109.168 49.6248 111.771 47.7292 113.508C44.6628 116.317 40.4824 117.033 37.0187 117.033ZM19.2864 85.0442C18.664 85.0442 18.0614 85.1317 17.5128 85.3155C16.0518 85.8032 15.1021 86.923 14.7658 88.5541C14.6734 89.0024 14.6429 89.4792 14.6115 89.9846C14.5446 91.0542 14.4748 92.1603 13.7876 93.0943C13.2321 93.8484 12.4377 94.2554 11.6698 94.6487C11.0593 94.9613 10.4822 95.2573 10.082 95.7007C8.51192 97.4418 10.26 100.467 10.8332 101.353C16.1481 109.567 25.5137 115.09 35.2746 115.765C38.754 116.005 43.598 115.655 46.9152 112.618C48.5453 111.125 49.5756 108.792 49.6032 106.53C49.6258 104.731 49.0113 103.137 47.8728 102.042C47.6624 101.84 47.627 101.516 47.7882 101.273C47.9495 101.03 48.2611 100.937 48.5286 101.051C49.3741 101.413 50.1803 101.083 50.5853 100.855C51.4279 100.381 52.0286 99.5448 52.1535 98.6718C52.3855 97.0447 51.3492 95.2346 49.6336 94.2711C48.2307 93.4826 46.3971 93.1671 44.0247 93.3017C43.2264 93.348 42.4103 93.4355 41.6199 93.521C40.4067 93.6527 39.1551 93.7992 37.8937 93.7796C31.9623 93.7412 28.4249 90.6187 24.328 87.0026L24.1865 86.8778C22.8621 85.7098 20.9991 85.0442 19.2864 85.0442Z" fill="#023575"/>
<path d="M45.224 88.0757C44.1465 88.0757 43.6352 87.6244 43.3943 87.2312C42.9735 86.5439 43.0778 85.5529 43.6804 84.5127C44.5613 82.9898 45.9132 81.9899 47.4872 81.6969C48.5943 81.4905 49.5588 81.7746 50.069 82.4559C50.6048 83.1727 50.5763 84.2168 49.9933 85.2491C49.0819 86.8644 47.2955 87.9715 45.4432 88.0698C45.3666 88.0737 45.2938 88.0757 45.224 88.0757ZM47.7065 82.8836C46.4854 83.1107 45.4265 83.9041 44.7245 85.1164C44.3736 85.724 44.2526 86.3198 44.4227 86.599C44.5859 86.8644 45.0893 86.8782 45.3774 86.8625C46.8275 86.7858 48.2256 85.9196 48.9403 84.6543C49.191 84.2099 49.3838 83.5571 49.1006 83.1786C48.8312 82.8187 48.204 82.7912 47.7065 82.8836Z" fill="#023575"/>
<path d="M63.9014 78.25C63.169 78.25 62.4394 78.8084 62.4404 79.5891C62.4414 80.3225 62.9939 81.05 63.7795 81.05C64.512 81.05 65.2415 80.4916 65.2405 79.711C65.2395 78.9785 64.687 78.25 63.9014 78.25Z" fill="white"/>
<path d="M70.942 75.1416C69.6855 75.1416 69.5931 77.0981 70.8565 77.0981C72.1139 77.0991 72.2054 75.1416 70.942 75.1416Z" fill="white"/>
<path d="M65.6622 87.6016C63.9751 87.6016 63.8522 90.2286 65.5481 90.2286C67.2352 90.2286 67.3581 87.6016 65.6622 87.6016Z" fill="white"/>
<path d="M75.3172 92.9427C75.2887 92.9575 75.2592 92.9732 75.2307 92.988C74.685 93.2741 74.5631 94.1953 75.1648 94.5079C75.1924 94.5227 75.2199 94.5364 75.2474 94.5502C75.857 94.8678 76.6514 94.562 76.6838 93.8069C76.7143 93.1 75.9435 92.6144 75.3172 92.9427Z" fill="white"/>
<path d="M57.2652 88.6182C56.0343 88.6182 55.9448 90.5344 57.1816 90.5344C58.4125 90.5344 58.502 88.6182 57.2652 88.6182Z" fill="white"/>
<path d="M63.8967 98.4365C63.2232 98.4365 62.5527 98.9497 62.5537 99.6675C62.5547 100.341 63.063 101.009 63.7846 101.009C64.4571 101.009 65.1276 100.496 65.1266 99.7795C65.1266 99.1051 64.6184 98.4365 63.8967 98.4365Z" fill="white"/>
</svg>
