<svg width="151" height="141" viewBox="0 0 151 141" fill="none" xmlns="http://www.w3.org/2000/svg">
<path d="M5.5741 70.1431C9.0301 74.6651 14.1311 77.8061 17.1911 82.6041C22.1041 90.3051 20.6921 100.219 20.4241 109.35C20.1551 118.481 22.3341 129.284 30.6721 133.017C39.4981 136.969 49.3751 130.596 59.0341 130.106C68.2381 129.64 76.7161 134.552 85.3351 137.816C93.9541 141.081 104.816 142.325 111.408 135.883C118.16 129.285 117.173 117.799 122.937 110.322C126.838 105.262 133.158 102.868 138.744 99.7671C144.33 96.6661 149.899 91.7611 150.005 85.3731C150.205 73.3551 132.347 68.7691 129.277 57.1481C127.694 51.1521 130.521 44.9961 132.826 39.2401C135.132 33.4831 136.865 26.5731 133.467 21.3861C130.09 16.2331 123.005 15.0271 116.874 15.6321C110.742 16.2371 104.64 18.1551 98.5331 17.3341C90.8761 16.3051 84.5191 11.1821 78.1041 6.8741C71.6901 2.5661 63.9201 -1.2089 56.4811 0.885099C47.5341 3.4041 43.4901 12.5001 38.7041 19.5501C33.8271 26.7351 29.0501 30.5501 21.0761 33.3541C5.75811 38.7411 -6.3339 54.5621 5.5741 70.1431Z" fill="#63E6D6"/>
<path d="M80.0049 76.6748L81.9703 81.1787C82.3213 81.9529 83.1637 82.2344 83.8656 81.9529C84.6378 81.601 84.9186 80.7565 84.6378 80.0528L82.6723 75.5488C82.3213 74.7747 81.479 74.4932 80.777 74.7747C80.0049 75.1265 79.7241 75.971 80.0049 76.6748Z" fill="#9DDAE5"/>
<path d="M41.5073 126.065V126.235C41.3087 126.209 41.0614 126.169 40.781 126.108C40.0302 125.945 39.0587 125.633 38.1463 125.042C37.2387 124.455 36.3903 123.593 35.8659 122.316C35.3406 121.038 35.1242 119.304 35.55 116.948L35.5541 116.925L35.556 116.902L35.0579 116.859C35.556 116.902 35.556 116.902 35.5561 116.902L35.5561 116.901L35.5565 116.897L35.5581 116.879L35.5644 116.81C35.5701 116.748 35.5789 116.655 35.5908 116.534C35.6146 116.293 35.6511 115.937 35.7019 115.481C35.8036 114.571 35.9622 113.264 36.1901 111.681C36.6459 108.513 37.3778 104.247 38.4824 99.8443C39.5879 95.4373 41.0615 90.9144 42.9933 87.2233C44.9333 83.5165 47.2895 80.7368 50.1152 79.6766L50.1541 79.662L50.1901 79.6411L49.9395 79.2084L50.1902 79.6411L50.1906 79.6408L50.1928 79.6396L50.2018 79.6344L50.2388 79.6131C50.2717 79.5943 50.3211 79.5661 50.3863 79.5293C50.5166 79.4557 50.7098 79.3474 50.9603 79.2096C51.4613 78.934 52.1911 78.5406 53.1035 78.0706C54.9289 77.1304 57.4832 75.8851 60.3988 74.6642C66.2412 72.2179 73.4466 69.9084 79.1414 70.2747L79.1598 70.2787L79.3205 70.3142C79.462 70.3456 79.6707 70.3924 79.9388 70.4537C80.475 70.5763 81.2487 70.7572 82.1974 70.9896C84.0952 71.4546 86.6912 72.1255 89.4852 72.9496C92.2803 73.7741 95.2672 74.7499 97.9488 75.824C100.639 76.9016 102.987 78.0643 104.528 79.2525L104.536 79.2589L104.543 79.2637L104.543 79.2641L104.544 79.2645L104.545 79.265L104.555 79.2726C104.566 79.2809 104.584 79.2953 104.61 79.316C104.661 79.3576 104.741 79.425 104.847 79.5222C105.057 79.7165 105.37 80.03 105.758 80.4938C106.535 81.4213 107.617 82.9513 108.799 85.3333C111.162 90.0983 113.923 98.2726 115.427 111.847L115.427 111.848L115.427 111.848L115.427 111.848L115.427 111.849L115.427 111.849L115.428 111.861C115.429 111.872 115.431 111.891 115.433 111.917C115.436 111.968 115.44 112.048 115.442 112.154C115.446 112.367 115.44 112.683 115.401 113.084C115.323 113.886 115.111 115.029 114.574 116.364C113.509 119.011 111.153 122.453 105.945 125.517L105.93 125.518C105.842 125.524 105.711 125.532 105.54 125.544C105.197 125.566 104.692 125.599 104.043 125.64C102.744 125.721 100.868 125.835 98.562 125.964C93.9491 126.221 87.6132 126.537 80.7209 126.775C66.9191 127.25 50.9415 127.405 42.0777 126.146L41.5073 126.065Z" fill="white" stroke="#023575"/>
<path d="M89.484 73.0452C87.4508 77.472 84.2038 79.897 81.4175 81.2237C79.9698 81.913 78.6479 82.3047 77.6899 82.5237C77.2112 82.6331 76.8244 82.6992 76.5594 82.7378C76.427 82.757 76.3251 82.7694 76.2576 82.7769C76.2238 82.7806 76.1986 82.7831 76.1825 82.7846L76.1651 82.7862L76.1618 82.7865L76.1617 82.7865L76.1614 82.7865L76.1613 82.7865L76.1524 82.7872L76.1431 82.7883C71.7849 83.2963 68.5528 81.7108 66.2327 79.6395C64.1719 77.7997 62.8358 75.5787 62.1022 74.1121C67.6488 71.9541 74.0375 70.0877 79.2219 70.4105L79.244 70.4151C79.2819 70.4232 79.3385 70.4353 79.4127 70.4513C79.5611 70.4833 79.78 70.5312 80.0612 70.5941C80.6235 70.72 81.4344 70.9062 82.427 71.1473C84.2887 71.5996 86.7877 72.2443 89.484 73.0452Z" fill="white" stroke="#023575"/>
<path d="M45.7217 116.216C45.4409 116.216 45.2303 116.075 45.1601 115.794C45.0899 115.442 45.2303 115.16 45.5813 115.019C45.7919 114.949 49.2315 113.964 53.3731 113.964C55.3386 113.964 57.5146 114.175 59.4801 114.879C59.7609 115.019 59.9715 115.301 59.8311 115.653C59.7609 115.934 59.4801 116.075 59.2696 116.075C59.1994 116.075 59.1292 116.075 59.059 116.075C57.2339 115.442 55.1982 115.231 53.3731 115.231C49.3719 115.231 45.9323 116.216 45.8621 116.216H45.7217Z" fill="#E08573"/>
<path d="M53.8094 102.08C53.5287 102.08 53.2479 101.869 53.1777 101.517L52.5459 94.3384C52.5459 93.9866 52.7565 93.7051 53.1075 93.7051H53.1777C53.4585 93.7051 53.7392 93.9162 53.7392 94.2681L54.371 101.446C54.371 101.798 54.1604 102.08 53.8094 102.08H53.7392H53.8094Z" fill="#E08573"/>
<path d="M100.76 100.043C100.479 100.043 100.269 99.9018 100.198 99.6203L97.4607 91.3864C97.3203 91.1049 97.5309 90.7531 97.8117 90.6123C97.8819 90.6123 97.9521 90.6123 98.0223 90.6123C98.3031 90.6123 98.5136 90.7531 98.5838 91.0346L101.321 99.2684C101.462 99.5499 101.251 99.9018 100.971 100.043H100.76Z" fill="#E08573"/>
<path d="M61.252 59.5665C61.252 59.5665 63.779 61.4666 63.077 63.4371C63.077 63.4371 63.9194 63.8593 64.3406 62.5222V59.6368L61.252 59.4961V59.5665Z" fill="#4D6C7E"/>
<path d="M64.5516 55.1413C64.4814 55.7043 63.0073 53.2412 62.7265 52.9597C61.6034 51.693 59.1465 51.0596 57.7426 52.8189C56.1281 54.8598 58.5148 58.4489 60.3399 59.3638C61.463 59.9268 62.7967 59.8564 63.9199 59.9972C63.9901 59.9972 64.7622 64.853 65.1834 66.4716C66.7277 72.9461 68.623 77.3797 74.3089 77.45C79.1524 77.5204 82.592 71.1163 83.4344 67.105C83.645 66.1901 84.4873 60.7009 84.4873 60.7009C84.4873 60.7009 86.3826 60.349 87.0144 59.9268C88.9097 58.7304 91.7175 52.8893 89.3309 51.2003C87.9971 50.2151 87.0846 50.9188 86.3826 51.6226C85.8913 52.1152 85.4701 52.6078 84.9787 52.5374C84.8383 52.5374 86.874 45.0074 82.3113 40.5738C77.2571 35.7179 68.272 38.4625 65.5344 44.5851C63.9901 47.8927 64.9026 51.693 64.6218 55.2117L64.5516 55.1413Z" fill="white"/>
<path d="M69.9831 42.7446C69.9831 42.7446 75.2104 48.5718 83.9392 46.5393C83.9392 46.5393 85.267 50.0608 84.9349 52.597C84.9349 52.597 89.2871 48.3745 86.9706 42.0408C86.9706 42.0408 84.0224 33.9477 76.5816 32.4699C76.5816 32.4699 64.7813 32.2301 62.5142 38.7703C62.5142 38.7703 63.0267 40.9043 64.1368 39.0643C64.1368 39.0643 64.5746 38.7756 63.9428 40.535C63.9428 40.535 66.7408 35.8049 65.0561 36.9309C65.0561 36.9309 65.4938 38.1802 64.1368 39.0643C64.1368 39.0643 57.3478 44.4335 58.7517 52.034C58.7517 52.034 62.1211 50.7673 65.28 57.664C65.28 57.664 66.2627 55.7638 66.1925 54.3564C66.1925 54.3564 69.9831 49.0759 69.9831 42.7446Z" fill="#344964"/>
<path d="M54.5645 132.344L50.4229 102.365C50.4229 102.365 50.2825 99.2682 53.3009 98.6348C53.3009 98.6348 91.8386 93.4975 104.263 94.5531C104.263 94.5531 108.545 94.4827 108.475 99.5497L108.124 130.092C108.124 130.092 107.984 133.752 105.597 133.681L57.6531 135.089C57.6531 135.089 55.7578 134.807 54.6347 132.415L54.5645 132.344Z" fill="#023575"/>
<path d="M86.1806 112.559C86.1806 115.515 83.7939 117.908 80.8456 117.908C77.8974 117.908 75.5107 115.515 75.5107 112.559C75.5107 109.604 77.8974 107.211 80.8456 107.211C83.7939 107.211 86.1806 109.604 86.1806 112.559Z" fill="#63E6D6"/>
<path d="M75.3491 63.7977C75.3315 63.7935 75.3144 63.7873 75.2967 63.78C74.8592 63.5895 74.4689 63.2942 74.1669 62.9252C73.8482 62.5354 73.6977 62.1249 73.7324 61.7377C73.7838 61.1642 74.198 60.7646 74.6179 60.4049L75.9455 59.2673C76.0789 59.1526 76.2802 59.1681 76.3949 59.3015C76.5096 59.4354 76.4941 59.6368 76.3607 59.751L75.0336 60.8886C74.7134 61.1632 74.3983 61.459 74.3682 61.7943C74.3438 62.0689 74.5141 62.3413 74.6609 62.5209C74.8992 62.8115 75.2069 63.0446 75.5521 63.1946C75.7135 63.2652 75.7872 63.4525 75.7171 63.6144C75.6538 63.7593 75.4971 63.8335 75.3491 63.7977Z" fill="#023575"/>
<path d="M72.9444 67.1907C72.5628 67.0982 72.25 66.906 72.041 66.6262C71.9502 66.5057 71.9751 66.3344 72.0961 66.2441C72.2167 66.1534 72.3879 66.1783 72.4782 66.2993C72.71 66.6084 73.1904 66.7561 73.7634 66.6938C73.996 66.6685 74.226 66.6182 74.4693 66.5648C74.7829 66.4963 75.1077 66.4256 75.4449 66.4105C76.0285 66.3851 76.823 66.5897 77.1419 67.2508C77.2073 67.3864 77.1508 67.5497 77.0147 67.6155C76.879 67.6809 76.7157 67.6244 76.6499 67.4883C76.4462 67.0666 75.8866 66.938 75.4689 66.9567C75.1784 66.9696 74.8906 67.0323 74.5863 67.0986C74.3394 67.1529 74.0845 67.2085 73.8225 67.237C73.5045 67.2712 73.2082 67.2548 72.9444 67.1907Z" fill="#023575"/>
<path d="M71.1364 56.1865C70.8309 56.2225 70.6022 56.1287 70.6191 55.968C70.7061 55.1061 71.0457 54.2125 71.6294 53.3117C71.7432 53.1358 72.0854 52.9943 72.3943 52.9954C72.7022 52.9966 72.8592 53.1404 72.7454 53.3168C72.2037 54.153 71.888 54.9826 71.808 55.7824C71.7909 55.951 71.512 56.1289 71.1837 56.1802C71.167 56.1827 71.1513 56.185 71.1364 56.1865Z" fill="#023575"/>
<path d="M78.7036 56.7879C78.4035 56.8571 78.1656 56.7891 78.165 56.6278C78.1573 55.7634 78.3991 54.8382 78.8824 53.88C78.9766 53.6929 79.3037 53.5143 79.6085 53.4824C79.9152 53.4499 80.0879 53.5751 79.9929 53.763C79.5444 54.6525 79.3203 55.5111 79.3273 56.3134C79.3286 56.4826 79.0694 56.6902 78.7481 56.7771C78.7337 56.7807 78.7181 56.7843 78.7036 56.7879Z" fill="#023575"/>
<path d="M69.5102 52.5026C69.4158 52.4797 69.33 52.4205 69.2757 52.3303C69.167 52.1513 69.2244 51.9186 69.4035 51.8094C70.5046 51.1428 71.886 51.0002 73.1002 51.431C73.2977 51.5008 73.4008 51.7174 73.331 51.9149C73.2613 52.1118 73.044 52.2143 72.8471 52.1458C71.8453 51.7903 70.7052 51.9082 69.7966 52.4581C69.7065 52.5124 69.6041 52.5254 69.5102 52.5026Z" fill="#023575"/>
<path d="M81.2795 53.4997C81.2368 53.4892 81.1957 53.4702 81.1588 53.4417C80.6267 53.0325 79.9644 52.7926 79.2936 52.7657C79.2198 52.7625 79.1454 52.762 79.0711 52.7615C78.8438 52.7594 78.6175 52.7604 78.3676 52.6966C77.9262 52.5859 77.5987 52.2863 77.5123 51.9146C77.4722 51.74 77.5803 51.566 77.7548 51.5259C77.9294 51.4858 78.1034 51.594 78.1435 51.7685C78.1777 51.9183 78.3602 52.0269 78.5253 52.0686C78.685 52.1039 78.8786 52.1118 79.0769 52.1134C79.1581 52.1139 79.2393 52.115 79.32 52.1181C80.1226 52.1503 80.9162 52.4377 81.5538 52.9281C81.6956 53.0373 81.722 53.2403 81.6133 53.3821C81.5321 53.4871 81.4003 53.5293 81.2795 53.4997Z" fill="#023575"/>
</svg>
