<svg width="103" height="120" viewBox="0 0 103 120" fill="none" xmlns="http://www.w3.org/2000/svg">
<path d="M68.9935 5.47583C58.1256 0.474465 45.4634 -0.518933 33.9479 2.73031C27.7028 4.49338 21.4765 7.76456 18.2539 13.3948C10.3568 27.1881 24.2565 45.9311 16.8679 60.0028C13.8767 65.7003 7.94609 69.2843 4.39492 74.647C-1.11957 82.9806 0.2149 94.6603 6.0188 102.795C11.8227 110.93 21.3279 115.822 31.0881 117.968C40.8468 120.113 50.9622 119.789 60.9446 119.304C70.453 118.843 80.3056 118.148 88.6782 113.611C97.0493 109.076 103.513 99.5944 101.509 90.2863C100.083 83.6611 94.7919 78.4126 93.143 71.8374C91.3862 64.8321 93.9987 57.5889 95.4145 50.5069C99.2895 31.1209 86.036 13.3213 68.9935 5.47583Z" fill="#63E6D6"/>
<g clip-path="url(#clip0)">
<path d="M55.6819 77.0269L55.4585 78.9082C55.1362 81.6506 55.4535 84.4304 56.3856 87.0296L60.5263 98.5342C60.9147 99.6095 61.7138 100.487 62.7483 100.974C63.7828 101.461 64.9682 101.517 66.0444 101.131L81.2607 95.6547C82.3361 95.2663 83.2135 94.4672 83.7004 93.4327C84.1873 92.3982 84.244 91.2128 83.858 90.1366L79.2941 77.4563C78.1698 74.3323 76.6071 71.3839 74.6528 68.6998L65.7012 56.4039L64.2929 52.4911C64.0892 51.914 64.1085 51.2817 64.3471 50.7181C64.5856 50.1546 65.0261 49.7005 65.5822 49.445C65.8284 49.3328 66.0235 49.1321 66.1286 48.8827C66.2337 48.6333 66.2412 48.3535 66.1495 48.0989C65.4941 46.2842 64.1456 44.8037 62.3999 43.982C60.6542 43.1603 58.6538 43.0647 56.8377 43.7161L40.607 49.5579C40.3379 49.6547 40.1184 49.8544 39.9966 50.1132C39.8748 50.3719 39.8608 50.6684 39.9577 50.9374L41.4181 54.9951C41.5149 55.2641 41.7147 55.4837 41.9734 55.6054C42.2321 55.7272 42.5286 55.7412 42.7976 55.6444L45.8081 54.5609C46.6392 57.3962 46.7471 60.3945 46.1219 63.2823L45.1108 67.9545C45.0701 68.1426 45.0805 68.3382 45.1409 68.5209C45.2013 68.7036 45.3095 68.8668 45.4543 68.9936C45.5991 69.1204 45.7752 69.2061 45.9643 69.2419C46.1534 69.2776 46.3486 69.2621 46.5297 69.1969L50.5874 67.7365C50.7488 67.6784 50.8941 67.5826 51.0111 67.457C51.1281 67.3314 51.2134 67.1798 51.26 67.0146L52.2837 63.3831C52.738 61.7761 52.9696 60.1145 52.9721 58.4445L53.8339 60.8388C55.6917 66.0197 56.3242 71.5606 55.6819 77.0269ZM77.2652 78.1866L81.8291 90.8668C82.0221 91.4049 81.9937 91.9976 81.7503 92.5148C81.5068 93.0321 81.0682 93.4316 80.5305 93.6259L65.3142 99.1026C64.7761 99.2955 64.1834 99.2672 63.6662 99.0237C63.1489 98.7803 62.7494 98.3416 62.5552 97.804L58.4144 86.2994C57.5955 84.0154 57.3167 81.5728 57.5998 79.163L57.8231 77.2816C58.4618 71.8441 57.9124 66.3328 56.213 61.1284L64.3432 58.2021L72.9096 69.9689C74.7436 72.4878 76.2102 75.2547 77.2652 78.1866ZM63.3594 56.2646L55.4976 59.0942L54.7674 57.0653L62.6292 54.2357L63.3594 56.2646ZM63.7621 48.0452C63.1491 48.5299 62.6683 49.1612 62.3641 49.8809C62.0598 50.6007 61.942 51.3855 62.0214 52.1628L53.0228 55.4016L51.5623 51.3439C51.4655 51.0749 51.2657 50.8553 51.007 50.7336C50.7483 50.6118 50.4518 50.5978 50.1828 50.6946L47.1395 51.79L46.4093 49.7611L57.5679 45.7449C58.7059 45.337 59.9514 45.3441 61.0847 45.7649C62.218 46.1858 63.1662 46.9934 63.7621 48.0452ZM42.3516 51.2216L44.3805 50.4914L45.1107 52.5202L43.0818 53.2504L42.3516 51.2216ZM50.2084 62.798L49.3351 65.8955L47.6297 66.5093L48.2294 63.7383C48.941 60.4556 48.8078 57.0459 47.8424 53.8287L49.8986 53.0886C51.0057 56.2147 51.114 59.6077 50.2084 62.798Z" fill="#344964"/>
<path d="M70.9154 76.4623L61.7857 79.7483C61.248 79.9425 60.8094 80.3421 60.5659 80.8593C60.3225 81.3766 60.2941 81.9692 60.4871 82.5074L64.8684 94.6804C65.0626 95.218 65.4622 95.6567 65.9794 95.9002C66.4967 96.1436 67.0894 96.172 67.6275 95.979L76.7572 92.693C77.2949 92.4988 77.7336 92.0992 77.977 91.582C78.2205 91.0647 78.2488 90.472 78.0559 89.9339L73.6745 77.7609C73.4803 77.2232 73.0807 76.7846 72.5635 76.5411C72.0462 76.2977 71.4536 76.2693 70.9154 76.4623ZM76.027 90.6642L66.8973 93.9502L62.5159 81.7771L71.6457 78.4911L76.0283 90.6637L76.027 90.6642Z" fill="#344964"/>
<path d="M71.7376 78.3564L62.376 81.7657L66.774 94.0421L76.1462 90.7444L71.7376 78.3564Z" fill="white"/>
<path d="M24.8838 49.2363L25.5815 47.1954L28.0685 48.0456L27.3708 50.0865L24.8838 49.2363Z" fill="white"/>
<path d="M34.833 52.6348L35.5307 50.5939L38.0178 51.4441L37.3201 53.485L34.833 52.6348Z" fill="white"/>
<path d="M29.8584 50.9355L30.5561 48.8946L33.0431 49.7448L32.3454 51.7858L29.8584 50.9355Z" fill="white"/>
<path d="M32.7793 54.667L35.2516 53.7772L35.9818 55.806L33.5095 56.6958L32.7793 54.667Z" fill="white"/>
<path d="M27.834 56.4473L30.3063 55.5574L31.0365 57.5863L28.5642 58.4761L27.834 56.4473Z" fill="white"/>
<path d="M22.8896 58.2266L25.3619 57.3367L26.0921 59.3656L23.6199 60.2554L22.8896 58.2266Z" fill="white"/>
<path d="M30.8896 65.9102L32.2643 63.67L34.1027 64.7982L32.728 67.0383L30.8896 65.9102Z" fill="white"/>
<path d="M36.3857 56.9502L37.7605 54.71L39.5988 55.8381L38.2241 58.0783L36.3857 56.9502Z" fill="white"/>
<path d="M33.6377 61.4307L35.0124 59.1905L36.8507 60.3187L35.476 62.5588L33.6377 61.4307Z" fill="white"/>
<path d="M68.7939 69.2533C68.6801 69.3375 68.584 69.4433 68.5111 69.5647C68.4381 69.6861 68.3898 69.8206 68.3689 69.9606C68.348 70.1007 68.3548 70.2434 68.3891 70.3808C68.4233 70.5182 68.4843 70.6475 68.5685 70.7613L69.238 71.6662C69.3217 71.7812 69.4274 71.8785 69.549 71.9525C69.6705 72.0264 69.8055 72.0756 69.9461 72.0972C70.0867 72.1187 70.2303 72.1122 70.3684 72.0781C70.5065 72.0439 70.6365 71.9827 70.7508 71.8981C70.8652 71.8135 70.9617 71.707 71.0347 71.5849C71.1077 71.4628 71.1559 71.3275 71.1764 71.1867C71.1969 71.0459 71.1893 70.9024 71.154 70.7646C71.1188 70.6267 71.0567 70.4972 70.9712 70.3835L70.3017 69.4786C70.1316 69.2488 69.8772 69.096 69.5945 69.0537C69.3117 69.0115 69.0238 69.0833 68.7939 69.2533Z" fill="white"/>
<path d="M64.1074 62.9184C63.9936 63.0026 63.8975 63.1084 63.8245 63.2297C63.7516 63.3511 63.7033 63.4856 63.6824 63.6257C63.6615 63.7657 63.6683 63.9085 63.7026 64.0458C63.7368 64.1832 63.7978 64.3125 63.882 64.4263L66.5598 68.0459C66.6435 68.1609 66.7492 68.2582 66.8707 68.3321C66.9923 68.4061 67.1273 68.4553 67.2679 68.4769C67.4085 68.4984 67.552 68.4919 67.6901 68.4578C67.8283 68.4236 67.9582 68.3624 68.0726 68.2778C68.187 68.1932 68.2835 68.0867 68.3565 67.9646C68.4295 67.8425 68.4777 67.7072 68.4982 67.5664C68.5186 67.4256 68.511 67.2821 68.4758 67.1443C68.4406 67.0064 68.3784 66.8769 68.2929 66.7632L65.6152 63.1437C65.4451 62.9139 65.1907 62.761 64.9079 62.7188C64.6252 62.6765 64.3372 62.7483 64.1074 62.9184Z" fill="white"/>
</g>
<defs>
<clipPath id="clip0">
<rect x="13.9902" y="48.8262" width="69" height="69" transform="rotate(-19.7949 13.9902 48.8262)" fill="white"/>
</clipPath>
</defs>
</svg>
