<svg width="99" height="99" viewBox="0 0 99 99" fill="none" xmlns="http://www.w3.org/2000/svg">
<rect x="0.830078" y="0.564453" width="97.63" height="97.63" rx="48.815" fill="#B5BDBC"/>
<mask id="mask0" mask-type="alpha" maskUnits="userSpaceOnUse" x="0" y="0" width="99" height="99">
<rect x="0.830078" y="0.564453" width="97.63" height="97.63" rx="48.815" fill="#63E7D7"/>
</mask>
<g mask="url(#mask0)">
</g>
<path d="M79.1704 74.3937C71.8076 66.7 59.2548 66.1369 49.4064 70.1873C39.5581 74.2385 31.7783 81.9896 24.2793 89.5505C33.3485 95.8184 44.3697 99.7521 54.8162 96.2281C65.2609 92.7041 75.7513 84.8742 79.1704 74.3937Z" fill="white"/>
<path d="M51.1234 97.8068C40.6725 99.6145 30.7335 94.7688 23.9249 90.0639L23.3125 89.6406L23.8362 89.1125C30.9676 81.9228 39.0513 73.7745 49.1686 69.613C58.557 65.75 71.6138 65.5985 79.6195 73.9646L79.8777 74.2345L79.762 74.5887C76.0103 86.0897 64.5183 93.6139 55.0133 96.8205C53.714 97.258 52.4138 97.5826 51.1234 97.8068ZM25.2485 89.4577C32.6596 94.4451 43.5778 99.3644 54.6161 95.6386C63.7345 92.5621 74.7307 85.4199 78.4591 74.5573C70.8373 66.8879 58.5382 67.1049 49.643 70.7643C40.0053 74.7286 32.1682 82.4859 25.2485 89.4577Z" fill="#023575"/>
<path d="M35.5326 34.645C34.5777 30.2261 35.0314 25.514 36.814 21.3596C35.5488 17.5612 36.4975 13.0759 39.3346 10.2505C42.1709 7.42499 46.6481 6.38213 50.442 7.66171C54.2359 8.94129 57.1645 12.485 57.7088 16.4511C60.5925 16.6295 63.8063 17.0017 66.1996 18.6211C67.2666 19.3429 68.2718 20.2235 68.852 21.3748C69.4312 22.5253 69.5137 23.9896 68.8009 25.0629C69.7639 24.9168 71.221 25.3077 72.0074 25.8834C72.7929 26.4591 73.4063 27.2356 73.9793 28.0238C74.9872 29.4101 75.9287 30.9309 76.1233 32.6337C76.4246 35.2745 74.6285 38.0022 72.0837 38.7689C73.9909 40.5228 73.5058 43.6021 72.0944 45.7748C70.6821 47.9484 68.4476 49.4189 66.5 51.1298C62.8217 54.3597 60.0581 58.619 58.6055 63.2926C55.3074 60.9423 52.4506 57.9752 50.2259 54.5911L35.5326 34.645Z" fill="#344964"/>
<path d="M58.9057 64.1836L58.2861 63.7415C54.91 61.3348 52.0433 58.3586 49.7657 54.8938L35.0196 34.8769L34.9945 34.7613C34.0305 30.3029 34.469 25.5432 36.2274 21.3342C34.9765 17.325 36.057 12.7394 38.9462 9.86097C41.9331 6.88574 46.6273 5.79357 50.6184 7.1404C54.4697 8.44061 57.4611 11.9386 58.1847 15.9316C61.1447 16.136 64.1666 16.5808 66.5096 18.1661C67.9004 19.1077 68.8007 20.0483 69.345 21.1279C69.8974 22.2246 70.0041 23.4656 69.6723 24.5058C70.6102 24.5945 71.662 24.9478 72.3346 25.4401C73.2187 26.0866 73.8778 26.9466 74.4265 27.7007C75.4174 29.0637 76.4594 30.7082 76.6719 32.5715C76.9741 35.215 75.4129 37.8835 73.0277 38.9981C74.5288 41.0417 73.9047 44.0044 72.5587 46.0766C71.4621 47.7642 69.8991 49.0393 68.3882 50.2723C67.8825 50.6856 67.3588 51.1125 66.8665 51.5447C63.2403 54.7297 60.5664 58.8491 59.1343 63.4581L58.9057 64.1836ZM36.0463 34.4142L50.6687 54.2652C52.7481 57.4279 55.3144 60.1547 58.3166 62.4009C59.8571 57.8942 62.5499 53.8662 66.1357 50.7161C66.6424 50.2705 67.1741 49.8374 67.6879 49.4177C69.2006 48.1839 70.6282 47.0191 71.6307 45.4758C72.9183 43.4933 73.3595 40.692 71.7087 39.1748L70.9976 38.5202L71.923 38.2413C74.2069 37.5536 75.8442 35.0661 75.5734 32.6962C75.3887 31.0875 74.4373 29.5954 73.5317 28.3481C73.0322 27.6603 72.4359 26.8811 71.68 26.3287C70.9895 25.8239 69.6822 25.4876 68.8814 25.6087L67.652 25.7952L68.3398 24.7595C68.8913 23.9292 68.8984 22.698 68.3577 21.6238C67.9022 20.719 67.1176 19.9102 65.8891 19.079C63.6492 17.5627 60.6166 17.1852 57.6727 17.0022L57.2226 16.9744L57.1616 16.527C56.6433 12.7546 53.8716 9.40186 50.2642 8.18415C46.6586 6.96644 42.4191 7.9537 39.7218 10.6411C37.073 13.2801 36.1135 17.5169 37.3348 21.1862L37.4012 21.3844L37.3187 21.5772C35.5988 25.589 35.1478 30.1433 36.0463 34.4142Z" fill="#344964"/>
<path d="M34.7151 35.7983C33.136 40.5929 31.7461 45.6046 30.9373 50.5929C30.4002 53.9035 30.8808 57.709 33.0275 60.4646C35.7033 63.9007 40.2253 64.158 44.1914 64.809C44.6648 64.9238 44.6469 76.484 44.6549 77.7734C47.1711 79.6798 50.7677 80.1891 53.7869 79.2673C56.806 78.3446 59.3213 75.911 60.3426 72.9241C59.4809 68.8738 57.5225 61.1864 58.2174 56.6034C60.1435 57.1002 62.4229 56.4788 64.0316 55.3193C65.1238 54.5329 65.7972 53.2516 65.6546 51.9137C65.4367 49.8728 63.6532 49.0658 61.9961 49.0837C60.8959 49.0954 59.827 49.4263 58.7761 49.7536C60.174 44.3761 59.8701 42.7674 58.7788 37.32C58.4533 35.697 59.1661 34.0013 59.8647 32.3568C60.3256 31.2736 59.7615 30.0308 58.6452 29.6569C54.6235 28.3109 50.3696 26.7363 46.4421 25.4837C43.9833 24.699 41.1713 23.9467 38.9403 25.2451C37.8993 25.8513 36.9183 29.6856 36.461 30.8853C35.8413 32.5092 35.2585 34.1475 34.7151 35.7983Z" fill="white"/>
<path d="M48.0424 79.941C46.6777 79.6092 45.3963 79.0264 44.3221 78.2122L44.1059 78.0481L44.1024 77.1541C44.0791 68.6292 43.9132 66.0351 43.7885 65.3016C43.4128 65.2424 43.0326 65.1859 42.6497 65.1277C39.1015 64.5977 35.0798 63.996 32.5924 60.8029C30.5569 58.189 29.7553 54.4355 30.3928 50.5053C31.1129 46.0675 32.3548 41.2003 34.1912 35.6264L34.714 35.7986L34.1912 35.6264C34.7256 34.0016 35.3157 32.3409 35.9442 30.6901C36.042 30.4328 36.1702 30.0328 36.3191 29.5693C37.0597 27.2585 37.7466 25.3028 38.6612 24.7702C41.0617 23.3713 44.0226 24.1353 46.6077 24.9594C48.9104 25.6938 51.3611 26.551 53.7311 27.3804C55.4124 27.9687 57.1501 28.5766 58.818 29.1353C59.4968 29.3621 60.0545 29.8661 60.3487 30.518C60.641 31.1681 60.649 31.9168 60.3702 32.5723C59.7075 34.1307 59.0224 35.7421 59.3175 37.2118C60.3513 42.3705 60.7064 44.1414 59.5461 48.945C60.3307 48.7208 61.1404 48.5424 61.9896 48.5334C63.7677 48.5137 65.9368 49.3727 66.2023 51.8557C66.3601 53.3325 65.6517 54.8318 64.3542 55.7671C62.6872 56.9677 60.5307 57.5237 58.6916 57.2592C58.3051 61.1777 59.6196 67.0986 60.5038 71.0817C60.6428 71.7085 60.7719 72.2904 60.8822 72.8114L60.9145 72.9603L60.8652 73.1046C59.7864 76.2583 57.1367 78.8219 53.9498 79.7957C52.0408 80.3759 49.9596 80.4064 48.0424 79.941ZM45.2044 77.493C47.5071 79.1179 50.78 79.6092 53.6252 78.7404C56.4328 77.8831 58.775 75.6486 59.7712 72.8885C59.669 72.4097 59.5515 71.8833 59.4269 71.3193C58.4817 67.0573 57.0524 60.6173 57.6729 56.5212L57.7644 55.9177L58.3553 56.0701C59.9945 56.5014 62.1098 56.0271 63.7104 54.8739C64.6878 54.1691 65.2231 53.0581 65.1074 51.9731C64.9209 50.2264 63.3804 49.6202 62.0031 49.6364C60.9745 49.6471 59.9407 49.9699 58.9399 50.2811L57.9939 50.5761L58.2432 49.6175C59.6196 44.3217 59.2995 42.7238 58.2396 37.4306C57.8783 35.6273 58.6647 33.7765 59.3587 32.1437C59.5201 31.7644 59.5156 31.3483 59.3462 30.9726C59.1758 30.5942 58.8646 30.3135 58.471 30.1817C56.796 29.6213 55.0537 29.0115 53.3697 28.4224C51.0069 27.5956 48.5634 26.7411 46.2751 26.0112C43.8074 25.2248 41.2294 24.5541 39.2181 25.7242C38.5949 26.0865 37.7681 28.6672 37.3709 29.9073C37.2175 30.3861 37.0848 30.7995 36.9772 31.0847C36.3549 32.7202 35.7703 34.3657 35.2403 35.9743C33.4228 41.4935 32.1943 46.3051 31.4841 50.6846C30.895 54.3144 31.6168 57.7568 33.4649 60.1295C35.6815 62.9756 39.3086 63.5172 42.8156 64.0426C43.3097 64.1171 43.8011 64.1897 44.2835 64.2686L44.3238 64.2776C44.8888 64.4148 45.1721 64.4829 45.2062 77.155L45.2044 77.493Z" fill="#023575"/>
<path d="M37.0634 52.001C37.0329 51.9938 37.0033 51.9831 36.9728 51.9705C36.2169 51.6414 35.5426 51.1312 35.0207 50.4937C34.4702 49.8203 34.2101 49.111 34.2702 48.442C34.359 47.4512 35.0745 46.7607 35.8 46.1393L38.0937 44.1738C38.3242 43.9756 38.6721 44.0025 38.8702 44.233C39.0684 44.4643 39.0415 44.8122 38.8111 45.0095L36.5182 46.975C35.965 47.4494 35.4207 47.9605 35.3687 48.5398C35.3265 49.0141 35.6206 49.4849 35.8744 49.7951C36.286 50.2973 36.8177 50.6999 37.414 50.9591C37.6929 51.081 37.8202 51.4047 37.6992 51.6845C37.5898 51.9347 37.319 52.0629 37.0634 52.001Z" fill="#023575"/>
<path d="M36.8923 55.8796C36.1229 55.6931 35.4925 55.3058 35.0711 54.7417C34.8882 54.4987 34.9384 54.1535 35.1823 53.9715C35.4253 53.7886 35.7705 53.8388 35.9525 54.0827C36.4197 54.7059 37.3882 55.0036 38.5431 54.878C39.0121 54.8269 39.4756 54.7256 39.9661 54.618C40.5983 54.4799 41.2529 54.3373 41.9326 54.3068C43.1091 54.2557 44.7106 54.6682 45.3535 56.0007C45.4853 56.2742 45.3714 56.6033 45.097 56.736C44.8235 56.8678 44.4944 56.7539 44.3617 56.4795C43.9511 55.6295 42.823 55.3703 41.981 55.408C41.3955 55.434 40.8153 55.5604 40.202 55.694C39.7043 55.8034 39.1905 55.9155 38.6624 55.9729C38.0212 56.0419 37.424 56.0088 36.8923 55.8796Z" fill="#023575"/>
<path d="M37.9004 39.0415C37.6234 38.9742 37.4405 38.7034 37.488 38.4174C37.7399 36.8813 38.2215 35.3973 38.92 34.0065C39.0563 33.7348 39.3872 33.6255 39.6598 33.7618C39.9315 33.898 40.0409 34.2289 39.9046 34.5015C39.2562 35.7928 38.8088 37.1701 38.5757 38.5958C38.5263 38.8962 38.2439 39.0998 37.9435 39.0504C37.9282 39.0478 37.9139 39.0451 37.9004 39.0415Z" fill="#023575"/>
<path d="M47.5548 42.1264C47.2777 42.0592 47.0947 41.7884 47.1423 41.5023C47.3933 39.9672 47.8758 38.4823 48.5743 37.0915C48.7106 36.8198 49.0433 36.7104 49.3132 36.8467C49.5849 36.983 49.6952 37.3139 49.558 37.5865C48.9097 38.8777 48.4622 40.2559 48.2291 41.6808C48.1798 41.9812 47.8964 42.1847 47.596 42.1354C47.5825 42.1327 47.5682 42.1291 47.5548 42.1264Z" fill="#023575"/>
<path d="M38.4235 30.0295C38.2863 29.9963 38.1617 29.9102 38.0828 29.7793C37.925 29.5192 38.0084 29.1812 38.2684 29.0225C39.8681 28.054 41.8749 27.8469 43.6387 28.4728C43.9256 28.5741 44.0754 28.8889 43.9741 29.1758C43.8727 29.4619 43.5571 29.6107 43.2711 29.5112C41.8157 28.9947 40.1595 29.166 38.8396 29.9649C38.7087 30.0438 38.5598 30.0626 38.4235 30.0295Z" fill="#023575"/>
<path d="M53.2668 33.0658C53.1942 33.0479 53.1243 33.0156 53.0615 32.9672C52.1567 32.2713 51.0305 31.8634 49.8899 31.8176C49.7644 31.8122 49.6379 31.8114 49.5115 31.8105C49.125 31.8069 48.7403 31.8087 48.3153 31.7002C47.5648 31.5119 47.0079 31.0025 46.8609 30.3704C46.7927 30.0736 46.9765 29.7776 47.2733 29.7095C47.5701 29.6414 47.8661 29.8252 47.9342 30.122C47.9925 30.3766 48.3027 30.5614 48.5834 30.6322C48.8551 30.6923 49.1842 30.7057 49.5214 30.7084C49.6594 30.7093 49.7975 30.7111 49.9347 30.7165C51.2995 30.7712 52.649 31.2599 53.7331 32.0938C53.9743 32.2794 54.0192 32.6247 53.8344 32.8659C53.6964 33.0443 53.4722 33.116 53.2668 33.0658Z" fill="#023575"/>
<path d="M76.4991 23.0411C76.2725 23.0411 76.0858 22.9611 75.9391 22.8011C75.8058 22.6411 75.7391 22.4211 75.7391 22.1411C75.7391 21.4078 75.8725 20.7878 76.1391 20.2811C76.4058 19.7744 76.7925 19.2211 77.2991 18.6211C77.6991 18.1411 77.9925 17.7411 78.1791 17.4211C78.3658 17.1011 78.4591 16.7411 78.4591 16.3411C78.4591 15.9011 78.2925 15.5544 77.9591 15.3011C77.6391 15.0344 77.1991 14.9011 76.6391 14.9011C76.1591 14.9011 75.6991 15.0078 75.2591 15.2211C74.8191 15.4211 74.3058 15.7144 73.7191 16.1011C73.3858 16.2878 73.1125 16.3811 72.8991 16.3811C72.6725 16.3811 72.4725 16.2811 72.2991 16.0811C72.1391 15.8678 72.0591 15.6211 72.0591 15.3411C72.0591 14.9544 72.2191 14.6411 72.5391 14.4011C73.0991 13.9211 73.7591 13.5478 74.5191 13.2811C75.2791 13.0011 76.0458 12.8611 76.8191 12.8611C77.6325 12.8611 78.3525 13.0011 78.9791 13.2811C79.6191 13.5611 80.1125 13.9478 80.4591 14.4411C80.8191 14.9344 80.9991 15.5011 80.9991 16.1411C80.9991 16.8344 80.8325 17.4411 80.4991 17.9611C80.1658 18.4678 79.6791 19.0411 79.0391 19.6811C78.4925 20.2411 78.0791 20.7144 77.7991 21.1011C77.5325 21.4744 77.3658 21.9011 77.2991 22.3811C77.2591 22.5944 77.1658 22.7611 77.0191 22.8811C76.8858 22.9878 76.7125 23.0411 76.4991 23.0411ZM76.5391 27.2411C76.1125 27.2411 75.7591 27.1011 75.4791 26.8211C75.1991 26.5278 75.0591 26.1678 75.0591 25.7411C75.0591 25.3144 75.1991 24.9611 75.4791 24.6811C75.7591 24.3878 76.1125 24.2411 76.5391 24.2411C76.9658 24.2411 77.3191 24.3878 77.5991 24.6811C77.8791 24.9611 78.0191 25.3144 78.0191 25.7411C78.0191 26.1678 77.8725 26.5278 77.5791 26.8211C77.2991 27.1011 76.9525 27.2411 76.5391 27.2411Z" fill="#344964"/>
</svg>
