<svg width="98" height="116" viewBox="0 0 98 116" fill="none" xmlns="http://www.w3.org/2000/svg">
<path d="M20.7684 5.02527C16.3613 8.03685 13.0467 12.8229 12.431 18.125C11.563 25.5976 15.9032 33.4189 13.2394 40.4546C10.8828 46.6787 3.76375 50.0749 1.27397 56.2458C-0.199974 59.8976 0.172391 64.0565 1.26009 67.8414C4.83593 80.2821 15.7023 89.659 27.7984 94.2686C39.8945 98.8783 53.1576 99.3405 66.0924 98.8252C71.5431 98.6072 77.0967 98.203 82.1522 96.1541C87.2902 94.0718 91.7243 90.2951 94.5987 85.5557C95.8962 83.4154 96.8957 81.0268 97.006 78.5265C97.2011 74.0809 94.6256 70.0413 93.4497 65.7493C90.0462 53.3273 98.5444 40.5951 97.8797 27.7322C97.6903 24.06 96.7373 20.4286 95.1 17.1345C93.5526 14.0225 91.3478 11.1709 88.4252 9.29113C80.3574 4.1009 70.0887 7.26845 61.2181 5.23351C56.7661 4.21277 52.8995 1.25673 48.3707 0.605906C44.5785 0.0612407 40.2563 0.507075 36.4379 0.556887C30.9333 0.627931 25.3658 1.88386 20.7684 5.02527Z" fill="#63E7D7"/>
<path d="M87.3805 91.7558C85.4648 81.4758 78.1514 68.6194 76.7959 69.7781C75.5914 70.807 73.79 72.0319 72.6851 73.2086C71.6611 74.2996 70.6404 75.5392 70.3228 77.1519C70.1047 78.2609 70.2427 79.4351 70.3824 80.5767C71.101 86.4529 71.8188 92.3299 72.5431 98.2044C72.6745 99.2725 72.8109 100.359 73.198 101.343C74.0962 103.627 76.7934 104.918 78.7344 105.129C80.958 105.371 83.4429 104.461 85.2173 102.94C88.2363 100.355 88.1334 95.7947 87.3805 91.7558Z" fill="white"/>
<path d="M79.454 105.791C79.1886 105.791 78.9257 105.777 78.6668 105.749C76.3796 105.5 73.5672 103.986 72.6167 101.571C72.197 100.504 72.0582 99.3747 71.9234 98.2813C71.1999 92.4068 70.4813 86.5298 69.7627 80.6528C69.6255 79.5283 69.4696 78.2536 69.7105 77.0304C70.0526 75.291 71.1232 73.96 72.2288 72.7809C72.9785 71.9822 73.9943 71.195 74.9758 70.4332C75.4903 70.0339 75.977 69.6558 76.3893 69.3022C76.6547 69.0768 77.0157 69.0196 77.3799 69.1495C79.77 69.9938 86.235 82.2076 87.9923 91.6408C89.0448 97.2932 88.2699 101.144 85.6217 103.413C83.8701 104.917 81.5698 105.791 79.454 105.791ZM77.0663 70.3662C76.6645 70.7026 76.2154 71.0513 75.7426 71.418C74.7986 72.1504 73.8228 72.9074 73.1401 73.635C72.2288 74.6067 71.2318 75.7696 70.9354 77.2721C70.7328 78.2986 70.87 79.4181 71.0023 80.5017C71.7201 86.3771 72.4387 92.254 73.1622 98.1286C73.2871 99.1444 73.417 100.195 73.7787 101.114C74.539 103.047 76.934 104.305 78.8016 104.508C80.7891 104.725 83.0895 103.94 84.8108 102.465C87.0916 100.511 87.731 97.0458 86.7674 91.8686V91.8694C85.028 82.5326 78.764 71.2359 77.0663 70.3662Z" fill="#023575"/>
<path d="M67.1032 93.685C66.788 93.0497 66.4042 92.4078 65.9445 91.7603C59.3285 82.4365 50.8114 78.2939 42.483 76.7971C37.9657 75.9854 33.4663 75.8637 29.0036 75.9781C24.5058 76.0932 18.8452 75.4261 15.7365 80.4546C13.1332 84.6674 14.4536 90.92 16.7417 95.7844C21.9442 106.845 30.7454 112.013 38.8811 113.766C48.1208 115.757 60.3876 114.996 66.4573 104.637C68.1827 101.692 69.0034 97.5148 67.1032 93.685Z" fill="white"/>
<path d="M46.7677 115.225C43.3037 115.225 40.3681 114.724 38.7504 114.375C32.9527 113.126 22.3101 109.084 16.1783 96.0503C13.2525 89.8296 12.8891 83.8766 15.2066 80.1269C18.1193 75.4135 23.2214 75.3906 27.3206 75.3735C27.889 75.3702 28.4475 75.3678 28.9881 75.3547C34.4364 75.2184 38.6329 75.4723 42.5933 76.1835C52.5287 77.9694 60.5566 83.0878 66.4532 91.3999C66.9203 92.0589 67.327 92.735 67.6618 93.4095C69.4125 96.938 69.1627 101.254 66.9954 104.954C62.0681 113.362 53.4401 115.225 46.7677 115.225ZM31.7212 76.5649C30.8548 76.5649 29.9566 76.5771 29.02 76.6008C28.4704 76.6155 27.9037 76.618 27.3264 76.6196C23.143 76.6376 18.8175 76.6572 16.2681 80.7818C14.1736 84.1714 14.5614 89.6801 17.3068 95.5187C23.2099 108.066 33.4402 111.954 39.0134 113.155C43.5406 114.131 58.8573 116.375 65.9192 104.322C67.8741 100.986 68.1076 97.1135 66.5447 93.9623C66.2393 93.3458 65.8661 92.726 65.4366 92.1209C59.7351 84.0849 51.9759 79.1355 42.3736 77.4101C39.1759 76.8352 35.8115 76.5649 31.7212 76.5649Z" fill="#023575"/>
<path d="M37.5794 66.2221C33.4131 59.5857 31.032 51.8412 30.7511 44.0101C27.7893 40.1207 25.8082 35.1852 25.9724 30.2995C26.1373 25.4147 29.4976 20.4107 34.3318 19.6855C36.4688 19.3646 38.6475 19.8725 40.8033 19.7231C43.9455 19.5051 46.8117 17.9193 49.5065 16.2885C52.202 14.6586 54.9278 12.9119 58.0202 12.3134C61.1126 11.714 64.7203 12.551 66.4523 15.182C67.2428 16.3832 67.5768 17.8376 68.355 19.047C69.3929 20.6605 71.1175 21.687 72.8201 22.5722C74.5227 23.4565 76.3077 24.2878 77.6371 25.6711C78.9665 27.0544 79.7472 29.1678 78.9886 30.93C78.0716 33.0588 75.1482 34.3776 75.4291 36.6788C75.6545 38.5283 77.9548 39.6258 78.101 41.4836C78.221 43.0114 76.8442 44.1914 75.6047 45.0929C69.0425 49.8626 62.4796 54.6323 55.9175 59.4003C53.2375 61.3487 50.5248 63.3151 47.4666 64.5898C44.4093 65.8661 40.7404 67.2167 37.5794 66.2221Z" fill="#344964"/>
<path d="M68.1911 45.1033C68.6296 50.5769 68.8109 56.2318 68.3854 61.7135C68.1029 65.3506 66.6167 69.2498 63.641 71.6122C59.9305 74.5569 55.0832 73.6684 50.7242 73.3377C50.1943 73.3377 47.2448 85.5628 46.9042 86.9233C43.7555 88.2927 39.822 87.9072 36.8675 86.1573C33.9131 84.4065 31.879 81.1884 31.5662 77.7685C33.5171 73.7084 37.5608 66.0839 38.0042 61.0611C35.8403 61.0913 33.5898 59.8493 32.1869 58.2112C31.2347 57.099 30.8517 55.5728 31.3466 54.1944C32.1003 52.0925 34.1932 51.6972 35.9407 52.1423C37.1011 52.4371 38.1463 53.0609 39.1728 53.6767C39.0764 47.6339 39.8097 46.0105 42.3632 40.532C43.1242 38.8997 42.8058 36.9235 42.4898 35.0062C42.2815 33.7421 43.1961 32.5736 44.4724 32.465C49.0698 32.0754 53.9702 31.5022 58.4443 31.187C61.2452 30.9902 64.4111 30.9167 66.4354 32.8626C67.3802 33.7707 67.4333 38.0757 67.608 39.4615C67.8448 41.3364 68.04 43.2178 68.1911 45.1033Z" fill="white"/>
<path d="M42.7667 88.3691C40.6158 88.3691 38.4192 87.8016 36.5492 86.6943C33.4225 84.8414 31.2757 81.4436 30.9441 77.8253L30.9286 77.6538L31.0029 77.4995C31.2544 76.976 31.5394 76.3954 31.8473 75.7683C33.7998 71.7948 36.7011 65.89 37.3062 61.6544C35.2957 61.4551 33.1644 60.3119 31.7117 58.6175C30.5742 57.2889 30.2092 55.5128 30.758 53.9833C31.6807 51.4119 34.2097 51.0591 36.0936 51.5385C36.9779 51.7622 37.7782 52.1517 38.5409 52.5821C38.5588 47.2171 39.4465 45.3128 41.7966 40.2687C42.4817 38.7989 42.1722 36.9223 41.8725 35.1087C41.7452 34.337 41.9477 33.54 42.4286 32.9227C42.9104 32.3037 43.6364 31.9109 44.4187 31.8448C46.3254 31.6831 48.2852 31.4896 50.245 31.2969C52.9643 31.0282 55.775 30.7506 58.3995 30.566C61.3498 30.357 64.6799 30.3104 66.8667 32.4123C67.7029 33.2158 67.9274 35.4639 68.1177 38.1023C68.1553 38.6274 68.1871 39.0781 68.2263 39.3835C68.4656 41.287 68.6632 43.1954 68.8118 45.0531C69.3214 51.4184 69.3851 56.8831 69.0062 61.7614C68.6697 66.0876 66.8553 69.8562 64.0274 72.101C60.5708 74.8439 56.1596 74.4479 52.2677 74.0951C51.8553 74.0583 51.4446 74.0216 51.0379 73.9881C50.7146 74.7508 49.8702 77.4684 47.6703 86.4182L47.4335 87.3728L47.151 87.4953C45.8052 88.0816 44.2978 88.3691 42.7667 88.3691ZM32.2041 77.8816C32.5496 81.0443 34.4465 83.9979 37.1853 85.6213C39.9601 87.2651 43.531 87.586 46.3736 86.4681L46.4585 86.1202C49.7535 72.7134 50.0572 72.7134 50.7227 72.7134C51.3001 72.7559 51.8382 72.8032 52.3796 72.8531C56.2176 73.1993 60.1854 73.557 63.2517 71.1235C65.8092 69.0943 67.453 65.6467 67.7617 61.665C68.1357 56.8528 68.072 51.4519 67.5682 45.1527C67.4203 43.313 67.226 41.425 66.9884 39.5395C66.9484 39.2178 66.9132 38.7433 66.8732 38.1913C66.772 36.7811 66.5613 33.8495 66.0028 33.3114C64.1842 31.5639 61.2935 31.6121 58.4877 31.8097C55.8811 31.9942 53.0786 32.2702 50.3683 32.5381C48.4028 32.7316 46.4381 32.926 44.5248 33.0876C44.0814 33.1252 43.687 33.3391 43.4143 33.6886C43.1432 34.0373 43.0337 34.4693 43.1056 34.9046C43.4208 36.8129 43.7777 38.9752 42.9292 40.7962C40.3864 46.2543 39.7021 47.7201 39.7976 53.6673L39.8156 54.7901L38.8528 54.212C37.877 53.6265 36.8677 53.0214 35.7881 52.747C34.3436 52.3796 32.5732 52.6221 31.9347 54.4047C31.537 55.5128 31.8154 56.8161 32.6622 57.805C34.0366 59.4104 36.0952 60.4377 37.9268 60.4377C37.9497 60.4377 37.9733 60.4377 37.9962 60.4368L38.687 60.427L38.6258 61.1154C38.2297 65.6107 35.0638 72.0544 32.9685 76.3179C32.6925 76.8797 32.4344 77.4031 32.2041 77.8816Z" fill="#023575"/>
<path d="M52.2251 48.5606C50.6221 48.5606 49.0494 47.557 48.49 46.1402C48.3634 45.8201 48.5211 45.4575 48.8412 45.3318C49.1629 45.2044 49.5238 45.362 49.6504 45.6829C50.044 46.68 51.2542 47.3961 52.4137 47.3063C53.5643 47.2206 54.634 46.3419 54.8496 45.3073C54.919 44.9692 55.2481 44.7553 55.587 44.8231C55.9242 44.8941 56.1406 45.224 56.0704 45.5604C55.743 47.1381 54.2102 48.4226 52.506 48.55C52.4137 48.5573 52.3198 48.5606 52.2251 48.5606Z" fill="#023575"/>
<path d="M63.6347 48.0015C62.1207 48.0015 60.6419 46.993 60.1193 45.5672C60.0009 45.2438 60.1666 44.8854 60.4908 44.7678C60.8142 44.6477 61.1727 44.8143 61.2911 45.1385C61.6528 46.1249 62.7577 46.837 63.8045 46.748C64.8522 46.6631 65.8289 45.7893 66.0289 44.7572C66.0943 44.4183 66.4185 44.1953 66.7598 44.2631C67.0979 44.3284 67.3191 44.6551 67.2538 44.994C66.9484 46.5749 65.5088 47.8634 63.905 47.9925C63.8143 47.9982 63.7245 48.0015 63.6347 48.0015Z" fill="#023575"/>
<path d="M47.851 39.9037C47.7717 39.9037 47.6934 39.902 47.6141 39.9004C47.2704 39.8898 46.9992 39.6023 47.009 39.2586C47.0188 38.914 47.2891 38.6543 47.6509 38.6526C49.9676 38.7408 52.2736 37.6278 53.6887 35.8019C53.9002 35.5284 54.2922 35.4794 54.5641 35.6909C54.8361 35.9024 54.8867 36.2935 54.6752 36.5654C53.0681 38.6396 50.4722 39.9037 47.851 39.9037Z" fill="#023575"/>
<path d="M64.6142 38.5244C62.7393 38.5244 60.8481 37.8613 59.406 36.6715C59.1398 36.4519 59.1022 36.0599 59.321 35.7937C59.5407 35.5283 59.9335 35.4916 60.1997 35.7088C61.6336 36.8912 63.5902 37.4604 65.434 37.2244C65.7762 37.1852 66.0881 37.4228 66.1314 37.7649C66.1747 38.1063 65.9321 38.419 65.5908 38.4623C65.2666 38.5048 64.9408 38.5244 64.6142 38.5244Z" fill="#023575"/>
<path d="M42.6541 52.2046C41.7591 52.9469 41.2218 54.0795 41.4954 55.8188C41.7575 57.4871 42.8746 58.7088 43.8921 59.1767C47.2809 60.7347 50.8192 60.8229 53.9598 59.4249C55.0622 58.9341 56.2038 58.004 56.3124 56.0369C56.4594 53.3732 54.6743 51.6004 53.1595 50.9659C51.5435 50.2889 49.7846 50.3746 48.2053 50.5551C46.3745 50.7633 44.2171 50.9087 42.6541 52.2046Z" fill="#FF8A65"/>
<path d="M68.0048 50.8125C67.2903 51.0387 66.664 51.5009 66.0711 51.9925C65.1761 52.7348 64.6388 53.8674 64.9124 55.6067C65.1753 57.2758 66.2924 58.4974 67.3099 58.9645C67.79 59.1858 67.5761 59.1205 68.0603 59.2822C68.1926 56.3833 68.1502 54.0593 68.0048 50.8125Z" fill="#FF8A65"/>
<path d="M61.5462 61.6518C61.2481 61.6518 60.9844 61.4379 60.9321 61.1349C60.8733 60.7952 61.1003 60.4718 61.44 60.413C62.1317 60.293 62.7939 60.0056 63.3558 59.5817C63.7004 59.3221 64.1274 58.9056 64.2034 58.4009C64.2956 57.7844 63.8547 57.1091 63.3941 56.4697L61.4743 53.8027C61.2726 53.5227 61.3363 53.1331 61.6156 52.9323C61.8957 52.7306 62.2852 52.7943 62.4869 53.0744L64.4067 55.7421C65.0167 56.589 65.5989 57.5068 65.4364 58.5871C65.327 59.3155 64.8673 60.0039 64.107 60.578C63.3884 61.1202 62.54 61.4877 61.6532 61.6428C61.6181 61.6485 61.5821 61.6518 61.5462 61.6518Z" fill="#023575"/>
<path d="M57.0407 69.4312C55.9587 69.4312 55.4451 68.9756 55.2025 68.5804C54.7804 67.8912 54.8833 66.899 55.4859 65.8587C56.3646 64.3406 57.7119 63.3444 59.2798 63.0521C60.3887 62.8479 61.3547 63.1329 61.8651 63.8156C62.4032 64.5342 62.3755 65.5802 61.7924 66.614C60.8836 68.2243 59.1042 69.3275 57.2571 69.4255C57.1828 69.4296 57.1101 69.4312 57.0407 69.4312ZM59.5076 64.2794C58.3039 64.5023 57.2587 65.2854 56.5654 66.4834C56.1678 67.1701 56.1286 67.7042 56.2666 67.9287C56.4209 68.1819 56.9117 68.1941 57.1909 68.1794C58.6216 68.1035 60.0008 67.2485 60.7047 66.0008C60.9505 65.5663 61.14 64.9294 60.8656 64.5636C60.6067 64.2149 59.9943 64.1904 59.5076 64.2794Z" fill="#023575"/>
<path d="M65.2571 75.9595C64.0919 76.4282 62.7118 75.6181 62.1762 74.4831C61.6397 73.3472 61.7581 72.0145 62.0373 70.7897C62.7151 67.8165 64.6423 64.791 67.6351 64.2055C69.3189 63.8764 71.0802 64.3843 72.5591 65.254C74.0379 66.1236 75.2816 67.3347 76.5089 68.5334C77.666 69.6636 78.5675 71.0648 79.3466 72.4824C80.1264 73.8992 80.6245 75.5177 80.4743 77.1272C80.3216 78.7547 79.4838 80.3078 78.2066 81.3285C76.9303 82.3493 75.231 82.8237 73.61 82.6138L65.2571 75.9595Z" fill="white"/>
<path d="M74.3847 83.2871C74.0997 83.2871 73.8139 83.2692 73.5305 83.2316C73.417 83.2169 73.3109 83.172 73.2218 83.1018L65.127 76.6532C63.7029 76.9888 62.2036 76.0007 61.6124 74.7505C61.0979 73.6612 61.04 72.3587 61.4287 70.6504C62.0746 67.8185 64.0556 64.2704 67.5147 63.5926C69.1838 63.266 71.0881 63.6645 72.8748 64.7154C74.4279 65.6292 75.7075 66.8786 76.9447 68.0871C78.292 69.4019 79.2728 71.0538 79.8926 72.1807C80.8267 73.8792 81.2416 75.6104 81.0946 77.1856C80.9255 78.9951 80.0142 80.6814 78.595 81.8156C77.402 82.7702 75.9035 83.2871 74.3847 83.2871ZM73.8588 82.0141C75.256 82.1464 76.7234 81.716 77.8176 80.8398C78.9567 79.931 79.7178 78.5207 79.8534 77.0696C79.9775 75.7435 79.6133 74.2606 78.8 72.7817C78.2177 71.7242 77.3023 70.1784 76.0734 68.9805C74.8893 67.8242 73.6652 66.6287 72.2427 65.7925C70.719 64.8951 69.1266 64.5505 67.754 64.8183C64.8828 65.3802 63.2072 68.4612 62.6446 70.9289C62.3212 72.3489 62.3506 73.3942 62.7393 74.2165C63.1304 75.0445 64.1651 75.7247 65.0233 75.3801C65.2315 75.2952 65.4675 75.3303 65.6447 75.4708L73.8588 82.0141Z" fill="#023575"/>
<path d="M68.5005 69.3838C67.1523 70.883 66.183 72.7204 65.7086 74.6794C65.5216 75.4486 65.4138 76.2725 65.6743 77.0197C65.9348 77.7669 66.6607 78.4006 67.4479 78.3238" fill="white"/>
<path d="M67.31 78.9553C66.2443 78.9553 65.3943 78.1117 65.0848 77.2265C64.7524 76.2744 64.9198 75.2871 65.1019 74.5342C65.6017 72.4707 66.6167 70.5452 68.0367 68.9667C68.2678 68.7103 68.6614 68.6891 68.9178 68.9202C69.1734 69.1505 69.1947 69.5449 68.9644 69.8013C67.6823 71.2262 66.7661 72.9639 66.3146 74.8274C66.1725 75.4145 66.0377 76.1707 66.2631 76.815C66.4289 77.2902 66.8968 77.7565 67.3867 77.7042C67.7346 77.6716 68.0351 77.9223 68.0678 78.2652C68.1012 78.6082 67.8506 78.9128 67.5076 78.9463C67.4414 78.952 67.3745 78.9553 67.31 78.9553Z" fill="#023575"/>
<path d="M70.562 72.1406C69.2138 73.6399 68.2445 75.478 67.7701 77.437C67.5831 78.2062 67.4753 79.0302 67.7358 79.7774C67.9963 80.5245 68.7222 81.1574 69.5094 81.0806" fill="white"/>
<path d="M69.3709 81.7122C68.3061 81.7122 67.456 80.8695 67.1465 79.9843C66.8142 79.0306 66.9808 78.0441 67.1637 77.2912C67.6634 75.2285 68.6785 73.303 70.0985 71.7246C70.3296 71.4681 70.724 71.4469 70.9796 71.678C71.2352 71.9083 71.2564 72.3027 71.0262 72.5591C69.7441 73.9841 68.8279 75.7226 68.3763 77.5852C68.2342 78.1715 68.1003 78.9277 68.3249 79.5736C68.4907 80.0472 68.9553 80.5127 69.4477 80.4612C69.7947 80.431 70.0961 80.6785 70.1295 81.0214C70.1638 81.3644 69.9123 81.6698 69.5694 81.7033C69.5032 81.709 69.4371 81.7122 69.3709 81.7122Z" fill="#023575"/>
<path d="M72.5208 73.7773C71.1726 75.2766 70.2033 77.1139 69.7288 79.0729C69.5427 79.8421 69.434 80.6661 69.6945 81.4133C69.955 82.1604 70.681 82.7941 71.4682 82.7174C72.778 82.5892 74.278 82.3703 75.3298 81.5807C75.2563 80.9486 74.8815 80.2121 74.2797 80.0022C73.7881 80.1541 73.1536 80.132 72.662 80.2839C74.1123 80.03 75.4147 78.6916 75.81 77.2732" fill="white"/>
<path d="M71.3291 83.3474C70.2643 83.3474 69.4142 82.5055 69.1055 81.6203C68.7732 80.6657 68.9398 79.6793 69.1227 78.9272C69.6232 76.8637 70.6374 74.9381 72.0575 73.3597C72.2878 73.1041 72.6822 73.0829 72.9386 73.3131C73.1942 73.5434 73.2154 73.9378 72.9851 74.1942C71.7031 75.6192 70.7869 77.3577 70.3353 79.2203C70.1932 79.8075 70.0593 80.5628 70.2839 81.2087C70.4496 81.6823 70.9135 82.1494 71.4075 82.0964C72.5687 81.9829 73.7503 81.804 74.6298 81.2969C74.5375 81.0234 74.3831 80.789 74.2108 80.6657C73.9887 80.7131 73.7634 80.7392 73.5429 80.7637C73.3967 80.7808 73.2554 80.7972 73.1256 80.8184C73.0072 80.8511 72.8888 80.878 72.7696 80.9001C72.4446 80.954 72.1326 80.7506 72.055 80.4313C71.9783 80.1104 72.1628 79.7862 72.478 79.6899C72.5989 79.6515 72.7222 79.6237 72.8471 79.6017C73.903 79.2816 74.8878 78.26 75.2095 77.1078C75.3018 76.7763 75.6456 76.5803 75.9779 76.675C76.3095 76.7673 76.5038 77.1111 76.4115 77.4426C76.1715 78.3041 75.6668 79.0979 75.0184 79.7119C75.5647 80.148 75.8759 80.8723 75.9494 81.5101C75.9747 81.7305 75.8816 81.9477 75.7044 82.08C74.5595 82.9399 73.0211 83.193 71.5283 83.3384C71.4614 83.3449 71.3944 83.3474 71.3291 83.3474Z" fill="#023575"/>
<path d="M79.7244 63.5381L72.5801 62.439L72.7695 61.2052L77.7638 61.9736L76.4515 58.6582H84.2753V59.9068H78.2872L79.7244 63.5381Z" fill="#023575"/>
<path d="M61.191 87.8804L59.9326 82.0377H62.7735L61.2163 77.8666L62.3848 77.4297L64.5717 83.2854H61.4776L62.4101 87.6175L61.191 87.8804Z" fill="#023575"/>
</svg>
