<?xml version="1.0" encoding="UTF-8"?> <svg xmlns="http://www.w3.org/2000/svg" xmlns:xlink="http://www.w3.org/1999/xlink" width="727px" height="679px" viewBox="0 0 727 679"><!-- Generator: Sketch 64 (93537) - https://sketch.com --><title>Conductor Illustrations2_Home - Left</title><desc>Created with Sketch.</desc><g id="Page-1" stroke="none" stroke-width="1" fill="none" fill-rule="evenodd"><g id="Conductor-Illustrations2_Home---Left"><g id="Layer_7" transform="translate(19.000000, 0.000000)" fill="#FFFFFF" fill-rule="nonzero"><rect id="Rectangle" x="0.16" y="0.87" width="705.5" height="674.88"></rect></g><g id="Layer_6" transform="translate(0.000000, 8.000000)"><polygon id="Path" stroke="#231F20" stroke-width="3" stroke-linecap="round" points="292.15 129.7 280.54 141.32 277.77 138.5 289.39 126.89"></polygon><rect id="Rectangle" stroke="#231F20" stroke-width="3" stroke-linecap="round" x="425.21" y="384.35" width="186.74" height="283.67"></rect><polygon id="Path" stroke="#231F20" stroke-width="3" fill="#992FB2" fill-rule="nonzero" stroke-linecap="round" points="612.01 414.74 425.27 414.74 425.16 384.35 611.9 384.35"></polygon><rect id="Rectangle" stroke="#231F20" stroke-width="3" fill="#231F20" fill-rule="nonzero" stroke-linecap="round" x="489.61" y="384.35" width="186.74" height="283.67"></rect><g id="Group" transform="translate(423.000000, 390.000000)" stroke="#231F20" stroke-linecap="round" stroke-width="3"><path d="M10.35,0.48 C13.18,0.48 15.48,4.53 15.48,9.54 C15.48,14.55 13.18,18.6 10.35,18.6" id="Path"></path><ellipse id="Oval" fill="#FFFFFF" fill-rule="nonzero" cx="5.2" cy="9.54" rx="5.13" ry="9.06"></ellipse></g><g id="Group" transform="translate(436.000000, 390.000000)" stroke="#231F20" stroke-linecap="round" stroke-width="3"><path d="M10.3,0.48 C13.13,0.48 15.43,4.53 15.43,9.54 C15.43,14.55 13.13,18.6 10.3,18.6" id="Path"></path><ellipse id="Oval" fill="#FFFFFF" fill-rule="nonzero" cx="5.15" cy="9.54" rx="5.13" ry="9.06"></ellipse></g><g id="Group" transform="translate(469.000000, 390.000000)" stroke="#231F20" stroke-linecap="round" stroke-width="3"><path d="M10.54,0.48 C13.37,0.48 15.67,4.53 15.67,9.54 C15.67,14.55 13.37,18.6 10.54,18.6" id="Path"></path><ellipse id="Oval" fill="#FFFFFF" fill-rule="nonzero" cx="5.39" cy="9.54" rx="5.13" ry="9.06"></ellipse></g><circle id="Oval" stroke="#231F20" stroke-width="3" stroke-linecap="round" cx="342.4" cy="125.08" r="1"></circle><circle id="Oval" stroke="#231F20" stroke-width="3" stroke-linecap="round" cx="318.55" cy="130.84" r="1"></circle><path d="M322.97,121.14 C323,121.76 322.12,122.34 320.75,122.98 C319.38,123.61 317.48,124.33 315.35,125.05 C313.22,125.78 311.28,126.36 309.8,126.69 C308.33,127.01 307.28,127.09 306.92,126.59 C306.57,126.11 307.08,125.05 308.35,123.94 C309.61,122.82 311.59,121.68 313.93,120.88 C316.27,120.09 318.54,119.78 320.22,119.91 C321.9,120.02 322.94,120.54 322.97,121.14 Z" id="Path" fill="#000000" fill-rule="nonzero"></path><path d="M349.47,118.29 C349.07,118.78 348.14,118.72 346.88,118.79 C345.61,118.82 343.85,118.96 341.81,119.16 C337.71,119.59 334.21,120.08 333.7,118.98 C333.16,117.9 336.44,115.31 341.36,114.78 C343.8,114.53 346.18,114.9 347.74,115.79 C349.34,116.68 349.85,117.86 349.47,118.29 Z" id="Path" fill="#000000" fill-rule="nonzero"></path><path d="M331.4,125.9 L338.21,139.48 C338.91,140.87 338.39,142.55 337.05,143.32 C334.9,144.56 331.82,146.09 330.26,145.67" id="Path" stroke="#231F20" stroke-width="3" stroke-linecap="round"></path><path d="M304.2,121.14 C304.2,121.14 337.86,108.29 353.19,112.4 C353.19,112.4 354.61,85.44 339.17,85.44 C328.61,85.44 304.52,79.89 300.44,95.08 C296.38,110.26 304.2,121.14 304.2,121.14 Z" id="Path" stroke="#000000" fill="#000000" fill-rule="nonzero" stroke-linecap="round" stroke-linejoin="round"></path><path d="M347.85,95.74 C342.75,80.47 324.04,72.96 306.05,78.96 C288.06,84.96 277.62,102.21 282.72,117.48 C284.16,121.8 286.19,125.24 288.93,128.88 C289.29,129.36 289.71,129.86 290.3,129.99 C290.88,130.11 291.47,129.82 291.96,129.48 C295.02,127.38 296.25,123.53 298.41,120.52 C302.45,114.89 309.57,112.43 316.37,111.06 C324.25,109.47 332.32,108.89 340.09,106.82 C342.83,106.09 345.67,105.07 347.49,102.9 C349.31,100.73 350.02,97.57 347.85,95.74 Z" id="Path" stroke="#000000" fill="#000000" fill-rule="nonzero" stroke-linecap="round"></path><path d="M295.1,135.36 C296.81,135.24 298.54,135.3 300.25,135.41 C301.22,135.47 301.73,136.23 302.13,137.12 C302.5,137.93 302.53,138.92 302.1,139.7" id="Path" stroke="#231F20" stroke-width="3" stroke-linecap="round"></path><path d="M296.89,140.19 C298.6,140.07 300.33,140.13 302.04,140.24 C303.01,140.3 303.52,141.06 303.92,141.95 C304.29,142.76 304.32,143.75 303.89,144.53" id="Path" stroke="#231F20" stroke-width="3" stroke-linecap="round"></path><path d="M298.38,145.19 C300.09,145.07 301.82,145.13 303.53,145.24 C304.5,145.3 305.01,146.06 305.41,146.95 C305.78,147.76 305.81,148.75 305.38,149.53 C304.71,150.72 303.95,151.57 303.16,152.68 C303,152.9 302.83,153.13 302.6,153.28 C302.29,153.48 301.91,153.51 301.54,153.53 C300.39,153.59 299.24,153.63 298.09,153.65" id="Path" stroke="#231F20" stroke-width="3" stroke-linecap="round"></path><path d="M322.7,153.67 C323.34,155.01 324.59,155.97 325.91,156.65 C328.56,158.02 331.68,158.46 334.61,157.88 C337.54,157.3 340.26,155.71 342.19,153.44" id="Path" stroke="#231F20" stroke-width="3" stroke-linecap="round"></path><path d="M299.27,117.21 C278.45,121.86 261.9,132.09 251.54,150.4 C242.13,143.38 237.61,133.16 237.51,120.03 C252.42,105.43 270.81,99.96 288.89,105.49 L299.27,117.21 Z" id="Path" fill="#000000" fill-rule="nonzero"></path><polyline id="Path" stroke="#231F20" stroke-width="3" stroke-linecap="round" points="241.31 381.66 210.49 624.71 254.39 624.71 320.2 414.74"></polyline><polyline id="Path" stroke="#231F20" stroke-width="3" stroke-linecap="round" points="297.69 486.55 320.47 624.71 363.5 624.71 346.47 361.18"></polyline><path d="M218.06,624.71 C218.06,624.71 207.95,653.2 207.95,669.08 L297.69056,669.08 C297.69056,669.08 297.82,659.78 294.12,656.21 C290.43,652.64 245.34,637.49 243.49,637.01 C241.64,636.53 242.74,624.71 242.74,624.71 L218.06,624.71 Z" id="Path" stroke="#231F20" stroke-width="3" fill="#231F20" fill-rule="nonzero" stroke-linecap="round"></path><path d="M330.52,624.71 C330.52,624.71 318.63,653.2 318.63,669.08 L408.37056,669.08 C408.37056,669.08 408.5,659.78 404.8,656.21 C401.11,652.64 360.02,637.49 358.17,637.01 C356.32,636.53 355.2,624.71 355.2,624.71 L330.52,624.71 Z" id="Path" stroke="#231F20" stroke-width="3" fill="#231F20" fill-rule="nonzero" stroke-linecap="round"></path><polygon id="Path" stroke="#231F20" stroke-width="3" fill="#231F20" fill-rule="nonzero" stroke-linecap="round" points="500.22 346.31 499.42 354.46 480.29 351.61 483.38 343.83"></polygon><path d="M449.73,339.45 C446.92,344.82 464.1,350.92 466.92,349.18 L468.41,343.87" id="Path" stroke="#231F20" stroke-width="3" fill="#231F20" fill-rule="nonzero" stroke-linecap="round"></path><path d="M566.95,366.32 L510.97,366.32 C503.45,366.32 497.36,360.22 497.36,352.71 L497.36,345.32 L580.57,345.32 L580.57,352.71 C580.56,360.23 574.47,366.32 566.95,366.32 Z" id="Path" stroke="#231F20" stroke-width="3" fill="#FFFFFF" fill-rule="nonzero" stroke-linecap="round"></path><path d="M477.01,358.65 C477.87,359.79 479.49,359.96 480.92,360.02 C481.95,360.07 483.08,360.09 483.92,359.5 C484.52,359.08 484.89,358.4 485.22,357.74 C486.35,355.49 487.32,353.16 488.1,350.77 C488.67,349.03 489.16,347.23 489.14,345.4 C489.12,342.94 488.22,340.58 487.32,338.29 C487.09,337.69 486.84,337.08 486.43,336.58 C485.51,335.49 483.97,335.2 482.56,334.99 C481.76,334.87 481.42,335.24 481.13,335.99 C480.83,336.74 481.03,337.59 481.25,338.36 C481.78,340.18 482.45,341.98 482.64,343.87 C482.83,345.76 482.46,347.81 481.15,349.18" id="Path" stroke="#231F20" stroke-width="3" fill="#FFFFFF" fill-rule="nonzero" stroke-linecap="round"></path><path d="M472.26,358.65 C473.12,359.79 474.74,359.96 476.17,360.02 C477.2,360.07 478.33,360.09 479.17,359.5 C479.77,359.08 480.14,358.4 480.47,357.74 C481.6,355.49 482.57,353.16 483.35,350.77 C483.92,349.03 484.41,347.23 484.39,345.4 C484.37,342.94 483.47,340.58 482.57,338.29 C482.34,337.69 482.09,337.08 481.68,336.58 C480.76,335.49 479.22,335.2 477.81,334.99 C477.01,334.87 476.67,335.24 476.38,335.99 C476.08,336.74 476.28,337.59 476.5,338.36 C477.03,340.18 477.7,341.98 477.89,343.87 C478.08,345.76 477.71,347.81 476.4,349.18" id="Path" stroke="#231F20" stroke-width="3" fill="#FFFFFF" fill-rule="nonzero" stroke-linecap="round"></path><path d="M467.51,358.65 C468.37,359.79 469.99,359.96 471.42,360.02 C472.46,360.07 473.58,360.09 474.42,359.5 C475.02,359.08 475.39,358.4 475.72,357.74 C476.85,355.49 477.82,353.16 478.6,350.77 C479.17,349.03 479.66,347.23 479.64,345.4 C479.62,342.94 478.72,340.58 477.82,338.29 C477.59,337.69 477.34,337.08 476.93,336.58 C476.01,335.49 474.47,335.2 473.06,334.99 C472.26,334.87 471.92,335.24 471.63,335.99 C471.33,336.74 471.53,337.59 471.75,338.36 C472.28,340.18 472.95,341.98 473.14,343.87 C473.33,345.76 472.96,347.81 471.65,349.18" id="Path" stroke="#231F20" stroke-width="3" fill="#FFFFFF" fill-rule="nonzero" stroke-linecap="round"></path><path d="M462.76,358.65 C463.62,359.79 465.24,359.96 466.67,360.02 C467.7,360.07 468.83,360.09 469.67,359.5 C470.27,359.08 470.64,358.4 470.97,357.74 C472.1,355.49 473.07,353.16 473.85,350.77 C474.42,349.03 474.91,347.23 474.89,345.4 C474.87,342.94 473.97,340.58 473.07,338.29 C472.84,337.69 472.59,337.08 472.18,336.58 C471.26,335.49 469.72,335.2 468.31,334.99 C467.51,334.87 467.17,335.24 466.88,335.99 C466.58,336.74 466.78,337.59 467,338.36 C467.53,340.18 468.2,341.98 468.39,343.87 C468.58,345.76 468.21,347.81 466.9,349.18" id="Path" stroke="#231F20" stroke-width="3" fill="#FFFFFF" fill-rule="nonzero" stroke-linecap="round"></path><path d="M463.35,334.6 C466.87,338.68 470.43,342.73 474.03,346.75 C474.32,347.07 474.65,347.42 475.07,347.48 C475.65,347.57 476.16,347.13 476.56,346.7 C477.55,345.61 478.05,345.56 478.64,344.21 C476.08,338.41 473.27,332.73 470.23,327.17 C469.97,326.7 469.69,326.21 469.23,325.95 C468.7,325.65 468.04,325.73 467.44,325.81 C460.54,326.75 453.68,327.95 446.87,329.4" id="Path" stroke="#231F20" stroke-width="3" fill="#FFFFFF" fill-rule="nonzero" stroke-linecap="round"></path><path d="M468.05,341.93 L457.57,338.37 C453.03,339.36 448.36,339.72 443.73,339.43" id="Path" stroke="#231F20" stroke-width="3" stroke-linecap="round"></path><polyline id="Path" stroke="#231F20" stroke-width="3" fill="#231F20" fill-rule="nonzero" stroke-linecap="round" points="468.4 343.86 458.91 338.83 452.22 340.62"></polyline><polygon id="Path" stroke="#231F20" stroke-width="3" fill="#231F20" fill-rule="nonzero" stroke-linecap="round" points="676.29 385.14 422.79 385.14 422.38 369.19 676.3 369.19"></polygon><g id="New_Symbol-link" transform="translate(491.716600, 382.933700) scale(-1, 1) rotate(-180.000000) translate(-491.716600, -382.933700) translate(451.716600, 377.933700)" stroke="#FFFFFF" stroke-linecap="round" stroke-width="3"><g id="New_Symbol"><polyline id="Path" points="0.69 0.45 0.69 5.67 15.15 9.54 27.19 9.54"></polyline><polyline id="Path" points="79.31 0.45 79.31 5.67 64.85 9.54 52.81 9.54"></polyline><polyline id="Path" points="48.9 0.46 48.9 5.67 42.99 9.54 38.07 9.54"></polyline><polyline id="Path" points="24.09 0.46 24.09 5.67 28.56 9.55 32.27 9.55"></polyline></g></g><g id="New_Symbol-link" transform="translate(443.859900, 382.933700) scale(-1, 1) rotate(-180.000000) translate(-443.859900, -382.933700) translate(403.859900, 377.933700)" stroke="#FFFFFF" stroke-linecap="round" stroke-width="3"><g id="New_Symbol"><polyline id="Path" points="0.69 0.45 0.69 5.67 15.15 9.54 27.19 9.54"></polyline><polyline id="Path" points="79.31 0.45 79.31 5.67 64.85 9.54 52.81 9.54"></polyline><polyline id="Path" points="48.9 0.46 48.9 5.67 42.99 9.54 38.07 9.54"></polyline><polyline id="Path" points="24.09 0.46 24.09 5.67 28.56 9.55 32.27 9.55"></polyline></g></g><g id="XMLID_1_" transform="translate(589.289400, 382.933700) scale(-1, 1) rotate(-180.000000) translate(-589.289400, -382.933700) translate(549.289400, 377.933700)" stroke="#FFFFFF" stroke-linecap="round" stroke-width="3"><g id="New_Symbol"><polyline id="Path" points="0.69 0.45 0.69 5.67 15.15 9.54 27.19 9.54"></polyline><polyline id="Path" points="79.31 0.45 79.31 5.67 64.85 9.54 52.81 9.54"></polyline><polyline id="Path" points="48.9 0.46 48.9 5.67 42.99 9.54 38.07 9.54"></polyline><polyline id="Path" points="24.09 0.46 24.09 5.67 28.56 9.55 32.27 9.55"></polyline></g></g><g id="New_Symbol-link" transform="translate(541.432700, 382.933700) scale(-1, 1) rotate(-180.000000) translate(-541.432700, -382.933700) translate(501.432700, 377.933700)" stroke="#FFFFFF" stroke-linecap="round" stroke-width="3"><g id="New_Symbol"><polyline id="Path" points="0.69 0.45 0.69 5.67 15.15 9.54 27.19 9.54"></polyline><polyline id="Path" points="79.31 0.45 79.31 5.67 64.85 9.54 52.81 9.54"></polyline><polyline id="Path" points="48.9 0.46 48.9 5.67 42.99 9.54 38.07 9.54"></polyline><polyline id="Path" points="24.09 0.46 24.09 5.67 28.56 9.55 32.27 9.55"></polyline></g></g><g id="XMLID_12_" transform="translate(214.000000, 111.000000)"><g id="Group" transform="translate(0.000000, 19.000000)" fill-rule="nonzero"><path d="M45.18,128.69 L46.04,129.1 C45.65,136.07 43.36,142.96 38.81,148.21 C34.86,152.76 29.08,155.85 23.14,156.42 C20.57,156.68 17.97,156.46 15.47,155.69 C8.58,153.57 3.23,147.48 1.36,140.51 C-0.52,133.55 0.89,125.9 4.53,119.68 L6.95,120.1 C-0.34,147.55 31.97,157.68 45.18,128.69 Z" id="Path" fill="#1DB68B"></path><path d="M161.43,146.16 L133.18,174.44 L133.18,227.64 L132.68,227.65 C132.8,231.82 133.4,249.86 132.66,250.01 C124.5,251.65 106.84,214.42 106.95,204.35 C105.96,208.64 100.29,219.56 96.97,222.45 C80.1,237.18 59.52,247.6 37.67,252.49 C34.17,253.27 30.17,253.81 27.31,251.66 C23.12,248.53 24.11,242.2 24.2,236.97 C24.3,231.39 24.74,209.07 23.8,203.58 C21.22,188.51 22.24,173.09 23.26,157.83 L23.14,156.42 C29.08,155.85 34.86,152.76 38.81,148.21 C43.36,142.96 45.65,136.07 46.04,129.1 L45.18,128.69 C46.53,125.74 47.67,122.4 48.56,118.62 L62.43,58.52 L78.15,54.31 C87.38,77.24 93.17,76.2 106.73,81.34 C112.39,74.85 117.82,67.68 119.54,59.24 L119.89,58.42 L145.04,69.29 L164.96,142.62 L161.43,146.16 Z" id="Path" fill="#1DB68B"></path><path d="M85.64,2.59 C86.02,3.4 86.05,4.39 85.61,5.17 L80.78,21.7 C79.61,23.93 78.42,26.18 77.15,28.38 L73.5,32.03 L74.35,32.89 C72.08,36.23 69.49,39.29 66.3,41.77 L62.43,58.52 L48.56,118.62 C47.67,122.4 46.53,125.74 45.18,128.69 C31.97,157.68 -0.34,147.55 6.95,120.1 C7.19,119.19 7.48,118.26 7.81,117.31 L52.7,26.89 C55.93,20.43 59.98,14.39 64.72,8.94 C67.23,6.04 70.06,3.24 73.64,1.87 C76.83,0.64 80.35,0.66 83.76,0.88 C84.73,0.94 85.24,1.7 85.64,2.59 Z" id="Path" fill="#FFFFFF"></path><path d="M73.5,32.03 L77.15,28.38 C76.27,29.92 75.34,31.43 74.35,32.89 L73.5,32.03 Z" id="Path" fill="#FFFFFF"></path></g><g id="Group" stroke="#231F20" stroke-linecap="round" stroke-width="3"><path d="M135.18,0.73 C138.67,6.78 141.35,22.8 141.02,29.59 C140.68,36.38 139,43.25 135.14,48.85 C127.3,60.17 112.51,61.52 100.94,55.24" id="Path"></path><path d="M85.61,24.17 C86.05,23.39 86.02,22.4 85.64,21.59 C85.24,20.7 84.73,19.94 83.76,19.88 C80.35,19.66 76.83,19.64 73.64,20.87 C70.06,22.24 67.23,25.04 64.72,27.94 C59.98,33.39 55.93,39.43 52.7,45.89 L7.81,136.31 C7.48,137.26 7.19,138.19 6.95,139.1 C-0.34,166.55 31.97,176.68 45.18,147.69 C46.53,144.74 47.67,141.4 48.56,137.62 L62.43,77.52 L66.3,60.77 C69.49,58.29 72.08,55.23 74.35,51.89 C75.34,50.43 76.27,48.92 77.15,47.38 C78.42,45.18 79.61,42.93 80.78,40.7" id="Path"></path><polygon id="Path" points="77.15 47.38 85.12 39.41 87.88 42.23 79.35 50.77 76.27 53.84 74.35 51.89 73.5 51.03"></polygon><polyline id="Path" points="116.25 58.97 118.29 76.73 119.89 77.42 145.04 88.29 164.96 161.62 161.43 165.16 133.18 193.44"></polyline><polyline id="Path" points="161.39 165.13 161.43 165.16 232.86 218.41"></polyline><path d="M78.15,73.31 C87.38,96.24 93.17,95.2 106.73,100.34 C112.39,93.85 117.82,86.68 119.54,78.24" id="Path"></path><path d="M132.71,105.61 C137.05,117.39 141.45,129.63 140.41,142.14 C139.45,153.76 133.83,164.65 133.18,176.29 L133.18,193.44 L133.18,246.64" id="Path"></path><path d="M106.2,107.01 C106.49,118.74 106.65,130.47 106.95,142.21 L106.95,223.35 C106.84,233.42 124.5,270.65 132.66,269.01 C133.4,268.86 132.8,250.82 132.68,246.65 C132.67,246.23 132.66,245.94 132.66,245.84" id="Path"></path><path d="M4.53,138.68 C0.89,144.9 -0.52,152.55 1.36,159.51 C3.23,166.48 8.58,172.57 15.47,174.69 C17.97,175.46 20.57,175.68 23.14,175.42 C29.08,174.85 34.86,171.76 38.81,167.21 C43.36,161.96 45.65,155.07 46.04,148.1" id="Path"></path><path d="M23.26,176.83 C22.24,192.09 21.22,207.51 23.8,222.58 C24.74,228.07 24.3,250.39 24.2,255.97 C24.11,261.2 23.12,267.53 27.31,270.66 C30.17,272.81 34.17,272.27 37.67,271.49 C59.52,266.6 80.1,256.18 96.97,241.45 C100.29,238.56 105.96,227.64 106.95,223.35" id="Path"></path><path d="M133.18,193.44 L224.67,237.43 L233.68,242.34 C237.84,244.96 248.76,249.04 248.76,249.04" id="Path"></path><polyline id="Path" points="80.69 52.11 78.15 73.31 62.43 77.52"></polyline></g></g><rect id="Rectangle" stroke="#231F20" stroke-width="3" stroke-linecap="round" x="5.61" y="337.61" width="203.68" height="18.21"></rect><polyline id="Path" stroke="#231F20" stroke-width="3" stroke-linecap="round" points="240.32 387.51 8.45 387.51 8.45 369.19 234.37 369.19"></polyline><polyline id="Path" stroke="#231F20" stroke-width="3" stroke-linecap="round" points="346.99 369.19 422.86 369.19 422.86 387.51 350.64 387.51"></polyline><path d="M544.42,102.4 C514.08,123.34 498.17,163.27 505.82,199.33 C510.16,219.83 521.2,238.28 527.14,258.37 C533.08,278.46 532.71,302.85 517.5,317.26" id="Path" stroke="#231F20" stroke-width="3" stroke-linecap="round"></path><path d="M525.11,201.36 C529.45,221.86 540.49,240.31 546.43,260.4 C552.37,280.49 552,304.88 536.79,319.29" id="Path" stroke="#231F20" stroke-width="3" stroke-linecap="round"></path><path d="M563.71,104.43 C554.23,110.97 546.16,119.37 539.78,128.92" id="Path" stroke="#231F20" stroke-width="3" stroke-linecap="round"></path><path d="M724.75,213.8 C722.82,213.16 720.88,212.51 718.95,211.87" id="Path" stroke="#231F20" stroke-width="3" stroke-linecap="round"></path><line x1="8.45" y1="387.51" x2="8.45" y2="669.07" id="Path" stroke="#231F20" stroke-width="3" stroke-linecap="round"></line><line x1="191.85" y1="387.51" x2="191.85" y2="669.07" id="Path" stroke="#231F20" stroke-width="3" stroke-linecap="round"></line><g id="Group" transform="translate(425.000000, 0.000000)" stroke="#231F20" stroke-linecap="round" stroke-width="3"><rect id="Rectangle" fill="#231F20" fill-rule="nonzero" x="63.16" y="80.79" width="188.25" height="27.21"></rect><polygon id="Path" fill="#231F20" fill-rule="nonzero" points="63.16 80.79 251.4 80.79 251.4 0.17 173.16 0.17"></polygon><rect id="Rectangle" stroke-linejoin="round" x="0.16" y="80.79" width="62.36" height="27.21"></rect><polygon id="Path" stroke-linejoin="round" points="0.16 80.79 62.52 80.79 172.52 0.17 110.16 0.17"></polygon></g><line x1="676.4" y1="108" x2="676.4" y2="372.34" id="Path" stroke="#231F20" stroke-width="3" stroke-linecap="round" stroke-linejoin="round"></line><line x1="597.52" y1="0.17" x2="597.52" y2="369.19" id="Path" stroke="#231F20" stroke-width="3" stroke-linecap="round" stroke-linejoin="round"></line><g id="Group" transform="translate(17.000000, 53.000000)"><rect id="Rectangle" stroke="#231F20" stroke-width="3" stroke-linecap="round" x="0.96" y="0.61" width="173.89" height="284"></rect><rect id="Rectangle" fill="#231F20" fill-rule="nonzero" x="159.34" y="0.61" width="15.5" height="284"></rect></g><rect id="Rectangle" stroke="#231F20" stroke-width="3" stroke-linecap="round" x="17.98" y="53.61" width="78.98" height="94.67"></rect><rect id="Rectangle" stroke="#231F20" stroke-width="3" stroke-linecap="round" x="96.96" y="53.61" width="78.98" height="94.67"></rect><rect id="Rectangle" stroke="#231F20" stroke-width="3" stroke-linecap="round" x="17.98" y="148.28" width="78.98" height="94.67"></rect><rect id="Rectangle" stroke="#231F20" stroke-width="3" stroke-linecap="round" x="96.96" y="148.28" width="78.98" height="94.67"></rect><rect id="Rectangle" stroke="#231F20" stroke-width="3" stroke-linecap="round" x="96.96" y="242.94" width="78.98" height="94.67"></rect><g id="Group" transform="translate(0.000000, 160.000000)"><path d="M54.86,85.45 C54.86,85.45 64.58,94.07 71.22,116.09" id="Path" stroke="#000000" stroke-width="3"></path><g transform="translate(7.000000, 65.000000)" fill-rule="nonzero"><path d="M2.49,34.86 C2.01,31.94 1.45,27.05 1.93,21.94 C2.93,11.48 7.67,5.03 16.02,2.77 C17.64,2.33 19.29,2.11 20.93,2.11 C33.52,2.11 44.09,15.02 49.37,22.89 C44.82,20.37 39.99,19.1 34.94,19.1 C27.17,19.1 18.73,22.2 10.55,28.08 C7,30.61 4.23,33.14 2.49,34.86 Z" id="Path" fill="#A5CE4D"></path><path d="M20.93,3.6 L20.93,3.6 C30.73,3.6 39.34,12.02 44.93,19.26 C41.71,18.15 38.37,17.59 34.94,17.59 C26.85,17.59 18.12,20.79 9.67,26.85 C7.26,28.58 5.2,30.3 3.57,31.78 C3.27,29.1 3.09,25.68 3.42,22.15 C4.34,12.34 8.71,6.3 16.41,4.22 C17.91,3.8 19.43,3.6 20.93,3.6 M20.94,0.6 C19.21,0.6 17.44,0.82 15.64,1.31 C-6.15,7.22 1.59,37.98 1.59,37.98 C1.59,37.98 16.72,20.59 34.95,20.59 C41.21,20.59 47.83,22.64 54.33,28.14 C54.33,28.14 40.1,0.6 20.94,0.6 L20.94,0.6 Z" id="Shape" fill="#000000"></path></g><path d="M58.75,88.74 C56.42,86.74 54.12,84.85 51.75,83.1 C49.36,81.38 46.92,79.8 44.34,78.57 C43.05,77.95 41.74,77.42 40.39,76.99 C39.04,76.57 37.66,76.29 36.26,76.08 C33.44,75.73 30.53,76 27.53,76.68 C30.01,74.86 33.15,73.8 36.37,73.74 C39.59,73.64 42.8,74.49 45.65,75.86 C48.51,77.24 51.07,79.14 53.27,81.32 C55.46,83.51 57.39,85.97 58.75,88.74 Z" id="Path" fill="#000000" fill-rule="nonzero"></path><g transform="translate(0.000000, 27.000000)" fill-rule="nonzero"><path d="M50.54,32.58 C49.71,31.8 48.84,31.07 48,30.36 C46.51,29.12 45.11,27.94 44.08,26.63 C41.04,22.76 37.28,21.04 31.92,21.04 C30.42,21.04 28.74,21.16 26.45,21.44 C22.16,21.96 18,22.96 13.98,23.93 C12.67,24.24 11.36,24.56 10.04,24.86 C9.47,24.99 8.49,25.36 6.93,25.95 C5.69,26.42 3.63,27.21 2.4,27.55 C2.6,26.49 3.27,24.79 3.52,24.13 C3.7,23.67 3.85,23.28 3.92,23.05 C5.84,16.82 11.76,2.32 25.14,2.32 C25.93,2.32 26.74,2.37 27.55,2.47 C42.16,4.32 48.21,21.96 50.54,32.58 Z" id="Path" fill="#A5CE4D"></path><path d="M25.15,3.84 C25.88,3.84 26.62,3.89 27.38,3.98 C35.26,4.97 41.47,11.03 45.83,22 C46.69,24.16 47.39,26.32 47.97,28.36 C46.93,27.47 45.99,26.61 45.28,25.71 C41.92,21.45 37.81,19.55 31.94,19.55 C30.38,19.55 28.64,19.68 26.29,19.96 C21.91,20.49 17.71,21.5 13.65,22.48 C12.35,22.79 11.05,23.11 9.73,23.41 C9.06,23.56 8.08,23.93 6.42,24.56 C5.98,24.73 5.38,24.95 4.75,25.19 C4.83,24.99 4.89,24.82 4.94,24.7 C5.13,24.22 5.28,23.84 5.38,23.52 C7.19,17.6 12.76,3.84 25.15,3.84 M25.15,0.84 C13.09,0.84 5.83,11.84 2.5,22.63 C2.16,23.73 5.88418203e-15,28.27 1.24,29.17 C1.31,29.22 1.41,29.24 1.56,29.24 C3.14,29.24 9.03,26.64 10.38,26.33 C15.82,25.09 21.07,23.61 26.63,22.94 C28.51,22.71 30.27,22.55 31.92,22.55 C36.25,22.55 39.82,23.65 42.91,27.57 C46.22,31.78 52.77,34.48 53.36,40.4 C53.15,38.21 49.43,3.72 27.74,1.01 C26.85,0.9 25.99,0.84 25.15,0.84 L25.15,0.84 Z M53.36,40.4 C53.37,40.46 53.37,40.5 53.37,40.51 C53.37,40.47 53.36,40.43 53.36,40.4 L53.36,40.4 Z" id="Shape" fill="#000000"></path></g><path d="M52.65,62.46 C51.26,59.72 49.84,57.1 48.31,54.59 C46.75,52.1 45.09,49.71 43.18,47.59 C42.22,46.53 41.2,45.54 40.12,44.63 C39.03,43.73 37.86,42.94 36.64,42.22 C34.16,40.82 31.37,39.98 28.33,39.46 C31.31,38.71 34.62,38.92 37.62,40.09 C40.64,41.22 43.29,43.22 45.4,45.58 C47.52,47.95 49.17,50.67 50.38,53.52 C51.59,56.38 52.45,59.38 52.65,62.46 Z" id="Path" fill="#000000" fill-rule="nonzero"></path><g transform="translate(65.000000, 36.000000)" fill-rule="nonzero"><path d="M1.68,39.26 C1.18,28.6 2.29,8.78 16.51,3.22 C18.8,2.32 21.09,1.87 23.31,1.87 C34.87,1.87 42.89,14.23 46.11,20.27 C43.99,19.92 40.78,19.67 35.92,19.67 C34.53,19.67 33.36,19.7 32.8,19.76 L31.55,19.88 C24.79,20.53 17.14,21.27 11.64,25.69 C7.67,28.88 4.09,33.84 1.68,39.26 Z" id="Path" fill="#A5CE4D"></path><path d="M23.31,3.36 C32.72,3.36 39.69,12.29 43.37,18.42 C41.41,18.25 38.96,18.16 35.92,18.16 C35.23,18.16 33.53,18.17 32.66,18.26 L31.42,18.38 C24.8,19.02 16.56,19.81 10.71,24.52 C7.9,26.78 5.29,29.87 3.11,33.38 C3.37,22.89 5.93,8.96 17.06,4.61 C19.18,3.78 21.28,3.36 23.31,3.36 M23.31,0.36 C21,0.36 18.55,0.8 15.97,1.81 C-5.06,10.03 0.83,46.39 0.83,46.39 C2.47,39.43 6.89,31.42 12.58,26.85 C18.06,22.44 26.23,21.9 32.95,21.24 C33.43,21.19 34.52,21.16 35.92,21.16 C40.53,21.16 48.5,21.52 49.08,22.92 C49.04,22.82 39.75,0.36 23.31,0.36 L23.31,0.36 Z" id="Shape" fill="#000000"></path></g><path d="M65.29,77.33 C64.73,74.29 64.82,71.17 65.29,68.11 C65.76,65.04 66.69,62 68.17,59.19 C69.64,56.39 71.71,53.79 74.37,51.96 C76.99,50.09 80.15,49.08 83.22,49.07 C80.4,50.31 77.9,51.82 75.84,53.78 C74.83,54.78 73.89,55.83 73.06,56.97 C72.24,58.12 71.49,59.33 70.83,60.59 C69.49,63.11 68.47,65.84 67.57,68.64 C66.7,71.45 65.97,74.34 65.29,77.33 Z" id="Path" fill="#000000" fill-rule="nonzero"></path><g transform="translate(44.000000, 112.000000)" fill-rule="nonzero"><rect id="Rectangle" fill="#FFFFFF" x="2.35" y="2.09" width="48.96" height="61.79"></rect><path d="M49.81,3.59 L49.81,62.38 L3.85,62.38 L3.85,3.59 L49.81,3.59 M52.81,0.59 L0.85,0.59 L0.85,65.38 L52.81,65.38 L52.81,0.59 L52.81,0.59 Z" id="Shape" fill="#000000"></path></g><rect id="Rectangle" fill="#000000" fill-rule="nonzero" x="44.83" y="154.79" width="49.02" height="20.35"></rect><g transform="translate(53.000000, 0.000000)" fill-rule="nonzero"><path d="M5.76,48.26 C5.48,48.26 5.24,48.2 5.02,48.07 C3.76,47.32 2.25,43.11 1.71,35.41 C1.36,30.43 2.12,25.43 3.91,20.95 C7.4,12.2 14.69,5.24 23.55,2.11 C25.76,6.08 26.72,11.01 26.26,16.14 C25.83,20.93 24.17,26.03 21.33,31.29 C18.6,36.36 10,48.26 5.76,48.26 Z" id="Path" fill="#A5CE4D"></path><path d="M22.83,3.98 C24.48,7.47 25.16,11.65 24.77,15.99 C24.36,20.58 22.76,25.49 20.02,30.57 C19.23,32.03 16.56,36.33 13.31,40.29 C8.37,46.33 6.11,46.73 5.78,46.76 C5.03,46.04 3.71,42.4 3.22,35.3 C2.89,30.54 3.61,25.77 5.31,21.5 C8.42,13.68 15.01,7.14 22.83,3.98 M24.22,0.3 C14.49,3.33 6.29,10.92 2.51,20.38 C0.6,25.16 -0.15,30.38 0.21,35.5 C0.42,38.55 1.27,47.57 4.25,49.35 C4.71,49.63 5.22,49.75 5.76,49.75 C11.44,49.75 20.77,35.49 22.66,31.99 C25.29,27.1 27.26,21.79 27.76,16.26 C28.26,10.74 27.21,4.98 24.22,0.3 L24.22,0.3 Z" id="Shape" fill="#000000"></path></g><path d="M58.55,46.55 C56.26,59.47 57.88,73.06 63.16,85.07 C67.6,95.17 74.73,105.03 73.54,116" id="Path" stroke="#000000" stroke-width="3"></path><path d="M50.09,57.17 C51.01,63.94 53.44,70.51 57.16,76.24 C59.71,80.17 62.85,83.71 65.17,87.79" id="Path" stroke="#000000" stroke-width="3"></path><path d="M67.28,75.31 C66.24,78.82 65.19,82.55 66.11,86.1 C66.61,88.05 67.68,89.8 68.71,91.53 C70.46,94.45 72.19,97.43 73.28,100.66 C74.37,103.89 74.81,107.43 73.94,110.72" id="Path" stroke="#000000" stroke-width="3"></path><path d="M65.12,25.83 C62.49,34.36 60.21,43 58.28,51.72" id="Path" stroke="#000000" stroke-width="3" stroke-linecap="round"></path></g><circle id="Oval" stroke="#231F20" stroke-width="3" fill="#231F20" fill-rule="nonzero" stroke-linecap="round" cx="310.55" cy="332.24" r="4.4"></circle><circle id="Oval" stroke="#231F20" stroke-width="3" fill="#231F20" fill-rule="nonzero" stroke-linecap="round" cx="310.55" cy="294.67" r="4.4"></circle><circle id="Oval" stroke="#231F20" stroke-width="3" fill="#231F20" fill-rule="nonzero" stroke-linecap="round" cx="310.85" cy="260.33" r="4.4"></circle><circle id="Oval" stroke="#231F20" stroke-width="3" fill="#231F20" fill-rule="nonzero" stroke-linecap="round" cx="310.55" cy="225.98" r="4.4"></circle></g></g></g></svg> 