<?xml version="1.0" encoding="UTF-8"?> <svg xmlns="http://www.w3.org/2000/svg" viewBox="0 0 671.806 576.122"><path d="M422.959 147.176a7.3 7.3 0 0 0-3.275.778 7.336 7.336 0 0 0-14.158.16 7.342 7.342 0 1 0-4.421 13.7v.051h21.854a7.345 7.345 0 0 0 0-14.689z" fill="none" stroke="#231f20" stroke-linecap="round" stroke-linejoin="round" stroke-width="3"></path><path d="M626.189 316.737l5.772 128.819a14.746 14.746 0 0 1-14.07 15.39l-372.5 16.689A14.745 14.745 0 0 1 230 463.565l-8.754-195.375a14.745 14.745 0 0 1 14.069-15.39l348.735-15.623" fill="#231f20"></path><path d="M318.483 253.238l243.713-11.7c8.169-.366 15.074 5.64 15.422 13.415l8.366 186.728c.349 7.774-5.991 14.374-14.161 14.74l-298.837 14.346c-8.169.366-15.073-5.64-15.422-13.415l-7.917-176.71" fill="#fff"></path><circle cx="295.456" cy="278.808" r="11.68" fill="#1cb78d"></circle><path d="M315.439 267.457a27.352 27.352 0 0 1 5.026-.743c2.813-.179 4.661.217 6.006 1.286a5.087 5.087 0 0 1 1.849 3.771 5.362 5.362 0 0 1-3.51 5.448l.006.091c1.607.446 2.638 1.839 3.256 3.925a32.5 32.5 0 0 0 1.93 5.5l-2.723.174a26.485 26.485 0 0 1-1.671-4.784c-.785-2.776-1.942-3.766-4.337-3.705l-2.482.158.563 8.836-2.632.167zm3.223 9.122l2.693-.172c2.814-.179 4.5-1.836 4.353-4.164-.168-2.635-2.147-3.663-4.933-3.516a10.776 10.776 0 0 0-2.586.409zm24.29-.271l-7.927.5.467 7.354 8.836-.563.141 2.207-11.469.736-1.3-20.395 11.014-.7.141 2.209-8.381.533.41 6.446 7.928-.5zm19.148 7.712a13.09 13.09 0 0 1-5.324 1.312c-5.75.366-10.307-2.989-10.733-9.675-.407-6.387 3.645-10.988 9.969-11.391a10.959 10.959 0 0 1 4.9.6l-.5 2.19a9.579 9.579 0 0 0-4.169-.586c-4.78.3-7.762 3.563-7.422 8.919.318 4.994 3.4 8.015 8.359 7.7a10.553 10.553 0 0 0 4.243-1.121z" fill="#1cb78d"></path><path d="M126.867 574.69c30.083-9.362 84.636-27.911 124.549-50.44 0 0 26.813-18.038 77.58-32.276 0 0 50.12-14.215 44.017-21.129-8.589-9.731-52.145-5.192-52.145-5.192l-77.168 2.889s-26.708-2.248-49.037-43.621-3.075-64.823-3.075-64.823 24.938-34 37.422-47.449l6.364-60.841 133.107-6.127s10.83-5.6-2.625-18.085l-127.228-16.018s-20.418-7.677-39.671 15.771c0 0-21.448-.5-31.435 10.268s-54.2 78.655-54.2 78.655-60.77 78.098-112.166 140.22" fill="#fff" stroke="#231f20" stroke-miterlimit="10" stroke-width="3"></path><path fill="none" stroke="#231f20" stroke-miterlimit="10" stroke-width="3" d="M198.957 227.349l-56.361 63.414"></path><path d="M584.05 237.177l23.768-1.065a14.744 14.744 0 0 1 15.389 14.07l2.982 66.555" fill="#231f20"></path><path d="M239.516 463.565l-8.753-195.375a14.745 14.745 0 0 1 14.07-15.389l348.734-15.624m42.14 79.56l5.771 128.819a14.745 14.745 0 0 1-14.069 15.39l-248.78 11.146m214.938-234.915l23.769-1.065a14.745 14.745 0 0 1 15.389 14.07l2.982 66.555" fill="none" stroke="#231f20" stroke-miterlimit="10" stroke-width="3"></path><path fill="#231f20" d="M282.967 250.666l301.083-13.489m-350.829 21.262l8.526 39.999-54.629 68.201 2.146-19.313 30.925-69.334"></path><path d="M236.649 251.324s-52.392 83.127-52.249 129.891" fill="none" stroke="#231f20" stroke-miterlimit="10" stroke-width="3"></path><path d="M350.173 452.3s-2.076-3.443-1.309-3.906c17.305-10.448 64.933-41.7 127.608-57.068 0 0-2.392 23.117-34.281 41.989s-66.341 29.134-92.018 18.985z" fill="#231f20"></path><path d="M486.753 270.27c15.12.471 29.279 7.682 41.5 16.593s23.051 19.62 35.238 28.583a155.351 155.351 0 0 0 51.942 24.9" fill="none" stroke="#231f20" stroke-miterlimit="10" stroke-width="3"></path><path d="M304.22 337.352a27.993 27.993 0 0 1 12.249 12.363 6.708 6.708 0 0 1 .915 4.385c-.837 3.633-5.947 3.947-9.5 2.832s-7.8-2.707-10.679-.344c-2.179 1.786-2.378 5.173-1.307 7.78s3.122 4.659 4.982 6.775A60.6 60.6 0 0 1 312.7 391.6c1.585 4.67 2.479 10.2-.355 14.234-3.072 4.378-9.234 5.173-14.56 4.689a49.213 49.213 0 0 1-23.023-8.219c-4.155-2.813-8.2-6.383-12.69-8.36" fill="#231f20"></path><path d="M414.634 447.344a38.271 38.271 0 0 0 11.6 6.428m-70.473-120.551c14.795 6.659 23.717 22.134 28.431 37.658 3.017 9.934 4.717 20.224 6.915 30.373" fill="none" stroke="#231f20" stroke-miterlimit="10" stroke-width="3"></path><path d="M348.316 449.014s17.23-34.229 126.3-60.975c0 0-2.392 23.118-34.28 41.99s-66.342 29.13-92.02 18.985z" fill="#a5cf4e"></path><path fill="none" stroke="#231f20" stroke-miterlimit="10" stroke-width="3" d="M349.978 449.112l125.654-60.615"></path><path d="M475.608 389.423c1.165 1.906-13.138 29.341-30.5 39.962s-38.274 3.284-39.439 1.378c-.713-1.165-7.762-1.063-.078-6.621 4.876-3.528 22.667-11.937 29.409-16.061 17.362-10.622 39.442-20.563 40.608-18.658z" fill="#231f20"></path><path d="M423.08 351.528s-4.438 24.322-3.57 31.827c0 0-11.247 7.738-15.254 36.281 0 0-1.934 1.787-1.718 2.916s-2.965 3.581-2.637 4.712a3.294 3.294 0 0 0 .888 1.586s-1.023.893.1 1.58c0 0 .1 1.016 2.133 1.034l3.608.033s4.163 1.053 3.734-1.432c0 0-3.105-5.666-2.865-7.355s3.16-12.6 16.316-33.453c0 0 9.707-13.442 10.853-27.865l2.274-2.121s6.954 4.122 19.634 10.89c0 0 .56.344.214 1.243a64.547 64.547 0 0 0-.659 22.77 12.107 12.107 0 0 1-.365 3.041c-.346.787-1.271 3.371-.261 3.832s12.334-4.737 12.334-4.737 1.586-.887.576-1.347-3.725.417-3.725.417l-4.621-.268s2.095-19.488 3.506-25.9c0 0 .708-3.489-2.981-6.9s-12.965-12.634-20.155-15.518c0 0-4.389-.942-3.8-3.981s4.471-8.078 4.471-8.078 2.045-1.673.276-5.523l12.908-5.971s2.267-1.22 4.174-.187 9.541 4.822 16.265 9.281c0 0 3.151.705 3.157.029s3.4-1.323 3.4-1.323-4.141-3.42-7.864-3.228c0 0-10.739-9.344-17.273-9.967 0 0-7.338-.424-20.468 5.1l-.679-2.38-2.08-3.669s-1.852-4.173-4.251-4.395l-4.208.562s-.49 9.8 2.7 11.633l-.078.05a16.805 16.805 0 0 1-6.935 2.466c-4.334.539-11.64 1.851-16.471 4.876l-12.1 9.9s-7.841 3.932-7.454 5.336a60.188 60.188 0 0 0 6.415-1.142s-1.817 1.784-1.022 2.392 17.533-13.25 17.533-13.25l14.625-1.668s2.753 5.429 3.535 7.437 1.175 2.813.561 4.409-2.696 6.025-2.696 6.025z" fill="#573f98"></path><path d="M422.785 353.724s11-.776 11.881 7.668l2.274-2.121s3.143-6.909 3.5-12.484c0 0-4.168-2.957-2.718-7.015s5.714-3.393 3.667-10.567c-1.58-5.536-3.56-7-3.56-7l-1.97.733s-2.522 6.721-8.7 1.744l-4.034 1.971s1.028 5.79-1.035 7.117l-.628.4s5.774 6.863 3.76 13.028c-.522 1.615-2.616 4.061-2.437 6.526z" fill="#a5cf4e"></path><path d="M427.158 324.685s3.256.908 4.513-1.908l-.234 3.857-.091-.018a9.787 9.787 0 0 1-4.188-1.931zm11.703 35.661s4.749-7.394 11.85-7.075c0 0-8.563-6.028-10.979-6.872 0 0-.962 10.508-2.285 12.657zm-9.795-21.371c-1.139-1.292 3.154 1.617 4.809 1.139 1.818-.525 3.221-2.034 5.03-2.592 0 0-2.148 4.081-1.022 6.34 0 0-5.508-1.133-8.817-4.887zm-4.701-21.963c-2 .742-.064-4.356 1.288-6a7.665 7.665 0 0 1 5.583-2.693c2.032-.077 4.061.6 6.077.339 3.092-.4 5.442-2.882 8.2-4.335a13.227 13.227 0 0 1 10.261-.821 5.628 5.628 0 0 1 1.99 1.059 4.47 4.47 0 0 1 1.144 1.723 6.179 6.179 0 0 1-5.132 8.013 4.494 4.494 0 0 0-1.6.22c-1.375.622-1.226 2.6-.853 4.058-2.337 1.214-5.153.623-7.744.152s-7.25 1.515-8.447 1.842c-1.741.476-2.454-1.186-3.512-2.648-1.454-2.009-1.234-2.826-2.687-4.835a9.876 9.876 0 0 1-4.568 3.926z" fill="#231f20"></path><circle cx="431.605" cy="317.98" r=".891" fill="#573f98"></circle><path d="M288.878 105.277a85.172 85.172 0 1 1 1.69-26.5m-36.576 11.708a24.45 24.45 0 0 1 24.438 7.466s8.277-10.951 25.841-8.042" fill="none" stroke="#231f20" stroke-miterlimit="10" stroke-width="3"></path><path d="M214.522 71.02a24.445 24.445 0 0 1 24.437 7.466s8.277-10.953 25.841-8.042" fill="none" stroke="#231f20" stroke-miterlimit="10" stroke-width="3"></path><ellipse cx="659.428" cy="300.395" rx="8.236" ry="12.189" transform="rotate(-52.244 659.435 300.395)" fill="none" stroke="#231f20" stroke-miterlimit="10" stroke-width="3"></ellipse><path d="M467.845 391.931a202.388 202.388 0 0 1 15.3-13.793 10.537 10.537 0 0 1 4.207-2.425 16.431 16.431 0 0 1 4.943.2c6.344.568 12.383-2.714 17.544-6.448s10.038-8.1 16.03-10.261" fill="none" stroke="#231f20" stroke-miterlimit="10" stroke-width="3"></path><path d="M262.137 382.122c7.351-.024 13.207 5.725 19.294 9.846a49.213 49.213 0 0 0 23.023 8.219c5.326.484 11.488-.311 14.561-4.689 2.833-4.037 1.94-9.564.355-14.234a60.59 60.59 0 0 0-11.826-20.46c-1.86-2.116-3.911-4.168-4.982-6.775s-.872-5.994 1.308-7.78c2.884-2.363 7.12-.771 10.678.344s8.668.8 9.506-2.832a6.72 6.72 0 0 0-.915-4.385 28 28 0 0 0-12.25-12.363l-50.184 12.5" fill="#fff" stroke="#231f20" stroke-miterlimit="10" stroke-width="3"></path><path d="M224.218 281.514s-27.483 39.547-30.681 71.318l35.327-36.532zm0 0s-27.483 39.547-30.681 71.318" fill="#231f20"></path><path fill="#231f20" d="M193.537 352.832l35.327-36.536-4.646-34.782"></path><path d="M213.336 310.393s17.308-55.11 122.143-61.111l-110.771 9.851-11.508 54.648" fill="#231f20"></path><path fill="none" stroke="#fff" stroke-miterlimit="10" stroke-width="3" d="M221.258 263.637l.434 74.237m98.96-83.566L264.627 257c-8.3.372-14.752 6.976-14.4 14.751l.449 10.017 1.616 21.45"></path><path d="M335.231 228.386s-1.611 10.681 27.01 3.475m-25.548 254.104s-9.019-13.422 29.415-12.264M229.959 344.615s-15 4.853-37.5 5.294m323.876 31.71a65.568 65.568 0 0 0 15.949-12.407m-64.967 43.741a69.574 69.574 0 0 0 16.452-16.912 19.422 19.422 0 0 1 3.207-3.99c2.579-2.19 6.155-2.636 9.482-3.252q1.272-.237 2.534-.523" fill="none" stroke="#231f20" stroke-miterlimit="10" stroke-width="3"></path><path d="M175.93 231.229s5.4 12.88-5.816 27.006l28.667-29.5m33.024 24.659c7.252-4.63 13.3-3.53 28.322-4.624 11.486-.836 24 .09 35.515.481-8.515-.316-17.173-.618-25.42 1.524-3.71.963-7.275 2.407-10.93 3.56-6.877 2.17-34.263 13.7-34.263 6.44 0-.715-.745-2.575 6.776-7.381z" fill="#231f20"></path><path d="M635.7 254.781a834.23 834.23 0 0 1 29.439 2.752m-406.814 82.821c91.79-19.676 180.057-64.546 273.5-80.929a492.379 492.379 0 0 1 58.649-6.636s7.607-.045 20.743.525m-352.555 87.902l6.348 128.792" fill="none" stroke="#231f20" stroke-miterlimit="10" stroke-width="3"></path><path d="M293.147 258.052l-23.764 1.171a14.744 14.744 0 0 0-14 15.452l3.279 66.541" fill="none" stroke="#231f20" stroke-miterlimit="10" stroke-width="3"></path><circle cx="605.851" cy="357.182" r="15.294" fill="#fff"></circle><path d="M605.134 372.112a15.656 15.656 0 0 1 .006-30.664" fill="#fff" stroke="#231f20" stroke-miterlimit="10" stroke-width="2"></path><path d="M59.662 334.5a48.289 48.289 0 0 0 27.891 7.6" fill="none" stroke="#231f20" stroke-miterlimit="10" stroke-width="3"></path></svg> 