<?xml version="1.0" encoding="UTF-8"?> <svg xmlns="http://www.w3.org/2000/svg" viewBox="0 0 696.242 606.09"><path d="M1.5 572.412A502.691 502.691 0 0 1 193.188 554.7c58.484 5.9 115.927 22.016 174.735 20.919 54.722-1.021 107.408-16.893 161.366-24.689s114.01-6.184 157.488 23.2" fill="none" stroke="#231f20" stroke-linecap="round" stroke-linejoin="round" stroke-width="3"></path><path d="M10.317 371.057h684.425" fill="#fff" stroke="#231f20" stroke-linecap="round" stroke-linejoin="round" stroke-width="3"></path><path fill="#fff" stroke="#231f20" stroke-miterlimit="10" stroke-width="3" d="M128.902 442.074l13.478 9.154 193.542 108.384 7.987 1.343-215.007-118.881z"></path><path d="M346 541.036L137.412 425.885a2.97 2.97 0 0 0-4.271 1.721l-3.706 11.965a2.969 2.969 0 0 0 1.4 3.477l194.472 107.528 18.6 10.379z"></path><path d="M287.448 312.034l47.538 234.789s10.594-.889 9.371-14.752-48.815-236.317-48.815-236.317z"></path><path fill="#fff" stroke="#231f20" stroke-miterlimit="10" stroke-width="3" d="M334.986 546.823l-10.387-8.749-48.403-228.514 10.758.035 48.032 237.228z"></path><path fill="none" stroke="#5cc6cd" stroke-miterlimit="10" stroke-width="1.047" d="M394.646 352.777l-18.327 41.517"></path><path d="M233.152 403.636s-12.665-10.954-16.087-6.5" fill="#5cc6cd"></path><path d="M377.149 360.6a52.175 52.175 0 0 1-15.3-1.9" fill="none"></path><path fill="#fff" stroke="#231f20" stroke-miterlimit="10" stroke-width="3" d="M374.658 169.909L143.889 576.633l-9.2-1.534 232.359-405.471 7.61.281z"></path><path d="M374.82 169.039l5.843 13.773-227.938 407.004-8.674-14.054L374.82 169.039z"></path><path fill="#fff" d="M372.153 413.026l2.76 9.698 16.573-119.325 51.928-57.452 66.291-47.509 40.723-10.413"></path><path d="M130.144 442.124c92.971 27.678 193.3 46.326 246.267 38.323L310.7 467.805l-157.845-22.133"></path><path d="M550.428 188.025s3.857 267.733-190.387 297.075" fill="#fff"></path><path d="M543.735 179.923l-163.878-1.2s-8.254 9.017-8.978 15.712C346.187 422.724 241.225 440.4 241.225 440.4s-114.89-4.74-108.156 1.994l181.25 27.727L324.97 474l46.076 10.6c16.455 7.077 41.86-58.495 41.86-58.495zM325.99 604.504l-10.414.079-7.623-14.795 9.363.663 8.674 14.053z" fill="#fff" stroke="#231f20" stroke-miterlimit="10" stroke-width="3"></path><path d="M532.907 177.446S525.173 448.135 349.5 461.394m155.675-284.28s-8.728 262.624-173.131 280.744m145.399-281.075s-9.722 254.559-162.855 277.54m135.124-277.871s-10.718 246.493-152.581 274.335M421.98 176.12s-11.712 238.428-142.306 271.132m114.574-271.463s-12.706 230.362-132.03 267.927" fill="none" stroke="#231f20" stroke-miterlimit="10" stroke-width="6.312"></path><path d="M481.716 323.243l-2.049-6.619s-8.045 1.247-9.24 7.694a13.1 13.1 0 0 0 .216 4.068l-12.58-.305s-2.688-6.989 8.063-13.977l13.171.153z" fill="#fff"></path><path d="M319.945 393.559q-5.109-2.76-10.255-5.5l6.141 2.032 4.114 3.465zm119.983-123.911a6.556 6.556 0 0 0-1.692.889l-.044-.052a3.08 3.08 0 0 1 1.736-.837z" fill="none"></path><path d="M276.11 417.009a5.846 5.846 0 0 1 .561 1.251 89.709 89.709 0 0 1-.561-1.251z" fill="#e9bb2a"></path><path d="M437.914 270.752c.087-.1.183-.18.278-.267l.044.052c-.103.073-.236.147-.322.215z"></path><path d="M400.529 410.133s35.456-36.034 31.934-91.65c-.183-2.891-10.193-10-12.709-11.439l-6.081-19.725 2.987-11.463q.871-.442 1.709-.923c.344 2.432 2.018 4.835 5.824 6.973a20.621 20.621 0 0 0 8.725 2.922l19.911-72.068s90.043 76.272 89.459 78.431c-49.566 183.014-156.114 192.531-156.114 192.531l-78.261-40.053c15.521-1.012 74.15-12.261 92.616-33.536z"></path><path fill="#3160ad" opacity=".38" d="M247.044 355.727l.003.002-.003-.002z"></path><path fill="#231f20" d="M309.116 466.42l-9.422-1.026 219.857 112.598 8.027 1.076L309.116 466.42z"></path><path d="M555.78 190.7s3.856 267.733-190.388 297.079" fill="none" stroke="#231f20" stroke-miterlimit="10" stroke-width="3"></path><path fill="#deb29f" d="M271.089 394.124l-28.581-15.419-16.547 45.879 2.633 12.41 42.495-42.87z"></path><path d="M307.987 447.985l-170.936-22.424c-2.24-.29-2.409 1.608-3.247 3.705l-1.646 7.925a3.959 3.959 0 0 0 3.083 5.385l169.949 25.51zM386.5 334.362c.039-.016.109-.042.121-.051h-.05a.689.689 0 0 0-.116.008l-.351.057c-.28.062-.534.1-.84.179-.584.13-1.209.293-1.836.459a76.697 76.697 0 0 0-3.875 1.171c-2.62.862-5.266 1.876-7.881 3.006s-5.186 2.365-7.79 3.731l-4.628 2.595-4.693 2.513c-41.018 32.443-60.191 28.86-67.888 26.292-7.693-2.551-33.491-17.383-39.273-22.908a55.054 55.054 0 0 1-7.654-9.059 54.429 54.429 0 0 1-3.026-5.062 51.58 51.58 0 0 1-1.31-2.691c-.208-.462-.41-.93-.609-1.42l-.3-.756-.354-.954 14.4-5.577c-.016-.085.073.094.135.191l.224.372.506.8c.356.546.74 1.1 1.139 1.64a37.9 37.9 0 0 0 2.6 3.141 37.211 37.211 0 0 0 6.077 5.3 35.448 35.448 0 0 0 14.382 5.823c10.287 1.751 21.525-.68 32.315-5.131 10.832-4.487 21.3-10.93 31.309-18.2l3.735-2.78 3.7-2.862a135.686 135.686 0 0 1 36.709-22.567c3.161-2.13 5.122 42.74 5.122 42.74z" fill="#fff" stroke="#231f20" stroke-miterlimit="10" stroke-width="3"></path><path d="M426.472 303.88h-.443l.065-.338c.12.116.255.224.378.338z"></path><path d="M422.684 277.421s-.182.128-.486.354a43.2 43.2 0 0 0 .206-1.209z" fill="#3160ad" opacity=".38"></path><path d="M423.978 309.292c.221.01.731 0 1.125 0l1.292-.024 2.649-.082a252.726 252.726 0 0 0 16.08-1.12 175.044 175.044 0 0 0 20.578-3.24 89 89 0 0 0 9.168-2.557 42.167 42.167 0 0 0 7.08-3.077 21.7 21.7 0 0 0 1.921-1.235c.412-.285.455-.332.417-.045.018.063-.048.164-.032.26v.018l-.061.175-.121.386c-.074.258-.132.531-.189.765s-.1.49-.13.738a8.231 8.231 0 0 0-.08.669 8.152 8.152 0 0 0 .3 3.229c.175.489.25.5.217.362a4.217 4.217 0 0 0-.383-.876 24.489 24.489 0 0 0-2-3.02 58.42 58.42 0 0 0-2.926-3.538c-2.15-2.421-4.606-4.886-7.177-7.315-5.169-4.865-10.826-9.616-16.65-14.218q-4.374-3.453-8.885-6.8l-2.26-1.667-.566-.414-.284-.208c-.1-.077-.222-.211-.332-.314l-1.344-1.325a58.161 58.161 0 0 1-5.235-6 38.74 38.74 0 0 1-4.624-7.795 28.247 28.247 0 0 1-1.629-4.9 23.532 23.532 0 0 1-.6-5.536 20.676 20.676 0 0 1 2.958-10.471 21.614 21.614 0 0 1 2.973-3.862 22.6 22.6 0 0 1 1.708-1.6c.3-.252.608-.5.93-.749L439.1 223l10.154 12.559c.227-.154.14-.05.173-.041a.443.443 0 0 1-.01.115l-.073.3a6.076 6.076 0 0 0-.13.65 2.8 2.8 0 0 0 .041 1.138 1.085 1.085 0 0 0 1.044.848 4.147 4.147 0 0 1 1.524.459c.66.308 1.553.766 2.62 1.24 1.042.478 2.341.974 3.67 1.442l1.03.347a1.653 1.653 0 0 1 .263.1l.318.2.636.4 2.541 1.6q5.073 3.226 10.083 6.615c6.68 4.535 13.278 9.282 19.8 14.577 3.263 2.663 6.507 5.452 9.749 8.591a92.63 92.63 0 0 1 4.872 5.069 59.776 59.776 0 0 1 4.919 6.3 40.229 40.229 0 0 1 2.466 4.182 30.783 30.783 0 0 1 2.274 5.783 24.76 24.76 0 0 1 .844 8.979c-.046.465-.1.922-.169 1.39-.08.484-.172.968-.276 1.449s-.236.974-.38 1.464l-.227.734-.182.534c-.364.986-16.72 27.366-48.021 45.692-8.417 2.719-9.361 5.741-17.581 7.342-4.11.795-8.21 1.491-12.325 2.1-2.059.305-4.12.592-6.2.854l-3.142.378-1.605.174-1.774.169z" fill="#fff" stroke="#231f20" stroke-miterlimit="10" stroke-width="3"></path><path fill="#fff" stroke="#231f20" stroke-miterlimit="10" stroke-width="3" d="M249.878 359.95l-24.819-11.12 24.531-54.755 24.82 11.12z"></path><path fill="none" stroke="#231f20" stroke-miterlimit="10" stroke-width="3" d="M256.752 314.539l9.165-33.271-19.2-.011"></path><path fill="#85d1d9" d="M555.545 169.909l5.843 13.774-235.56 421.691-8.674-14.053 238.391-421.412z"></path><path d="M464.638 338.888l54.15 227.056s10.594-.888 9.371-14.751-56.429-212.417-56.429-212.417z" fill="#85d1d9"></path><path fill="#85d1d9" d="M518.788 565.944l-10.387-8.749-48.489-229.225 10.758.247 48.118 237.727z"></path><path d="M529 558.589L316.707 450.433a2.97 2.97 0 0 0-4.207 1.867l-3.306 12.082a2.967 2.967 0 0 0 1.514 3.428l197.933 101.001 18.937 9.755z"></path><path d="M315.478 449.922l-8.979-2.114a2.969 2.969 0 0 0-3.353 2.073l-3.8 12.691a2.969 2.969 0 0 0 2.335 3.778l7.539 1.482 2.658-11.892" fill="#fff" stroke="#231f20" stroke-miterlimit="10" stroke-width="3"></path><path d="M467.886 323.114l50.9 242.83s10.594-.888 9.371-14.751-48.815-236.317-48.815-236.317z"></path><path fill="#fff" stroke="#231f20" stroke-miterlimit="10" stroke-width="3" d="M518.788 565.944l-10.387-8.749-48.403-228.514 10.758.036 48.032 237.227z"></path><path fill="#573f98" d="M269.724 315.507l-23.436-11.718-21.231 45.043 24.819 11.119 19.848-44.444"></path><path d="M83.431 499.021A27.519 27.519 0 0 0 94 497.326c5.858-2.01 12.245-1.134 18.415-.6 2.271.2 4.544.865 6.8.5 2.871-.459 5.222-2.515 7.113-4.723 4.232-4.94 3.066-9.846 3.732-15.5l52.667-39.966 42.388-37.193L354.4 470.03" fill="none" stroke="#231f20" stroke-miterlimit="10" stroke-width="3"></path><path d="M65.361 470.058l47.584-14.928s101.309-87.138 109.718-96.43l159.278 53.1-67.084 30.864-89.749-39.032-95.676 72.327c-.666 5.651.5 10.557-3.731 15.5-1.892 2.208-4.242 4.265-7.113 4.724-2.251.359-4.524-.308-6.8-.5-6.17-.534-12.556-1.409-18.414.6a26 26 0 0 1-11.739 1.57" fill="#fff" stroke="#231f20" stroke-miterlimit="10" stroke-width="2"></path><path d="M478.243 291.644l14.3 23.232-105.65 41.487-2.612-63.1 17.73-9.019c-22.945-17.528-2.931-57.317-2.931-57.317 11.872-38.243 48.133-4.073 48.133-4.073 17.3 15.942-2.555 46.069-8.1 51.165l-5.374 18.471s30.956 8.191 44.505-.847" fill="#fff"></path><path d="M425.539 283.462a44.616 44.616 0 0 1-41.258 9.8l23-7.341s5.74 3.921 18.258-2.459z" fill="#231f20"></path><circle cx="419.64" cy="245.407" r="9.999" fill="#231f20"></circle><circle cx="395.569" cy="237.174" r="9.999" fill="#231f20"></circle><path d="M409.9 243.131s-1.207-3.164-5.243-1.793" fill="none" stroke="#231f20" stroke-miterlimit="10" stroke-width="2"></path><path d="M427.073 279.522s-14.971 15.589-29.742 1.563 1.394-55.785 1.394-55.785" fill="none" stroke="#231f20" stroke-linecap="round" stroke-miterlimit="10" stroke-width="3"></path><path d="M439.687 274.248c5.547-5.1 25.4-35.224 8.1-51.165 0 0-36.262-34.17-48.134 4.072m39.033 47.985s.368-.311 1-.892m-29.124-7.648s-3.492 4.613-11.424 1.537m4.976-6.015s-2.728 2.235-9.83-2.293l11.1-16.95m35.693 3.809a5.2 5.2 0 1 1-1.844 9.913" fill="none" stroke="#231f20" stroke-linecap="round" stroke-miterlimit="10" stroke-width="3"></path><path d="M459.334 224.274c-1.4-18-4.535-21.3-4.535-21.3s-21.242-10.389-31.414-10.367c-6.135.014-13.857 8.729-19.023 15.646-20.433-4.2-35.268-5.023-36.258-1.458-1.343 4.835 23.283 15.9 55 24.707s58.523 12.031 59.866 7.2c.849-3.051-8.605-8.563-23.636-14.428z" fill="#a5cf4e"></path><circle cx="442.285" cy="240.727" r="1.375" fill="#231f20"></circle><circle cx="448.136" cy="245.986" r="1.375" fill="#231f20"></circle><circle cx="452.997" cy="244.297" r="1.375" fill="#231f20"></circle><circle cx="446.472" cy="241.531" r="1.375" fill="#231f20"></circle><path d="M445.579 294.653l-.162-.02c-68.268 70.049-62.372-2.15-59.935-2.989a20.312 20.312 0 0 0-8.078 1.386s-21.304 35.07-32.677 56.05c-4.856 8.963-27.272 24.268-33.556 32.468-11.442 14.933 9.731 17.191-5.58 18.3 0 0 74.135 45.282 97.355 24.927C429.226 401.742 443 372.263 443 372.263c.576-1.23-.732-5.655-.812-7.146-.167-3.1-.146-6.21-.035-9.312.23-6.463.863-12.914 1.681-19.327 1.762-13.81 4.27-27.544 7.345-41.12z" fill="#fff" stroke="#231f20" stroke-miterlimit="10" stroke-width="3"></path><path d="M555.707 169.039l5.843 13.773-235.56 421.692-8.674-14.053 238.391-421.412z"></path><path fill="#fff" stroke="#231f20" stroke-miterlimit="10" stroke-width="3" d="M555.545 169.909L317.154 591.321l-9.201-1.533 239.982-420.16 7.61.281zM402.946 288.363s-2.865 3.575-21.569 3.261"></path><path d="M63.389 469.827a5.16 5.16 0 1 0 1.369 8.257c-2.433 1.03-5.312 2.781-4.986 5.4.36 2.9 4.15 3.677 7.071 3.726a4.564 4.564 0 0 0 .183 8.726c2.463.7 5.137-.734 7.621-.117a4.393 4.393 0 0 0-3.171 5.085c1.18 2.7 8.848-1.234 11.955-1.886" fill="none" stroke="#231f20" stroke-linejoin="round" stroke-width="3"></path><path d="M282.871 384.623l-85.179 47.171-34.4 119.4c-8.347 19.523-41.277 30.586-42.726 28.355-2.346-3.611-6.647-.456-6.379.846a20.567 20.567 0 0 0 1.7 5.16 13.318 13.318 0 0 0 7.957 6.831c5.236 1.613 11.278.067 16.945-.891 4.783-.809 21.241-1.189 26.057-.992 6.269.257 12.485 1.486 18.808-.113a15.309 15.309 0 0 0 4.909-2.159c5.659-3.9 3.742-8.268 2.651-12.391-1.414-5.346 1.076-11 2.5-16.47l49.679-120.7 74.374 13.828a32 32 0 0 0 5.857.425A30.143 30.143 0 0 0 355 422.03c-.417-16.643-55.486-37.824-72.129-37.407z" fill="#fff" stroke="#231f20" stroke-miterlimit="10" stroke-width="3"></path><path d="M63.712 470.532l49.854-14.354s71.04-73.45 97.317-100.989a18.991 18.991 0 0 1 21.251-4.332l142.524 61.326-59.18 31.533-89.517-46.665" fill="#fff" stroke="#231f20" stroke-miterlimit="10" stroke-width="3"></path><path d="M254.673 411.075l-26.747-13.064a15 15 0 0 0-20.549 8c-5.349 13.657-12.383 32.2-12.705 36.058" fill="#fff" stroke="#231f20" stroke-miterlimit="10" stroke-width="3"></path><path fill="#231f20" d="M301.093 379.427l-31.369 63.538 33.422 6.916 69.007 27.127 33.443-56.724-104.503-40.857z"></path><path d="M224.556 335.339c.439-1.781 2.692-2.278 4.52-2.434a2.877 2.877 0 0 1 .53-5.26 5.387 5.387 0 0 1 2.375-.043 40.684 40.684 0 0 1 9.624 2.592 6.928 6.928 0 0 1 3.24 2.187 2.682 2.682 0 0 1-.277 3.575 3.988 3.988 0 0 1-2.734.443L237 336.02l3.28 2.348c.785.562 1.665 1.334 1.514 2.288a1.794 1.794 0 0 1-1.439 1.336 5.257 5.257 0 0 1-2.068-.1l-5.694-1.031c.406 1.357 1.57 2.32 2.485 3.4 1.934 2.283 1.374 4.938-1.739 5.188-2.157.172-5.1-.826-7.052-1.675-1.825-.793-3.245-1.847-3.57-3.913-.321-2.038.9-6.039 3.677-4.669-.994-.953-2.207-2.355-1.838-3.853z" fill="#fff" stroke="#231f20" stroke-miterlimit="10" stroke-width="3"></path><path d="M448.913 268.472s6.489-5.068 17.979-21.254l-2.254-1.333-10.2-5.612-10.531 26.8z" fill="#231f20"></path><path d="M405.871 365.119c-1.675-2.119-4.22-3.35-6.748-4.3-7.893-2.969-16.388-3.871-24.776-4.747-1.928-.2-4.32-.176-5.25 1.524-.853 1.558.242 3.585 1.794 4.447s3.4.913 5.168 1.114a27.706 27.706 0 0 1 8.21 2.258c2.833 1.275 5.677 3.362 6.241 6.416m15.706-161.218s17.555 11.316 48.625 16.457" fill="none" stroke="#231f20" stroke-miterlimit="10" stroke-width="3"></path><path fill="none" stroke="#fff" stroke-miterlimit="10" stroke-width="2" d="M269.724 442.965l40.659 7.784m2.112 1.546l56.304 26.688"></path><path fill="#231f20" d="M278.29 425.6l-53.314-30.466 51.414 46.94 6.481-13.856-4.581-2.618"></path><path d="M233.152 403.636s94.039 50.964 107.037 56.316" fill="none" stroke="#fff" stroke-miterlimit="10" stroke-width="2"></path><path d="M190.925 450.934l6.645-17.503-8.865-1.637-19.91 15.818 22.13 3.322z"></path><path fill="none" stroke="#fff" stroke-miterlimit="10" stroke-width="2" d="M168.795 446.207l22.69 3.252"></path><path d="M308.353 105.277a85.172 85.172 0 1 1 1.69-26.5m-36.576 11.708a24.45 24.45 0 0 1 24.433 7.466s8.282-10.951 25.846-8.042" fill="none" stroke="#231f20" stroke-miterlimit="10" stroke-width="3"></path><path d="M234 71.02a24.446 24.446 0 0 1 24.437 7.466s8.277-10.953 25.841-8.042" fill="none" stroke="#231f20" stroke-miterlimit="10" stroke-width="3"></path><path d="M590.2 403.636h7.286m-33.092 0h.784" fill="none" stroke="#231f20" stroke-linecap="round" stroke-linejoin="round" stroke-width="3"></path></svg> 