<svg width="98" height="114" viewBox="0 0 98 114" fill="none" xmlns="http://www.w3.org/2000/svg">
<path d="M27.3213 3.78126C22.7284 6.29498 18.9433 10.7955 17.6612 16.1993C15.854 23.8149 18.9633 32.5024 15.5027 39.42C12.4425 45.539 5.21533 48.0806 2.0345 54.1267C0.151982 57.705 -0.0386489 62.0598 0.50097 66.1258C2.27587 79.4914 11.3971 90.682 22.3148 97.1062C33.2333 103.532 45.8059 105.824 58.1949 107.06C63.4158 107.58 68.7582 107.92 73.8423 106.491C79.0094 105.039 83.7284 101.736 87.0876 97.224C88.605 95.1865 89.8694 92.8504 90.303 90.2777C91.0717 85.7036 89.1476 81.1705 88.5903 76.5669C86.9761 63.2455 96.7415 51.2301 97.7954 37.8269C98.096 33.999 97.6647 30.1106 96.5371 26.4792C95.4709 23.0474 93.7444 19.7939 91.207 17.448C86.4311 13.0326 80.0241 12.5154 74.0744 11.5548C67.4368 10.4837 62.9492 7.35872 56.9803 4.38432C48.6355 0.224257 35.7307 -0.822305 27.3213 3.78126Z" fill="#63E7D7"/>
<path d="M8.173 88.3289C8.46126 89.0997 8.82332 89.886 9.26762 90.6855C15.6708 102.195 24.6252 107.848 33.6135 110.396C38.4885 111.777 43.4066 112.353 48.3047 112.649C53.242 112.949 59.3838 114.273 63.2434 108.709C66.4772 104.047 65.5963 96.6285 63.5301 90.7354C58.8319 77.3363 49.6591 70.462 40.9061 67.6341C30.9638 64.4224 17.4588 64.1262 9.87182 75.6204C7.71641 78.8861 6.43884 83.6795 8.173 88.3289Z" fill="white"/>
<path d="M32.4001 65.1665C36.1943 65.5003 39.3652 66.3693 41.1055 66.9307C47.3449 68.9469 58.6385 74.687 64.1746 90.4787C66.8173 98.0166 66.6759 104.993 63.7972 109.144C60.1774 114.361 54.5844 113.895 50.0907 113.52C49.4688 113.469 48.8577 113.417 48.265 113.381C42.2877 113.02 37.714 112.317 33.4355 111.105C22.7131 108.063 14.3813 101.32 8.67452 91.0589C8.2233 90.2472 7.83819 89.4191 7.53226 88.6C5.93415 84.3147 6.59828 79.3053 9.30868 75.1984C15.4682 65.8653 25.0906 64.5233 32.4001 65.1665ZM45.3732 111.697C46.3249 111.781 47.3119 111.853 48.3434 111.917C48.9461 111.953 49.5672 112.005 50.1983 112.059C54.7827 112.441 59.5233 112.835 62.6887 108.272C65.29 104.523 65.363 98.0632 62.8847 90.9918C57.5546 75.7917 46.7015 70.2725 40.7058 68.3356C35.8353 66.7621 19.2617 62.6691 10.4348 76.0421C7.99193 79.7423 7.38542 84.2354 8.81211 88.0591C9.09191 88.807 9.44397 89.5655 9.85983 90.3118C15.3767 100.231 23.428 106.751 33.7899 109.688C37.2413 110.665 40.8987 111.304 45.3732 111.697Z" fill="#023575"/>
<path d="M36.2217 62.1098C32.4421 55.702 30.2821 48.223 30.0269 40.6614C27.3403 36.9064 25.5431 32.14 25.6922 27.4219C25.8413 22.7038 28.8907 17.8727 33.2761 17.1723C35.214 16.863 37.191 17.3531 39.1466 17.2091C41.9969 16.9988 44.5966 15.467 47.0418 13.8919C49.487 12.3175 51.9599 10.6319 54.7648 10.0534C57.5697 9.47403 60.8428 10.2825 62.414 12.824C63.1312 13.9835 63.4341 15.3885 64.1397 16.5561C65.0813 18.1141 66.6456 19.1058 68.1899 19.9601C69.7342 20.8152 71.3539 21.6171 72.5599 22.9533C73.766 24.2895 74.4747 26.3295 73.786 28.0315C72.9543 30.0878 70.3023 31.3602 70.5575 33.5826C70.762 35.3689 72.8482 36.4293 72.9812 38.2222C73.0911 39.6983 71.842 40.8374 70.7174 41.708C64.7647 46.3132 58.8119 50.9192 52.8584 55.5244C50.4271 57.4056 47.9673 59.304 45.1923 60.5355C42.4181 61.767 39.0889 63.0713 36.2217 62.1098Z" fill="#344964"/>
<path d="M63.9922 41.7166C64.3896 47.0026 64.5541 52.4629 64.1682 57.7563C63.9122 61.2691 62.5647 65.0347 59.8643 67.3152C56.4982 70.1595 52.1014 69.3012 48.1464 68.982C47.666 68.982 44.9902 80.7864 44.682 82.1005C41.8247 83.422 38.258 83.0505 35.5776 81.3608C32.8972 79.671 31.0524 76.5633 30.7687 73.2608C32.5382 69.3396 36.2072 61.9777 36.6092 57.127C34.646 57.1565 32.6051 55.956 31.3322 54.3752C30.4682 53.3008 30.1207 51.8271 30.5696 50.4966C31.2538 48.4673 33.1524 48.086 34.7374 48.5147C35.7898 48.8003 36.7383 49.4026 37.6692 49.9975C37.5816 44.1616 38.2473 42.5946 40.5633 37.3037C41.2536 35.7269 40.9646 33.8195 40.6779 31.9678C40.4888 30.7477 41.3182 29.6185 42.4766 29.5138C46.6475 29.1374 51.0928 28.5842 55.1515 28.2798C57.6928 28.0892 60.5646 28.018 62.401 29.8967C63.2581 30.7739 63.3058 34.9307 63.4649 36.2694C63.6778 38.0802 63.8554 39.8959 63.9922 41.7166Z" fill="white"/>
<path d="M40.9295 83.4995C38.9778 83.4995 36.9846 82.9504 35.2881 81.881C32.4524 80.0922 30.5038 76.811 30.2024 73.3145L30.1878 73.1484L30.2555 72.9971C30.483 72.4938 30.7421 71.9333 31.0211 71.3294C32.7922 67.4918 35.4234 61.7909 35.9738 57.7012C34.1489 57.5081 32.2156 56.4034 30.9004 54.7669C29.8681 53.4839 29.5367 51.768 30.0341 50.2902C30.872 47.8035 33.1642 47.4647 34.8776 47.9254C35.6778 48.143 36.4027 48.5186 37.0945 48.9327C37.1114 43.7555 37.917 41.916 40.0486 37.0457C40.6704 35.6252 40.3891 33.8152 40.117 32.0649C40.0017 31.3195 40.1846 30.5487 40.6205 29.953C41.0578 29.3548 41.7166 28.9735 42.4284 28.9097C44.1641 28.7534 45.9459 28.566 47.7293 28.3786C50.1906 28.1209 52.7358 27.8533 55.1125 27.6749C57.7876 27.4728 60.8116 27.4294 62.7948 29.4596C63.5543 30.2361 63.7588 32.4094 63.931 34.9583C63.9648 35.4648 63.994 35.8985 64.0286 36.1931C64.2446 38.0178 64.4237 39.8597 64.5605 41.6681V41.6689C65.0225 47.8149 65.0794 53.0927 64.7365 57.8027C64.4314 61.9824 62.7848 65.622 60.2189 67.7888C57.0835 70.44 53.0817 70.0562 49.5503 69.7166C49.176 69.6798 48.8039 69.6446 48.435 69.6127C48.1406 70.3508 47.3734 72.9807 45.3771 81.6306L45.1673 82.5364L44.9098 82.6551C43.686 83.2221 42.3177 83.4995 40.9295 83.4995ZM31.3501 73.3694C31.6637 76.4223 33.384 79.274 35.8677 80.8393C38.3821 82.4251 41.6213 82.7361 44.1987 81.6584L44.2725 81.3409C47.265 68.3763 47.541 68.3763 48.1475 68.3763C48.6717 68.4164 49.1598 68.4622 49.6518 68.5105C53.1317 68.8444 56.7299 69.1905 59.5118 66.8396C61.8309 64.8815 63.3221 61.5536 63.6019 57.7094C63.9409 53.0624 63.884 47.8468 63.4259 41.7646C63.2914 39.9751 63.1146 38.1512 62.8994 36.3436C62.8632 36.0335 62.8325 35.5769 62.7964 35.045C62.7041 33.6834 62.5127 30.8506 62.0069 30.3326C60.3596 28.6454 57.7376 28.692 55.1917 28.8827C52.8319 29.0602 50.2944 29.3262 47.8408 29.5839C46.0528 29.7713 44.2648 29.9595 42.5237 30.1158C42.1233 30.1526 41.7651 30.358 41.5175 30.6959C41.2723 31.0323 41.1732 31.4488 41.2385 31.8685C41.5245 33.7105 41.8481 35.7979 41.0786 37.5579C38.7718 42.8284 38.1515 44.2456 38.2375 49.9858L38.2537 51.0749L37.3758 50.5144C36.4911 49.9498 35.5763 49.3655 34.5955 49.0996C33.2895 48.7444 31.6829 48.9793 31.1033 50.6993C30.7436 51.7688 30.9957 53.0256 31.7629 53.9797C33.0089 55.5295 34.8753 56.5204 36.5364 56.5204C36.5572 56.5204 36.5779 56.5204 36.5995 56.5204L37.229 56.5106L37.1737 57.1775C36.8147 61.52 33.9413 67.743 32.0404 71.8613C31.7921 72.4046 31.5584 72.9095 31.3501 73.3694Z" fill="#023575"/>
<path d="M49.5083 45.0601C48.0532 45.0601 46.6257 44.0905 46.1176 42.7207C46.0031 42.4098 46.1461 42.0579 46.4382 41.9352C46.7303 41.8157 47.0616 41.9646 47.1761 42.2772C47.532 43.2379 48.6374 43.9268 49.6797 43.8434C50.7221 43.7599 51.6922 42.913 51.8874 41.9147C51.9512 41.5874 52.2579 41.373 52.56 41.4459C52.8675 41.5138 53.065 41.8345 53.0012 42.161C52.703 43.6855 51.3124 44.9276 49.7658 45.0503C49.6797 45.0569 49.5944 45.0601 49.5083 45.0601Z" fill="#023575"/>
<path d="M59.8597 44.5206C58.486 44.5206 57.1424 43.5461 56.6688 42.1673C56.5605 41.8531 56.7119 41.5053 57.0063 41.3908C57.3007 41.277 57.6281 41.4374 57.7365 41.75C58.064 42.7016 59.0579 43.3947 60.0134 43.3022C60.9627 43.2212 61.8483 42.3784 62.0289 41.3826C62.0889 41.0553 62.3863 40.8417 62.6954 40.9031C63.0036 40.9669 63.2058 41.2844 63.1458 41.6125C62.8683 43.1394 61.5608 44.384 60.1049 44.5092C60.0226 44.5174 59.9412 44.5206 59.8597 44.5206Z" fill="#023575"/>
<path d="M45.5428 36.6998C45.4713 36.6998 45.3991 36.6989 45.3268 36.6965C45.0132 36.6867 44.7664 36.4076 44.7756 36.073C44.7849 35.7457 45.0378 35.4863 45.3437 35.4863C45.3491 35.4863 45.3552 35.4863 45.3606 35.4863C47.4246 35.5583 49.5507 34.4962 50.8345 32.7345C51.0266 32.471 51.3848 32.4219 51.6324 32.6264C51.8806 32.831 51.926 33.2115 51.7338 33.4758C50.2756 35.4781 47.9204 36.6998 45.5428 36.6998Z" fill="#023575"/>
<path d="M60.7476 35.3676C59.0457 35.3676 57.33 34.7277 56.0209 33.578C55.7788 33.3653 55.745 32.984 55.9441 32.7262C56.1447 32.4668 56.5045 32.4324 56.7443 32.6444C58.0434 33.7859 59.8198 34.3382 61.4909 34.1066C61.803 34.0723 62.0867 34.2997 62.1266 34.632C62.1658 34.9634 61.9452 35.2661 61.6331 35.3087C61.3403 35.3488 61.0443 35.3676 60.7476 35.3676Z" fill="#023575"/>
<path d="M40.8252 48.5749C40.0134 49.2909 39.5261 50.3849 39.7736 52.064C40.0119 53.676 41.025 54.8551 41.9482 55.3076C45.023 56.8124 48.2315 56.8967 51.081 55.5465C52.0811 55.0736 53.1165 54.1751 53.2149 52.2751C53.3487 49.7025 51.729 47.9915 50.3554 47.3786C48.8887 46.7248 47.2937 46.8083 45.8616 46.9826C44.2005 47.1831 42.2426 47.3222 40.8252 48.5749Z" fill="#FF8A65"/>
<path d="M63.8225 47.2305C63.1745 47.4498 62.6064 47.8957 62.0684 48.3711C61.2566 49.0871 60.7693 50.1812 61.0168 51.8602C61.2551 53.4722 62.2682 54.6513 63.1914 55.1038C63.6265 55.3174 63.432 55.2544 63.8717 55.4107C63.9932 52.6106 63.9547 50.3661 63.8225 47.2305Z" fill="#FF8A65"/>
<path d="M57.9646 57.7017C57.6925 57.7017 57.4534 57.493 57.405 57.1993C57.3511 56.8703 57.5595 56.5561 57.8685 56.4996C58.4957 56.3843 59.0969 56.1069 59.6042 55.6986C59.917 55.4465 60.3045 55.0456 60.3729 54.5595C60.4574 53.9646 60.0569 53.3133 59.6395 52.6972L57.8984 50.1221C57.7147 49.8504 57.7724 49.4715 58.0268 49.2776C58.282 49.0812 58.6364 49.1442 58.8201 49.4143L60.562 51.9902C61.1154 52.8093 61.6443 53.6954 61.4967 54.7395C61.3967 55.4441 60.9794 56.111 60.2891 56.6649C59.638 57.1894 58.8678 57.5446 58.063 57.6935C58.0291 57.6976 57.9969 57.7017 57.9646 57.7017Z" fill="#023575"/>
<path d="M56.742 66.7961C56.1409 66.7961 55.619 66.585 55.2638 66.1808C54.7088 65.5475 54.6289 64.5385 55.0532 63.4838C55.7143 61.8415 57.2117 60.5945 58.8674 60.3064C59.9713 60.1125 60.5309 60.5241 60.8053 60.9021C61.2542 61.5208 61.2596 62.4855 60.8191 63.5476C60.1773 65.0974 59.0596 66.1955 57.6744 66.6406C57.3516 66.7454 57.0372 66.7961 56.742 66.7961ZM57.5099 66.063H57.5161H57.5099ZM59.4055 61.4684C59.2772 61.4684 59.1488 61.4847 59.0504 61.5019C57.769 61.7245 56.6098 62.6901 56.0986 63.9608C55.9211 64.4019 55.8134 65.0336 56.0963 65.3552C56.3638 65.6596 56.9165 65.6211 57.3454 65.4836C58.4093 65.1408 59.2733 64.2799 59.7799 63.0599C60.0697 62.3603 60.052 61.844 59.9067 61.6435C59.8068 61.5068 59.6046 61.4684 59.4055 61.4684Z" fill="#023575"/>
<path d="M72.9758 76.279C71.8927 76.279 70.8419 75.5957 70.3637 74.5541C70.0347 73.8373 69.9218 73.0935 70.0171 72.4323C69.8572 72.4568 69.6927 72.4773 69.5259 72.4675C68.7672 72.4568 68.1015 72.1034 67.7471 71.5191C67.4081 70.9611 67.3682 70.1951 67.6434 69.5184C67.7556 69.2427 67.9447 68.9637 68.1607 68.71L63.5977 66.8329C63.3056 66.7126 63.1596 66.3624 63.2726 66.0498C63.3864 65.7372 63.7169 65.5818 64.0082 65.7037L69.4252 67.9318C69.6181 68.0112 69.755 68.1953 69.7834 68.413C69.8126 68.6315 69.7273 68.8483 69.562 68.98C69.1615 69.3008 68.8018 69.7197 68.688 69.9988C68.5642 70.304 68.5696 70.6427 68.7034 70.862C68.8463 71.0969 69.1746 71.2523 69.5413 71.2573C69.9533 71.2442 70.4022 71.1083 70.8334 70.9594C71.0794 70.8751 71.3484 70.9766 71.4883 71.209C71.6282 71.4414 71.6029 71.745 71.4268 71.9462C70.9464 72.4978 71.1055 73.4101 71.3869 74.023C71.6928 74.6891 72.4223 75.126 73.1118 75.063C73.8059 75 74.4509 74.4379 74.6469 73.7268C74.7045 73.5149 74.8667 73.3537 75.0689 73.3054C75.2718 73.2571 75.4817 73.3299 75.6185 73.4961C76.1151 74.0942 77.3819 74.1883 78.0453 73.6736C78.684 73.1785 78.89 72.1083 78.4865 71.3849C78.3497 71.1419 78.3912 70.8293 78.5849 70.6354C78.7217 70.4979 78.9108 70.4447 79.0845 70.4815C79.9908 69.8777 80.6242 68.8696 80.7264 67.8443C80.8425 66.6799 80.2299 65.4754 79.3013 65.0425C78.3181 64.5827 76.79 64.7684 76.4041 65.6366C76.2796 65.9197 75.9729 66.0547 75.6977 65.9483C75.4225 65.842 75.2665 65.531 75.3395 65.2283C75.4586 64.7332 75.1188 64.1105 74.6115 63.8953C74.098 63.6769 73.4216 63.802 72.8897 64.2177C72.2847 64.689 71.792 65.3494 71.5706 65.9819C71.5137 66.1439 71.3953 66.2716 71.2454 66.3354C71.0932 66.3976 70.9264 66.3886 70.7811 66.3125C69.0585 65.387 67.2813 64.5139 65.4972 63.7186C65.2082 63.5893 65.0713 63.2342 65.1928 62.9257C65.315 62.6172 65.6501 62.4732 65.9376 62.6016C67.5657 63.3291 69.1892 64.1187 70.7711 64.9534C71.1109 64.3126 71.6167 63.7096 72.2178 63.2415C73.0711 62.5746 74.1526 62.3963 75.0335 62.7718C75.6047 63.014 76.0528 63.4993 76.2965 64.0655C77.2704 63.4461 78.6817 63.4322 79.7571 63.9354C81.1423 64.581 82.0255 66.2797 81.8564 67.9736C81.7181 69.3622 80.9186 70.6689 79.7371 71.4749C80.0146 72.6197 79.6218 73.9485 78.7125 74.6539C77.7985 75.3617 76.3887 75.3928 75.4087 74.8323C74.9282 75.6301 74.105 76.1873 73.2079 76.2691C73.1287 76.2757 73.0526 76.279 72.9758 76.279Z" fill="#023575"/>
<path d="M36.4494 105.771C35.979 103.986 35.5047 102.129 35.7968 100.301C36.0267 98.8625 36.7154 97.5615 37.3926 96.2932C38.1344 94.9037 38.8769 93.5135 39.6187 92.1233C39.8678 91.656 40.1699 91.1446 40.6603 91.0186C41.2337 90.8713 41.8149 91.3533 42.0309 91.9375C42.2469 92.5209 42.1908 93.1739 42.1308 93.7974C42.0086 95.0682 41.8871 96.339 41.7649 97.6106C42.6497 94.8366 44.0072 92.4678 45.3808 89.9287C45.6737 89.3886 46.0096 88.8216 46.5462 88.5703C47.0827 88.3175 47.8591 88.5679 47.9598 89.1824C48.0912 88.2463 49.4433 87.6907 50.2828 88C50.9653 88.252 51.1052 89.1235 50.8785 90.3795C51.3674 90.2511 51.9354 90.4082 52.1714 90.882C52.4066 91.3549 52.1883 92.3147 51.9485 93.1543C52.2083 94.2818 52.8671 95.2237 52.7364 96.3766C52.1514 101.555 49.5886 106.449 45.7582 109.701C44.7651 110.545 44.0671 111.869 43.2439 112.901C40.5857 112.559 38.1728 111.785 35.8844 110.305C36.6839 109.372 36.77 106.986 36.4494 105.771Z" fill="white"/>
<path d="M43.246 113.508C43.2237 113.508 43.2006 113.507 43.1783 113.503C40.2481 113.128 37.8375 112.276 35.5913 110.824C35.4468 110.731 35.3484 110.572 35.3238 110.395C35.2993 110.215 35.3515 110.035 35.4661 109.9C36.0649 109.2 36.2086 107.1 35.9027 105.936C35.4407 104.183 34.9172 102.196 35.237 100.201C35.4876 98.6387 36.237 97.2337 36.8989 95.9948L39.125 91.8241C39.3648 91.3765 39.7646 90.6262 40.5279 90.4306C41.4188 90.2015 42.2613 90.906 42.5618 91.7169C42.8209 92.4141 42.7647 93.1587 42.7071 93.7708C43.2605 92.6244 43.8678 91.5075 44.4928 90.3603L44.8902 89.6279C45.2192 89.0191 45.6289 88.3416 46.3176 88.0176C46.7873 87.7958 47.3615 87.8212 47.8181 88.0822C47.8373 88.0928 47.8558 88.1035 47.875 88.1149C48.0026 87.9758 48.154 87.8498 48.3254 87.7393C48.9865 87.3138 49.8282 87.1919 50.4708 87.4292C51.0389 87.6379 51.6416 88.218 51.5332 89.7596C52.0251 89.848 52.4495 90.1467 52.6747 90.5984C52.9921 91.2358 52.8084 92.1989 52.5409 93.1661C52.6209 93.4639 52.7316 93.7569 52.8461 94.0629C53.1213 94.7936 53.4057 95.5472 53.3027 96.4506C52.6978 101.808 50.0788 106.81 46.1155 110.175C45.522 110.679 45.0139 111.416 44.5243 112.128C44.2537 112.52 43.9747 112.924 43.6803 113.294C43.5703 113.43 43.412 113.508 43.246 113.508ZM36.689 110.105C38.57 111.225 40.5993 111.917 43.0061 112.26C43.206 111.994 43.402 111.709 43.6065 111.413C44.1407 110.637 44.6934 109.835 45.4052 109.23C49.1364 106.061 51.6031 101.351 52.1735 96.3066C52.2404 95.7101 52.0321 95.1561 51.7907 94.5146C51.6469 94.1325 51.4978 93.7381 51.3971 93.3027C51.3725 93.1972 51.3756 93.0851 51.4048 92.9812C51.8007 91.5999 51.7077 91.2432 51.6692 91.1671C51.5678 90.9625 51.2549 90.9085 51.0143 90.969C50.8244 91.0198 50.6269 90.9617 50.4862 90.8201C50.3456 90.6769 50.2825 90.4691 50.3194 90.2661C50.4217 89.7024 50.5285 88.7327 50.0973 88.5748C49.776 88.4561 49.2786 88.5388 48.9127 88.7753C48.6883 88.9201 48.5453 89.1018 48.5215 89.2736C48.4807 89.5674 48.2455 89.7858 47.9665 89.7891C47.7128 89.7719 47.4476 89.5821 47.3992 89.2891C47.3907 89.2376 47.35 89.1901 47.28 89.15C47.1355 89.0666 46.9234 89.0584 46.775 89.1255C46.4014 89.3022 46.1247 89.7695 45.8733 90.2334L45.4744 90.9666C44.2452 93.2258 43.0845 95.3582 42.3028 97.8065C42.2098 98.0986 41.923 98.2712 41.644 98.2025C41.3611 98.1379 41.1697 97.8564 41.1989 97.5503L41.5648 93.7364C41.6171 93.1874 41.6709 92.6187 41.501 92.1604C41.368 91.802 41.0329 91.5451 40.7923 91.6073C40.5302 91.6744 40.3034 92.0639 40.112 92.4223L37.8859 96.593C37.2402 97.8016 36.573 99.051 36.3562 100.403C36.0795 102.13 36.566 103.978 36.9957 105.608C37.304 106.771 37.2871 108.82 36.689 110.105Z" fill="#023575"/>
<path d="M46.0707 96.959C45.9915 96.959 45.9108 96.9418 45.834 96.9042C45.548 96.7643 45.4227 96.4051 45.5542 96.1023C46.5396 93.8194 47.1776 91.3965 47.4513 88.8999C47.4882 88.5685 47.7764 88.3329 48.0824 88.3689C48.3937 88.4081 48.6174 88.7085 48.5813 89.0407C48.293 91.6632 47.6227 94.208 46.5873 96.6064C46.492 96.8273 46.286 96.959 46.0707 96.959Z" fill="#023575"/>
<path d="M48.2517 98.7756C48.1618 98.7756 48.0711 98.7527 47.9873 98.7053C47.7098 98.549 47.6029 98.1824 47.749 97.887C49.045 95.2759 49.9359 92.4758 50.3964 89.5644C50.4479 89.2355 50.7407 89.0088 51.052 89.0694C51.3618 89.1242 51.5701 89.4368 51.5179 89.7665C51.0367 92.8047 50.1073 95.7276 48.7552 98.4524C48.653 98.6586 48.4562 98.7756 48.2517 98.7756Z" fill="#023575"/>
<path d="M49.9102 99.2807C49.8241 99.2807 49.7357 99.2594 49.6534 99.2152C49.3729 99.063 49.2614 98.6989 49.4036 98.401C50.3545 96.4086 51.1009 94.2999 51.6205 92.1348C51.6981 91.8099 52.0102 91.6119 52.3116 91.6978C52.616 91.7813 52.7997 92.1102 52.722 92.4334C52.1816 94.6861 51.406 96.8783 50.4167 98.9493C50.3176 99.1604 50.1185 99.2807 49.9102 99.2807Z" fill="#023575"/>
<path d="M79.2473 66.3087C78.1396 64.9103 76.7222 65.731 75.7052 66.7964C75.4508 65.9438 74.792 65.2491 73.8473 65.2261C72.6604 65.1975 71.8741 66.2719 71.7941 67.4118C70.2998 66.735 68.8547 65.9274 67.3142 65.3743C67.2458 65.3505 67.202 65.4528 67.2612 65.4937C68.4557 66.348 69.7555 67.0116 71.0193 67.7415C70.5834 68.0254 70.3351 68.568 70.5873 69.27C70.8594 70.0294 71.4405 70.2331 71.9794 70.0801C71.9325 71.2044 72.203 72.332 73.3661 72.6904C74.1002 72.917 74.6951 72.5938 74.9972 72.053C76.1503 72.7869 77.8568 71.7273 77.4424 70.1137C78.9529 69.6023 80.5825 67.9935 79.2473 66.3087Z" fill="white"/>
</svg>
