<svg width="99" height="99" viewBox="0 0 99 99" fill="none" xmlns="http://www.w3.org/2000/svg">
<rect x="0.830078" y="0.564453" width="97.63" height="97.63" rx="48.815" fill="#B5BDBC"/>
<mask id="mask0" mask-type="alpha" maskUnits="userSpaceOnUse" x="0" y="0" width="99" height="99">
<rect x="0.830078" y="0.564453" width="97.63" height="97.63" rx="48.815" fill="#63E7D7"/>
</mask>
<g mask="url(#mask0)">
<path d="M83.6978 89.6374C75.4868 80.7824 58.1876 77.1847 47.2046 81.8464C36.2216 86.5092 27.5456 95.4303 19.1826 104.133C29.2966 111.347 41.5876 115.874 53.2376 111.818C64.8856 107.762 79.8848 101.7 83.6978 89.6374Z" fill="white"/>
<path d="M49.1185 113.635C37.4635 115.715 26.3795 110.138 18.7865 104.723L18.1035 104.236L18.6875 103.628C26.6405 95.3531 35.6555 85.9749 46.9385 81.1852C57.4085 76.7391 71.9695 76.5647 80.8975 86.1937L83.9591 89.6772C79.7751 102.914 64.0565 108.809 53.4565 112.5C52.0075 113.003 50.5575 113.377 49.1185 113.635ZM20.2625 104.025C28.5275 109.766 40.7035 115.428 53.0135 111.139C63.1825 107.598 79.8011 102.179 83.9591 89.6772C75.4591 80.8501 57.3875 78.2985 47.4675 82.5103C36.7195 87.073 27.9795 96.0013 20.2625 104.025Z" fill="#023575"/>
<path d="M31.7315 40.9389C30.6665 35.853 31.1725 30.4295 33.1605 25.648C31.7495 21.2763 35.6565 20.0466 38.8205 16.7946C41.9835 13.5426 45.6387 14.0015 49.8697 15.4742C54.1007 16.947 55.8555 15.4339 56.4625 19.9986C59.6785 20.204 63.2625 20.6323 65.9315 22.4962C67.1215 23.327 68.2425 24.3404 68.8895 25.6656C69.5355 26.9897 71.2513 27.0824 70.4562 28.3178C71.5303 28.1496 71.5315 30.1922 72.4085 30.8547C73.2845 31.5173 73.9685 32.4111 74.6075 33.3182C75.7315 34.9138 76.7815 36.6641 76.9985 38.624C77.3345 41.6634 78.877 43.7602 76.039 44.6426C78.166 46.6613 74.0795 51.248 72.5055 53.7487C70.9305 56.2504 68.4385 57.9429 66.2665 59.9121C62.1645 63.6295 59.0825 68.5318 57.4625 73.9108C53.7845 71.2058 50.5985 67.7908 48.1175 63.8958L31.7315 40.9389Z" fill="#344964"/>
<path d="M30.8191 42.266C29.0581 47.7844 27.5081 53.5525 26.6061 59.2938C26.0071 63.1041 26.5431 67.4841 28.9371 70.6556C31.9211 74.6104 36.9641 74.9066 41.3871 75.6559C41.9151 75.788 41.8951 89.0932 41.9041 90.5773C44.7101 92.7714 48.7211 93.3576 52.0881 92.2967C55.4551 91.2347 58.2601 88.4337 59.3991 84.996C58.4381 80.3342 56.2541 71.4864 57.0291 66.2116C59.1771 66.7834 61.7191 66.0682 63.5131 64.7337C64.7311 63.8286 65.4821 62.3538 65.3231 60.814C65.0801 58.4651 63.0911 57.5362 61.2431 57.5569C60.0161 57.5703 58.8241 57.9511 57.6521 58.3278C59.2111 52.1386 58.8721 50.2871 57.6551 44.0174C57.2921 42.1494 58.0871 40.1978 58.8661 38.305C59.3801 37.0583 58.7511 35.6279 57.5061 35.1975C53.0211 33.6484 48.2771 31.8361 43.8971 30.3943C41.1551 29.4913 38.0191 28.6254 35.5311 30.1198C34.3701 30.8175 33.2761 35.2305 32.7661 36.6114C32.0751 38.4805 31.4251 40.366 30.8191 42.266Z" fill="white"/>
<path d="M45.6825 93.0716C44.1605 92.6897 42.7315 92.0189 41.5335 91.0818L41.2925 90.8929L41.2885 89.864C41.2625 80.0523 41.0775 77.0666 40.9385 76.2223C40.5195 76.1542 40.0955 76.0892 39.6685 76.0221C35.7115 75.4122 31.2265 74.7197 28.4525 71.0445C26.1825 68.0361 25.2885 63.716 25.9995 59.1925C26.8025 54.0849 28.1875 48.4829 30.2355 42.0677L30.8185 42.2659L30.2355 42.0677C30.8315 40.1976 31.4895 38.2863 32.1905 36.3863C32.2995 36.0901 32.4425 35.6298 32.6085 35.0962C33.4345 32.4366 34.2005 30.1857 35.2205 29.5727C37.8975 27.9627 41.1995 28.842 44.0825 29.7905C46.6505 30.6357 49.3835 31.6223 52.0265 32.577C53.9015 33.254 55.8395 33.9537 57.6995 34.5967C58.4565 34.8578 59.0785 35.4378 59.4065 36.1881C59.7325 36.9364 59.7415 37.7981 59.4305 38.5525C58.6915 40.3462 57.9275 42.2009 58.2565 43.8924C59.4095 49.8298 59.8055 51.868 58.5115 57.3967C59.3865 57.1387 60.2895 56.9333 61.2365 56.923C63.2195 56.9003 65.6385 57.889 65.9345 60.7468C66.1105 62.4465 65.3205 64.1721 63.8735 65.2486C62.0145 66.6305 59.6095 67.2703 57.5585 66.9659C57.1275 71.4759 58.5935 78.2906 59.5795 82.8749C59.7345 83.5963 59.8785 84.2661 60.0015 84.8657L60.0375 85.0371L59.9825 85.2032C58.7795 88.833 55.8245 91.7836 52.2705 92.9044C50.1415 93.5721 47.8205 93.6072 45.6825 93.0716ZM42.5175 90.2541C45.0855 92.1242 48.7355 92.6897 51.9085 91.6897C55.0395 90.703 57.6515 88.1312 58.7625 84.9545C58.6485 84.4034 58.5175 83.7976 58.3785 83.1484C57.3245 78.2431 55.7305 70.8309 56.4225 66.1165L56.5245 65.4219L57.1835 65.5974C59.0115 66.0938 61.3705 65.5479 63.1555 64.2206C64.2455 63.4095 64.8425 62.1307 64.7135 60.882C64.5055 58.8715 62.7875 58.1739 61.2515 58.1925C60.1045 58.2048 58.9515 58.5764 57.8355 58.9345L56.7805 59.274L57.0585 58.1708C58.5935 52.0755 58.2365 50.2364 57.0545 44.1442C56.6515 42.0688 57.5285 39.9386 58.3025 38.0592C58.4825 37.6227 58.4775 37.1438 58.2885 36.7114C58.0985 36.2759 57.7515 35.9528 57.3125 35.8011C55.4445 35.1561 53.5015 34.4543 51.6235 33.7762C48.9885 32.8247 46.2635 31.8411 43.7115 31.0011C40.9595 30.096 38.0845 29.324 35.8415 30.6708C35.1465 31.0877 34.2245 34.058 33.7815 35.4853C33.6105 36.0364 33.4625 36.5122 33.3425 36.8404C32.6485 38.7228 31.9965 40.6167 31.4055 42.4681C29.3785 48.8204 28.0085 54.3584 27.2165 59.3989C26.5595 63.5766 27.3645 67.5387 29.4255 70.2695C31.8975 73.5452 35.9425 74.1686 39.8535 74.7733C40.4045 74.859 40.9525 74.9426 41.4905 75.0334L41.5355 75.0437C42.1655 75.2016 42.4815 75.2801 42.5195 89.865L42.5175 90.2541Z" fill="#023575"/>
<path d="M57.5809 62.9731C57.4879 62.9504 57.3989 62.9039 57.3219 62.8337C57.0669 62.6026 57.0409 62.2021 57.2639 61.939C58.4749 60.5127 60.2229 59.6406 62.0579 59.5477C62.3969 59.5301 62.6849 59.8005 62.7019 60.1494C62.7189 60.4992 62.4579 60.7965 62.1189 60.814C60.6359 60.8894 59.1669 61.6221 58.1879 62.7749C58.0329 62.9586 57.7959 63.0267 57.5809 62.9731Z" fill="#023575"/>
<path d="M33.4399 60.9145C33.4059 60.9062 33.3729 60.8938 33.3389 60.8794C32.4959 60.5006 31.7439 59.9134 31.1619 59.1796C30.5479 58.4045 30.2579 57.5882 30.3249 56.8183C30.4239 55.6779 31.2219 54.8832 32.0309 54.168L34.5889 51.9057C34.8459 51.6776 35.2339 51.7086 35.4549 51.9739C35.6759 52.2401 35.6459 52.6406 35.3889 52.8676L32.8319 55.1299C32.2149 55.6758 31.6079 56.2641 31.5499 56.9308C31.5029 57.4767 31.8309 58.0185 32.1139 58.3756C32.5729 58.9536 33.1659 59.417 33.8309 59.7152C34.1419 59.8556 34.2839 60.2282 34.1489 60.5502C34.0269 60.8381 33.7249 60.9857 33.4399 60.9145Z" fill="#023575"/>
<path d="M33.2476 65.3777C32.3896 65.163 31.6866 64.7172 31.2166 64.068C31.0126 63.7883 31.0686 63.391 31.3406 63.1815C31.6116 62.9709 31.9966 63.0287 32.1996 63.3094C32.7206 64.0267 33.8006 64.3693 35.0886 64.2249C35.6116 64.166 36.1286 64.0494 36.6756 63.9256C37.3806 63.7666 38.1106 63.6025 38.8686 63.5675C40.1806 63.5086 41.9666 63.9834 42.6836 65.517C42.8306 65.8318 42.7036 66.2105 42.3976 66.3633C42.0926 66.515 41.7256 66.3839 41.5776 66.0681C41.1196 65.0897 39.8616 64.7915 38.9226 64.8348C38.2696 64.8647 37.6226 65.0103 36.9386 65.164C36.3836 65.2899 35.8106 65.419 35.2216 65.485C34.5066 65.5645 33.8406 65.5263 33.2476 65.3777Z" fill="#023575"/>
<path d="M34.3717 45.9987C34.0627 45.9213 33.8587 45.6096 33.9117 45.2804C34.1927 43.5125 34.7297 41.8044 35.5087 40.2037C35.6607 39.891 36.0297 39.7651 36.3337 39.922C36.6367 40.0788 36.7587 40.4597 36.6067 40.7734C35.8837 42.2596 35.3847 43.8448 35.1247 45.4857C35.0697 45.8315 34.7547 46.0658 34.4197 46.009C34.4027 46.0059 34.3867 46.0028 34.3717 45.9987Z" fill="#023575"/>
<path d="M45.1383 49.5495C44.8293 49.4721 44.6253 49.1604 44.6783 48.8312C44.9583 47.0643 45.4963 45.3552 46.2753 43.7545C46.4273 43.4418 46.7983 43.3159 47.0993 43.4728C47.4023 43.6296 47.5253 44.0104 47.3723 44.3242C46.6493 45.8103 46.1503 47.3966 45.8903 49.0365C45.8353 49.3823 45.5193 49.6165 45.1843 49.5598C45.1693 49.5567 45.1533 49.5526 45.1383 49.5495Z" fill="#023575"/>
<path d="M34.9554 35.6259C34.8024 35.5877 34.6634 35.4886 34.5754 35.338C34.3994 35.0387 34.4924 34.6496 34.7824 34.4669C36.5664 33.3523 38.8044 33.1139 40.7714 33.8343C41.0914 33.9509 41.2584 34.3131 41.1454 34.6434C41.0324 34.9726 40.6804 35.1439 40.3614 35.0294C38.7384 34.4349 36.8914 34.632 35.4194 35.5516C35.2734 35.6424 35.1074 35.6641 34.9554 35.6259Z" fill="#023575"/>
<path d="M51.5084 39.1205C51.4274 39.0999 51.3494 39.0627 51.2794 39.007C50.2704 38.2061 49.0144 37.7365 47.7424 37.6839C47.6024 37.6777 47.4614 37.6767 47.3204 37.6756C46.8894 37.6715 46.4604 37.6736 45.9864 37.5487C45.1494 37.332 44.5285 36.7458 44.3645 36.0182C44.2885 35.6766 44.4934 35.336 44.8244 35.2575C45.1554 35.1791 45.4854 35.3907 45.5614 35.7323C45.6264 36.0254 45.9724 36.238 46.2854 36.3195C46.5884 36.3887 46.9554 36.4041 47.3314 36.4072C47.4854 36.4083 47.6394 36.4103 47.7924 36.4165C49.3144 36.4795 50.8194 37.042 52.0284 38.0018C52.2974 38.2154 52.3474 38.6127 52.1414 38.8904C51.9874 39.0957 51.7374 39.1783 51.5084 39.1205Z" fill="#023575"/>
</g>
<path d="M74.4659 23.0206C74.2393 23.0206 74.0526 22.9406 73.9059 22.7806C73.7726 22.6206 73.7059 22.4006 73.7059 22.1206C73.7059 21.3873 73.8393 20.7673 74.1059 20.2606C74.3726 19.7539 74.7593 19.2006 75.2659 18.6006C75.6659 18.1206 75.9593 17.7206 76.1459 17.4006C76.3326 17.0806 76.4259 16.7206 76.4259 16.3206C76.4259 15.8806 76.2593 15.5339 75.9259 15.2806C75.6059 15.0139 75.1659 14.8806 74.6059 14.8806C74.1259 14.8806 73.6659 14.9873 73.2259 15.2006C72.7859 15.4006 72.2726 15.6939 71.6859 16.0806C71.3526 16.2673 71.0793 16.3606 70.8659 16.3606C70.6393 16.3606 70.4393 16.2606 70.2659 16.0606C70.1059 15.8473 70.0259 15.6006 70.0259 15.3206C70.0259 14.9339 70.1859 14.6206 70.5059 14.3806C71.0659 13.9006 71.7259 13.5273 72.4859 13.2606C73.2459 12.9806 74.0126 12.8406 74.7859 12.8406C75.5993 12.8406 76.3193 12.9806 76.9459 13.2606C77.5859 13.5406 78.0793 13.9273 78.4259 14.4206C78.7859 14.9139 78.9659 15.4806 78.9659 16.1206C78.9659 16.8139 78.7993 17.4206 78.4659 17.9406C78.1326 18.4473 77.6459 19.0206 77.0059 19.6606C76.4593 20.2206 76.0459 20.6939 75.7659 21.0806C75.4993 21.4539 75.3326 21.8806 75.2659 22.3606C75.2259 22.5739 75.1326 22.7406 74.9859 22.8606C74.8526 22.9673 74.6793 23.0206 74.4659 23.0206ZM74.5059 27.2206C74.0793 27.2206 73.7259 27.0806 73.4459 26.8006C73.1659 26.5073 73.0259 26.1473 73.0259 25.7206C73.0259 25.2939 73.1659 24.9406 73.4459 24.6606C73.7259 24.3673 74.0793 24.2206 74.5059 24.2206C74.9326 24.2206 75.2859 24.3673 75.5659 24.6606C75.8459 24.9406 75.9859 25.2939 75.9859 25.7206C75.9859 26.1473 75.8393 26.5073 75.5459 26.8006C75.2659 27.0806 74.9193 27.2206 74.5059 27.2206Z" fill="#344964"/>
</svg>
