<svg width="106" height="120" viewBox="0 0 106 120" fill="none" xmlns="http://www.w3.org/2000/svg">
<path d="M41.5662 4.81769C35.3325 7.96131 29.4756 13.4401 29.0586 20.4081C28.8228 24.3687 30.3605 28.5164 28.9188 32.2119C27.127 36.8033 21.7271 38.5417 17.3667 40.8417C7.16022 46.2245 0.49855 57.7171 0.902139 69.2486C1.30451 80.78 8.75269 91.7791 19.3105 96.4361C24.1596 98.5744 29.7017 99.5518 33.6403 103.098C37.2191 106.32 38.9137 111.202 42.3576 114.57C48.4807 120.556 58.218 120.249 66.7104 119.159C71.5303 118.54 76.4378 117.764 80.7351 115.497C85.0335 113.233 88.6817 109.197 89.2494 104.372C90.1611 96.6234 83.198 89.6177 83.9359 81.8522C84.6932 73.8753 92.8343 69.1148 98.0676 63.0488C102.933 57.4107 105.488 49.8459 105.136 42.4159C104.745 34.1338 100.169 28.3012 96.3754 21.3344C90.1161 9.83943 80.4506 3.12794 67.182 1.0638C58.5255 -0.280688 49.4241 0.858374 41.5662 4.81769Z" fill="#63E6D6"/>
<path d="M44.3438 49.6204C44.4908 55.3634 44.6378 61.1074 44.7848 66.8504C43.9678 65.6654 43.0888 64.4544 41.8318 63.7534C40.5738 63.0534 38.8278 63.0154 37.8288 64.0524C36.8298 65.0894 37.2448 67.2284 38.6628 67.4734C37.7798 69.2294 35.0038 68.8994 33.6178 67.5054C31.7988 65.6754 31.3858 62.8034 29.3048 61.1104C28.3958 60.3704 27.1818 60.0044 26.0768 60.3964C23.8178 61.1994 23.9878 64.2694 25.4088 65.9334C26.7088 67.4554 28.6608 68.2194 30.3448 69.3024C33.5378 71.3544 35.8528 74.7274 36.6198 78.4444C37.3868 82.1614 36.5988 86.1744 34.4808 89.3244C32.5558 92.1874 28.0208 93.7384 29.6938 98.4754C29.9468 99.1934 30.4568 99.8234 31.1388 100.159C33.2058 101.176 35.6158 99.6854 37.5068 98.3304C39.4248 96.9574 42.0888 95.6574 43.9748 97.0734C45.1358 97.9454 45.4628 99.5074 45.9438 100.876C46.4838 102.414 47.6768 104.083 49.4298 103.616C50.2418 103.4 50.8538 102.715 51.1128 101.917C51.6718 100.194 50.9568 98.5644 50.3828 96.9744C49.6378 94.9114 49.0998 92.6484 50.1368 90.5524C50.5658 89.6864 51.3058 88.9724 52.2238 88.6694C54.5318 87.9074 56.2728 89.7524 57.9368 91.1504C60.3428 93.1734 63.3068 94.5264 66.4118 95.0184C68.0538 95.2794 70.0888 95.1294 70.7238 93.4364C71.0098 92.6704 70.8648 91.7994 70.4408 91.1014C69.5608 89.6484 67.9858 89.0494 66.4788 88.4904C64.5158 87.7614 62.4768 86.9764 61.2318 85.2024C60.8268 84.6244 60.5668 83.9444 60.4888 83.2434C60.2098 80.7514 61.9858 79.9634 63.3438 78.8374C63.3648 78.8194 63.3868 78.8024 63.4068 78.7834C66.1188 76.4894 63.7938 72.0694 60.3298 72.8564L56.9478 73.6244C55.9368 73.8534 54.9028 74.0844 53.8738 73.9594C52.8458 73.8354 51.8068 73.2834 51.3848 72.3374C50.7338 70.8754 51.7988 69.1694 53.1388 68.2954C54.7988 67.2114 56.8788 66.8774 58.3208 65.4084C58.9448 64.7724 59.3608 63.9184 59.3178 63.0284C59.2158 60.8834 56.7938 60.2664 55.1208 60.9804C53.7278 61.5754 52.7398 62.8194 51.8118 64.0154C50.5908 65.5874 49.3718 67.1594 48.1518 68.7324C48.0988 61.4124 48.0458 54.0924 47.9928 46.7734" fill="#42A5F5"/>
<path d="M44.3438 49.6204C44.4908 55.3634 44.6378 61.1074 44.7848 66.8504C43.9678 65.6654 43.0888 64.4544 41.8318 63.7534C40.5738 63.0534 38.8278 63.0154 37.8288 64.0524C36.8298 65.0894 37.2448 67.2284 38.6628 67.4734C37.7798 69.2294 35.0038 68.8994 33.6178 67.5054C31.7988 65.6754 31.3858 62.8034 29.3048 61.1104C28.3958 60.3704 27.1818 60.0044 26.0768 60.3964C23.8178 61.1994 23.9878 64.2694 25.4088 65.9334C26.7088 67.4554 28.6608 68.2194 30.3448 69.3024C33.5378 71.3544 35.8528 74.7274 36.6198 78.4444C37.3868 82.1614 36.5988 86.1744 34.4808 89.3244C32.5558 92.1874 28.0208 93.7384 29.6938 98.4754C29.9468 99.1934 30.4568 99.8234 31.1388 100.159C33.2058 101.176 35.6158 99.6854 37.5068 98.3304C39.4248 96.9574 42.0888 95.6574 43.9748 97.0734C45.1358 97.9454 45.4628 99.5074 45.9438 100.876C46.4838 102.414 47.6768 104.083 49.4298 103.616C50.2418 103.4 50.8538 102.715 51.1128 101.917C51.6718 100.194 50.9568 98.5644 50.3828 96.9744C49.6378 94.9114 49.0998 92.6484 50.1368 90.5524C50.5658 89.6864 51.3058 88.9724 52.2238 88.6694C54.5318 87.9074 56.2728 89.7524 57.9368 91.1504C60.3428 93.1734 63.3068 94.5264 66.4118 95.0184C68.0538 95.2794 70.0888 95.1294 70.7238 93.4364C71.0098 92.6704 70.8648 91.7994 70.4408 91.1014C69.5608 89.6484 67.9858 89.0494 66.4788 88.4904C64.5158 87.7614 62.4768 86.9764 61.2318 85.2024C60.8268 84.6244 60.5668 83.9444 60.4888 83.2434C60.2098 80.7514 61.9858 79.9634 63.3438 78.8374C63.3648 78.8194 63.3868 78.8024 63.4068 78.7834C66.1188 76.4894 63.7938 72.0694 60.3298 72.8564L56.9478 73.6244C55.9368 73.8534 54.9028 74.0844 53.8738 73.9594C52.8458 73.8354 51.8068 73.2834 51.3848 72.3374C50.7338 70.8754 51.7988 69.1694 53.1388 68.2954C54.7988 67.2114 56.8788 66.8774 58.3208 65.4084C58.9448 64.7724 59.3608 63.9184 59.3178 63.0284C59.2158 60.8834 56.7938 60.2664 55.1208 60.9804C53.7278 61.5754 52.7398 62.8194 51.8118 64.0154C50.5908 65.5874 49.3718 67.1594 48.1518 68.7324C48.0988 61.4124 48.0458 54.0924 47.9928 46.7734" stroke="#344964" stroke-width="1.7" stroke-miterlimit="10" stroke-linejoin="round"/>
<path d="M34.0076 72.797C36.2576 71.486 38.6046 70.145 41.1976 69.923C43.2386 69.749 45.2656 70.286 47.2446 70.819C49.4126 71.402 51.5806 71.986 53.7486 72.569C54.4776 72.765 55.2856 73.021 55.6416 73.687C56.0566 74.464 55.6206 75.476 54.9076 75.995C54.1956 76.515 53.2876 76.662 52.4166 76.796C50.6436 77.068 48.8696 77.34 47.0966 77.611C51.1996 77.914 54.9286 79.042 58.8956 80.134C59.7406 80.366 60.6356 80.653 61.1796 81.34C61.7236 82.027 61.6756 83.238 60.8776 83.602C62.1986 83.462 63.4626 85.222 63.3566 86.546C63.2716 87.623 62.1386 88.133 60.3466 88.247C60.7036 88.909 60.7036 89.787 60.1486 90.295C59.5936 90.803 58.2076 90.825 56.9756 90.774C55.5406 91.548 54.5066 92.834 52.8916 93.051C45.6336 94.031 38.0186 92.049 32.1606 87.655C30.6396 86.514 28.5776 85.972 26.8676 85.145C26.3326 81.179 26.4806 77.415 27.6326 73.582C29.2006 74.406 32.4756 73.689 34.0076 72.797Z" fill="white" stroke="#0D47A1" stroke-width="1.7" stroke-miterlimit="10" stroke-linejoin="round"/>
<path d="M61.1909 83.6085C57.6209 84.1025 53.9719 84.0315 50.4229 83.3975" stroke="#0D47A1" stroke-width="1.7" stroke-miterlimit="10" stroke-linecap="round" stroke-linejoin="round"/>
<path d="M61.3484 88.1084C57.1434 88.4734 52.8804 88.1644 48.7734 87.1934" stroke="#0D47A1" stroke-width="1.7" stroke-miterlimit="10" stroke-linecap="round" stroke-linejoin="round"/>
<path d="M58.245 90.7895C55.042 90.8015 51.837 90.4595 48.708 89.7715" stroke="#0D47A1" stroke-width="1.7" stroke-miterlimit="10" stroke-linecap="round" stroke-linejoin="round"/>
<path d="M27.5152 72.1048C29.8882 71.0338 32.3602 69.9398 34.9622 69.9858C37.0112 70.0228 38.9732 70.7648 40.8862 71.4988C42.9822 72.3018 45.0782 73.1048 47.1752 73.9078C47.8802 74.1788 48.6572 74.5158 48.9432 75.2158C49.2752 76.0308 48.7372 76.9928 47.9752 77.4358C47.2132 77.8788 46.2952 77.9328 45.4142 77.9758C43.6222 78.0638 41.8302 78.1518 40.0382 78.2408C44.0882 78.9638 47.6822 80.4688 51.5152 81.9628C52.3312 82.2808 53.1932 82.6578 53.6632 83.3988C54.1342 84.1378 53.9612 85.3378 53.1302 85.6178C54.4592 85.6138 55.5352 87.4948 55.2952 88.8018C55.0992 89.8648 53.9192 90.2548 52.1252 90.1848C52.4132 90.8798 52.3222 91.7518 51.7182 92.2018C51.1142 92.6498 49.7322 92.5298 48.5122 92.3518C47.0062 92.9748 45.8453 94.1468 44.2163 94.1978C36.8963 94.4268 29.5262 91.6718 24.1492 86.6978C22.7542 85.4068 20.7592 84.6558 19.1422 83.6578C19.0182 79.6568 19.5522 75.9278 21.0922 72.2328C22.5682 73.2128 25.9002 72.8358 27.5152 72.1048Z" fill="white" stroke="#0D47A1" stroke-width="1.7" stroke-miterlimit="10" stroke-linejoin="round"/>
<path d="M53.4419 85.6549C49.8389 85.7789 46.2179 85.3329 42.7539 84.3379" stroke="#0D47A1" stroke-width="1.7" stroke-miterlimit="10" stroke-linecap="round" stroke-linejoin="round"/>
<path d="M53.1367 90.1464C48.9167 90.0774 44.7077 89.3314 40.7227 87.9434" stroke="#0D47A1" stroke-width="1.7" stroke-miterlimit="10" stroke-linecap="round" stroke-linejoin="round"/>
<path d="M49.7756 92.494C46.5876 92.178 43.4346 91.508 40.3926 90.502" stroke="#0D47A1" stroke-width="1.7" stroke-miterlimit="10" stroke-linecap="round" stroke-linejoin="round"/>
<path d="M83.822 38.3358C74.002 36.9778 37.983 31.3718 42.429 51.1638C43.2 54.5958 49.108 54.3118 48.814 50.5808C48.192 42.6858 58.81 43.7048 64.084 43.8458C70.591 44.0198 77.042 44.6338 83.528 45.1108C87.944 45.4358 88.072 38.9238 83.822 38.3358Z" fill="white" stroke="#344964" stroke-width="1.7" stroke-miterlimit="10" stroke-linejoin="round"/>
<path d="M56.3881 29.7074C56.4791 32.7804 56.3641 35.9775 56.9401 39.0075C57.3371 41.1035 60.8861 41.4504 61.3321 39.1984C61.9311 36.1664 61.8921 33.0315 62.0091 29.9515C62.1471 26.3085 56.2831 26.1114 56.3881 29.7074Z" fill="white" stroke="#344964" stroke-width="1.7" stroke-miterlimit="10" stroke-linejoin="round"/>
<path d="M66.16 24.7234C61.353 24.5724 56.4179 24.1264 51.6189 24.4844C47.7909 24.7694 47.48 29.9424 51.358 30.4784C56.124 31.1384 61.0749 31.0034 65.8799 31.1554C70.0189 31.2844 70.309 24.8534 66.16 24.7234Z" fill="white" stroke="#344964" stroke-width="1.7" stroke-miterlimit="10" stroke-linejoin="round"/>
</svg>
