<svg width="152" height="141" viewBox="0 0 152 141" fill="none" xmlns="http://www.w3.org/2000/svg">
<path d="M6.5741 70.2896C10.0301 74.8116 15.1311 77.9526 18.1911 82.7506C23.1041 90.4516 21.6921 100.366 21.4241 109.497C21.1551 118.628 23.3341 129.431 31.6721 133.164C40.4981 137.116 50.3751 130.743 60.0341 130.253C69.2381 129.787 77.7161 134.699 86.3351 137.963C94.9541 141.228 105.816 142.472 112.408 136.03C119.16 129.432 118.173 117.946 123.937 110.469C127.838 105.409 134.158 103.015 139.744 99.9136C145.33 96.8126 150.899 91.9076 151.005 85.5196C151.205 73.5016 133.347 68.9156 130.277 57.2946C128.694 51.2986 131.521 45.1426 133.826 39.3866C136.132 33.6296 137.865 26.7196 134.467 21.5326C131.09 16.3796 124.005 15.1736 117.874 15.7786C111.742 16.3836 105.64 18.3016 99.5331 17.4806C91.8761 16.4516 85.5191 11.3286 79.1041 7.02058C72.6901 2.71258 64.9201 -1.06242 57.4811 1.03158C48.5341 3.55058 44.4901 12.6466 39.7041 19.6966C34.8271 26.8816 30.0501 30.6966 22.0761 33.5006C6.75811 38.8876 -5.3339 54.7086 6.5741 70.2896Z" fill="#63E6D6"/>
<mask id="mask0" mask-type="alpha" maskUnits="userSpaceOnUse" x="0" y="1" width="150" height="140">
<path d="M5.45691 70.9488C8.91291 75.4708 14.0139 78.6118 17.0739 83.4098C21.9869 91.1108 20.5749 101.025 20.3069 110.156C20.0379 119.287 22.2169 130.09 30.5549 133.823C39.3809 137.775 49.2579 131.402 58.9169 130.912C68.1209 130.446 76.1746 132.542 84.7936 135.806C84.7936 137.456 94.8187 144.714 111.315 137.456C118.067 130.858 119.233 118.98 122.82 111.128C126.721 106.068 133.041 103.674 138.627 100.573C144.213 97.4718 149.782 92.5668 149.888 86.1788C150.088 74.1608 132.23 69.5748 129.16 57.9538C127.577 51.9578 130.404 45.8018 132.709 40.0458C135.015 34.2888 136.748 27.3788 133.35 22.1918C129.973 17.0388 122.888 15.8328 116.757 16.4378C110.625 17.0428 104.523 18.9608 98.4159 18.1398C90.7589 17.1108 84.4019 11.9878 77.9869 7.67976C71.5729 3.37176 63.8029 -0.403237 56.3639 1.69076C47.4169 4.20976 43.3729 13.3058 38.5869 20.3558C33.7099 27.5408 28.9329 31.3558 20.9589 34.1598C5.64093 39.5468 -6.45109 55.3678 5.45691 70.9488Z" fill="white"/>
</mask>
<g mask="url(#mask0)">
<path d="M31.6123 126.282C36.0276 103.837 51.0832 93.3191 58.0591 90.866C60.2454 102.43 70.8014 101.818 75.8061 100.067L79.8583 86.1582L80.5961 86.7266C109.664 101.629 114.632 119.306 113.482 126.282C74.8468 132.905 42.8042 129.041 31.6123 126.282Z" fill="white" stroke="#023575" stroke-width="2"/>
<path d="M99.2304 51.3975C101.676 46.3477 104.635 41.6183 103.702 36.0857C106.341 31.8755 106.296 28.5401 103.702 24.3018C101.11 20.0635 93.8837 25.1995 88.9333 25.6327C89.7848 20.7557 81.7573 19.8269 77.816 22.9589C74.2861 22.3296 74.5259 21.6182 68.3508 22.9589C66.8527 23.5169 63.9726 24.415 62.9356 25.6328C61.8987 26.8507 61.37 28.5921 61.9152 30.0953C60.7967 29.638 58.9253 29.6813 57.8081 30.145C56.6922 30.6074 55.7241 31.3654 54.8043 32.1475C53.1826 33.5246 54.0013 36.2891 53.2675 38.2853C52.1286 41.3821 51.9595 44.1568 54.8041 45.8269C51.9887 47.3836 50.8093 51.0727 51.8756 54.1084C52.9418 57.1428 56.9193 55.2918 58.7665 57.925C62.2544 62.897 62.6286 73.1227 63.0107 79.1852C67.677 77.3163 71.9917 74.5762 75.667 71.1456L99.2304 51.3975Z" fill="#344964" stroke="#344964" stroke-width="1.7" stroke-miterlimit="10"/>
<path d="M99.8805 53.0284C100.38 59.2718 100.588 65.7242 100.102 71.9765C99.7799 76.1269 98.0843 80.5753 94.6893 83.2696C90.4562 86.6289 84.9262 85.6149 79.9528 85.2378C79.349 85.2378 75.9846 99.1845 75.5961 100.737C72.0037 102.299 67.5157 101.86 64.1462 99.8622C60.7755 97.866 58.4544 94.1946 58.0977 90.2927C60.3245 85.6595 64.9373 76.9612 65.4431 71.2312C62.9742 71.2656 60.4073 69.849 58.8073 67.9802C57.7207 66.7114 57.285 64.97 57.8481 63.3967C58.7092 60.9992 61.0965 60.5495 63.0889 61.0566C64.4125 61.3929 65.6061 62.1037 66.7768 62.8069C66.6673 55.9126 67.5043 54.0615 70.4164 47.8118C71.2852 45.9493 70.9209 43.6958 70.5604 41.5085C70.3209 40.0664 71.3668 38.7327 72.8216 38.6104C78.0662 38.1645 83.6574 37.5123 88.7619 37.1518C91.9569 36.925 95.5696 36.8422 97.8779 39.0614C98.9569 40.097 99.0168 45.0092 99.2156 46.5901C99.4844 48.7316 99.7073 50.8768 99.8805 53.0284Z" fill="white" stroke="#023575" stroke-width="1.7" stroke-miterlimit="10"/>
<path d="M92.7966 62.5381C93.5253 63.5521 94.2565 64.5661 94.9865 65.5814C95.5699 66.3929 96.1827 67.3165 96.0349 68.3063C95.9228 69.0477 95.3916 69.663 94.7916 70.1165C94.0629 70.6668 93.2005 71.0414 92.2998 71.198" stroke="#0D47A1" stroke-width="1.7" stroke-miterlimit="10" stroke-linecap="round"/>
<path d="M98.2038 44.8123C96.279 43.9996 93.9871 44.1155 92.1553 45.1193" stroke="#023575" stroke-width="1.7" stroke-miterlimit="10" stroke-linecap="round" stroke-linejoin="round"/>
<path d="M85.3037 45.2842C83.3139 45.2982 81.3139 45.3122 79.3572 45.6689C77.3992 46.023 75.4679 46.7402 73.9443 48.018" stroke="#023575" stroke-width="1.7" stroke-miterlimit="10" stroke-linecap="round" stroke-linejoin="round"/>
<path d="M95.7979 49.2246C95.9278 51.0641 96.0564 52.9062 96.1864 54.7457" stroke="#023575" stroke-width="1.7" stroke-miterlimit="10" stroke-linecap="round" stroke-linejoin="round"/>
<path d="M82.3721 50.2734C82.5619 52.1091 82.753 53.9448 82.9428 55.7805" stroke="#023575" stroke-width="1.7" stroke-miterlimit="10" stroke-linecap="round" stroke-linejoin="round"/>
<path d="M73.4013 64.4687C81.7683 59.1706 92.5124 57.7986 101.942 60.8241C102.662 66.2573 102.169 72.1733 100.659 77.4409C100.101 79.3887 99.366 81.3403 98.0399 82.8728C96.38 84.7913 93.9469 85.8677 91.5035 86.5556C88.9099 87.2869 86.1251 87.641 83.5251 86.9302C79.2346 85.7595 76.1339 81.8371 74.7402 77.6141C73.3479 73.3886 73.358 68.9172 73.4013 64.4687Z" fill="white" stroke="#023575" stroke-width="1.7" stroke-miterlimit="10"/>
<path d="M101.752 64.3911C93.1345 61.9579 83.5993 62.9503 75.668 67.1083" stroke="#023575" stroke-width="1.7" stroke-miterlimit="10" stroke-linecap="round"/>
<path d="M73.6649 64.5786C71.3082 64.1544 68.9514 63.7289 66.5947 63.3047" stroke="#023575" stroke-width="1.7" stroke-miterlimit="10" stroke-linecap="round"/>
<path d="M77.3608 83.0611C74.999 80.5489 72.3582 78.2992 69.5034 76.3629C67.8486 75.2406 66.0995 74.2138 64.1836 73.6367" stroke="#023575" stroke-width="1.7" stroke-miterlimit="10" stroke-linecap="round"/>
</g>
</svg>
