<svg width="108" height="115" viewBox="0 0 108 115" fill="none" xmlns="http://www.w3.org/2000/svg">
<path d="M92.5025 91.276C96.8535 87.5937 99.7879 82.2693 99.7403 76.808C99.6735 69.1095 93.9401 61.8041 95.8701 54.2933C97.5765 47.6491 104.803 43.1888 106.661 36.5788C107.76 32.6669 106.8 28.5054 105.118 24.8256C99.5892 12.7284 86.6046 4.7794 72.933 1.83671C59.2614 -1.10514 44.8886 0.322385 31.0008 2.69407C25.1488 3.69333 19.21 4.89796 14.0309 7.69706C8.76662 10.5412 4.48824 15.0033 2.0239 20.2183C0.911105 22.5724 0.153099 25.1361 0.370149 27.6856C0.756663 32.2195 4.07836 35.9452 5.92328 40.1259C11.2644 52.2289 3.80287 66.3471 6.24801 79.2882C6.9459 82.9831 8.46109 86.5268 10.67 89.6306C12.757 92.5633 15.5202 95.1378 18.9262 96.6255C25.3367 99.4254 32.4868 98.0847 39.2545 97.2925C46.8053 96.4076 52.5546 98.0738 59.8842 99.1741C70.1331 100.714 84.536 98.0179 92.5025 91.276Z" fill="#63E7D7"/>
<path d="M56.1306 91.6978C55.8066 91.0458 55.4126 90.3855 54.9401 89.7201C48.144 80.1416 39.3944 75.8866 30.8385 74.3489C26.1978 73.5149 21.5763 73.3914 16.9924 73.5082C12.3718 73.6268 6.55652 72.9406 3.36339 78.1072C0.688673 82.4356 2.04607 88.8578 4.39688 93.8549C9.7413 105.217 18.7822 110.526 27.1403 112.326C36.632 114.371 49.2334 113.591 55.4686 102.949C57.2392 99.9248 58.0823 95.6314 56.1306 91.6978Z" fill="white" stroke="#023575" stroke-width="1.7" stroke-miterlimit="10"/>
<path d="M25.8005 63.4858C21.5212 56.6688 19.0744 48.7131 18.7856 40.6689C15.7436 36.6735 13.7083 31.6029 13.8769 26.5841C14.0464 21.5652 17.4992 16.4253 22.4654 15.6799C24.6601 15.3501 26.8991 15.8719 29.113 15.7191C32.3411 15.4945 35.2855 13.865 38.0537 12.1904C40.8219 10.5149 43.6227 8.72176 46.8 8.10568C49.9764 7.48959 53.6829 8.34944 55.4619 11.0525C56.2742 12.2864 56.6173 13.7807 57.4162 15.0229C58.483 16.68 60.2537 17.736 62.0034 18.6442C63.7523 19.5542 65.5864 20.4065 66.9521 21.8282C68.3179 23.249 69.1201 25.4204 68.3404 27.2311C67.3988 29.4182 64.396 30.7715 64.6848 33.1356C64.916 35.0356 67.2786 36.1635 67.4297 38.0718C67.5532 39.6413 66.139 40.8542 64.8651 41.7792C58.1241 46.6787 51.383 51.5781 44.6412 56.4776C41.8871 58.4786 39.1014 60.498 35.96 61.8087C32.8187 63.1193 29.047 64.5076 25.8005 63.4858Z" fill="#344964" stroke="#344964" stroke-width="1.7" stroke-miterlimit="10"/>
<path d="M57.246 41.7901C57.696 47.4134 57.883 53.2219 57.4455 58.8527C57.1558 62.5901 55.629 66.5947 52.5719 69.0223C48.7602 72.0468 43.7806 71.1343 39.3027 70.7946C38.7584 70.7946 35.7281 83.3525 35.3791 84.7508C32.1443 86.1575 28.1038 85.7618 25.0685 83.9644C22.0331 82.1671 19.9436 78.8605 19.623 75.3476C21.6274 71.1761 25.7814 63.3439 26.2363 58.1832C24.0133 58.2149 21.7017 56.9385 20.2608 55.2555C19.2833 54.1126 18.8892 52.5449 19.3968 51.1291C20.1715 48.9703 22.3219 48.5646 24.1168 49.022C25.3089 49.3251 26.3824 49.9662 27.4376 50.599C27.3383 44.3897 28.0921 42.7234 30.7151 37.0952C31.4973 35.418 31.17 33.3886 30.8453 31.4185C30.6308 30.1204 31.5707 28.9199 32.8822 28.808C37.6047 28.4082 42.6394 27.8188 47.2358 27.4957C50.1126 27.2929 53.365 27.2169 55.4445 29.2163C56.4154 30.1496 56.4696 34.5715 56.6491 35.9949C56.8904 37.9216 57.0916 39.8542 57.246 41.7901Z" fill="white" stroke="#023575" stroke-width="1.7" stroke-miterlimit="10"/>
<path d="M36.127 35.8052C38.6998 35.8803 41.2777 34.6632 42.8546 32.6279" stroke="#023575" stroke-width="1.7" stroke-miterlimit="10" stroke-linecap="round"/>
<path d="M48.6289 32.6357C50.2434 33.9681 52.4181 34.5975 54.4942 34.3346" stroke="#023575" stroke-width="1.7" stroke-miterlimit="10" stroke-linecap="round"/>
<path d="M31.0131 49.0861C30.0932 49.8491 29.5414 51.012 29.8227 52.7985C30.0923 54.5132 31.2402 55.7679 32.2854 56.2487C35.7665 57.8499 39.4012 57.9392 42.6277 56.5033C43.7597 55.9991 44.9326 55.0441 45.0445 53.023C45.1956 50.2865 43.3624 48.4658 41.8063 47.8138C40.1459 47.1184 38.3394 47.2061 36.7173 47.3914C34.8348 47.606 32.6184 47.7546 31.0131 49.0861Z" fill="#FF8A65"/>
<path d="M57.0556 47.6562C56.3218 47.8892 55.6782 48.3642 55.0688 48.8684C54.1488 49.6314 53.597 50.7951 53.8783 52.5808C54.148 54.2954 55.295 55.5501 56.341 56.031C56.8336 56.2572 56.614 56.1904 57.1115 56.3574C57.2493 53.3788 57.205 50.9921 57.0556 47.6562Z" fill="#FF8A65"/>
<path d="M50.8675 50.3545C51.5245 51.2678 52.1815 52.181 52.8393 53.0943C53.3644 53.8248 53.9171 54.6571 53.7835 55.547C53.6833 56.2157 53.2041 56.77 52.6649 57.1765C52.0079 57.6732 51.2315 58.0096 50.4209 58.1499" stroke="#023575" stroke-width="1.7" stroke-miterlimit="10" stroke-linecap="round"/>
<path d="M42.6885 61.2657C43.4022 60.9843 44.1928 60.9718 44.9575 61.0244C45.8023 61.0812 46.658 61.2156 47.4185 61.5887C48.179 61.9602 48.841 62.598 49.0898 63.4078" stroke="#023575" stroke-width="1.7" stroke-miterlimit="10" stroke-linecap="round"/>
<path d="M41.1611 39.665C41.3314 41.1351 41.4341 42.6127 41.4675 44.092" stroke="#023575" stroke-width="1.7" stroke-miterlimit="10" stroke-linecap="round"/>
<path d="M52.207 39.4404C52.4424 40.8245 52.5443 42.2312 52.5126 43.6337" stroke="#023575" stroke-width="1.7" stroke-miterlimit="10" stroke-linecap="round"/>
<path d="M33.25 38.4229C33.2508 39.6976 33.2525 40.9732 33.2542 42.2479C33.2542 42.5693 33.2575 42.9032 33.3969 43.1929C33.5363 43.4826 33.8561 43.7122 34.1691 43.6404C34.554 43.5527 34.7151 43.0977 34.776 42.7071C34.8637 42.1394 34.8779 41.5609 34.8169 40.9899" fill="#FAFAFA"/>
<path d="M33.25 38.4229C33.2508 39.6976 33.2525 40.9732 33.2542 42.2479C33.2542 42.5693 33.2575 42.9032 33.3969 43.1929C33.5363 43.4826 33.8561 43.7122 34.1691 43.6404C34.554 43.5527 34.7151 43.0977 34.776 42.7071C34.8637 42.1394 34.8779 41.5609 34.8169 40.9899" stroke="#344964" stroke-width="1.7" stroke-miterlimit="10" stroke-linecap="round"/>
<path d="M29.75 42.4248C29.7508 43.6996 29.7525 44.9751 29.7533 46.2499C29.7533 46.5721 29.7567 46.906 29.8961 47.1957C30.0355 47.4854 30.3552 47.7149 30.6691 47.6431C31.054 47.5547 31.2151 47.1005 31.2752 46.7099C31.3629 46.1422 31.377 45.5637 31.3161 44.9918" fill="#FAFAFA"/>
<path d="M29.75 42.4248C29.7508 43.6996 29.7525 44.9751 29.7533 46.2499C29.7533 46.5721 29.7567 46.906 29.8961 47.1957C30.0355 47.4854 30.3552 47.7149 30.6691 47.6431C31.054 47.5547 31.2151 47.1005 31.2752 46.7099C31.3629 46.1422 31.377 45.5637 31.3161 44.9918" stroke="#023575" stroke-width="1.7" stroke-miterlimit="10" stroke-linecap="round"/>
<path d="M34.8535 45.9902C34.8544 47.265 34.856 48.5414 34.8569 49.8161C34.8569 50.1375 34.8602 50.4715 35.0004 50.7611C35.1407 51.0508 35.4596 51.2804 35.7726 51.2086C36.1575 51.1201 36.3186 50.666 36.3795 50.2753C36.4672 49.7076 36.4814 47.2291 36.4205 46.6581" fill="#FAFAFA"/>
<path d="M34.8535 45.9902C34.8544 47.265 34.856 48.5414 34.8569 49.8161C34.8569 50.1375 34.8602 50.4715 35.0004 50.7611C35.1407 51.0508 35.4596 51.2804 35.7726 51.2086C36.1575 51.1201 36.3186 50.666 36.3795 50.2753C36.4672 49.7076 36.4814 47.2291 36.4205 46.6581" stroke="#023575" stroke-width="1.7" stroke-miterlimit="10" stroke-linecap="round"/>
<path d="M78.0766 80.9691C78.0657 80.9641 78.0549 80.9599 78.044 80.9557C76.4145 80.3004 74.6322 81.5343 74.5662 83.289C74.3208 89.8139 73.4668 96.3162 72.0176 102.683C74.8409 103.895 77.9539 104.944 81.0159 105.197C84.0772 105.449 87.2703 104.915 89.8624 103.266C89.8682 96.9565 89.677 90.6228 89.7163 84.3092C89.7246 82.9042 88.6294 81.738 87.2252 81.6879C84.1531 81.5794 80.6336 82.0109 78.0766 80.9691Z" fill="white"/>
<path d="M82.4325 105.9C81.9467 105.9 81.4567 105.88 80.9616 105.839C78.2752 105.617 75.2658 104.779 71.7621 103.275L71.2695 103.064L71.3889 102.541C72.8256 96.2273 73.6779 89.7416 73.9217 83.2652C73.9618 82.2059 74.5194 81.2292 75.4127 80.649C76.2859 80.0813 77.3327 79.9761 78.2827 80.3576L78.3178 80.3735C80.0692 81.0864 82.41 81.0572 84.6773 81.0355C85.528 81.0246 86.4079 81.0154 87.2469 81.0447C89.0033 81.1081 90.3699 82.544 90.359 84.3137C90.3381 87.7139 90.3841 91.1808 90.4291 94.5317C90.4675 97.396 90.5076 100.358 90.5051 103.267V103.62L90.2071 103.81C88.0608 105.176 85.3418 105.9 82.4325 105.9ZM72.763 102.3C75.9252 103.618 78.6467 104.357 81.0676 104.556C84.1097 104.806 86.9872 104.221 89.2178 102.906C89.217 100.121 89.1794 97.29 89.1427 94.5485C89.0976 91.1909 89.0509 87.7189 89.0726 84.3054C89.0793 83.236 88.2578 82.3695 87.2026 82.3319C86.3945 82.3044 85.5297 82.3144 84.6932 82.3219C82.299 82.3503 79.8254 82.3778 77.8336 81.5647L77.8303 81.5639L78.0765 80.9687L77.8044 81.553C77.2476 81.3285 76.6306 81.3928 76.1147 81.7292C75.573 82.0806 75.234 82.6734 75.2107 83.3128C74.9694 89.6899 74.1463 96.0745 72.763 102.3Z" fill="#023575"/>
<path d="M84.943 65.2437C85.2135 64.3296 85.4856 63.4021 85.4906 62.4496C85.4956 61.4971 85.1976 60.5004 84.4889 59.8642C83.5739 59.0445 82.0771 58.8867 81.4911 57.8056C81.3717 57.586 81.2941 57.3314 81.0995 57.1728C80.627 56.788 79.93 57.2663 79.6128 57.7881C78.5158 59.5971 79.1344 62.2342 80.9234 63.3654C81.0419 63.4414 81.1713 63.5173 81.2331 63.6434C81.2891 63.7594 81.2774 63.8947 81.2623 64.0224C81.1321 65.1586 80.8883 66.283 80.5352 67.3716L84.943 65.2437Z" fill="white"/>
<path d="M79.4574 68.6073L79.9232 67.1731C80.263 66.127 80.4984 65.0418 80.6228 63.9499C80.6236 63.9465 80.6236 63.9424 80.6244 63.939C80.6169 63.9332 80.6094 63.929 80.6019 63.924C78.4873 62.5866 77.7786 59.5697 79.0625 57.4543C79.313 57.041 79.8322 56.521 80.47 56.4099C80.8482 56.3448 81.2163 56.4375 81.506 56.6729C81.7631 56.8824 81.8867 57.1429 81.986 57.3532C82.0094 57.4025 82.0319 57.4518 82.0578 57.4994C82.3024 57.9518 82.835 58.2064 83.4511 58.4994C83.9545 58.739 84.4745 58.9861 84.9178 59.3843C85.6975 60.0831 86.1408 61.2009 86.1341 62.4522C86.1283 63.5024 85.8386 64.48 85.5598 65.4258L85.4797 65.6988L79.4574 68.6073ZM80.6912 57.673C80.6153 57.673 80.3356 57.8399 80.1636 58.1238C79.2445 59.6373 79.7713 61.8762 81.2672 62.8221C81.4426 62.9339 81.6746 63.0808 81.8124 63.363C81.9535 63.6544 81.9201 63.9424 81.9017 64.0976C81.8224 64.7947 81.7005 65.4884 81.5386 66.1721L84.4044 64.788C84.6307 64.0142 84.841 63.2211 84.8452 62.4456C84.8502 61.5632 84.563 60.7968 84.058 60.3435C83.7524 60.0705 83.3367 59.8727 82.8976 59.6632C82.1813 59.3226 81.3699 58.936 80.9241 58.1138C80.8874 58.0461 80.854 57.976 80.8206 57.9051C80.7822 57.8232 80.7229 57.6989 80.6912 57.673C80.6921 57.673 80.6921 57.673 80.6912 57.673ZM84.9429 65.2438H84.9504H84.9429Z" fill="#023575"/>
<path d="M79.1417 66.8329C78.0698 66.8363 78.8904 63.6941 78.4471 62.7173C78.0047 61.7415 77.1682 60.8908 76.118 60.6762C75.7248 60.5953 75.2974 60.6103 74.9451 60.8023C74.3875 61.107 74.1362 61.7915 74.1262 62.4268C74.1162 63.0621 74.2982 63.6832 74.3883 64.3126C74.6379 66.0482 74.193 67.7988 73.7839 69.5043C73.3749 71.209 72.9992 72.9904 73.3849 74.701C73.7706 76.4115 75.1363 78.0277 76.8869 78.127C77.2408 79.8024 77.2392 81.5422 76.9871 83.2352C80.0884 84.6669 84.0261 85.5793 87.3912 84.9949C86.9621 82.9897 87.0506 80.9979 87.0882 78.9485C87.822 78.7356 88.4381 77.8482 88.8997 77.1319C89.3839 76.3831 89.7479 75.5633 89.9608 74.6976C90.4107 72.8669 90.5176 70.9001 90.0342 69.0819C89.9048 68.5952 89.5091 68.212 89.0124 68.1319C88.2352 68.0067 87.4004 67.611 86.6933 67.439C84.2348 66.8388 81.6737 66.8246 79.1417 66.8329Z" fill="white"/>
<path d="M85.2477 85.8129C82.5663 85.8137 79.5218 85.115 76.7176 83.8202L76.2794 83.619L76.3503 83.1415C76.5824 81.583 76.5791 80.0937 76.342 78.7062C74.4737 78.3356 73.1422 76.5533 72.7565 74.8444C72.3466 73.0279 72.7123 71.2122 73.1572 69.3564L73.2023 69.1703C73.5821 67.5908 73.9745 65.9562 73.7507 64.4068C73.7232 64.214 73.6856 64.0203 73.6489 63.8292C73.5629 63.3801 73.4736 62.9159 73.4811 62.4192C73.4978 61.4408 73.9286 60.6269 74.6356 60.2403C75.0906 59.9916 75.6483 59.9256 76.2468 60.0484C77.4155 60.2879 78.4574 61.187 79.0326 62.4551C79.2721 62.9827 79.2446 63.7749 79.2171 64.6139C79.2004 65.1023 79.1736 65.8861 79.268 66.1917C81.5061 66.1816 84.2609 66.1875 86.8463 66.817C87.1594 66.8938 87.4975 67.0098 87.8431 67.1308C88.273 67.2811 88.718 67.4355 89.1153 67.4998C89.8541 67.62 90.4594 68.1777 90.6572 68.919C91.1289 70.6946 91.1047 72.7466 90.5862 74.8536C90.3608 75.7719 89.976 76.6568 89.4409 77.4832C88.9475 78.2487 88.4007 78.9917 87.7237 79.3749L87.7204 79.5302C87.6828 81.3743 87.6477 83.1165 88.0209 84.8629L88.1603 85.5174L87.5 85.6326C86.7921 85.7528 86.0349 85.8129 85.2477 85.8129ZM77.6894 82.8452C80.7205 84.1625 83.9855 84.7469 86.6351 84.4522C86.3663 82.7851 86.4005 81.1196 86.4339 79.5018L86.4531 78.4625L86.9089 78.3306C87.4649 78.1695 88.0919 77.1994 88.359 76.7837C88.8156 76.0758 89.1437 75.3228 89.3349 74.5439C89.8024 72.6464 89.8283 70.814 89.4125 69.2462C89.3466 68.9983 89.1445 68.8071 88.9091 68.7679C88.4007 68.6861 87.9015 68.5116 87.419 68.3438C87.1135 68.2369 86.8171 68.1326 86.5416 68.065C84.0581 67.4589 81.3308 67.4697 79.1427 67.4764C79.1411 67.4764 79.1402 67.4764 79.1386 67.4764C78.8389 67.4764 78.5717 67.3646 78.3664 67.1534C77.8605 66.6316 77.8922 65.6749 77.9298 64.5671C77.949 64.0053 77.9749 63.2365 77.8605 62.9844C77.4615 62.1045 76.7444 61.4617 75.988 61.3072C75.6958 61.2471 75.4354 61.2688 75.2551 61.3673C74.907 61.5585 74.7759 62.0627 74.77 62.4367C74.7642 62.8015 74.8368 63.1814 74.9136 63.5846C74.9545 63.7966 74.9946 64.0087 75.0255 64.2215C75.2843 66.0155 74.8627 67.7719 74.4545 69.4691L74.4102 69.6544C74.002 71.3566 73.6639 73.0129 74.0129 74.5589C74.3259 75.9489 75.4262 77.3989 76.923 77.4832L77.4147 77.51L77.5166 77.9925C77.838 79.5127 77.8956 81.1422 77.6894 82.8452ZM79.1411 66.8328H79.1486H79.1411Z" fill="#023575"/>
<path d="M80.2358 67.9004C80.2266 68.6592 80.3568 69.4631 80.846 70.0425C81.3352 70.6219 82.2694 70.8723 82.8779 70.4182C83.3012 70.1018 83.4648 69.5542 83.6034 69.0441C83.9398 67.8044 85.3256 64.6747 84.1168 63.6245C83.0583 62.7054 81.594 63.6554 81.0656 64.6522C80.538 65.6456 80.25 66.7768 80.2358 67.9004Z" fill="white"/>
<path d="M82.1425 71.3018C81.4571 71.3018 80.7759 70.9571 80.3543 70.4579C79.8351 69.8434 79.578 68.9794 79.5913 67.8917C79.6072 66.662 79.9202 65.4382 80.4954 64.3521C80.8736 63.6392 81.7075 62.8369 82.7185 62.6483C83.3955 62.5214 84.0241 62.6917 84.5384 63.1391C85.8532 64.2803 85.0259 66.768 84.4783 68.4134C84.3747 68.724 84.2838 68.9986 84.2245 69.2132C84.0884 69.714 83.883 70.4712 83.2628 70.9345C82.9197 71.19 82.5307 71.3018 82.1425 71.3018ZM80.8794 67.9075C80.8702 68.6772 81.0238 69.2557 81.3377 69.6264C81.6099 69.9495 82.1734 70.1398 82.4923 69.9027C82.736 69.719 82.8629 69.3125 82.9814 68.8759C83.0449 68.6421 83.1434 68.345 83.2561 68.0069C83.6142 66.93 84.3597 64.6894 83.6935 64.1108C83.4798 63.9255 83.2361 63.8604 82.9539 63.9146C82.4597 64.0065 81.9037 64.4439 81.6324 64.9557C81.1532 65.8598 80.8928 66.8816 80.8794 67.9075Z" fill="#023575"/>
<path d="M82.855 69.327C82.845 70.0858 82.9761 70.8905 83.4653 71.4699C83.9545 72.0493 84.8886 72.2997 85.4963 71.8456C85.9196 71.5292 86.0832 70.9807 86.2218 70.4715C86.5582 69.2326 87.944 66.1021 86.7352 65.0528C85.6767 64.1328 84.2124 65.0828 83.6831 66.0804C83.1572 67.0722 82.8684 68.2042 82.855 69.327Z" fill="white"/>
<path d="M84.7616 72.729C84.0771 72.729 83.395 72.3842 82.9735 71.8849C82.4534 71.2705 82.1971 70.4065 82.2105 69.3196C82.2263 68.0891 82.5385 66.8653 83.1146 65.7783C83.4927 65.0663 84.3267 64.264 85.3376 64.0753C86.0147 63.9476 86.6424 64.1188 87.1575 64.5662C88.4723 65.7074 87.645 68.1951 87.0974 69.8405C86.9939 70.1511 86.9029 70.4257 86.8436 70.6403C86.7076 71.1411 86.5022 71.8992 85.8819 72.3616C85.5388 72.6179 85.149 72.729 84.7616 72.729ZM85.7592 65.3234C85.6991 65.3234 85.6373 65.3301 85.5739 65.3409C85.0797 65.4336 84.5237 65.871 84.2524 66.3819C83.7715 67.2877 83.5111 68.3095 83.4986 69.3355C83.4885 70.1043 83.643 70.682 83.9569 71.0543C84.229 71.3766 84.7933 71.5669 85.1114 71.3298C85.3552 71.147 85.4821 70.7404 85.6006 70.303C85.664 70.0701 85.7626 69.7721 85.8752 69.434C86.2334 68.3579 86.9789 66.1165 86.3127 65.5388C86.1474 65.3952 85.9646 65.3234 85.7592 65.3234ZM82.8541 69.3271H82.8616H82.8541Z" fill="#023575"/>
<path d="M85.7094 70.4805C85.7002 71.2393 85.8305 72.0432 86.3205 72.6226C86.8105 73.2028 87.7439 73.4524 88.3516 72.9982C88.7748 72.6827 88.9385 72.1342 89.077 71.6242C89.4135 70.3845 90.7992 67.2548 89.5904 66.2046C88.5319 65.2855 87.0677 66.2355 86.5384 67.2322C86.0125 68.2265 85.7236 69.3577 85.7094 70.4805Z" fill="white"/>
<path d="M87.6163 73.8832C86.9309 73.8832 86.2497 73.5384 85.8282 73.0392C85.3089 72.4248 85.0518 71.5608 85.066 70.4731C85.0818 69.2434 85.3941 68.0196 85.9701 66.9326C86.3474 66.2206 87.1814 65.4191 88.1932 65.2296C88.8677 65.1019 89.498 65.273 90.013 65.7205C91.3279 66.8617 90.4997 69.3494 89.9521 70.9948C89.8486 71.3054 89.7576 71.5792 89.6992 71.7945C89.5631 72.2962 89.3569 73.0526 88.7375 73.5167C88.3935 73.7714 88.0045 73.8832 87.6163 73.8832ZM88.6139 66.4777C88.5546 66.4777 88.492 66.4835 88.4286 66.4952C87.9335 66.587 87.3784 67.0253 87.1071 67.5362C86.6262 68.442 86.3658 69.4638 86.3532 70.4889C86.3432 71.2586 86.4977 71.8363 86.8107 72.2078C87.0837 72.5317 87.6464 72.7212 87.9653 72.4841C88.2099 72.3004 88.3317 71.9106 88.4545 71.4573C88.5179 71.2235 88.6164 70.9264 88.7291 70.5883C89.0872 69.5114 89.8327 67.2707 89.1665 66.6922C89.0029 66.5486 88.8201 66.4777 88.6139 66.4777ZM85.7105 70.4806H85.718H85.7105Z" fill="#023575"/>
<path d="M82.2873 77.7717C82.1671 77.7717 82.046 77.7375 81.9375 77.6673C81.6395 77.4745 81.5543 77.0754 81.7472 76.7774C82.0652 76.2866 82.1646 75.572 82.0419 74.6537C81.9158 73.7137 81.6378 72.9382 81.2129 72.3488C80.8055 71.782 80.0976 71.1483 79.3329 71.0682L78.8362 71.0156L78.7636 70.5214C78.5599 69.144 78.3019 67.7557 77.9981 66.3941C77.9204 66.0477 78.1392 65.7029 78.4856 65.6261C78.8329 65.5451 79.1768 65.7664 79.2545 66.1136C79.5325 67.3575 79.7729 68.6247 79.969 69.8869C80.813 70.1274 81.6412 70.7401 82.2581 71.5983C82.8074 72.3605 83.163 73.3322 83.3174 74.4834C83.4852 75.7314 83.325 76.7115 82.8274 77.4787C82.7055 77.6673 82.4985 77.7717 82.2873 77.7717Z" fill="#023575"/>
<path d="M78.1178 64.6791C76.9474 64.6791 75.999 63.7308 75.999 62.5604V44.8375C75.999 43.6679 76.9474 42.7188 78.1178 42.7188C79.2881 42.7188 80.2365 43.6679 80.2365 44.8375V62.5604C80.2365 63.7316 79.2873 64.6791 78.1178 64.6791Z" fill="white"/>
<path d="M78.1177 65.3237C76.5942 65.3237 75.3545 64.0848 75.3545 62.5604V44.8376C75.3545 43.3149 76.5942 42.0752 78.1177 42.0752C79.6412 42.0752 80.8801 43.314 80.8801 44.8376V62.5604C80.8801 64.084 79.6404 65.3237 78.1177 65.3237ZM78.1177 43.3625C77.3038 43.3625 76.6426 44.0245 76.6426 44.8376V62.5604C76.6426 63.3744 77.3038 64.0364 78.1177 64.0364C78.9308 64.0364 79.5928 63.3744 79.5928 62.5604V44.8376C79.592 44.0245 78.9308 43.3625 78.1177 43.3625Z" fill="#023575"/>
<path d="M78.1446 60.8789C77.5143 60.8789 76.8849 61.3597 76.8857 62.0326C76.8866 62.6645 77.3632 63.2923 78.0394 63.2923C78.6697 63.2923 79.2992 62.8106 79.2983 62.1378C79.2975 61.505 78.8208 60.8789 78.1446 60.8789Z" fill="#FF8A65"/>
<path d="M78.2166 61.8828C78.1636 61.8828 78.1594 61.9657 78.2133 61.9657C78.2655 61.9649 78.2697 61.8828 78.2166 61.8828Z" fill="#FF8A65"/>
<path d="M78.1062 47.2598C77.8198 47.2598 77.5869 47.4918 77.5869 47.7782V61.5666C77.5869 61.853 77.819 62.0859 78.1062 62.0859C78.3933 62.0859 78.6254 61.853 78.6254 61.5666V47.7782C78.6254 47.4918 78.3933 47.2598 78.1062 47.2598Z" fill="#FF8A65"/>
<path d="M86.0637 85.8728C84.6771 85.8728 83.3014 85.811 81.9264 85.6282C79.0522 85.245 76.5837 84.3401 74.7897 83.0102C74.5042 82.7982 74.4441 82.3958 74.6561 82.1095C74.8682 81.8223 75.2714 81.7639 75.5569 81.9759C77.1756 83.1764 79.437 83.9978 82.0959 84.3518C84.521 84.6748 86.9945 84.6014 89.5273 84.4904C89.8846 84.4904 90.1835 84.7517 90.1985 85.1056C90.2144 85.4612 89.9389 85.7618 89.5833 85.7776C88.4003 85.8294 87.2283 85.8728 86.0637 85.8728Z" fill="#023575"/>
</svg>
