<svg width="99" height="99" viewBox="0 0 99 99" fill="none" xmlns="http://www.w3.org/2000/svg">
<rect x="0.947266" y="0.564453" width="97.63" height="97.63" rx="48.815" fill="#63E6D6"/>
<mask id="mask0" mask-type="alpha" maskUnits="userSpaceOnUse" x="0" y="0" width="99" height="99">
<rect x="0.947266" y="0.564453" width="97.63" height="97.63" rx="48.815" fill="#63E7D7"/>
</mask>
<g mask="url(#mask0)">
</g>
<path d="M79.2876 74.3937C71.9248 66.7 59.372 66.1369 49.5236 70.1873C39.6752 74.2385 31.8955 81.9896 24.3965 89.5505C33.4656 95.8184 44.4869 99.7521 54.9334 96.2281C65.3781 92.7041 75.8685 84.8742 79.2876 74.3937Z" fill="white"/>
<path d="M51.2406 97.8068C40.7897 99.6145 30.8507 94.7688 24.0421 90.0639L23.4297 89.6406L23.9534 89.1125C31.0848 81.9228 39.1684 73.7745 49.2858 69.613C58.6742 65.75 71.731 65.5985 79.7366 73.9646L79.9949 74.2345L79.8792 74.5887C76.1275 86.0897 64.6354 93.6139 55.1305 96.8205C53.8312 97.258 52.531 97.5826 51.2406 97.8068ZM25.3656 89.4577C32.7768 94.4451 43.695 99.3644 54.7333 95.6386C63.8517 92.5621 74.8479 85.4199 78.5763 74.5573C70.9544 66.8879 58.6554 67.1049 49.7602 70.7643C40.1225 74.7286 32.2854 82.4859 25.3656 89.4577Z" fill="#023575"/>
<path d="M35.6498 34.645C34.6949 30.2261 35.1486 25.514 36.9312 21.3596C35.666 17.5612 36.6147 13.0759 39.4518 10.2505C42.2881 7.42499 46.7653 6.38213 50.5592 7.66171C54.3531 8.94129 57.2817 12.485 57.826 16.4511C60.7097 16.6295 63.9235 17.0017 66.3168 18.6211C67.3838 19.3429 68.389 20.2235 68.9692 21.3748C69.5484 22.5253 69.6309 23.9896 68.9181 25.0629C69.8811 24.9168 71.3382 25.3077 72.1246 25.8834C72.9101 26.4591 73.5235 27.2356 74.0965 28.0238C75.1043 29.4101 76.0459 30.9309 76.2405 32.6337C76.5418 35.2745 74.7457 38.0022 72.2009 38.7689C74.1081 40.5228 73.623 43.6021 72.2116 45.7748C70.7993 47.9484 68.5648 49.4189 66.6171 51.1298C62.9389 54.3597 60.1753 58.619 58.7227 63.2926C55.4246 60.9423 52.5677 57.9752 50.3431 54.5911L35.6498 34.645Z" fill="#344964"/>
<path d="M59.0229 64.1836L58.4033 63.7415C55.0272 61.3348 52.1605 58.3586 49.8829 54.8938L35.1368 34.8769L35.1116 34.7613C34.1477 30.3029 34.5862 25.5432 36.3446 21.3342C35.0937 17.325 36.1742 12.7394 39.0634 9.86097C42.0503 6.88574 46.7444 5.79357 50.7356 7.1404C54.5869 8.44061 57.5783 11.9386 58.3019 15.9316C61.2619 16.136 64.2838 16.5808 66.6268 18.1661C68.0176 19.1077 68.9179 20.0483 69.4622 21.1279C70.0145 22.2246 70.1213 23.4656 69.7895 24.5058C70.7274 24.5945 71.7792 24.9478 72.4518 25.4401C73.3359 26.0866 73.995 26.9466 74.5437 27.7007C75.5346 29.0637 76.5765 30.7082 76.7891 32.5715C77.0913 35.215 75.5301 37.8835 73.1449 38.9981C74.646 41.0417 74.0219 44.0044 72.6759 46.0766C71.5793 47.7642 70.0163 49.0393 68.5054 50.2723C67.9997 50.6856 67.476 51.1125 66.9837 51.5447C63.3575 54.7297 60.6835 58.8491 59.2515 63.4581L59.0229 64.1836ZM36.1635 34.4142L50.7858 54.2652C52.8653 57.4279 55.4316 60.1547 58.4338 62.4009C59.9743 57.8942 62.667 53.8662 66.2529 50.7161C66.7596 50.2705 67.2913 49.8374 67.8051 49.4177C69.3178 48.1839 70.7453 47.0191 71.7478 45.4758C73.0355 43.4933 73.4767 40.692 71.8259 39.1748L71.1148 38.5202L72.0402 38.2413C74.3241 37.5536 75.9614 35.0661 75.6906 32.6962C75.5059 31.0875 74.5545 29.5954 73.6488 28.3481C73.1494 27.6603 72.5531 26.8811 71.7972 26.3287C71.1067 25.8239 69.7993 25.4876 68.9986 25.6087L67.7692 25.7952L68.457 24.7595C69.0084 23.9292 69.0156 22.698 68.4749 21.6238C68.0194 20.719 67.2348 19.9102 66.0063 19.079C63.7664 17.5627 60.7338 17.1852 57.7899 17.0022L57.3398 16.9744L57.2788 16.527C56.7605 12.7546 53.9888 9.40186 50.3814 8.18415C46.7758 6.96644 42.5363 7.9537 39.839 10.6411C37.1902 13.2801 36.2307 17.5169 37.452 21.1862L37.5184 21.3844L37.4359 21.5772C35.716 25.589 35.265 30.1433 36.1635 34.4142Z" fill="#344964"/>
<path d="M34.8323 35.7983C33.2532 40.5929 31.8633 45.6046 31.0545 50.5929C30.5174 53.9035 30.998 57.709 33.1447 60.4646C35.8204 63.9007 40.3425 64.158 44.3085 64.809C44.782 64.9238 44.7641 76.484 44.7721 77.7734C47.2883 79.6798 50.8849 80.1891 53.9041 79.2673C56.9232 78.3446 59.4384 75.911 60.4598 72.9241C59.5981 68.8738 57.6397 61.1864 58.3346 56.6034C60.2607 57.1002 62.5401 56.4788 64.1488 55.3193C65.241 54.5329 65.9144 53.2516 65.7718 51.9137C65.5539 49.8728 63.7704 49.0658 62.1133 49.0837C61.0131 49.0954 59.9442 49.4263 58.8933 49.7536C60.2912 44.3761 59.9872 42.7674 58.896 37.32C58.5705 35.697 59.2833 34.0013 59.9819 32.3568C60.4428 31.2736 59.8787 30.0308 58.7624 29.6569C54.7407 28.3109 50.4868 26.7363 46.5592 25.4837C44.1005 24.699 41.2885 23.9467 39.0575 25.2451C38.0164 25.8513 37.0355 29.6856 36.5782 30.8853C35.9585 32.5092 35.3757 34.1475 34.8323 35.7983Z" fill="white"/>
<path d="M48.1596 79.941C46.7949 79.6092 45.5135 79.0264 44.4392 78.2122L44.2231 78.0481L44.2196 77.1541C44.1962 68.6292 44.0303 66.0351 43.9057 65.3016C43.53 65.2424 43.1498 65.1859 42.7669 65.1277C39.2187 64.5977 35.197 63.996 32.7096 60.8029C30.6741 58.189 29.8725 54.4355 30.51 50.5053C31.2301 46.0675 32.472 41.2003 34.3084 35.6264L34.8312 35.7986L34.3084 35.6264C34.8428 34.0016 35.4328 32.3409 36.0614 30.6901C36.1592 30.4328 36.2874 30.0328 36.4363 29.5693C37.1769 27.2585 37.8638 25.3028 38.7784 24.7702C41.1789 23.3713 44.1398 24.1353 46.7249 24.9594C49.0276 25.6938 51.4783 26.551 53.8483 27.3804C55.5296 27.9687 57.2673 28.5766 58.9352 29.1353C59.614 29.3621 60.1717 29.8661 60.4658 30.518C60.7582 31.1681 60.7662 31.9168 60.4874 32.5723C59.8247 34.1307 59.1396 35.7421 59.4346 37.2118C60.4685 42.3705 60.8236 44.1414 59.6633 48.945C60.4479 48.7208 61.2576 48.5424 62.1068 48.5334C63.8849 48.5137 66.054 49.3727 66.3195 51.8557C66.4773 53.3325 65.7689 54.8318 64.4714 55.7671C62.8044 56.9677 60.6479 57.5237 58.8088 57.2592C58.4223 61.1777 59.7368 67.0986 60.621 71.0817C60.76 71.7085 60.8891 72.2904 60.9994 72.8114L61.0317 72.9603L60.9823 73.1046C59.9036 76.2583 57.2539 78.8219 54.067 79.7957C52.158 80.3759 50.0767 80.4064 48.1596 79.941ZM45.3216 77.493C47.6243 79.1179 50.8972 79.6092 53.7424 78.7404C56.55 77.8831 58.8921 75.6486 59.8884 72.8885C59.7861 72.4097 59.6687 71.8833 59.544 71.3193C58.5989 67.0573 57.1696 60.6173 57.7901 56.5212L57.8816 55.9177L58.4725 56.0701C60.1117 56.5014 62.227 56.0271 63.8275 54.8739C64.8049 54.1691 65.3403 53.0581 65.2246 51.9731C65.0381 50.2264 63.4976 49.6202 62.1202 49.6364C61.0917 49.6471 60.0578 49.9699 59.0571 50.2811L58.1111 50.5761L58.3604 49.6175C59.7368 44.3217 59.4167 42.7238 58.3568 37.4306C57.9955 35.6273 58.7818 33.7765 59.4759 32.1437C59.6373 31.7644 59.6328 31.3483 59.4633 30.9726C59.293 30.5942 58.9818 30.3135 58.5882 30.1817C56.9131 29.6213 55.1709 29.0115 53.4869 28.4224C51.1241 27.5956 48.6806 26.7411 46.3922 26.0112C43.9245 25.2248 41.3465 24.5541 39.3353 25.7242C38.7121 26.0865 37.8853 28.6672 37.4881 29.9073C37.3347 30.3861 37.202 30.7995 37.0944 31.0847C36.4721 32.7202 35.8875 34.3657 35.3575 35.9743C33.5399 41.4935 32.3115 46.3051 31.6013 50.6846C31.0121 54.3144 31.734 57.7568 33.5821 60.1295C35.7987 62.9756 39.4258 63.5172 42.9328 64.0426C43.4269 64.1171 43.9183 64.1897 44.4007 64.2686L44.441 64.2776C45.0059 64.4148 45.2893 64.4829 45.3234 77.155L45.3216 77.493Z" fill="#023575"/>
<path d="M37.1806 52.001C37.1501 51.9938 37.1205 51.9831 37.09 51.9705C36.3341 51.6414 35.6598 51.1312 35.1379 50.4937C34.5874 49.8203 34.3273 49.111 34.3874 48.442C34.4762 47.4512 35.1917 46.7607 35.9172 46.1393L38.2109 44.1738C38.4413 43.9756 38.7893 44.0025 38.9874 44.233C39.1856 44.4643 39.1587 44.8122 38.9283 45.0095L36.6354 46.975C36.0821 47.4494 35.5379 47.9605 35.4858 48.5398C35.4437 49.0141 35.7378 49.4849 35.9916 49.7951C36.4032 50.2973 36.9349 50.6999 37.5312 50.9591C37.8101 51.081 37.9374 51.4047 37.8163 51.6845C37.707 51.9347 37.4361 52.0629 37.1806 52.001Z" fill="#023575"/>
<path d="M37.0095 55.8796C36.2401 55.6931 35.6097 55.3058 35.1883 54.7417C35.0054 54.4987 35.0556 54.1535 35.2995 53.9715C35.5425 53.7886 35.8877 53.8388 36.0697 54.0827C36.5369 54.7059 37.5053 55.0036 38.6603 54.878C39.1293 54.8269 39.5928 54.7256 40.0833 54.618C40.7155 54.4799 41.3701 54.3373 42.0498 54.3068C43.2262 54.2557 44.8277 54.6682 45.4707 56.0007C45.6025 56.2742 45.4886 56.6033 45.2142 56.736C44.9407 56.8678 44.6116 56.7539 44.4789 56.4795C44.0682 55.6295 42.9402 55.3703 42.0982 55.408C41.5127 55.434 40.9325 55.5604 40.3192 55.694C39.8215 55.8034 39.3077 55.9155 38.7795 55.9729C38.1384 56.0419 37.5412 56.0088 37.0095 55.8796Z" fill="#023575"/>
<path d="M38.0176 39.0415C37.7406 38.9742 37.5576 38.7034 37.6052 38.4174C37.8571 36.8813 38.3387 35.3973 39.0372 34.0065C39.1735 33.7348 39.5044 33.6255 39.777 33.7618C40.0487 33.898 40.158 34.2289 40.0217 34.5015C39.3734 35.7928 38.926 37.1701 38.6929 38.5958C38.6435 38.8962 38.3611 39.0998 38.0607 39.0504C38.0454 39.0478 38.0311 39.0451 38.0176 39.0415Z" fill="#023575"/>
<path d="M47.6719 42.1264C47.3949 42.0592 47.2119 41.7884 47.2595 41.5023C47.5105 39.9672 47.993 38.4823 48.6915 37.0915C48.8278 36.8198 49.1605 36.7104 49.4304 36.8467C49.7021 36.983 49.8123 37.3139 49.6752 37.5865C49.0268 38.8777 48.5794 40.2559 48.3463 41.6808C48.2969 41.9812 48.0136 42.1847 47.7132 42.1354C47.6997 42.1327 47.6854 42.1291 47.6719 42.1264Z" fill="#023575"/>
<path d="M38.5407 30.0295C38.4035 29.9963 38.2789 29.9102 38.2 29.7793C38.0422 29.5192 38.1256 29.1812 38.3856 29.0225C39.9853 28.054 41.9921 27.8469 43.7559 28.4728C44.0428 28.5741 44.1926 28.8889 44.0913 29.1758C43.9899 29.4619 43.6743 29.6107 43.3882 29.5112C41.9329 28.9947 40.2767 29.166 38.9568 29.9649C38.8259 30.0438 38.677 30.0626 38.5407 30.0295Z" fill="#023575"/>
<path d="M53.384 33.0658C53.3114 33.0479 53.2415 33.0156 53.1787 32.9672C52.2739 32.2713 51.1477 31.8634 50.0071 31.8176C49.8815 31.8122 49.7551 31.8114 49.6287 31.8105C49.2422 31.8069 48.8575 31.8087 48.4325 31.7002C47.682 31.5119 47.1251 31.0025 46.9781 30.3704C46.9099 30.0736 47.0937 29.7776 47.3905 29.7095C47.6873 29.6414 47.9832 29.8252 48.0514 30.122C48.1097 30.3766 48.4199 30.5614 48.7006 30.6322C48.9723 30.6923 49.3014 30.7057 49.6385 30.7084C49.7766 30.7093 49.9147 30.7111 50.0519 30.7165C51.4167 30.7712 52.7662 31.2599 53.8503 32.0938C54.0915 32.2794 54.1364 32.6247 53.9516 32.8659C53.8135 33.0443 53.5894 33.116 53.384 33.0658Z" fill="#023575"/>
<path d="M75.6163 22.0011C75.3897 22.0011 75.203 21.9211 75.0563 21.7611C74.923 21.6011 74.8563 21.3811 74.8563 21.1011C74.8563 20.3677 74.9897 19.7477 75.2563 19.2411C75.523 18.7344 75.9097 18.1811 76.4163 17.5811C76.8163 17.1011 77.1097 16.7011 77.2963 16.3811C77.483 16.0611 77.5763 15.7011 77.5763 15.3011C77.5763 14.8611 77.4097 14.5144 77.0763 14.2611C76.7563 13.9944 76.3163 13.8611 75.7563 13.8611C75.2763 13.8611 74.8163 13.9677 74.3763 14.1811C73.9363 14.3811 73.423 14.6744 72.8363 15.0611C72.503 15.2477 72.2297 15.3411 72.0163 15.3411C71.7897 15.3411 71.5897 15.2411 71.4163 15.0411C71.2563 14.8277 71.1763 14.5811 71.1763 14.3011C71.1763 13.9144 71.3363 13.6011 71.6563 13.3611C72.2163 12.8811 72.8763 12.5077 73.6363 12.2411C74.3963 11.9611 75.163 11.8211 75.9363 11.8211C76.7497 11.8211 77.4697 11.9611 78.0963 12.2411C78.7363 12.5211 79.2297 12.9077 79.5763 13.4011C79.9363 13.8944 80.1163 14.4611 80.1163 15.1011C80.1163 15.7944 79.9497 16.4011 79.6163 16.9211C79.283 17.4277 78.7963 18.0011 78.1563 18.6411C77.6097 19.2011 77.1963 19.6744 76.9163 20.0611C76.6497 20.4344 76.483 20.8611 76.4163 21.3411C76.3763 21.5544 76.283 21.7211 76.1363 21.8411C76.003 21.9477 75.8297 22.0011 75.6163 22.0011ZM75.6563 26.2011C75.2297 26.2011 74.8763 26.0611 74.5963 25.7811C74.3163 25.4877 74.1763 25.1277 74.1763 24.7011C74.1763 24.2744 74.3163 23.9211 74.5963 23.6411C74.8763 23.3477 75.2297 23.2011 75.6563 23.2011C76.083 23.2011 76.4363 23.3477 76.7163 23.6411C76.9963 23.9211 77.1363 24.2744 77.1363 24.7011C77.1363 25.1277 76.9897 25.4877 76.6963 25.7811C76.4163 26.0611 76.0697 26.2011 75.6563 26.2011Z" fill="#344964"/>
</svg>
