<?xml version="1.0" encoding="UTF-8"?> <svg xmlns="http://www.w3.org/2000/svg" viewBox="0 0 681.801 558.963"><path d="m336.841 338.386a73.245 73.245 0 0 1 83.6 10.058 73.22 73.22 0 0 1 58.489 133.736 74.007 74.007 0 0 1 -8.8 4 73.231 73.231 0 0 1 -131.511 42.341 73.223 73.223 0 1 1 -38.819-140.556 73.061 73.061 0 0 1 37.041-49.579z" fill="#fff"></path><g stroke="#231f20" stroke-miterlimit="10" stroke-width="3"><path d="m336.841 338.386a73.245 73.245 0 0 1 83.6 10.058 73.22 73.22 0 0 1 58.489 133.736 74.007 74.007 0 0 1 -8.8 4 73.231 73.231 0 0 1 -131.511 42.341 73.223 73.223 0 1 1 -38.819-140.556 73.061 73.061 0 0 1 37.041-49.579z" fill="none"></path><path d="m562.278 139.031a44.965 44.965 0 0 0 35.709-37.373 44.95 44.95 0 0 0 -30.164-84.678 44.955 44.955 0 0 0 -78.858 31.22 44.95 44.95 0 1 0 36.415 81.777 44.847 44.847 0 0 0 36.898 9.054z" fill="#fff"></path><path d="m440.416 266.586-121.316-26.753a3.443 3.443 0 0 1 .517-6.8l268.25-17.473" fill="#fff"></path><path d="m201.3 349.316-47.212 5.226s-7.724-9.221-1.541-13.928l6.183-4.706-4.688-54.455 14.187-1.57 56.461 34.156 389.885-135.856 54.981 2.488c8.681-.824 14.474 10 7.933 15.771a63.01 63.01 0 0 1 -8.4 6.214l-409.166 140.171z" fill="#fff"></path></g><path d="m219.229 348.114-66.813 6.428 416.879-152.494 6.453 17.871z" fill="#a5cf4e"></path><circle cx="172.374" cy="301.9" fill="#a5cf4e" r="8.947"></circle><path d="m268.678 344.277s346.501-113.142 365.885-121.077 43.537-25.082 43.537-25.082l-418.177 144.709-75.7-15.512-11.849 3.885 23.235 18.744z" fill="#231f20"></path><path d="m.046 338.14c32.745-1.012 67.227-1.64 96.1 13.834 12.341 6.613 23.092 15.919 35.493 22.418 26.28 13.773 59.453 13.432 85.443-.879" fill="none" stroke="#231f20" stroke-dasharray="12" stroke-miterlimit="10" stroke-width="3"></path><g fill="#231f20"><circle cx="290.457" cy="312.207" r="5.109"></circle><circle cx="321.504" cy="301.203" r="5.109"></circle><circle cx="352.55" cy="290.199" r="5.109"></circle><circle cx="383.596" cy="279.195" r="5.109"></circle><circle cx="414.642" cy="268.192" r="5.109"></circle><circle cx="445.688" cy="257.188" r="5.109"></circle><circle cx="476.734" cy="246.184" r="5.109"></circle></g><path d="m628.551 180.671-42.259 15.681 6.181 17.35 84.569-30.085z" fill="#573f98"></path><path d="m531.892 249.641-155.573 129.645a3.443 3.443 0 0 1 -5.057-4.571l64.275-92.063z" fill="#231f20"></path></svg> 