<?xml version="1.0" encoding="UTF-8"?> <svg xmlns="http://www.w3.org/2000/svg" viewBox="0 0 469.34 610.508"><g stroke-miterlimit="10" stroke-width="3"><path d="m94.787 104.335h220.494v367.546h-220.494z" fill="#231f20" stroke="#231f20" transform="matrix(.99327209 .11580399 -.11580399 .99327209 34.745 -21.806)"></path><rect fill="#231f20" height="232.63" rx="8.449" stroke="#231f20" transform="matrix(.864 -.504 .504 .864 -71.505 161.686)" width="330.362" x="98.239" y="96.837"></rect><rect fill="#231f20" height="285.266" rx="11.279" stroke="#231f20" transform="matrix(.989 -.146 .146 .989 -55.967 44.651)" width="333.228" x="110.492" y="262.1"></rect><rect fill="#fff" height="232.63" rx="8.449" stroke="#231f20" transform="matrix(.864 -.504 .504 .864 -73.568 159.682)" width="330.362" x="93.499" y="99.652"></rect><path d="m101.681 211.675 77.623-45.273" fill="none" stroke="#231f20"></path><path d="m348.657 195.575 39.029-22.764" fill="none" stroke="#231f20"></path><path d="m290.219 229.659 42.038-24.519" fill="none" stroke="#231f20"></path><path d="m231.453 263.935 38.735-22.593" fill="none" stroke="#231f20"></path><path d="m157.365 307.147 61.59-35.923" fill="none" stroke="#231f20"></path><path d="m307.51 94.205a19.216 19.216 0 0 1 .766-8.813 19.324 19.324 0 1 0 16.52 25.225 19.322 19.322 0 0 1 -17.286-16.412z" fill="#573f98" stroke="#231f20"></path><path d="m323.822 72.265a19.313 19.313 0 0 0 -15.546 13.127 19.277 19.277 0 0 1 16.52 25.225 19.324 19.324 0 1 0 -.974-38.352z" fill="#1cb78d" stroke="#231f20"></path><path d="m308.276 85.392a19.277 19.277 0 0 0 16.52 25.225 19.277 19.277 0 0 0 -16.52-25.225z" fill="#231f20" stroke="#231f20"></path><rect fill="#fff" height="285.266" rx="11.568" stroke="#231f20" transform="matrix(.989 -.146 .146 .989 -57.018 39.933)" width="350.501" x="69.095" y="266.92"></rect><rect fill="none" height="44.496" rx="9.684" stroke="#231f20" transform="matrix(.8686661 -.49539803 .49539803 .8686661 -98.603 104.795)" width="56.133" x="120.28" y="216.119"></rect><path d="m127.913 259.193 48.582-28.123" fill="none" stroke="#231f20"></path><path d="m120.267 245.985 48.582-28.123" fill="none" stroke="#231f20"></path><path d="m136.632 218.711 22.045 38.802" fill="none" stroke="#231f20"></path><rect fill="#fff" height="30.4" rx="8.609" stroke="#231f20" transform="matrix(.87281988 -.48804247 .48804247 .87281988 -97.634 102.543)" width="17.218" x="139.325" y="223.403"></rect><path d="m399.682 261.398-346.766 51.024" fill="none" stroke="#231f20" stroke-dasharray="12"></path><path d="m89.146 558.646 346.767-51.024" fill="none" stroke="#231f20" stroke-dasharray="12"></path><path d="m336.124 377.757a35.818 35.818 0 0 0 -30.224 40.651 34.8 34.8 0 0 0 39.5 29.368l105.474-15.52" fill="#231f20" stroke="#231f20"></path><path d="m437.07 319.279s5.478 32.673 4.725 32.113l.026.176-122.578 18.037a35.819 35.819 0 0 0 -30.223 40.651 34.805 34.805 0 0 0 39.5 29.368l105.48-15.524a39.606 39.606 0 0 0 33.418-44.949l-.974-6.616-3.544-24.068s-1.677-11.877-1.745-12.341c-1.625-11.026-13.062-18.468-24.085-16.847z" fill="#fff" stroke="#231f20"></path><path d="m422.028 435.851 11.867-1.746a37.06 37.06 0 0 0 17.521-7.5" fill="none" stroke="#fff"></path></g><circle cx="438.865" cy="341.34" fill="#231f20" r="13.151"></circle><path d="m435.569 312.376 5.15 35.001" fill="none" stroke="#fff" stroke-miterlimit="10" stroke-width="3"></path><circle cx="337.801" cy="401.485" fill="#231f20" r="18.503" stroke="#231f20" stroke-miterlimit="10" stroke-width="3"></circle><circle cx="332.475" cy="402.268" fill="#a5cf4e" r="18.503" stroke="#231f20" stroke-miterlimit="10" stroke-width="3"></circle><path d="m311.637 605.279a8.28 8.28 0 0 1 -4.618 2.171v3.058h-2.849v-2.988a9.041 9.041 0 0 1 -4.618-2.032 8.358 8.358 0 0 1 -2.778-4.5l3.4-1.391a5.943 5.943 0 0 0 1.458 2.71 5.273 5.273 0 0 0 2.535 1.529v-7.536l-.243-.105a12.535 12.535 0 0 1 -4.584-2.846 5.8 5.8 0 0 1 -1.631-4.168 6.007 6.007 0 0 1 .78-2.988 6.371 6.371 0 0 1 2.241-2.292 8.038 8.038 0 0 1 3.437-1.111v-2.987h2.849v3.058a7.577 7.577 0 0 1 3.959 1.786 7 7 0 0 1 2.013 2.971l-3.369 1.458a3.688 3.688 0 0 0 -.9-1.529 4.1 4.1 0 0 0 -1.7-1.04v7.093a16.2 16.2 0 0 1 4.81 2.863 5.417 5.417 0 0 1 1.648 4.152 6.142 6.142 0 0 1 -1.84 4.664zm-9.584-14.34a6.566 6.566 0 0 0 2.117 1.438v-6.006a3.838 3.838 0 0 0 -2.012.99 2.442 2.442 0 0 0 -.766 1.823 2.567 2.567 0 0 0 .661 1.755zm6.91 11.72a2.878 2.878 0 0 0 .73-2.015 2.576 2.576 0 0 0 -.642-1.789 6.543 6.543 0 0 0 -2.032-1.371v6.286a3.868 3.868 0 0 0 1.944-1.111z" fill="#231f20"></path><path d="m214.142 35.628a11.573 11.573 0 0 1 -6.46 3.036v4.277h-3.982v-4.178a12.644 12.644 0 0 1 -6.459-2.842 11.684 11.684 0 0 1 -3.886-6.289l4.759-1.945a8.329 8.329 0 0 0 2.04 3.791 7.38 7.38 0 0 0 3.546 2.138v-10.542l-.34-.147a17.549 17.549 0 0 1 -6.412-3.98 8.107 8.107 0 0 1 -2.281-5.831 8.4 8.4 0 0 1 1.091-4.178 8.909 8.909 0 0 1 3.135-3.206 11.232 11.232 0 0 1 4.807-1.554v-4.178h3.984v4.277a10.62 10.62 0 0 1 5.539 2.5 9.79 9.79 0 0 1 2.814 4.155l-4.712 2.04a5.163 5.163 0 0 0 -1.261-2.139 5.732 5.732 0 0 0 -2.38-1.454v9.91a22.609 22.609 0 0 1 6.728 4 7.577 7.577 0 0 1 2.305 5.807 8.594 8.594 0 0 1 -2.575 6.532zm-13.4-20.057a9.179 9.179 0 0 0 2.961 2.012v-8.4a5.376 5.376 0 0 0 -2.815 1.383 3.421 3.421 0 0 0 -1.071 2.55 3.588 3.588 0 0 0 .92 2.455zm9.658 16.393a4.023 4.023 0 0 0 1.02-2.818 3.6 3.6 0 0 0 -.9-2.5 9.154 9.154 0 0 0 -2.843-1.917v8.792a5.413 5.413 0 0 0 2.723-1.557z" fill="#231f20"></path><path d="m12.626 163.823a7.038 7.038 0 0 1 -3.926 1.844v2.6h-2.417v-2.537a7.68 7.68 0 0 1 -3.923-1.73 7.1 7.1 0 0 1 -2.36-3.819l2.891-1.181a5.069 5.069 0 0 0 1.238 2.3 4.493 4.493 0 0 0 2.154 1.3v-6.4l-.207-.089a10.656 10.656 0 0 1 -3.894-2.418 4.924 4.924 0 0 1 -1.382-3.543 5.1 5.1 0 0 1 .663-2.538 5.413 5.413 0 0 1 1.9-1.947 6.823 6.823 0 0 1 2.919-.943v-2.538h2.418v2.6a6.438 6.438 0 0 1 3.363 1.517 5.938 5.938 0 0 1 1.71 2.523l-2.862 1.239a3.136 3.136 0 0 0 -.766-1.3 3.478 3.478 0 0 0 -1.445-.883v6.02a13.722 13.722 0 0 1 4.086 2.432 4.6 4.6 0 0 1 1.4 3.527 5.221 5.221 0 0 1 -1.56 3.964zm-8.141-12.182a5.562 5.562 0 0 0 1.8 1.222v-5.1a3.259 3.259 0 0 0 -1.709.841 2.073 2.073 0 0 0 -.651 1.548 2.177 2.177 0 0 0 .56 1.489zm5.87 9.956a2.444 2.444 0 0 0 .619-1.712 2.186 2.186 0 0 0 -.545-1.519 5.551 5.551 0 0 0 -1.729-1.166v5.34a3.285 3.285 0 0 0 1.655-.94z" fill="#231f20"></path></svg> 