<svg width="150" height="141" viewBox="0 0 150 141" fill="none" xmlns="http://www.w3.org/2000/svg">
<path d="M5.67639 70.2962C9.12731 74.8115 14.2208 77.9479 17.2763 82.7389C22.1821 90.4285 20.7722 100.328 20.5046 109.446C20.2359 118.563 22.4117 129.35 30.7375 133.078C39.5505 137.024 49.4129 130.66 59.0577 130.171C68.2482 129.706 76.7137 134.61 85.32 137.87C93.9263 141.13 104.772 142.372 111.355 135.939C118.097 129.351 117.111 117.882 122.867 110.416C126.762 105.364 133.073 102.973 138.65 99.8766C144.228 96.7802 149.789 91.8824 149.895 85.5038C150.095 73.5035 132.263 68.9242 129.197 57.3203C127.617 51.3331 130.44 45.1862 132.741 39.4386C135.044 33.6901 136.774 26.7903 133.381 21.6109C130.009 16.4655 122.935 15.2613 116.813 15.8654C110.69 16.4695 104.597 18.3847 98.4986 17.5649C90.8529 16.5374 84.5052 11.4219 78.0997 7.12027C71.6951 2.81861 63.9366 -0.950837 56.5085 1.14008C47.5747 3.65538 43.5366 12.738 38.7577 19.7776C33.8878 26.9521 29.1179 30.7614 21.1556 33.5613C5.86014 38.9404 -6.21409 54.7381 5.67639 70.2962Z" fill="#63E6D6"/>
<path d="M93.7026 128.438H43.3242L43.3263 93.8119C44.794 90.553 46.2177 87.7371 47.2778 85.7304C47.813 84.7172 48.2553 83.9106 48.5635 83.3579C48.7176 83.0816 48.8382 82.8687 48.92 82.7252C48.9446 82.6822 48.9657 82.6453 48.9831 82.6149L64.8679 72.6633L87.8136 78.655L92.3686 106.578C91.5831 112.446 92.4334 118.82 93.2297 124.789C93.3947 126.026 93.5573 127.245 93.7026 128.438Z" fill="white" stroke="#023575"/>
<path d="M77.0141 87.9291L77.0141 87.9291C74.9123 87.8117 73.5263 87.1254 72.6726 86.4885C72.2437 86.1685 71.9452 85.8579 71.7567 85.632C71.6625 85.5191 71.5958 85.4275 71.5543 85.3667C71.5335 85.3364 71.519 85.3138 71.5105 85.3001L71.5028 85.2875L71.4944 85.2722C71.4866 85.2578 71.4747 85.2358 71.4592 85.2068C71.4281 85.1487 71.3826 85.0624 71.3258 84.9517C71.2122 84.73 71.0536 84.4106 70.8752 84.0225C70.5176 83.2441 70.0852 82.1993 69.7754 81.1172C69.4628 80.025 69.2899 78.9442 69.4088 78.0749C69.5237 77.2347 69.8972 76.6417 70.6717 76.3596C72.6108 75.6536 75.159 75.1313 77.5257 75.3066C79.8905 75.4818 81.9966 76.3428 83.2072 78.3211L83.2072 78.3211C85.7645 82.4999 84.8656 86.1798 83.2828 87.739C82.8604 88.155 82.5574 88.3557 82.2906 88.4535C82.0317 88.5485 81.7583 88.5645 81.3537 88.5164C81.0902 88.4851 80.8076 88.4325 80.4608 88.368C80.2425 88.3274 79.9987 88.2821 79.7182 88.2344C79.0138 88.1144 78.1395 87.992 77.0141 87.9291Z" fill="white" stroke="#031053"/>
<path d="M82.1501 81.8057L82.1501 81.8057C82.3905 82.2324 82.3585 82.5858 82.182 82.8922C81.9883 83.2285 81.5905 83.5528 81.0284 83.7888C79.9955 84.2223 78.6153 84.273 77.5479 83.7503C77.5717 83.6436 77.602 83.5136 77.6399 83.363C77.7583 82.892 77.9498 82.22 78.2405 81.4244C78.7262 80.0949 79.4858 78.4289 80.6379 76.7801C80.6819 77.0714 80.7371 77.4008 80.8055 77.7535C81.0464 78.9975 81.4592 80.5796 82.1501 81.8057Z" fill="#031053" stroke="#031053"/>
<mask id="path-5-inside-1" fill="white">
<path d="M73.0519 82.6025C72.6608 83.0481 72.3215 83.4146 72.0589 83.8303C71.9239 84.0343 71.8115 84.2486 71.7173 84.4825C71.6075 84.7149 71.5492 84.9681 71.4421 85.255C71.3048 84.9919 71.2366 84.6851 71.2685 84.38C71.2907 84.0744 71.3964 83.77 71.5671 83.5138C71.734 83.2548 71.9567 83.037 72.2102 82.8777C72.4652 82.7229 72.7477 82.6093 73.0519 82.6025Z"/>
</mask>
<path d="M73.0519 82.6025C72.6608 83.0481 72.3215 83.4146 72.0589 83.8303C71.9239 84.0343 71.8115 84.2486 71.7173 84.4825C71.6075 84.7149 71.5492 84.9681 71.4421 85.255C71.3048 84.9919 71.2366 84.6851 71.2685 84.38C71.2907 84.0744 71.3964 83.77 71.5671 83.5138C71.734 83.2548 71.9567 83.037 72.2102 82.8777C72.4652 82.7229 72.7477 82.6093 73.0519 82.6025Z" fill="white"/>
<path d="M73.0519 82.6025L73.8034 83.2622L75.3042 81.5524L73.0297 81.6028L73.0519 82.6025ZM72.0589 83.8303L72.893 84.3819L72.8987 84.3732L72.9043 84.3643L72.0589 83.8303ZM71.7173 84.4825L72.6215 84.9096L72.6339 84.8833L72.6448 84.8563L71.7173 84.4825ZM71.4421 85.255L70.5555 85.7176L71.5936 87.7075L72.3789 85.6049L71.4421 85.255ZM71.2685 84.38L72.2631 84.4841L72.2647 84.4684L72.2659 84.4526L71.2685 84.38ZM71.5671 83.5138L72.3993 84.0683L72.4036 84.0618L72.4078 84.0553L71.5671 83.5138ZM72.2102 82.8777L71.6911 82.023L71.6847 82.0269L71.6783 82.0309L72.2102 82.8777ZM72.3003 81.9428C71.939 82.3545 71.5294 82.7961 71.2134 83.2962L72.9043 84.3643C73.1136 84.0331 73.3826 83.7417 73.8034 83.2622L72.3003 81.9428ZM71.2248 83.2786C71.052 83.5398 70.9086 83.8139 70.7898 84.1087L72.6448 84.8563C72.7145 84.6833 72.7958 84.5288 72.893 84.3819L71.2248 83.2786ZM70.813 84.0554C70.7294 84.2326 70.6713 84.405 70.6277 84.5392C70.5796 84.6872 70.5489 84.7884 70.5053 84.9052L72.3789 85.6049C72.4424 85.4348 72.4945 85.2659 72.5297 85.1575C72.5694 85.0353 72.5954 84.9649 72.6215 84.9096L70.813 84.0554ZM72.3287 84.7925C72.2734 84.6864 72.2535 84.5755 72.2631 84.4841L70.2739 84.276C70.2197 84.7947 70.3362 85.2973 70.5555 85.7176L72.3287 84.7925ZM72.2659 84.4526C72.2753 84.3224 72.3226 84.1835 72.3993 84.0683L70.7349 82.9594C70.4703 83.3565 70.3062 83.8265 70.2711 84.3074L72.2659 84.4526ZM72.4078 84.0553C72.4944 83.9209 72.6112 83.8068 72.7422 83.7245L71.6783 82.0309C71.3023 82.2671 70.9735 82.5886 70.7264 82.9724L72.4078 84.0553ZM72.7293 83.7324C72.8973 83.6304 73.0068 83.6038 73.074 83.6023L73.0297 81.6028C72.4886 81.6148 72.0331 81.8153 71.6911 82.023L72.7293 83.7324Z" fill="#031053" mask="url(#path-5-inside-1)"/>
<mask id="path-7-inside-2" fill="white">
<path d="M74.3081 83.6475C74.215 83.9393 74.1363 84.2001 74.0695 84.4621C74.0022 84.7221 73.943 84.9756 73.8977 85.2335C73.8579 85.4914 73.809 85.7502 73.7844 86.0204C73.7454 86.2912 73.7305 86.5669 73.6699 86.8725C73.4916 86.6225 73.3789 86.3368 73.3242 86.0388C73.2618 85.7408 73.273 85.4305 73.3219 85.1287C73.3757 84.8266 73.489 84.5348 73.6509 84.2751C73.8157 84.0189 74.0265 83.7833 74.3081 83.6475Z"/>
</mask>
<path d="M74.3081 83.6475C74.215 83.9393 74.1363 84.2001 74.0695 84.4621C74.0022 84.7221 73.943 84.9756 73.8977 85.2335C73.8579 85.4914 73.809 85.7502 73.7844 86.0204C73.7454 86.2912 73.7305 86.5669 73.6699 86.8725C73.4916 86.6225 73.3789 86.3368 73.3242 86.0388C73.2618 85.7408 73.273 85.4305 73.3219 85.1287C73.3757 84.8266 73.489 84.5348 73.6509 84.2751C73.8157 84.0189 74.0265 83.7833 74.3081 83.6475Z" fill="white"/>
<path d="M74.3081 83.6475L75.2608 83.9513L75.9671 81.737L73.8737 82.7468L74.3081 83.6475ZM74.0695 84.4621L75.0376 84.7129L75.0386 84.709L74.0695 84.4621ZM73.8977 85.2335L72.9128 85.0602L72.911 85.0706L72.9094 85.0809L73.8977 85.2335ZM73.7844 86.0204L74.7742 86.1627L74.7779 86.1369L74.7803 86.111L73.7844 86.0204ZM73.6699 86.8725L72.8557 87.4532L74.2004 89.3388L74.6508 87.067L73.6699 86.8725ZM73.3242 86.0388L74.3077 85.8582L74.3055 85.8461L74.303 85.834L73.3242 86.0388ZM73.3219 85.1287L72.3374 84.9532L72.336 84.961L72.3347 84.9688L73.3219 85.1287ZM73.6509 84.2751L72.8099 83.734L72.8061 83.74L72.8023 83.746L73.6509 84.2751ZM73.3554 83.3436C73.2599 83.6431 73.1743 83.9254 73.1005 84.2153L75.0386 84.709C75.0982 84.4749 75.1701 84.2356 75.2608 83.9513L73.3554 83.3436ZM73.1015 84.2114C73.0304 84.4858 72.9644 84.767 72.9128 85.0602L74.8825 85.4068C74.9217 85.1842 74.974 84.9584 75.0376 84.7129L73.1015 84.2114ZM72.9094 85.0809C72.8762 85.2958 72.8169 85.6181 72.7885 85.9298L74.7803 86.111C74.8011 85.8823 74.8395 85.687 74.886 85.3861L72.9094 85.0809ZM72.7946 85.8781C72.7368 86.2796 72.7468 86.3869 72.689 86.6781L74.6508 87.067C74.7143 86.747 74.7541 86.3027 74.7742 86.1627L72.7946 85.8781ZM74.4841 86.2919C74.4001 86.1741 74.339 86.0285 74.3077 85.8582L72.3407 86.2195C72.4189 86.6452 72.5832 87.071 72.8557 87.4532L74.4841 86.2919ZM74.303 85.834C74.2734 85.6927 74.2727 85.5128 74.309 85.2886L72.3347 84.9688C72.2733 85.3482 72.2503 85.789 72.3454 86.2436L74.303 85.834ZM74.3063 85.3042C74.3375 85.1296 74.4039 84.9575 74.4995 84.8041L72.8023 83.746C72.5741 84.112 72.414 84.5236 72.3374 84.9532L74.3063 85.3042ZM74.4919 84.8162C74.6052 84.64 74.6923 84.5724 74.7425 84.5482L73.8737 82.7468C73.3606 82.9942 73.0262 83.3979 72.8099 83.734L74.4919 84.8162Z" fill="#031053" mask="url(#path-7-inside-2)"/>
<mask id="path-9-inside-3" fill="white">
<path d="M76.0113 84.5801C76.0651 85.1372 76.0151 85.6219 75.975 86.1067L75.9091 86.8265L75.8594 87.5941C75.6486 87.4029 75.5253 87.138 75.451 86.8707C75.3831 86.6011 75.3693 86.3239 75.3919 86.054C75.4161 85.7838 75.4814 85.5212 75.5795 85.2712C75.6828 85.0233 75.8108 84.7829 76.0113 84.5801Z"/>
</mask>
<path d="M76.0113 84.5801C76.0651 85.1372 76.0151 85.6219 75.975 86.1067L75.9091 86.8265L75.8594 87.5941C75.6486 87.4029 75.5253 87.138 75.451 86.8707C75.3831 86.6011 75.3693 86.3239 75.3919 86.054C75.4161 85.7838 75.4814 85.5212 75.5795 85.2712C75.6828 85.0233 75.8108 84.7829 76.0113 84.5801Z" fill="white"/>
<path d="M76.0113 84.5801L77.0066 84.4838L76.8011 82.3585L75.3001 83.8771L76.0113 84.5801ZM75.975 86.1067L76.9709 86.1978L76.9716 86.1891L75.975 86.1067ZM75.9091 86.8265L74.9133 86.7354L74.9121 86.7486L74.9112 86.7618L75.9091 86.8265ZM75.8594 87.5941L75.1876 88.3348L76.7231 89.7275L76.8573 87.6588L75.8594 87.5941ZM75.451 86.8707L74.4813 87.115L74.4843 87.1269L74.4876 87.1388L75.451 86.8707ZM75.3919 86.054L74.3959 85.9644L74.3953 85.9708L75.3919 86.054ZM75.5795 85.2712L74.6565 84.8865L74.6524 84.8963L74.6486 84.906L75.5795 85.2712ZM75.0159 84.6763C75.0594 85.1261 75.0206 85.514 74.9784 86.0243L76.9716 86.1891C77.0096 85.7298 77.0709 85.1483 77.0066 84.4838L75.0159 84.6763ZM74.9791 86.0156L74.9133 86.7354L76.905 86.9177L76.9708 86.1978L74.9791 86.0156ZM74.9112 86.7618L74.8614 87.5294L76.8573 87.6588L76.907 86.8912L74.9112 86.7618ZM76.5312 86.8534C76.5248 86.8476 76.5075 86.8297 76.4847 86.7872C76.4613 86.7438 76.4368 86.6832 76.4144 86.6027L74.4876 87.1388C74.5883 87.5007 74.7823 87.9673 75.1876 88.3348L76.5312 86.8534ZM76.4207 86.6265C76.3845 86.4828 76.3732 86.3186 76.3884 86.1372L74.3953 85.9708C74.3654 86.3292 74.3816 86.7195 74.4813 87.115L76.4207 86.6265ZM76.3878 86.1436C76.403 85.9753 76.4442 85.8053 76.5104 85.6364L74.6486 84.906C74.5187 85.2372 74.4293 85.5924 74.3959 85.9644L76.3878 86.1436ZM76.5025 85.6559C76.5834 85.462 76.6512 85.3551 76.7225 85.2831L75.3001 83.8771C74.9703 84.2107 74.7823 84.5846 74.6565 84.8865L76.5025 85.6559Z" fill="#031053" mask="url(#path-9-inside-3)"/>
<mask id="path-11-inside-4" fill="white">
<path d="M77.9965 84.9531C78.1592 85.1774 78.2512 85.4212 78.322 85.668C78.3887 85.9156 78.4247 86.1697 78.4312 86.4256C78.4359 86.6817 78.4104 86.9405 78.3469 87.194C78.2775 87.4458 78.1768 87.6975 77.9965 87.9071C77.9391 87.6364 77.9122 87.3966 77.8882 87.1554C77.8642 86.9148 77.8492 86.6773 77.8457 86.4382C77.8404 86.1987 77.8454 85.9578 77.865 85.7125C77.8885 85.4657 77.9189 85.2175 77.9965 84.9531Z"/>
</mask>
<path d="M77.9965 84.9531C78.1592 85.1774 78.2512 85.4212 78.322 85.668C78.3887 85.9156 78.4247 86.1697 78.4312 86.4256C78.4359 86.6817 78.4104 86.9405 78.3469 87.194C78.2775 87.4458 78.1768 87.6975 77.9965 87.9071C77.9391 87.6364 77.9122 87.3966 77.8882 87.1554C77.8642 86.9148 77.8492 86.6773 77.8457 86.4382C77.8404 86.1987 77.8454 85.9578 77.865 85.7125C77.8885 85.4657 77.9189 85.2175 77.9965 84.9531Z" fill="white"/>
<path d="M77.9965 84.9531L78.8058 84.3657L77.6101 82.7185L77.0369 84.6715L77.9965 84.9531ZM78.322 85.668L79.2875 85.4078L79.2854 85.3999L79.2832 85.3921L78.322 85.668ZM78.4312 86.4256L79.431 86.4073L79.4309 86.4004L78.4312 86.4256ZM78.3469 87.194L79.3109 87.4597L79.314 87.4484L79.3169 87.4371L78.3469 87.194ZM77.9965 87.9071L77.0182 88.1144L77.437 90.0908L78.7545 88.5593L77.9965 87.9071ZM77.8882 87.1554L78.8832 87.0564L78.8832 87.0561L77.8882 87.1554ZM77.8457 86.4382L78.8456 86.4235L78.8455 86.4162L77.8457 86.4382ZM77.865 85.7125L76.8695 85.618L76.8688 85.6254L76.8682 85.6328L77.865 85.7125ZM77.1872 85.5405C77.2515 85.6292 77.3041 85.7462 77.3608 85.9439L79.2832 85.3921C79.1983 85.0962 79.0669 84.7255 78.8058 84.3657L77.1872 85.5405ZM77.3564 85.9282C77.4019 86.097 77.427 86.2721 77.4315 86.4508L79.4309 86.4004C79.4225 86.0674 79.3755 85.7343 79.2875 85.4078L77.3564 85.9282ZM77.4314 86.4439C77.4346 86.6219 77.4167 86.792 77.3769 86.951L79.3169 87.4371C79.4041 87.0891 79.4371 86.7416 79.431 86.4073L77.4314 86.4439ZM77.3828 86.9284C77.3315 87.1146 77.2812 87.2053 77.2384 87.255L78.7545 88.5593C79.0724 88.1898 79.2235 87.777 79.3109 87.4597L77.3828 86.9284ZM78.9748 87.6998C78.9292 87.4848 78.9065 87.2898 78.8832 87.0564L76.8931 87.2544C76.9179 87.5034 76.949 87.7879 77.0182 88.1144L78.9748 87.6998ZM78.8832 87.0561C78.8616 86.8395 78.8486 86.6306 78.8456 86.4235L76.8458 86.4529C76.8498 86.7241 76.8667 86.99 76.8931 87.2547L78.8832 87.0561ZM78.8455 86.4162C78.8408 86.2054 78.8453 85.9989 78.8619 85.7922L76.8682 85.6328C76.8455 85.9167 76.8401 86.192 76.846 86.4602L78.8455 86.4162ZM78.8606 85.807C78.8825 85.576 78.9061 85.4048 78.956 85.2347L77.0369 84.6715C76.9317 85.0301 76.8944 85.3554 76.8695 85.618L78.8606 85.807Z" fill="#031053" mask="url(#path-11-inside-4)"/>
<mask id="path-13-inside-5" fill="white">
<path d="M80.0851 85.2549C80.2868 85.4367 80.4074 85.6703 80.499 85.9065C80.5865 86.1451 80.6363 86.3957 80.6506 86.6471C80.67 87.1483 80.5807 87.6635 80.2674 88.0965C80.1852 87.8386 80.1565 87.6018 80.1234 87.3676C80.0991 87.134 80.0745 86.9065 80.066 86.6788C80.0537 86.451 80.0473 86.2235 80.0479 85.9902C80.0508 85.7558 80.0573 85.5204 80.0851 85.2549Z"/>
</mask>
<path d="M80.0851 85.2549C80.2868 85.4367 80.4074 85.6703 80.499 85.9065C80.5865 86.1451 80.6363 86.3957 80.6506 86.6471C80.67 87.1483 80.5807 87.6635 80.2674 88.0965C80.1852 87.8386 80.1565 87.6018 80.1234 87.3676C80.0991 87.134 80.0745 86.9065 80.066 86.6788C80.0537 86.451 80.0473 86.2235 80.0479 85.9902C80.0508 85.7558 80.0573 85.5204 80.0851 85.2549Z" fill="white"/>
<path d="M80.0851 85.2549L80.7546 84.5121L79.2952 83.1967L79.0905 85.1507L80.0851 85.2549ZM80.499 85.9065L81.4378 85.5621L81.4346 85.5535L81.4313 85.5449L80.499 85.9065ZM80.6506 86.6471L81.6499 86.6086L81.6495 86.5994L81.649 86.5902L80.6506 86.6471ZM80.2674 88.0965L79.3147 88.4004L79.9166 90.2874L81.0776 88.6826L80.2674 88.0965ZM80.1234 87.3676L79.1288 87.471L79.1307 87.4893L79.1332 87.5074L80.1234 87.3676ZM80.066 86.6788L81.0653 86.6415L81.065 86.6332L81.0646 86.6249L80.066 86.6788ZM80.0479 85.9902L79.0479 85.9778L79.0479 85.9877L80.0479 85.9902ZM79.4156 85.9977C79.4474 86.0264 79.4979 86.0909 79.5667 86.2681L81.4313 85.5449C81.3168 85.2497 81.1261 84.847 80.7546 84.5121L79.4156 85.9977ZM79.5602 86.2509C79.6121 86.3924 79.6432 86.5456 79.6523 86.7041L81.649 86.5902C81.6294 86.2457 81.561 85.8978 81.4378 85.5621L79.5602 86.2509ZM79.6514 86.6857C79.6655 87.0517 79.5956 87.3191 79.4572 87.5103L81.0776 88.6826C81.5658 88.0079 81.6744 87.245 81.6499 86.6086L79.6514 86.6857ZM81.2202 87.7926C81.1689 87.6318 81.1502 87.487 81.1136 87.2277L79.1332 87.5074C79.1628 87.7165 79.2015 88.0454 79.3147 88.4004L81.2202 87.7926ZM81.118 87.2641C81.0927 87.0206 81.0723 86.8292 81.0653 86.6415L79.0667 86.716C79.0767 86.9838 79.1055 87.2474 79.1288 87.471L81.118 87.2641ZM81.0646 86.6249C81.0532 86.4144 81.0474 86.2058 81.0479 85.9927L79.0479 85.9877C79.0473 86.2413 79.0543 86.4877 79.0675 86.7327L81.0646 86.6249ZM81.0478 86.0027C81.0506 85.7782 81.0566 85.5788 81.0796 85.3591L79.0905 85.1507C79.0579 85.462 79.051 85.7333 79.048 85.9778L81.0478 86.0027Z" fill="#031053" mask="url(#path-13-inside-5)"/>
<mask id="path-15-inside-6" fill="white">
<path d="M81.666 77.8601C81.6748 77.6865 81.765 77.5568 81.8709 77.457C81.9801 77.3598 82.1157 77.293 82.2585 77.2687C82.5422 77.2222 82.8554 77.3082 83.024 77.5986C82.8747 77.6873 82.7609 77.7263 82.6546 77.7676C82.5492 77.8003 82.4567 77.8311 82.3621 77.8448C82.2676 77.8601 82.1733 77.8709 82.0641 77.8729C81.9523 77.8741 81.8346 77.8715 81.666 77.8601Z"/>
</mask>
<path d="M81.666 77.8601C81.6748 77.6865 81.765 77.5568 81.8709 77.457C81.9801 77.3598 82.1157 77.293 82.2585 77.2687C82.5422 77.2222 82.8554 77.3082 83.024 77.5986C82.8747 77.6873 82.7609 77.7263 82.6546 77.7676C82.5492 77.8003 82.4567 77.8311 82.3621 77.8448C82.2676 77.8601 82.1733 77.8709 82.0641 77.8729C81.9523 77.8741 81.8346 77.8715 81.666 77.8601Z" fill="white"/>
<path d="M81.666 77.8601L80.6673 77.8095L80.6176 78.7914L81.5985 78.8578L81.666 77.8601ZM81.8709 77.457L81.2061 76.71L81.1955 76.7194L81.1853 76.7291L81.8709 77.457ZM82.2585 77.2687L82.0966 76.2819L82.0908 76.2829L82.2585 77.2687ZM83.024 77.5986L83.5348 78.4584L84.3859 77.9527L83.8888 77.0965L83.024 77.5986ZM82.6546 77.7676L82.9517 78.7224L82.9846 78.7122L83.0167 78.6997L82.6546 77.7676ZM82.3621 77.8448L82.2182 76.8553L82.2107 76.8563L82.2032 76.8575L82.3621 77.8448ZM82.0641 77.8729L82.0746 78.8729L82.0829 78.8728L82.0641 77.8729ZM82.6647 77.9106C82.6607 77.9907 82.6363 78.0621 82.6068 78.1153C82.5933 78.1398 82.5804 78.1574 82.5715 78.1683C82.5627 78.1791 82.557 78.1845 82.5566 78.1849L81.1853 76.7291C80.9745 76.9275 80.6939 77.2832 80.6673 77.8095L82.6647 77.9106ZM82.5358 78.2039C82.5108 78.2261 82.4758 78.2461 82.4262 78.2546L82.0908 76.2829C81.7555 76.3399 81.4494 76.4934 81.2061 76.71L82.5358 78.2039ZM82.4204 78.2555C82.4129 78.2568 82.379 78.2613 82.3246 78.2404C82.2957 78.2292 82.2628 78.2113 82.231 78.1846C82.1986 78.1574 82.1748 78.1275 82.1592 78.1008L83.8888 77.0965C83.4556 76.3504 82.6672 76.1883 82.0966 76.2819L82.4204 78.2555ZM82.5133 76.7389C82.4503 76.7764 82.4228 76.7848 82.2925 76.8354L83.0167 78.6997C83.0989 78.6678 83.2992 78.5983 83.5348 78.4584L82.5133 76.7389ZM82.3575 76.8127C82.3241 76.8231 82.3078 76.8283 82.2828 76.836C82.2616 76.8425 82.2464 76.8471 82.2342 76.8505C82.2092 76.8575 82.2075 76.8568 82.2182 76.8553L82.5061 78.8344C82.6979 78.8065 82.8813 78.7443 82.9517 78.7224L82.3575 76.8127ZM82.2032 76.8575C82.1413 76.8675 82.0955 76.8722 82.0454 76.8731L82.0829 78.8728C82.2512 78.8696 82.3939 78.8526 82.5211 78.8321L82.2032 76.8575ZM82.0537 76.873C81.9698 76.8739 81.8783 76.8721 81.7336 76.8623L81.5985 78.8578C81.791 78.8708 81.9348 78.8743 82.0746 78.8729L82.0537 76.873Z" fill="#031053" mask="url(#path-15-inside-6)"/>
<mask id="path-17-inside-7" fill="white">
<path d="M81.9688 79.005C82.0223 78.8097 82.1702 78.6771 82.3256 78.5838C82.4851 78.4927 82.6655 78.4482 82.8432 78.4421C83.0214 78.4359 83.1971 78.4728 83.3572 78.5428C83.5165 78.6165 83.6622 78.721 83.7726 78.8847C83.5847 78.9538 83.4289 78.9749 83.2796 78.9965C83.1315 79.0161 82.9945 79.0234 82.8601 79.027C82.7258 79.0319 82.594 79.0287 82.4529 79.0246L81.9688 79.005Z"/>
</mask>
<path d="M81.9688 79.005C82.0223 78.8097 82.1702 78.6771 82.3256 78.5838C82.4851 78.4927 82.6655 78.4482 82.8432 78.4421C83.0214 78.4359 83.1971 78.4728 83.3572 78.5428C83.5165 78.6165 83.6622 78.721 83.7726 78.8847C83.5847 78.9538 83.4289 78.9749 83.2796 78.9965C83.1315 79.0161 82.9945 79.0234 82.8601 79.027C82.7258 79.0319 82.594 79.0287 82.4529 79.0246L81.9688 79.005Z" fill="white"/>
<path d="M81.9688 79.005L81.0044 78.7404L80.6716 79.9533L81.9283 80.0042L81.9688 79.005ZM82.3256 78.5838L81.83 77.7152L81.8202 77.7208L81.8106 77.7265L82.3256 78.5838ZM82.8432 78.4421L82.8087 77.4427L82.8086 77.4427L82.8432 78.4421ZM83.3572 78.5428L83.7775 77.6354L83.7676 77.6308L83.7576 77.6264L83.3572 78.5428ZM83.7726 78.8847L84.1176 79.8233L85.3149 79.3831L84.6017 78.3255L83.7726 78.8847ZM83.2796 78.9965L83.4109 79.9879L83.4232 79.9862L83.2796 78.9965ZM82.8601 79.027L82.834 78.0272L82.8231 78.0276L82.8601 79.027ZM82.4529 79.0246L82.4125 80.0239L82.4239 80.0242L82.4529 79.0246ZM82.9331 79.2696C82.9114 79.3486 82.8728 79.4026 82.8481 79.4297C82.8271 79.4527 82.8185 79.4542 82.8406 79.441L81.8106 77.7265C81.5581 77.8782 81.1564 78.1865 81.0044 78.7404L82.9331 79.2696ZM82.8212 79.4523C82.821 79.4524 82.8252 79.45 82.8353 79.4473C82.8456 79.4445 82.86 79.4421 82.8777 79.4415L82.8086 77.4427C82.4913 77.4536 82.1486 77.5334 81.83 77.7152L82.8212 79.4523ZM82.8776 79.4415C82.8956 79.4409 82.9232 79.4444 82.9568 79.4591L83.7576 77.6264C83.471 77.5012 83.1473 77.431 82.8087 77.4427L82.8776 79.4415ZM82.9369 79.4501C82.9589 79.4603 82.9641 79.4653 82.9607 79.4626C82.9589 79.4612 82.9558 79.4585 82.9522 79.4547C82.9486 79.4507 82.9456 79.4469 82.9435 79.4438L84.6017 78.3255C84.3649 77.9745 84.0575 77.7651 83.7775 77.6354L82.9369 79.4501ZM83.4276 77.9461C83.35 77.9746 83.2912 77.9844 83.136 78.0069L83.4232 79.9862C83.5666 79.9653 83.8193 79.9329 84.1176 79.8233L83.4276 77.9461ZM83.1484 78.0052C83.0483 78.0184 82.9497 78.0243 82.834 78.0273L82.8863 80.0266C83.0393 80.0226 83.2147 80.0138 83.4109 79.9879L83.1484 78.0052ZM82.8231 78.0276C82.7257 78.0312 82.6243 78.0292 82.482 78.025L82.4239 80.0242C82.5638 80.0283 82.7258 80.0326 82.8971 80.0263L82.8231 78.0276ZM82.4934 78.0254L82.0092 78.0058L81.9283 80.0042L82.4125 80.0238L82.4934 78.0254Z" fill="#031053" mask="url(#path-17-inside-7)"/>
<mask id="path-19-inside-8" fill="white">
<path d="M82.3438 80.3118C82.4497 80.1213 82.6139 79.9977 82.7896 79.9049C82.9676 79.8156 83.166 79.7673 83.3683 79.7624C83.7682 79.7495 84.2067 79.9281 84.4008 80.3118C84.1818 80.335 84.0162 80.3235 83.8502 80.3355L83.3815 80.3475C83.2272 80.3511 83.0697 80.3519 82.9011 80.3499C82.7316 80.3458 82.5566 80.3408 82.3438 80.3118Z"/>
</mask>
<path d="M82.3438 80.3118C82.4497 80.1213 82.6139 79.9977 82.7896 79.9049C82.9676 79.8156 83.166 79.7673 83.3683 79.7624C83.7682 79.7495 84.2067 79.9281 84.4008 80.3118C84.1818 80.335 84.0162 80.3235 83.8502 80.3355L83.3815 80.3475C83.2272 80.3511 83.0697 80.3519 82.9011 80.3499C82.7316 80.3458 82.5566 80.3408 82.3438 80.3118Z" fill="white"/>
<path d="M82.3438 80.3118L81.4698 79.8259L80.7584 81.1052L82.2088 81.3027L82.3438 80.3118ZM82.7896 79.9049L82.3412 79.0111L82.3318 79.0158L82.3224 79.0207L82.7896 79.9049ZM83.3683 79.7624L83.3929 80.7621L83.4005 80.7618L83.3683 79.7624ZM84.4008 80.3118L84.5058 81.3063L85.9473 81.1541L85.2932 79.8605L84.4008 80.3118ZM83.8502 80.3355L83.8758 81.3352L83.8991 81.3346L83.9223 81.3329L83.8502 80.3355ZM83.3815 80.3475L83.4043 81.3473L83.4071 81.3472L83.3815 80.3475ZM82.9011 80.3499L82.8769 81.3497L82.889 81.3498L82.9011 80.3499ZM83.2177 80.7978C83.213 80.8064 83.2077 80.8138 83.2031 80.8194C83.1985 80.8248 83.1958 80.8271 83.1967 80.8264C83.1977 80.8255 83.2024 80.8216 83.2123 80.815C83.2224 80.8083 83.2367 80.7997 83.2567 80.7891L82.3224 79.0207C82.0552 79.162 81.7058 79.4014 81.4698 79.8259L83.2177 80.7978ZM83.238 80.7988C83.2794 80.778 83.3325 80.7636 83.3929 80.7621L83.3437 78.7627C82.9996 78.7711 82.6557 78.8533 82.3412 79.0111L83.238 80.7988ZM83.4005 80.7618C83.4212 80.7612 83.4443 80.763 83.467 80.7678C83.4896 80.7725 83.5069 80.779 83.5182 80.7846C83.5399 80.7953 83.5238 80.7934 83.5084 80.7631L85.2932 79.8605C84.873 79.0296 83.9981 78.7416 83.3361 78.7629L83.4005 80.7618ZM84.2958 79.3174C84.23 79.3243 84.1682 79.3266 84.0885 79.328C84.0205 79.3292 83.8968 79.3296 83.7781 79.3382L83.9223 81.3329C83.9696 81.3295 84.0116 81.3296 84.1228 81.3277C84.2221 81.326 84.3526 81.3225 84.5058 81.3063L84.2958 79.3174ZM83.8246 79.3359L83.3559 79.3479L83.4071 81.3472L83.8758 81.3352L83.8246 79.3359ZM83.3587 79.3478C83.2165 79.351 83.0706 79.3519 82.9133 79.35L82.889 81.3498C83.0689 81.352 83.238 81.3511 83.4043 81.3473L83.3587 79.3478ZM82.9253 79.3502C82.7594 79.3462 82.6322 79.3419 82.4787 79.321L82.2088 81.3027C82.481 81.3398 82.7039 81.3454 82.8769 81.3496L82.9253 79.3502Z" fill="#031053" mask="url(#path-19-inside-8)"/>
<mask id="path-21-inside-9" fill="white">
<path d="M82.958 81.3865C83.035 81.2112 83.1875 81.1114 83.3397 81.0458C83.4952 80.9834 83.6617 80.9647 83.8219 80.9793C83.9826 80.994 84.1363 81.0467 84.2736 81.1283C84.4094 81.2135 84.5312 81.3248 84.6146 81.4919C84.4349 81.5505 84.2897 81.5619 84.1509 81.5718C84.0136 81.5794 83.8877 81.5736 83.7648 81.5616C83.6421 81.5502 83.5224 81.5288 83.3951 81.501C83.266 81.4717 83.1363 81.4348 82.958 81.3865Z"/>
</mask>
<path d="M82.958 81.3865C83.035 81.2112 83.1875 81.1114 83.3397 81.0458C83.4952 80.9834 83.6617 80.9647 83.8219 80.9793C83.9826 80.994 84.1363 81.0467 84.2736 81.1283C84.4094 81.2135 84.5312 81.3248 84.6146 81.4919C84.4349 81.5505 84.2897 81.5619 84.1509 81.5718C84.0136 81.5794 83.8877 81.5736 83.7648 81.5616C83.6421 81.5502 83.5224 81.5288 83.3951 81.501C83.266 81.4717 83.1363 81.4348 82.958 81.3865Z" fill="white"/>
<path d="M82.958 81.3865L82.0424 80.9845L81.5754 82.048L82.6965 82.3517L82.958 81.3865ZM83.3397 81.0458L82.9674 80.1177L82.9557 80.1224L82.9441 80.1274L83.3397 81.0458ZM83.8219 80.9793L83.7308 81.9752L83.7312 81.9752L83.8219 80.9793ZM84.2736 81.1283L84.8049 80.2811L84.7949 80.2749L84.7848 80.2689L84.2736 81.1283ZM84.6146 81.4919L84.9243 82.4427L86.0275 82.0834L85.5093 81.0453L84.6146 81.4919ZM84.1509 81.5718L84.2063 82.5703L84.2144 82.5698L84.2225 82.5693L84.1509 81.5718ZM83.7648 81.5616L83.8619 80.5663L83.8575 80.5659L83.7648 81.5616ZM83.3951 81.501L83.1739 82.4763L83.1817 82.478L83.3951 81.501ZM83.8736 81.7885C83.8397 81.8659 83.7911 81.9182 83.7569 81.9465C83.7277 81.9706 83.7133 81.9737 83.7354 81.9642L82.9441 80.1274C82.695 80.2347 82.268 80.4707 82.0424 80.9845L83.8736 81.7885ZM83.712 81.9739C83.7072 81.9758 83.7059 81.9756 83.7093 81.9752C83.7129 81.9747 83.7202 81.9742 83.7308 81.9752L83.9129 79.9835C83.6157 79.9563 83.2878 79.9892 82.9674 80.1177L83.712 81.9739ZM83.7312 81.9752C83.7327 81.9753 83.7439 81.9768 83.7623 81.9878L84.7848 80.2689C84.5287 80.1165 84.2324 80.0126 83.9126 79.9834L83.7312 81.9752ZM83.7423 81.9755C83.7583 81.9856 83.7566 81.9866 83.7476 81.9774C83.7431 81.9727 83.7378 81.9666 83.7324 81.959C83.727 81.9515 83.7228 81.9444 83.7199 81.9385L85.5093 81.0453C85.3231 80.6723 85.0517 80.4359 84.8049 80.2811L83.7423 81.9755ZM84.3049 80.5411C84.2487 80.5594 84.2073 80.5652 84.0794 80.5744L84.2225 82.5693C84.372 82.5585 84.621 82.5415 84.9243 82.4427L84.3049 80.5411ZM84.0956 80.5734C84.0221 80.5774 83.9491 80.5748 83.8619 80.5663L83.6676 82.5568C83.8264 82.5723 84.0051 82.5814 84.2063 82.5703L84.0956 80.5734ZM83.8575 80.5659C83.7898 80.5596 83.7132 80.5469 83.6084 80.524L83.1817 82.478C83.3316 82.5107 83.4945 82.5407 83.6721 82.5573L83.8575 80.5659ZM83.6162 80.5257C83.5137 80.5025 83.4156 80.4745 83.2195 80.4213L82.6965 82.3517C82.857 82.3952 83.0182 82.4409 83.1739 82.4762L83.6162 80.5257Z" fill="#031053" mask="url(#path-21-inside-9)"/>
<path d="M76.9859 84.0086C76.9859 84.0086 78.1208 77.7393 83.2282 73.3992C83.2282 73.3992 92.3081 79.6684 100.009 72.6755C100.009 72.6755 103.739 69.8626 103.739 62.7895C103.739 62.7895 104.225 52.6623 103.333 50.0903C102.441 47.5183 95.0642 40.2845 84.5254 45.6697C73.9865 51.0549 69.6897 75.8102 70.0141 77.4981C70.0141 77.4981 75.4458 85.5358 76.9859 84.0086Z" fill="white"/>
<path d="M97.2942 59.8956C97.2942 59.8956 97.5779 58.8508 96.8077 59.6544C96.0375 60.4582 94.7 62.1058 94.4971 63.0302C94.2945 63.9544 94.548 66.3256 95.921 65.6827C97.2939 65.0399 97.1721 63.7597 97.1317 62.5712C97.0916 61.3824 97.2942 59.8956 97.2942 59.8956Z" fill="#344964"/>
<path d="M87.9095 56.4989C87.9095 56.4989 87.2204 56.3783 87.7269 55.9363C88.2336 55.4942 90.8682 54.8915 92.449 55.5947C94.0298 56.2978 91.3952 56.1977 90.4224 56.1977C89.4496 56.1977 87.9095 56.4989 87.9095 56.4989Z" fill="#0B1838"/>
<path d="M103.138 58.3704C103.138 58.3704 103.597 58.3792 103.387 57.9046C103.176 57.4301 101.674 56.4582 100.517 56.8139C99.3607 57.1702 101.031 57.5217 101.639 57.6845C102.247 57.8473 103.138 58.3704 103.138 58.3704Z" fill="#0B1838"/>
<path d="M90.2537 59.6881C90.0942 60.4486 89.7569 61.0224 89.5008 60.9694C89.2446 60.9164 89.1662 60.2571 89.326 59.4966C89.4856 58.7361 89.8228 58.1623 90.0789 58.2153C90.3351 58.2683 90.4132 58.9275 90.2537 59.6881Z" fill="#0B1838"/>
<path d="M101.724 61.4068C101.564 62.1674 101.228 62.7408 100.971 62.6881C100.715 62.6351 100.637 61.9756 100.797 61.2154C100.956 60.4545 101.293 59.8811 101.55 59.9341C101.806 59.987 101.884 60.646 101.724 61.4068Z" fill="#0B1838"/>
<path d="M59.8191 74.3679C59.8191 74.3679 51.9329 71.554 48.9619 68.2557C48.9619 68.2557 52.3423 67.9402 53.7861 62.1548C55.2299 56.3694 71.2221 32.7766 87.2817 32.2459C106.738 31.6028 107.062 45.1058 107.062 45.1058C107.062 45.1058 107.711 53.2237 109.494 54.8312C109.494 54.8312 107.954 55.474 103.901 54.5097L103.82 51.5358L102.604 54.3487C102.604 54.3487 95.875 54.1075 89.7948 50.732C89.7948 50.732 91.3352 46.9545 91.4971 44.7039C91.4971 44.7039 88.3355 50.5713 87.2006 50.893L84.6064 50.1696C84.6064 50.1696 70.6627 67.8521 71.5137 82.6816C71.5137 82.6816 65.2174 69.4507 67.0414 73.188C67.0414 73.188 65.7968 77.12 59.8191 74.3679Z" fill="#344964"/>
<path d="M80.147 59.6553C80.147 59.6553 76.3774 57.0333 77.0463 53.0547C77.0463 53.0547 77.8672 50.5831 80.147 51.3064C82.4271 52.0298 82.0925 54.3808 82.0925 54.3808L80.147 59.6553Z" fill="white"/>
<path d="M80.7149 53.4461C80.469 53.247 80.2058 53.0781 79.9582 53.0392C79.712 53.0011 79.5466 53.0878 79.3829 53.2526C79.2205 53.4209 79.0826 53.656 78.9529 53.8966C78.8431 54.1252 78.7664 54.3515 78.736 54.6059C78.7079 54.8579 78.7114 55.1199 78.7453 55.386C78.7852 55.6513 78.8522 55.9162 78.9421 56.1791C79.041 56.4364 79.1563 56.6946 79.3165 56.9291C79.4713 57.1694 79.6657 57.3869 79.9385 57.5567C79.6107 57.5781 79.2843 57.427 79.0111 57.2335C78.7418 57.0301 78.5079 56.7762 78.325 56.4894C78.1467 56.2001 78.0144 55.8814 77.928 55.5459C77.849 55.2084 77.8261 54.8524 77.8657 54.4947C77.9102 54.1384 78.0445 53.778 78.2377 53.4748C78.4295 53.1958 78.6435 52.9159 78.9681 52.7043C79.053 52.6539 79.1467 52.6126 79.2348 52.5714C79.3352 52.5433 79.4356 52.5119 79.5395 52.5064C79.7521 52.4953 79.9584 52.5465 80.1218 52.6428C80.44 52.8468 80.6232 53.1384 80.7149 53.4461Z" fill="white"/>
<path d="M84.948 75.3857C84.948 75.3857 80.2056 74.602 79.9623 71.9498C79.7191 69.2973 81.1784 69.7798 82.4553 68.1518C83.7322 66.5242 84.3402 63.872 88.0489 64.2939C91.7576 64.7157 91.697 65.8009 92.8521 67.2476C94.0073 68.6943 95.7707 68.9358 97.7163 68.3931C99.6618 67.8503 101.729 67.9261 102.459 69.8172C103.189 71.7083 102.094 75.8678 98.8108 76.109C95.5275 76.3499 89.2044 77.4351 87.8057 76.7721C86.4072 76.1093 84.948 75.3857 84.948 75.3857Z" fill="#C9D4FF"/>
<path d="M53.5484 80.9618L53.5358 80.9674L53.5356 80.9675L53.5356 80.9675L53.5327 80.9689L53.5135 80.978C53.4951 80.987 53.4659 81.0017 53.4271 81.0224C53.3496 81.0639 53.2344 81.1294 53.093 81.2214C52.8099 81.4056 52.4243 81.6943 52.0254 82.1066C51.2314 82.9273 50.3797 84.242 50.1799 86.2243L49.6824 86.1742L50.1799 86.2243C49.976 88.2478 50.3286 89.923 50.7107 91.2868C50.791 91.573 50.8772 91.8606 50.96 92.1369C51.0669 92.4931 51.168 92.8306 51.2434 93.1222C51.3795 93.6483 51.4776 94.1789 51.39 94.6487L53.5484 80.9618ZM53.5484 80.9618L53.562 80.9547C57.3354 78.9841 61.2352 79.9207 64.3675 81.65C65.9296 82.5125 67.2797 83.5621 68.2934 84.5129C69.3232 85.4788 69.9604 86.2999 70.1465 86.6933C70.4241 87.2805 71.0101 87.8612 71.6423 88.416C71.9674 88.7013 72.3235 88.9951 72.6852 89.293L72.7242 89.3251C73.0754 89.6144 73.4324 89.9084 73.7828 90.211C74.5123 90.841 75.189 91.4884 75.6855 92.1597C76.1821 92.8312 76.4701 93.4888 76.4826 94.1447C76.5157 95.8814 77.3456 97.5642 78.1248 98.7783C78.5189 99.3924 78.9106 99.9025 79.2039 100.26C79.3508 100.438 79.4735 100.579 79.5603 100.676C79.6037 100.725 79.6382 100.763 79.6623 100.789L79.6904 100.819L79.6982 100.827L79.7005 100.829L79.7013 100.83L79.7016 100.83C79.7017 100.831 79.7018 100.831 80.063 100.485M53.5484 80.9618L80.063 100.485M80.063 100.485L79.7018 100.831L80.6266 101.797L80.5624 100.461L80.5624 100.461L80.5624 100.461L80.5624 100.461L80.5624 100.461L80.5623 100.459L80.5619 100.449C80.5616 100.438 80.5611 100.422 80.5607 100.401C80.5598 100.357 80.5592 100.293 80.5604 100.212C80.5627 100.05 80.5722 99.8221 80.6005 99.5649C80.6587 99.0358 80.7904 98.4422 81.0551 98.0156C81.3812 97.4902 81.7546 96.8832 82.0282 96.0371C82.302 95.1901 82.4691 94.1272 82.4272 92.6741C82.3873 91.2897 82.5532 90.7126 82.6649 90.4975C82.6783 90.4718 82.6899 90.4532 82.699 90.4402C85.2866 89.8301 88.4041 90.3435 90.9243 91.0404C92.1763 91.3866 93.2621 91.7726 94.0347 92.0721C94.3965 92.2124 94.689 92.3334 94.897 92.4221C94.8589 92.6465 94.8121 92.9667 94.7658 93.3987C94.6622 94.3637 94.5602 95.8888 94.5602 98.1539C94.5602 99.375 94.8943 100.387 95.2816 101.277C95.4234 101.603 95.5764 101.921 95.7214 102.223C95.7716 102.327 95.821 102.43 95.8686 102.53C96.0571 102.927 96.2232 103.298 96.3469 103.666C96.5894 104.387 96.6648 105.085 96.3909 105.891C96.1102 106.716 95.4452 107.706 94.0922 108.959C91.5135 111.347 91.3555 113.98 91.2159 116.307C91.1964 116.633 91.1772 116.953 91.1518 117.265C91.0471 118.552 90.8454 119.712 90.1787 120.766C89.516 121.813 88.3547 122.815 86.2162 123.693L86.406 124.155L86.2162 123.693C81.8944 125.465 78.508 125.53 76.1375 125.131C74.1201 124.792 72.8369 124.122 72.261 123.821C72.1576 123.767 72.0771 123.725 72.0191 123.699L72.019 123.699C72.0212 123.7 72.0224 123.701 72.0224 123.701C72.0226 123.7 71.9969 123.686 71.9358 123.64C71.8711 123.591 71.7873 123.523 71.6845 123.436C71.4793 123.261 71.216 123.023 70.9083 122.739C70.5737 122.431 70.1972 122.077 69.7945 121.699C69.4517 121.377 69.0899 121.037 68.719 120.692C67.92 119.949 67.0911 119.193 66.3716 118.592C66.0121 118.291 65.674 118.024 65.3768 117.815C65.0902 117.613 64.805 117.438 64.5589 117.353L64.5589 117.353C64.2998 117.264 63.9703 117.053 63.589 116.713C63.2138 116.377 62.8155 115.941 62.4172 115.436C61.6204 114.427 60.8493 113.178 60.2869 112.004C59.034 109.388 56.4161 108.191 53.9483 107.517L53.9483 107.517C52.9501 107.245 52.1535 106.273 51.5603 105.06C50.9786 103.87 50.6561 102.578 50.5402 101.889C50.4903 101.592 50.4916 101.088 50.5393 100.437C50.586 99.7999 50.6738 99.0624 50.7782 98.3194C50.987 96.8342 51.2589 95.3513 51.39 94.6487L80.063 100.485ZM82.7205 90.4139C82.7205 90.4139 82.7201 90.4143 82.7193 90.415L82.7205 90.4139Z" fill="white" stroke="#031053"/>
<mask id="path-34-inside-10" fill="white">
<path d="M82.2693 90.1161C82.1908 90.208 82.1282 90.3131 82.0772 90.4214C81.9704 90.6383 81.9127 90.8707 81.8589 91.1023C81.7582 91.5666 81.7093 92.0388 81.6908 92.5086C81.6501 93.4316 81.5737 94.33 81.3337 95.1787C81.2169 95.6011 81.0653 96.0068 80.8694 96.3921C80.6762 96.7837 80.4356 97.1306 80.1753 97.5358C79.8849 98.0115 79.7377 98.5124 79.6373 99.0053C79.6341 99.0229 79.6317 99.0396 79.6288 99.0571C79.07 98.2969 78.5796 97.474 78.1874 96.6394C77.9057 96.0176 77.6841 95.3713 77.591 94.7197C77.5612 94.5575 77.5556 94.3956 77.5357 94.2328L77.5091 93.9474C77.5009 93.84 77.4895 93.7334 77.4663 93.6298C77.3905 93.2103 77.2424 92.8174 77.0562 92.4597C76.6789 91.7454 76.1575 91.1679 75.6198 90.6474C75.082 90.1222 74.4989 89.6682 73.9151 89.2288C73.3349 88.7844 72.7337 88.3778 72.1602 87.9425C71.8724 87.7262 71.5858 87.5089 71.3183 87.2704C71.0507 87.0324 70.7937 86.7806 70.5967 86.4727C70.7226 86.8163 70.9368 87.1272 71.1655 87.4153C71.3982 87.7019 71.6485 87.9726 71.9064 88.2335C72.4269 88.7496 72.9614 89.2455 73.4901 89.7349C74.0156 90.2285 74.5273 90.7285 74.9948 91.249C75.4637 91.7683 75.8639 92.3321 76.1461 92.9123C76.2811 93.2042 76.3741 93.5033 76.4134 93.7996C76.4274 93.8736 76.4306 93.9477 76.4324 94.0215L76.445 94.2785C76.4582 94.4767 76.4587 94.6784 76.4848 94.8742C76.5823 95.6626 76.8308 96.4049 77.1338 97.1069C77.4379 97.8098 77.815 98.4705 78.2424 99.0905C78.6713 99.7161 79.1224 100.294 79.6563 100.866L80.6809 101.964L80.6218 100.451C80.5898 99.6365 80.6768 98.6988 81.0325 98.044C81.252 97.659 81.5006 97.2179 81.6847 96.7635C81.8729 96.3069 82.0158 95.8303 82.1007 95.3505C82.2614 94.39 82.2526 93.424 82.1566 92.5007C82.1168 92.0458 82.0966 91.5906 82.115 91.1374C82.1291 90.912 82.151 90.6857 82.2061 90.4685C82.233 90.3596 82.2707 90.2542 82.3249 90.1568C82.3791 90.0622 82.4584 89.9676 82.5749 89.9492C82.4552 89.9431 82.3457 90.0268 82.2693 90.1161Z"/>
</mask>
<path d="M82.2693 90.1161C82.1908 90.208 82.1282 90.3131 82.0772 90.4214C81.9704 90.6383 81.9127 90.8707 81.8589 91.1023C81.7582 91.5666 81.7093 92.0388 81.6908 92.5086C81.6501 93.4316 81.5737 94.33 81.3337 95.1787C81.2169 95.6011 81.0653 96.0068 80.8694 96.3921C80.6762 96.7837 80.4356 97.1306 80.1753 97.5358C79.8849 98.0115 79.7377 98.5124 79.6373 99.0053C79.6341 99.0229 79.6317 99.0396 79.6288 99.0571C79.07 98.2969 78.5796 97.474 78.1874 96.6394C77.9057 96.0176 77.6841 95.3713 77.591 94.7197C77.5612 94.5575 77.5556 94.3956 77.5357 94.2328L77.5091 93.9474C77.5009 93.84 77.4895 93.7334 77.4663 93.6298C77.3905 93.2103 77.2424 92.8174 77.0562 92.4597C76.6789 91.7454 76.1575 91.1679 75.6198 90.6474C75.082 90.1222 74.4989 89.6682 73.9151 89.2288C73.3349 88.7844 72.7337 88.3778 72.1602 87.9425C71.8724 87.7262 71.5858 87.5089 71.3183 87.2704C71.0507 87.0324 70.7937 86.7806 70.5967 86.4727C70.7226 86.8163 70.9368 87.1272 71.1655 87.4153C71.3982 87.7019 71.6485 87.9726 71.9064 88.2335C72.4269 88.7496 72.9614 89.2455 73.4901 89.7349C74.0156 90.2285 74.5273 90.7285 74.9948 91.249C75.4637 91.7683 75.8639 92.3321 76.1461 92.9123C76.2811 93.2042 76.3741 93.5033 76.4134 93.7996C76.4274 93.8736 76.4306 93.9477 76.4324 94.0215L76.445 94.2785C76.4582 94.4767 76.4587 94.6784 76.4848 94.8742C76.5823 95.6626 76.8308 96.4049 77.1338 97.1069C77.4379 97.8098 77.815 98.4705 78.2424 99.0905C78.6713 99.7161 79.1224 100.294 79.6563 100.866L80.6809 101.964L80.6218 100.451C80.5898 99.6365 80.6768 98.6988 81.0325 98.044C81.252 97.659 81.5006 97.2179 81.6847 96.7635C81.8729 96.3069 82.0158 95.8303 82.1007 95.3505C82.2614 94.39 82.2526 93.424 82.1566 92.5007C82.1168 92.0458 82.0966 91.5906 82.115 91.1374C82.1291 90.912 82.151 90.6857 82.2061 90.4685C82.233 90.3596 82.2707 90.2542 82.3249 90.1568C82.3791 90.0622 82.4584 89.9676 82.5749 89.9492C82.4552 89.9431 82.3457 90.0268 82.2693 90.1161Z" fill="white"/>
<path d="M82.2693 90.1161L81.5095 89.4659L81.5087 89.4669L82.2693 90.1161ZM82.0772 90.4214L82.9743 90.8633L82.9783 90.8551L82.9822 90.847L82.0772 90.4214ZM81.8589 91.1023L80.8849 90.8757L80.8832 90.883L80.8816 90.8903L81.8589 91.1023ZM81.6908 92.5086L82.6899 92.5527L82.6901 92.5478L81.6908 92.5086ZM81.3337 95.1787L80.3714 94.9065L80.3699 94.9122L81.3337 95.1787ZM80.8694 96.3921L79.9779 95.9389L79.9726 95.9497L80.8694 96.3921ZM80.1753 97.5358L79.334 96.9953L79.3278 97.005L79.3218 97.0147L80.1753 97.5358ZM79.6373 99.0053L78.6574 98.8057L78.6554 98.8153L78.6537 98.825L79.6373 99.0053ZM79.6288 99.0571L78.8231 99.6494L80.2258 101.558L80.6152 99.2215L79.6288 99.0571ZM78.1874 96.6394L77.2763 97.052L77.2823 97.0648L78.1874 96.6394ZM77.591 94.7197L78.581 94.5782L78.5782 94.5583L78.5745 94.5386L77.591 94.7197ZM77.5357 94.2328L76.5401 94.3258L76.5414 94.34L76.5431 94.3542L77.5357 94.2328ZM77.5091 93.9474L76.512 94.0235L76.5126 94.0319L76.5134 94.0404L77.5091 93.9474ZM77.4663 93.6298L76.4823 93.8076L76.4859 93.8277L76.4904 93.8476L77.4663 93.6298ZM77.0562 92.4597L77.9433 91.998L77.9404 91.9926L77.0562 92.4597ZM75.6198 90.6474L74.9211 91.3628L74.9243 91.3659L75.6198 90.6474ZM73.9151 89.2288L73.3071 90.0227L73.3137 90.0277L73.9151 89.2288ZM72.1602 87.9425L72.7648 87.146L72.7611 87.1432L72.1602 87.9425ZM71.3183 87.2704L71.9838 86.524L71.9829 86.5232L71.3183 87.2704ZM70.5967 86.4727L71.4391 85.9338L69.6577 86.8166L70.5967 86.4727ZM71.1655 87.4153L70.3821 88.037L70.3892 88.0457L71.1655 87.4153ZM71.9064 88.2335L71.1953 88.9366L71.2023 88.9436L71.9064 88.2335ZM73.4901 89.7349L74.1747 89.006L74.1695 89.0011L73.4901 89.7349ZM74.9948 91.249L74.2508 91.9172L74.2526 91.9192L74.9948 91.249ZM76.1461 92.9123L77.0538 92.4926L77.0497 92.4837L77.0454 92.4749L76.1461 92.9123ZM76.4134 93.7996L75.422 93.9308L75.4257 93.9585L75.4309 93.986L76.4134 93.7996ZM76.4324 94.0215L75.4327 94.0453L75.433 94.0578L75.4336 94.0704L76.4324 94.0215ZM76.445 94.2785L75.4462 94.3274L75.4466 94.3361L75.4472 94.3448L76.445 94.2785ZM76.4848 94.8742L77.4773 94.7515L77.4761 94.7423L76.4848 94.8742ZM77.1338 97.1069L76.2157 97.5032L76.216 97.5041L77.1338 97.1069ZM78.2424 99.0905L79.0672 98.5251L79.0657 98.523L78.2424 99.0905ZM79.6563 100.866L80.3874 100.184L80.3873 100.184L79.6563 100.866ZM80.6809 101.964L79.9498 102.646L81.7852 104.613L81.6801 101.925L80.6809 101.964ZM80.6218 100.451L81.621 100.412L81.621 100.412L80.6218 100.451ZM81.0325 98.044L80.1638 97.5485L80.1587 97.5576L80.1537 97.5667L81.0325 98.044ZM81.6847 96.7635L80.7601 96.3825L80.7579 96.3879L81.6847 96.7635ZM82.1007 95.3505L83.0854 95.5247L83.087 95.5155L82.1007 95.3505ZM82.1566 92.5007L81.1604 92.5879L81.1611 92.596L81.1619 92.6041L82.1566 92.5007ZM82.115 91.1374L81.117 91.0752L81.1163 91.086L81.1158 91.0968L82.115 91.1374ZM82.2061 90.4685L83.1754 90.7141L83.1768 90.7086L82.2061 90.4685ZM82.3249 90.1568L81.4571 89.6597L81.4507 89.6711L82.3249 90.1568ZM82.5749 89.9492L82.7312 90.9369L82.6262 88.9505L82.5749 89.9492ZM81.5087 89.4669C81.3579 89.6435 81.2504 89.8298 81.1723 89.9958L82.9822 90.847C83.006 90.7964 83.0237 90.7725 83.0299 90.7653L81.5087 89.4669ZM81.1802 89.9795C81.0165 90.3119 80.9377 90.6485 80.8849 90.8757L82.8329 91.3289C82.8877 91.093 82.9243 90.9648 82.9743 90.8633L81.1802 89.9795ZM80.8816 90.8903C80.7655 91.4254 80.7117 91.9577 80.6916 92.4694L82.6901 92.5478C82.7069 92.1198 82.7508 91.7077 82.8361 91.3143L80.8816 90.8903ZM80.6918 92.4646C80.6518 93.3713 80.5786 94.1741 80.3714 94.9065L82.2959 95.4508C82.5689 94.486 82.6485 93.4919 82.6899 92.5527L80.6918 92.4646ZM80.3699 94.9122C80.2685 95.2788 80.1397 95.6209 79.978 95.9389L81.7608 96.8452C81.9908 96.3928 82.1653 95.9234 82.2975 95.4452L80.3699 94.9122ZM79.9726 95.9497C79.812 96.2752 79.6199 96.5502 79.334 96.9953L81.0167 98.0762C81.2512 97.7111 81.5404 97.2923 81.7662 96.8344L79.9726 95.9497ZM79.3218 97.0147C78.9461 97.6302 78.769 98.2579 78.6574 98.8057L80.6172 99.2049C80.7064 98.7668 80.8238 98.3928 81.0289 98.0568L79.3218 97.0147ZM78.6537 98.825C78.6498 98.8461 78.6469 98.8644 78.6452 98.8751C78.643 98.889 78.643 98.8894 78.6424 98.8927L80.6152 99.2215C80.6166 99.2133 80.6177 99.2059 80.6186 99.2003C80.6191 99.1976 80.6195 99.1949 80.6198 99.1928C80.6202 99.1906 80.6204 99.1889 80.6207 99.1874C80.6217 99.1809 80.6215 99.1821 80.6209 99.1857L78.6537 98.825ZM80.4345 98.4649C79.9134 97.7559 79.4565 96.9888 79.0924 96.2141L77.2823 97.0648C77.7027 97.9592 78.2265 98.8379 78.8231 99.6494L80.4345 98.4649ZM79.0983 96.2268C78.8406 95.658 78.6564 95.1058 78.581 94.5782L76.6011 94.8611C76.7119 95.6367 76.9709 96.3773 77.2764 97.052L79.0983 96.2268ZM78.5745 94.5386C78.5488 94.3988 78.5643 94.4059 78.5283 94.1114L76.5431 94.3542C76.5469 94.3853 76.5736 94.7161 76.6076 94.9007L78.5745 94.5386ZM78.5314 94.1399L78.5048 93.8545L76.5134 94.0404L76.5401 94.3258L78.5314 94.1399ZM78.5062 93.8713C78.4968 93.7481 78.4811 93.5856 78.4423 93.412L76.4904 93.8476C76.4979 93.8813 76.505 93.9319 76.512 94.0235L78.5062 93.8713ZM78.4504 93.4519C78.3536 92.9161 78.1669 92.4278 77.9433 91.9981L76.1692 92.9214C76.3179 93.2071 76.4275 93.5045 76.4823 93.8076L78.4504 93.4519ZM77.9404 91.9926C77.4906 91.1412 76.8821 90.4775 76.3152 89.9288L74.9243 91.3659C75.433 91.8583 75.8671 92.3497 76.172 92.9268L77.9404 91.9926ZM76.3184 89.932C75.7318 89.359 75.1048 88.8727 74.5166 88.4298L73.3137 90.0277C73.8929 90.4637 74.4322 90.8854 74.9211 91.3628L76.3184 89.932ZM74.5232 88.4349C74.2193 88.2021 73.9121 87.9809 73.6186 87.7701C73.3213 87.5565 73.039 87.3541 72.7648 87.146L71.5556 88.739C71.8548 88.9662 72.1599 89.1848 72.4517 89.3944C72.7473 89.6067 73.0308 89.8111 73.3071 90.0227L74.5232 88.4349ZM72.7611 87.1432C72.4707 86.9249 72.216 86.731 71.9838 86.524L70.6527 88.0167C70.9557 88.2869 71.2741 88.5274 71.5593 88.7418L72.7611 87.1432ZM71.9829 86.5232C71.7326 86.3005 71.5598 86.1225 71.4391 85.9338L69.7543 87.0116C70.0276 87.4387 70.3689 87.7642 70.6537 88.0176L71.9829 86.5232ZM69.6577 86.8166C69.8391 87.3118 70.1328 87.7227 70.3822 88.037L71.9487 86.7936C71.7409 86.5317 71.606 86.3208 71.5357 86.1287L69.6577 86.8166ZM70.3892 88.0457C70.6483 88.3647 70.9221 88.6603 71.1953 88.9366L72.6175 87.5304C72.3749 87.285 72.1481 87.039 71.9418 86.7849L70.3892 88.0457ZM71.2023 88.9436C71.7367 89.4735 72.2833 89.9804 72.8107 90.4687L74.1695 89.0011C73.6395 88.5105 73.1171 88.0257 72.6105 87.5234L71.2023 88.9436ZM72.8055 90.4638C73.3233 90.9502 73.8112 91.4278 74.2508 91.9172L75.7387 90.5807C75.2433 90.0292 74.7078 89.5068 74.1747 89.006L72.8055 90.4638ZM74.2526 91.9192C74.6726 92.3843 75.0141 92.8712 75.2468 93.3497L77.0454 92.4749C76.7137 91.793 76.2548 91.1523 75.7369 90.5787L74.2526 91.9192ZM75.2384 93.332C75.3385 93.5484 75.3981 93.7504 75.422 93.9308L77.4047 93.6683C77.3502 93.2562 77.2236 92.8599 77.0538 92.4926L75.2384 93.332ZM75.4309 93.986C75.4292 93.9771 75.4296 93.9755 75.4303 93.9856C75.4311 93.9967 75.4319 94.0134 75.4327 94.0453L77.4321 93.9977C77.4302 93.9179 77.4263 93.7736 77.3958 93.6132L75.4309 93.986ZM75.4336 94.0704L75.4462 94.3274L77.4438 94.2296L77.4312 93.9726L75.4336 94.0704ZM75.4472 94.3448C75.4543 94.4522 75.4623 94.7717 75.4935 95.0061L77.4761 94.7423C77.4551 94.5851 77.462 94.5011 77.4428 94.2122L75.4472 94.3448ZM75.4924 94.9969C75.6056 95.913 75.8913 96.7517 76.2157 97.5032L78.0519 96.7107C77.7703 96.0582 77.5589 95.4121 77.4772 94.7515L75.4924 94.9969ZM76.216 97.5041C76.5491 98.2737 76.9593 98.9912 77.4191 99.6581L79.0657 98.523C78.6706 97.9498 78.3268 97.3459 78.0516 96.7098L76.216 97.5041ZM77.4176 99.6559C77.8702 100.316 78.3521 100.934 78.9253 101.548L80.3873 100.184C79.8926 99.6536 79.4723 99.1161 79.0672 98.5251L77.4176 99.6559ZM78.9253 101.548L79.9498 102.646L81.4119 101.281L80.3874 100.184L78.9253 101.548ZM81.6801 101.925L81.621 100.412L79.6225 100.49L79.6817 102.003L81.6801 101.925ZM81.621 100.412C81.5911 99.648 81.6872 98.9337 81.9112 98.5213L80.1537 97.5667C79.6664 98.464 79.5886 99.6249 79.6225 100.49L81.621 100.412ZM81.9011 98.5394C82.118 98.1591 82.3989 97.6637 82.6115 97.1392L80.7579 96.3879C80.6022 96.772 80.386 97.159 80.1638 97.5485L81.9011 98.5394ZM82.6092 97.1446C82.8226 96.6271 82.9869 96.0813 83.0854 95.5247L81.116 95.1763C81.0446 95.5793 80.9233 95.9867 80.7601 96.3825L82.6092 97.1446ZM83.087 95.5155C83.2664 94.4432 83.2538 93.3832 83.1512 92.3973L81.1619 92.6041C81.2514 93.4648 81.2564 94.3368 81.1144 95.1855L83.087 95.5155ZM83.1528 92.4135C83.1153 91.9858 83.098 91.5756 83.1142 91.1781L81.1158 91.0968C81.0951 91.6056 81.1182 92.1058 81.1604 92.5879L83.1528 92.4135ZM83.1131 91.1996C83.1261 90.9902 83.1438 90.8389 83.1754 90.7141L81.2367 90.2229C81.1582 90.5326 81.132 90.8338 81.117 91.0752L83.1131 91.1996ZM83.1768 90.7086C83.1879 90.6639 83.1974 90.6454 83.1991 90.6424L81.4507 89.6711C81.3441 89.8631 81.2781 90.0554 81.2353 90.2284L83.1768 90.7086ZM83.1927 90.6538C83.1904 90.6577 83.164 90.7049 83.1025 90.7613C83.035 90.8233 82.9104 90.9086 82.7312 90.9369L82.4186 88.9615C81.8304 89.0546 81.5457 89.5051 81.4572 89.6598L83.1927 90.6538ZM82.6262 88.9505C82.022 88.9195 81.6369 89.317 81.5095 89.4659L83.0291 90.7662C83.0193 90.7776 82.9868 90.8142 82.9227 90.853C82.8572 90.8924 82.7176 90.9578 82.5236 90.9479L82.6262 88.9505Z" fill="#031053" mask="url(#path-34-inside-10)"/>
<path d="M62.863 117.411C63.1583 117.673 63.4645 117.93 63.8515 118.138C63.9262 118.185 64.0174 118.223 64.1076 118.261C64.1242 118.268 64.1407 118.275 64.1571 118.282C64.1752 118.29 64.197 118.298 64.2185 118.307C64.2533 118.321 64.2872 118.335 64.3035 118.344M62.863 117.411L63.1998 117.042C63.1989 117.041 63.1981 117.04 63.1973 117.039M62.863 117.411L63.195 117.037C63.1958 117.038 63.1965 117.039 63.1973 117.039M62.863 117.411C62.2816 116.881 61.7945 116.294 61.3395 115.69M63.1973 117.039C63.4863 117.296 63.7559 117.519 64.0878 117.697L64.1042 117.706L64.1198 117.716C64.1557 117.739 64.2007 117.758 64.2908 117.795C64.3093 117.803 64.3297 117.812 64.3523 117.821L64.3565 117.823C64.3682 117.828 64.3817 117.834 64.4008 117.842C64.4085 117.845 64.417 117.848 64.4267 117.852C64.431 117.854 64.4356 117.856 64.4403 117.858C64.4514 117.862 64.4634 117.867 64.4751 117.872C64.4866 117.877 64.508 117.887 64.5311 117.899M63.1973 117.039C62.6499 116.54 62.185 115.981 61.7398 115.39M64.5311 117.899L64.5259 117.896L64.3035 118.344M64.5311 117.899C64.5349 117.901 64.5387 117.903 64.5426 117.905L64.3035 118.344M64.5311 117.899L64.5894 117.928M64.3035 118.344L64.389 118.386M64.389 118.386L64.5538 117.914C64.5657 117.918 64.5776 117.923 64.5894 117.928M64.389 118.386C64.4657 118.413 64.567 118.478 64.6686 118.544C64.7069 118.568 64.7453 118.593 64.7824 118.616C65.3451 118.998 65.9039 119.472 66.4522 119.938C67.2842 120.661 68.1044 121.407 68.9276 122.156C69.1873 122.392 69.4473 122.628 69.708 122.865M64.389 118.386L64.6114 117.938L64.5894 117.928M64.5894 117.928C64.6871 117.966 64.7784 118.022 64.8385 118.059C64.8906 118.092 64.9207 118.111 64.9477 118.129C64.9758 118.147 65.0005 118.163 65.0432 118.189L65.0534 118.195L65.0633 118.202C65.6523 118.602 66.2318 119.094 66.7763 119.558L66.7801 119.561C67.1207 119.857 67.4595 120.157 67.7971 120.459M67.7971 120.459C68.4494 121.069 69.0896 121.69 69.7319 122.313C69.8155 122.394 69.8992 122.475 69.983 122.556L69.9836 122.557L69.708 122.865M67.7971 120.459C67.467 120.15 67.1338 119.844 66.7957 119.541C66.7953 119.541 66.7949 119.541 66.7946 119.54L66.7325 119.486C66.1975 119.014 65.6888 118.565 65.1022 118.148C65.0364 118.106 64.9841 118.071 64.9378 118.04C64.8324 117.968 64.7588 117.919 64.6299 117.862L64.6187 117.857L64.6188 117.857L64.3515 117.732L64.3488 117.73C64.332 117.722 64.328 117.721 64.3214 117.718C64.3138 117.715 64.3029 117.711 64.2646 117.693C64.2243 117.675 64.1723 117.65 64.1154 117.613C63.8069 117.44 63.5175 117.19 63.2723 116.962L63.2663 116.956L63.2664 116.956C62.2362 115.965 61.3752 114.727 60.6533 113.48L60.6517 113.477C60.4725 113.163 60.2984 112.843 60.1351 112.516C60.0966 112.44 60.0587 112.363 60.0207 112.287C59.8956 112.034 59.7697 111.78 59.6187 111.55L59.6134 111.541L59.6134 111.541C59.2175 110.913 58.7129 110.352 58.139 109.897C56.9645 108.973 55.5817 108.407 54.1694 108.006L53.8983 107.93L53.8786 107.924L53.8595 107.917L53.6741 107.848C53.5618 107.815 53.4658 107.769 53.392 107.73C53.3524 107.709 53.3143 107.688 53.2828 107.67L53.2815 107.669C53.2502 107.652 53.2249 107.637 53.2006 107.624C53.0882 107.568 52.9954 107.498 52.9314 107.448C52.9079 107.43 52.8884 107.415 52.8714 107.401C52.8316 107.37 52.8055 107.349 52.7744 107.328L52.7479 107.311L52.724 107.29C52.6247 107.203 52.525 107.106 52.438 107.02C52.4104 106.993 52.384 106.968 52.3593 106.944L52.3482 106.933L52.3378 106.922C51.8531 106.393 51.4724 105.755 51.1589 105.11L51.1579 105.107C50.8436 104.453 50.5927 103.761 50.3929 103.062L50.3913 103.056L50.3913 103.056C50.2979 102.715 50.2049 102.353 50.1405 101.994L50.1395 101.988L50.1396 101.988C50.0823 101.646 50.0837 101.253 50.0906 100.908L50.0908 100.902L50.0908 100.902C50.104 100.496 50.1346 100.087 50.1734 99.6789M67.7971 120.459C68.289 120.899 68.7784 121.344 69.2671 121.789C69.5256 122.024 69.784 122.259 70.0424 122.493L50.1734 99.6789M69.708 122.865L69.9851 122.559L71.3962 124.333C70.904 123.945 70.4707 123.553 70.0349 123.159C69.9264 123.061 69.8178 122.963 69.708 122.865ZM50.1734 99.6789C50.128 100.082 50.0918 100.489 50.0678 100.9L50.0677 100.902C50.0548 101.286 50.0434 101.625 50.0986 102.005C50.1563 102.365 50.2385 102.714 50.3306 103.077C50.5199 103.789 50.7565 104.483 51.0628 105.153L50.1734 99.6789ZM77.9023 126.095L77.9037 126.02L73.4905 125.313C74.9158 125.811 76.4126 126.058 77.9023 126.095ZM77.9023 126.095L77.9042 126.02C78.3609 126.055 78.8183 126.067 79.2753 126.062C78.8193 126.092 78.3613 126.103 77.9023 126.095ZM61.7398 115.39C61.74 115.391 61.7403 115.391 61.7406 115.391L61.3395 115.69M61.7398 115.39C61.3007 114.8 60.8997 114.186 60.5291 113.551M61.7398 115.39C61.7395 115.39 61.7392 115.389 61.739 115.389L61.3395 115.69M61.3395 115.69C60.8879 115.083 60.4763 114.453 60.0969 113.803M60.5291 113.551C60.5293 113.551 60.5294 113.552 60.5296 113.552L60.0969 113.803M60.5291 113.551C60.3438 113.231 60.1666 112.91 60.0013 112.584M60.5291 113.551C60.529 113.551 60.5289 113.551 60.5287 113.551L60.0969 113.803M60.0969 113.803C59.9081 113.476 59.726 113.147 59.5553 112.81M60.0013 112.584C60.0014 112.584 60.0016 112.584 60.0017 112.585L59.5553 112.81M60.0013 112.584C59.9826 112.547 59.9626 112.507 59.9421 112.465C59.8788 112.339 59.8092 112.199 59.7478 112.088M60.0013 112.584L59.5553 112.81M59.5553 112.81C59.5337 112.767 59.5118 112.723 59.4899 112.679C59.4269 112.553 59.3636 112.426 59.3074 112.325C59.2307 112.178 59.1528 112.031 59.0585 111.894M59.7478 112.088C59.6736 111.946 59.5855 111.779 59.4755 111.618M59.7478 112.088C59.7467 112.086 59.7455 112.084 59.7444 112.082L59.3074 112.325L59.7508 112.094C59.7498 112.092 59.7488 112.09 59.7478 112.088ZM59.0585 111.894L59.48 111.625C59.4785 111.622 59.477 111.62 59.4755 111.618M59.0585 111.894L59.4705 111.61C59.4722 111.613 59.4738 111.615 59.4755 111.618M59.0585 111.894C58.7017 111.335 58.2491 110.836 57.7187 110.418M59.4755 111.618C59.0889 111.014 58.6003 110.477 58.0294 110.027M58.0294 110.027C58.0299 110.027 58.0303 110.027 58.0308 110.028L57.7187 110.418M58.0294 110.027C56.9009 109.125 55.5237 108.546 54.1295 108.143M58.0294 110.027C58.029 110.026 58.0286 110.026 58.0282 110.026L57.7187 110.418M57.7187 110.418C56.6607 109.573 55.3519 109.017 53.9907 108.623M54.1295 108.143L54.1296 108.143L53.9907 108.623M54.1295 108.143L53.8892 108.074M54.1295 108.143L53.9907 108.623M53.9907 108.623L53.7345 108.549M53.8892 108.074L53.9047 108.079L53.7345 108.549M53.8892 108.074L53.5941 107.967L53.5826 107.963L53.571 107.959C53.4509 107.922 53.3502 107.865 53.1979 107.779C53.1627 107.759 53.1247 107.737 53.083 107.714L53.0831 107.714L53.0744 107.709C53.0151 107.677 52.9548 107.636 52.8791 107.577C52.86 107.562 52.837 107.544 52.8116 107.524C52.7587 107.482 52.6956 107.432 52.6362 107.389M53.8892 108.074L53.8734 108.069L53.7345 108.549M53.7345 108.549L53.4239 108.437C53.2469 108.383 53.0909 108.294 52.935 108.205C52.9031 108.186 52.8713 108.168 52.8393 108.15C52.7102 108.082 52.5991 107.994 52.4881 107.906C52.4338 107.863 52.3794 107.82 52.3229 107.779M52.6362 107.389C52.6415 107.393 52.6468 107.398 52.6522 107.403L52.3229 107.779M52.6362 107.389C52.5172 107.283 52.4052 107.171 52.2806 107.046C52.267 107.033 52.2532 107.019 52.2392 107.005M52.6362 107.389C52.6293 107.383 52.6225 107.378 52.6157 107.374L52.3229 107.779M52.3229 107.779C52.1844 107.658 52.0554 107.528 51.9267 107.399C51.91 107.383 51.8933 107.366 51.8765 107.349M52.2392 107.005C52.242 107.008 52.2447 107.011 52.2475 107.014L51.8765 107.349M52.2392 107.005C51.7402 106.45 51.368 105.819 51.0629 105.153L50.6081 105.361C50.9289 106.061 51.3291 106.744 51.8765 107.349M52.2392 107.005C52.2362 107.002 52.2331 106.999 52.2301 106.996L51.8765 107.349" fill="white" stroke="#031053"/>
<path d="M83.0013 82.3812C83.0013 82.3812 88.1898 79.3505 94.5231 81.9893C94.5231 81.9893 99.9953 84.4307 97.3033 85.9603C97.3033 85.9603 95.8609 87.7861 87.9567 86.9825C80.0525 86.1786 83.0013 82.3812 83.0013 82.3812Z" fill="#031053"/>
<path d="M85.9829 85.4792C85.9829 85.4792 88.22 81.9201 85.9829 77.8677C83.7455 73.8154 81.9639 74.6412 82.1088 72.7384C82.1088 72.7384 82.192 71.58 84.1685 72.4901C86.1451 73.4 88.2932 75.7164 90.5634 74.3929C92.8333 73.0692 96.1166 70.3804 97.8596 70.794C97.8596 70.794 98.8727 71.2492 96.6031 72.6968C96.6031 72.6968 100.17 69.7568 101.021 70.7513C101.873 71.7457 96.806 74.3104 94.5765 76.9576C92.347 79.6051 92.1851 86.0585 92.631 87.4651C92.6304 87.4648 86.1855 87.0096 85.9829 85.4792Z" fill="white"/>
<path d="M97.3426 72.1289C96.9038 72.5765 96.4003 72.9386 95.8798 73.2709C95.3547 73.5952 94.8067 73.8891 94.2109 74.0832C94.6945 73.6857 95.2068 73.3526 95.7244 73.0226C96.2469 72.7012 96.7727 72.3868 97.3426 72.1289Z" fill="white"/>
<path d="M83.0027 82.3802C83.0027 82.3802 81.5437 82.1094 81.4219 86.5052C81.3002 90.9012 81.4219 91.2943 83.6107 91.4255C85.7998 91.5566 91.3932 92.8019 93.5214 93.5885C95.6496 94.3754 97.8384 93.0642 97.8384 90.1802C97.8384 87.2961 98.0178 85.4434 98.0178 85.4434C98.0178 85.4434 93.9271 88.6319 86.9315 85.8977C81.8447 83.9092 83.0027 82.3802 83.0027 82.3802Z" fill="white"/>
<path d="M83.5877 84.3643L83.3546 85.8947C83.2814 86.3979 83.2241 86.8976 83.1766 87.3967C83.1266 87.8961 83.1058 88.395 83.0979 88.8985C83.0865 89.4043 83.1278 89.9049 83.145 90.4371C82.8936 89.974 82.7182 89.4602 82.6424 88.9342C82.5631 88.4087 82.5376 87.8713 82.5935 87.3434C82.6424 86.8148 82.7501 86.2937 82.9111 85.7911C83.0742 85.2899 83.2847 84.8007 83.5877 84.3643Z" fill="white"/>
<path d="M95.6758 93.2616L95.8956 91.7294C95.9644 91.2259 96.0177 90.7253 96.0607 90.2259C96.1067 89.7262 96.1231 89.2271 96.1266 88.7236C96.1336 88.2177 96.0882 87.7177 96.0663 87.1855C96.3216 87.6463 96.5016 88.1583 96.5815 88.6841C96.6652 89.2087 96.6954 89.7458 96.6439 90.2742C96.5997 90.8032 96.4963 91.3251 96.3394 91.8292C96.1816 92.3316 95.9753 92.8225 95.6758 93.2616Z" fill="white"/>
<path d="M85.7694 85.9072C85.544 86.7603 85.4018 87.5615 85.3362 88.3835C85.3125 88.7927 85.2812 89.2046 85.2923 89.6221C85.2888 90.0418 85.3186 90.4616 85.3098 90.9104C85.0838 90.5281 84.9223 90.108 84.838 89.6707C84.7396 89.2354 84.7226 88.7831 84.7528 88.3361C84.7856 87.8885 84.893 87.447 85.0555 87.0302C85.2194 86.6162 85.4436 86.2169 85.7694 85.9072Z" fill="white"/>
<path d="M87.4413 86.6299C87.5794 87.0101 87.6459 87.3989 87.6848 87.7879C87.7223 88.1776 87.7325 88.5696 87.7033 88.9607C87.6752 89.3515 87.6163 89.742 87.5095 90.1246C87.4035 90.5054 87.2574 90.8857 87.0156 91.2112C87.0259 90.8078 87.0388 90.4314 87.0584 90.0526C87.0783 89.6749 87.0888 89.2967 87.1193 88.9197C87.1468 88.5423 87.1816 88.1635 87.2296 87.7827C87.2767 87.4015 87.3373 87.0195 87.4413 86.6299Z" fill="white"/>
<path d="M89.9812 87.4014C90.0409 87.786 90.0436 88.1619 90.0263 88.534C90.0087 88.906 89.9713 89.2749 89.911 89.6402C89.8527 90.0056 89.7699 90.3671 89.668 90.7257C89.5658 91.084 89.4432 91.4391 89.2631 91.7845C89.2028 91.3996 89.1999 91.0237 89.2172 90.6516C89.2353 90.2796 89.2719 89.9107 89.3331 89.5457C89.3925 89.1803 89.4748 88.8188 89.5769 88.4605C89.6794 88.1022 89.8018 87.7474 89.9812 87.4014Z" fill="white"/>
<path d="M92.0908 87.5938C92.2562 87.9758 92.3238 88.3844 92.3493 88.7902C92.3736 89.1971 92.3566 89.6069 92.2872 90.0088C92.2208 90.4108 92.1116 90.8065 91.9532 91.1827C91.8028 91.5609 91.5955 91.9184 91.332 92.2357C91.3718 91.8215 91.4518 91.4394 91.515 91.0545L91.71 89.9137C91.842 89.1532 91.9418 88.3997 92.0908 87.5938Z" fill="white"/>
<path d="M94.2799 87.5938C94.4491 88.0273 94.4941 88.4892 94.5161 88.9392C94.5337 89.3917 94.5176 89.8431 94.4672 90.289C94.4195 90.7357 94.3372 91.1774 94.2307 91.6136C94.1232 92.0498 93.988 92.4807 93.7936 92.8987C93.748 92.4391 93.7567 91.9915 93.7787 91.5475C93.8003 91.1031 93.8355 90.6628 93.8852 90.2249C93.9338 89.7866 93.9944 89.3511 94.0618 88.9149C94.125 88.4775 94.207 88.0457 94.2799 87.5938Z" fill="white"/>
</svg>
