<svg width="99" height="99" viewBox="0 0 99 99" fill="none" xmlns="http://www.w3.org/2000/svg">
<rect x="0.489258" y="0.564453" width="97.6331" height="97.6331" rx="48.8166" fill="#63E7D7"/>
<mask id="mask0" mask-type="alpha" maskUnits="userSpaceOnUse" x="0" y="0" width="99" height="99">
<rect x="0.489258" y="0.564453" width="97.6331" height="97.6331" rx="48.8166" fill="#63E7D7"/>
</mask>
<g mask="url(#mask0)">
<path d="M16.7617 102.274C21.4675 85.8334 34.2155 77.0053 45.9086 76.9505C57.6018 76.897 68.5498 83.8156 79.1385 90.6182C72.1345 105.96 62.235 118.973 50.1253 120.211C38.0155 121.449 24.2357 116.135 16.7617 102.274Z" fill="white" stroke="#023575" stroke-width="1.7" stroke-miterlimit="10"/>
<path d="M71.914 43.2051C74.3599 38.1553 77.3184 33.4259 76.3859 27.8933C79.0242 23.6831 78.9796 20.3477 76.3859 16.1094C73.7935 11.8711 66.5673 17.0072 61.6169 17.4403C62.4684 12.5633 54.4409 11.6345 50.4996 14.7665C46.9697 14.1372 47.2095 13.4258 41.0344 14.7665C39.5363 15.3245 36.6562 16.2226 35.6192 17.4404C34.5823 18.6583 34.0536 20.3997 34.5988 21.9029C33.4803 21.4456 31.6089 21.4889 30.4917 21.9526C29.3758 22.415 28.4077 23.173 27.4879 23.9552C25.8662 25.3322 26.6849 28.0967 25.9511 30.0929C24.8122 33.1898 24.643 35.9645 27.4877 37.6345C24.6723 39.1912 23.4929 42.8803 24.5592 45.916C25.6254 48.9504 29.6029 47.0994 31.4501 49.7326C34.938 54.7046 35.3122 64.9303 35.6943 70.9928C40.3606 69.124 44.6753 66.3838 48.3505 62.9532L71.914 43.2051Z" fill="#344964" stroke="#344964" stroke-width="1.7" stroke-miterlimit="10"/>
<path d="M72.5641 44.836C73.0635 51.0794 73.2711 57.5318 72.7858 63.7841C72.4635 67.9345 70.7679 72.3829 67.3729 75.0772C63.1398 78.4365 57.6098 77.4225 52.6364 77.0454C52.0326 77.0454 48.6682 90.9921 48.2797 92.545C44.6873 94.1068 40.1993 93.6673 36.8298 91.6698C33.4591 89.6736 31.138 86.0022 30.7813 82.1003C33.0081 77.4671 37.6209 68.7689 38.1266 63.0388C35.6578 63.0732 33.0909 61.6567 31.4909 59.7878C30.4043 58.519 29.9686 56.7776 30.5317 55.2043C31.3928 52.8069 33.7801 52.3572 35.7725 52.8642C37.0961 53.2005 38.2897 53.9114 39.4604 54.6145C39.3509 47.7202 40.1879 45.8692 43.1 39.6194C43.9688 37.7569 43.6045 35.5034 43.244 33.3161C43.0045 31.8741 44.0504 30.5403 45.5052 30.418C50.7498 29.9721 56.341 29.3199 61.4455 28.9594C64.6405 28.7326 68.2532 28.6498 70.5615 30.869C71.6405 31.9047 71.7004 36.8168 71.8992 38.3977C72.168 40.5392 72.3909 42.6844 72.5641 44.836Z" fill="white" stroke="#023575" stroke-width="1.7" stroke-miterlimit="10"/>
<path d="M34.1875 55.3926C35.9595 55.9162 37.4971 57.1811 38.3519 58.8181" stroke="#023575" stroke-width="1.7" stroke-miterlimit="10" stroke-linecap="round"/>
<path d="M65.4802 54.3457C66.2089 55.3597 66.9401 56.3737 67.6701 57.389C68.2535 58.2005 68.8663 59.1241 68.7185 60.1139C68.6064 60.8553 68.0752 61.4706 67.4751 61.9241C66.7465 62.4744 65.884 62.849 64.9834 63.0057" stroke="#0D47A1" stroke-width="1.7" stroke-miterlimit="10" stroke-linecap="round"/>
<path d="M70.8874 36.6199C68.9626 35.8072 66.6707 35.9231 64.8389 36.927" stroke="#023575" stroke-width="1.7" stroke-miterlimit="10" stroke-linecap="round" stroke-linejoin="round"/>
<path d="M57.9873 37.0918C55.9975 37.1058 53.9975 37.1198 52.0408 37.4765C50.0828 37.8307 48.1515 38.5479 46.6279 39.8256" stroke="#023575" stroke-width="1.7" stroke-miterlimit="10" stroke-linecap="round" stroke-linejoin="round"/>
<path d="M68.4814 41.0322C68.6114 42.8717 68.74 44.7138 68.87 46.5533" stroke="#023575" stroke-width="1.7" stroke-miterlimit="10" stroke-linecap="round" stroke-linejoin="round"/>
<path d="M55.0557 42.0811C55.2455 43.9167 55.4366 45.7524 55.6264 47.5881" stroke="#023575" stroke-width="1.7" stroke-miterlimit="10" stroke-linecap="round" stroke-linejoin="round"/>
<path d="M46.0849 56.2763C54.4519 50.9782 65.196 49.6062 74.6254 52.6317C75.3452 58.0649 74.8523 63.9809 73.3427 69.2485C72.7847 71.1963 72.0496 73.1479 70.7235 74.6804C69.0636 76.5989 66.6305 77.6753 64.1871 78.3633C61.5934 79.0945 58.8087 79.4486 56.2087 78.7378C51.9181 77.5671 48.8175 73.6447 47.4238 69.4217C46.0314 65.1962 46.0416 60.7248 46.0849 56.2763Z" fill="white" stroke="#023575" stroke-width="1.7" stroke-miterlimit="10"/>
<path d="M74.436 56.1987C65.8181 53.7656 56.2829 54.7579 48.3516 58.9159" stroke="#023575" stroke-width="1.7" stroke-miterlimit="10" stroke-linecap="round"/>
<path d="M46.3485 56.3862C43.9917 55.962 41.635 55.5365 39.2783 55.1123" stroke="#023575" stroke-width="1.7" stroke-miterlimit="10" stroke-linecap="round"/>
<path d="M50.0435 74.8697C47.6816 72.3575 45.0408 70.1078 42.186 68.1715C40.5312 67.0492 38.7822 66.0224 36.8662 65.4453" stroke="#023575" stroke-width="1.7" stroke-miterlimit="10" stroke-linecap="round"/>
</g>
</svg>
