<svg width="98" height="99" viewBox="0 0 98 99" fill="none" xmlns="http://www.w3.org/2000/svg">
<rect x="0.25293" y="0.564453" width="97.63" height="97.63" rx="48.815" fill="#63E6D6"/>
<mask id="mask0" mask-type="alpha" maskUnits="userSpaceOnUse" x="0" y="0" width="98" height="99">
<rect x="0.25293" y="0.564453" width="97.63" height="97.63" rx="48.815" fill="#D3D5D4"/>
</mask>
<g mask="url(#mask0)">
<path d="M83.4336 84.9527C81.4967 74.559 74.1025 61.5605 72.7319 62.7321C71.5142 63.7724 69.6929 65.0108 68.5758 66.2005C67.5405 67.3035 66.5085 68.5568 66.1873 70.1874C65.9669 71.3086 66.1064 72.4958 66.2476 73.65C66.9741 79.5911 67.6998 85.5331 68.4321 91.4726C68.5651 92.5525 68.7029 93.6505 69.0943 94.6454C70.0025 96.9546 72.7295 98.2608 74.692 98.4738C76.9401 98.7182 79.4525 97.7984 81.2465 96.2603C84.2988 93.6464 84.1948 89.0362 83.4336 84.9527Z" fill="white"/>
<path d="M75.4186 99.1445C75.1502 99.1445 74.8844 99.1296 74.6227 99.1016C72.3101 98.8498 69.4667 97.3191 68.5057 94.8777C68.0813 93.7986 67.941 92.6568 67.8047 91.5513C67.0732 85.6118 66.3467 79.6699 65.6202 73.7279C65.4815 72.5911 65.3238 71.3023 65.5673 70.0655C65.9133 68.3069 66.9956 66.9612 68.1135 65.769C68.8714 64.9616 69.8985 64.1657 70.8909 63.3954C71.411 62.9917 71.9031 62.6094 72.32 62.2519C72.5884 62.024 72.9533 61.9662 73.3215 62.0975C75.7381 62.9512 82.2745 75.2999 84.0512 84.8374C85.1154 90.5523 84.3319 94.4459 81.6544 96.7395C79.8835 98.2603 77.5577 99.1445 75.4186 99.1445ZM73.0045 63.3277C72.5983 63.6678 72.1442 64.0204 71.6661 64.3911C70.7117 65.1316 69.7251 65.897 69.0349 66.6326C68.1135 67.6151 67.1054 68.7908 66.8057 70.3099C66.601 71.3477 66.7397 72.4796 66.8734 73.5752C67.5992 79.5155 68.3257 85.4574 69.0572 91.3969C69.1835 92.424 69.3148 93.4857 69.6805 94.4154C70.4492 96.3696 72.8707 97.6419 74.7589 97.8466C76.7684 98.0662 79.0942 97.2728 80.8346 95.7818C83.1405 93.8061 83.787 90.3022 82.8128 85.0678V85.0686C81.0542 75.6285 74.7209 64.207 73.0045 63.3277Z" fill="#023575"/>
<path d="M62.9309 86.9045C62.6122 86.2622 62.2242 85.6133 61.7594 84.9586C55.0703 75.5317 46.4591 71.3434 38.0386 69.83C33.4713 69.0093 28.9222 68.8863 24.4102 69.0019C19.8627 69.1183 14.1396 68.4438 10.9964 73.5279C8.36438 77.7873 9.6994 84.109 12.0128 89.0272C17.2728 100.21 26.1712 105.435 34.3969 107.207C43.7387 109.22 56.1411 108.451 62.2779 97.9777C64.0224 95.0005 64.8521 90.7767 62.9309 86.9045Z" fill="white"/>
<path d="M42.3706 108.683C38.8683 108.683 35.9002 108.176 34.2647 107.824C28.4028 106.561 17.6426 102.474 11.4431 89.2961C8.48487 83.0066 8.11748 76.9878 10.4606 73.1966C13.4055 68.4312 18.564 68.408 22.7086 68.3907C23.2832 68.3874 23.8479 68.3849 24.3945 68.3717C29.903 68.2338 34.1458 68.4906 38.15 69.2097C48.1953 71.0153 56.3119 76.1903 62.2737 84.5942C62.7459 85.2605 63.1571 85.9441 63.4956 86.6261C65.2657 90.1935 65.0131 94.5569 62.8219 98.2986C57.8401 106.799 49.1167 108.683 42.3706 108.683ZM27.1578 69.5953C26.2818 69.5953 25.3737 69.6076 24.4267 69.6316C23.871 69.6464 23.2981 69.6489 22.7143 69.6506C18.4847 69.6687 14.1114 69.6886 11.5339 73.8587C9.41617 77.2859 9.80833 82.8555 12.5841 88.7586C18.5524 101.445 28.8957 105.376 34.5305 106.59C39.1078 107.577 54.5938 109.846 61.7337 97.6588C63.7103 94.2861 63.9464 90.371 62.3662 87.185C62.0574 86.5617 61.6801 85.935 61.2458 85.3232C55.4813 77.1984 47.6364 72.1943 37.928 70.4498C34.6948 69.8686 31.2933 69.5953 27.1578 69.5953Z" fill="#023575"/>
<path d="M33.08 59.1377C28.8678 52.4279 26.4603 44.5978 26.1762 36.6801C23.1817 32.7477 17.7384 30.0388 21.3447 22.8181C21.3447 15.0053 26.0718 15.0427 28.6345 13.3316C30.7951 13.0072 34.1599 12.2758 36.3396 12.1247C39.5165 11.9042 42.4144 10.3009 45.139 8.65215C47.8643 7.00422 50.0844 6.30965 53.211 5.70447C57.0022 4.62657 61.1534 4.62661 62.2722 7.53343C63.0713 8.74791 63.409 10.2183 64.1958 11.4411C68.7103 10.7981 66.9889 14.1103 68.7103 15.0053C70.4317 15.8994 72.2365 16.7399 73.5806 18.1385C74.9247 19.5371 75.714 21.6737 74.947 23.4554C74.0198 25.6078 71.0641 26.9412 71.3481 29.2678C71.576 31.1378 73.9018 32.2474 74.0495 34.1257C74.1709 35.6704 72.7789 36.8634 71.5256 37.7749C64.891 42.5973 58.2555 47.4197 51.6209 52.2405C48.9112 54.2104 46.1685 56.1985 43.0766 57.4873C39.9855 58.7777 36.276 60.1433 33.08 59.1377Z" fill="#344964"/>
<path d="M64.0294 37.7865C64.4728 43.3206 64.6561 49.038 64.2259 54.5803C63.9403 58.2576 62.4377 62.1999 59.4291 64.5884C55.6775 67.5656 50.7767 66.6673 46.3695 66.333C45.8337 66.333 42.8516 78.6932 42.5073 80.0687C39.3237 81.4533 35.3467 81.0636 32.3597 79.2943C29.3726 77.5242 27.316 74.2704 26.9998 70.8127C28.9722 66.7078 33.0606 58.999 33.5089 53.9206C31.321 53.9512 29.0457 52.6954 27.6272 51.0393C26.6646 49.9148 26.2774 48.3717 26.7777 46.9781C27.5397 44.8529 29.6558 44.4533 31.4226 44.9033C32.5958 45.2013 33.6526 45.8321 34.6904 46.4546C34.593 40.3451 35.3344 38.7038 37.9161 33.1647C38.6855 31.5143 38.3635 29.5163 38.044 27.5778C37.8335 26.2997 38.7582 25.1183 40.0486 25.0085C44.6968 24.6146 49.6514 24.0351 54.1749 23.7164C57.0068 23.5174 60.2077 23.4431 62.2544 25.4105C63.2096 26.3286 63.2633 30.6812 63.4399 32.0823C63.6794 33.9779 63.8767 35.8801 64.0294 37.7865Z" fill="white"/>
<path d="M38.3241 81.5296C36.1494 81.5296 33.9285 80.9558 32.0379 79.8362C28.8766 77.9629 26.706 74.5275 26.3708 70.8692L26.3552 70.6958L26.4303 70.5398C26.6846 70.0106 26.9727 69.4236 27.284 68.7895C29.258 64.772 32.1914 58.802 32.8032 54.5196C30.7706 54.3181 28.6157 53.1623 27.1469 51.4491C25.9968 50.1058 25.6278 48.3101 26.1826 46.7637C27.1156 44.1639 29.6725 43.8072 31.5772 44.2918C32.4713 44.5181 33.2804 44.9119 34.0515 45.347C34.0697 39.9227 34.9672 37.9974 37.3433 32.8975C38.036 31.4114 37.7231 29.5142 37.4201 27.6805C37.2913 26.9003 37.496 26.0945 37.9823 25.4703C38.4694 24.8445 39.2034 24.4474 39.9943 24.3805C41.9221 24.217 43.9036 24.0213 45.8851 23.8265C48.6344 23.5549 51.4762 23.2742 54.1297 23.0876C57.1126 22.8762 60.4795 22.8292 62.6905 24.9543C63.5359 25.7667 63.763 28.0396 63.9553 30.7072C63.9933 31.238 64.0255 31.6938 64.0651 32.0026C64.307 33.9271 64.5068 35.8565 64.6571 37.7348C65.1723 44.1705 65.2367 49.6955 64.8536 54.6277C64.5134 59.0018 62.6789 62.812 59.8198 65.0817C56.325 67.8549 51.865 67.4545 47.9301 67.0978C47.5132 67.0606 47.0979 67.0235 46.6868 66.9897C46.3598 67.7608 45.5061 70.5084 43.2819 79.5572L43.0425 80.5223L42.7568 80.6461C41.3962 81.2389 39.8721 81.5296 38.3241 81.5296ZM27.6448 70.9262C27.994 74.1238 29.9119 77.1101 32.681 78.7514C35.4865 80.4133 39.0969 80.7378 41.9708 79.6075L42.0567 79.2558C45.3881 65.7009 45.6952 65.7009 46.3681 65.7009C46.9518 65.7438 47.4959 65.7917 48.0432 65.842C51.9236 66.1921 55.9353 66.5537 59.0355 64.0934C61.6213 62.0418 63.2833 58.556 63.5954 54.5303C63.9735 49.6649 63.9091 44.2043 63.3997 37.8355C63.2502 35.9754 63.0538 34.0666 62.8135 32.1603C62.773 31.835 62.7375 31.3553 62.6971 30.7972C62.5947 29.3713 62.3817 26.4074 61.817 25.8633C59.9783 24.0965 57.0557 24.1452 54.2188 24.345C51.5835 24.5316 48.75 24.8106 46.0098 25.0814C44.0225 25.2771 42.0361 25.4736 40.1017 25.6371C39.6533 25.6751 39.2546 25.8914 38.9788 26.2447C38.7047 26.5973 38.5941 27.034 38.6667 27.4741C38.9854 29.4035 39.3462 31.5898 38.4884 33.4309C35.9174 38.9493 35.2256 40.4313 35.3222 46.4442L35.3403 47.5794L34.3669 46.9949C33.3803 46.4029 32.3599 45.7912 31.2684 45.5138C29.8079 45.1422 28.0179 45.3874 27.3723 47.1898C26.9702 48.3101 27.2518 49.6278 28.1079 50.6276C29.4975 52.2508 31.5788 53.2894 33.4307 53.2894C33.4538 53.2894 33.4777 53.2894 33.5009 53.2886L34.1993 53.2787L34.1374 53.9747C33.737 58.5197 30.5361 65.0346 28.4175 69.3451C28.1385 69.9132 27.8776 70.4424 27.6448 70.9262Z" fill="#023575"/>
<path d="M33.7105 50.809C33.4827 50.809 33.2631 50.6859 33.1508 50.4705C32.4762 49.1784 31.2386 48.1604 29.8409 47.7468C29.5065 47.6485 29.3158 47.2968 29.4149 46.9632C29.5139 46.6289 29.8648 46.4373 30.1984 46.5372C31.9429 47.0524 33.4265 48.2735 34.2686 49.8859C34.4296 50.1947 34.3099 50.5761 34.0011 50.7371C33.9087 50.7867 33.8088 50.809 33.7105 50.809Z" fill="#023575"/>
<path d="M47.887 41.2817C46.2663 41.2817 44.6762 40.2671 44.1106 38.8346C43.9827 38.511 44.142 38.1444 44.4656 38.0172C44.7909 37.8884 45.1558 38.0478 45.2838 38.3722C45.6818 39.3803 46.9053 40.1044 48.0777 40.0136C49.241 39.9269 50.3226 39.0385 50.5405 37.9925C50.6107 37.6507 50.9434 37.4344 51.286 37.5029C51.627 37.5747 51.8458 37.9083 51.7748 38.2484C51.4437 39.8435 49.8941 41.1422 48.171 41.271C48.0777 41.2784 47.9828 41.2817 47.887 41.2817Z" fill="#023575"/>
<path d="M59.424 40.7158C57.8933 40.7158 56.3981 39.6961 55.8697 38.2546C55.75 37.9277 55.9176 37.5652 56.2454 37.4463C56.5723 37.325 56.9348 37.4934 57.0545 37.8212C57.4202 38.8185 58.5373 39.5384 59.5957 39.4485C60.655 39.3626 61.6424 38.4792 61.8447 37.4356C61.9107 37.093 62.2385 36.8676 62.5836 36.9361C62.9254 37.0022 63.1491 37.3324 63.0831 37.675C62.7743 39.2734 61.3188 40.5762 59.6973 40.7067C59.6056 40.7125 59.5148 40.7158 59.424 40.7158Z" fill="#023575"/>
<path d="M43.4657 32.5279C43.3856 32.5279 43.3064 32.5262 43.2263 32.5245C42.8787 32.5138 42.6046 32.2232 42.6145 31.8756C42.6244 31.5272 42.8977 31.2647 43.2635 31.263C45.6057 31.3522 47.9373 30.2269 49.368 28.3808C49.5819 28.1042 49.9782 28.0547 50.2531 28.2685C50.528 28.4823 50.5792 28.8778 50.3654 29.1527C48.7406 31.2498 46.116 32.5279 43.4657 32.5279Z" fill="#023575"/>
<path d="M60.4145 31.1342C58.5189 31.1342 56.6067 30.4638 55.1487 29.2609C54.8796 29.0388 54.8416 28.6425 55.0628 28.3733C55.2849 28.105 55.6821 28.0679 55.9512 28.2875C57.401 29.483 59.3792 30.0584 61.2434 29.8198C61.5893 29.7802 61.9047 30.0204 61.9485 30.3664C61.9922 30.7115 61.747 31.0277 61.4019 31.0715C61.0741 31.1144 60.7447 31.1342 60.4145 31.1342Z" fill="#023575"/>
<path d="M38.2107 44.9655C37.3058 45.716 36.7626 46.8611 37.0391 48.6197C37.3042 50.3064 38.4336 51.5415 39.4623 52.0146C42.8886 53.5899 46.466 53.679 49.6413 52.2656C50.7559 51.7694 51.9101 50.829 52.0199 48.8401C52.1685 46.1469 50.3638 44.3545 48.8322 43.713C47.1983 43.0286 45.42 43.1153 43.8232 43.2977C41.9722 43.5083 39.7909 43.6552 38.2107 44.9655Z" fill="#FF8A65"/>
<path d="M63.8415 43.5576C63.1191 43.7863 62.4859 44.2536 61.8865 44.7506C60.9816 45.5011 60.4383 46.6462 60.7149 48.4048C60.9808 50.0924 62.1102 51.3275 63.1389 51.7997C63.6244 52.0235 63.4081 51.9574 63.8977 52.1209C64.0314 49.19 63.9885 46.8403 63.8415 43.5576Z" fill="#FF8A65"/>
<path d="M57.3119 54.5171C57.0105 54.5171 56.7439 54.3008 56.691 53.9945C56.6316 53.651 56.8611 53.3241 57.2045 53.2646C57.9038 53.1432 58.5734 52.8526 59.1414 52.4241C59.4898 52.1616 59.9216 51.7405 59.9984 51.2303C60.0917 50.6069 59.6459 49.9242 59.1802 49.2777L57.2392 46.5813C57.0353 46.2981 57.0997 45.9042 57.3821 45.7011C57.6652 45.4972 58.0591 45.5616 58.263 45.8448L60.204 48.5421C60.8207 49.3983 61.4094 50.3262 61.2451 51.4185C61.1345 52.155 60.6697 52.851 59.901 53.4314C59.1745 53.9796 58.3166 54.3511 57.42 54.508C57.3845 54.5137 57.3482 54.5171 57.3119 54.5171Z" fill="#023575"/>
<path d="M52.7562 62.3824C51.6623 62.3824 51.143 61.9217 50.8978 61.5221C50.4709 60.8252 50.5749 59.8221 51.1842 58.7703C52.0726 57.2355 53.4349 56.2282 55.0201 55.9327C56.1412 55.7263 57.1179 56.0144 57.634 56.7046C58.178 57.4312 58.15 58.4888 57.5605 59.534C56.6416 61.1621 54.8425 62.2775 52.975 62.3766C52.8999 62.3807 52.8264 62.3824 52.7562 62.3824ZM55.2504 57.1736C54.0334 57.3989 52.9767 58.1907 52.2757 59.4019C51.8736 60.0962 51.834 60.6362 51.9735 60.8632C52.1296 61.1192 52.6258 61.1316 52.9081 61.1167C54.3546 61.0399 55.7491 60.1755 56.4608 58.914C56.7093 58.4747 56.9008 57.8307 56.6234 57.4609C56.3617 57.1083 55.7425 57.0836 55.2504 57.1736Z" fill="#023575"/>
<path d="M61.0649 68.9811C59.8867 69.455 58.4914 68.636 57.9498 67.4884C57.4074 66.34 57.5271 64.9926 57.8095 63.7542C58.4947 60.7481 60.4432 57.6892 63.4691 57.0972C65.1715 56.7645 66.9523 57.278 68.4475 58.1573C69.9427 59.0366 71.2001 60.261 72.441 61.473C73.6109 62.6157 74.5224 64.0324 75.31 65.4657C76.0985 66.8981 76.6021 68.5345 76.4502 70.1618C76.2958 71.8072 75.4487 73.3775 74.1575 74.4095C72.867 75.4416 71.1489 75.9212 69.5101 75.7091L61.0649 68.9811Z" fill="white"/>
<path d="M70.2924 76.3908C70.0042 76.3908 69.7153 76.3727 69.4288 76.3347C69.314 76.3198 69.2067 76.2744 69.1167 76.2034L60.9324 69.6835C59.4925 70.0229 57.9767 69.0239 57.3789 67.7598C56.8588 66.6585 56.8002 65.3416 57.1932 63.6144C57.8462 60.7512 59.8492 57.1639 63.3465 56.4786C65.034 56.1484 66.9594 56.5513 68.7658 57.6139C70.3361 58.5377 71.6299 59.8009 72.8807 61.0228C74.243 62.3521 75.2345 64.0223 75.8612 65.1616C76.8057 66.8789 77.2251 68.6292 77.0765 70.2218C76.9056 72.0514 75.9842 73.7563 74.5493 74.9031C73.343 75.8682 71.828 76.3908 70.2924 76.3908ZM69.7607 75.1037C71.1733 75.2375 72.6569 74.8023 73.7633 73.9165C74.915 72.9975 75.6845 71.5717 75.8215 70.1046C75.947 68.7638 75.5788 67.2645 74.7565 65.7693C74.1678 64.7001 73.2423 63.1372 71.9998 61.9261C70.8026 60.757 69.565 59.5483 68.1268 58.7028C66.5862 57.7955 64.9762 57.4471 63.5884 57.7179C60.6855 58.2859 58.9914 61.401 58.4225 63.896C58.0956 65.3317 58.1253 66.3885 58.5183 67.2199C58.9138 68.0571 59.9598 68.7448 60.8275 68.3964C61.0381 68.3105 61.2767 68.346 61.4558 68.488L69.7607 75.1037Z" fill="#023575"/>
<path d="M64.343 62.334C62.9799 63.8498 61.9999 65.7074 61.5202 67.6881C61.3312 68.4658 61.2222 69.2989 61.4856 70.0543C61.7489 70.8097 62.4829 71.4504 63.2788 71.3728" fill="white"/>
<path d="M63.1394 72.0113C62.062 72.0113 61.2025 71.1585 60.8896 70.2635C60.5536 69.3008 60.7228 68.3027 60.9069 67.5414C61.4122 65.4551 62.4385 63.5083 63.8742 61.9124C64.1079 61.6531 64.5058 61.6317 64.765 61.8653C65.0235 62.0982 65.0449 62.4969 64.8121 62.7562C63.5159 64.1969 62.5896 65.9538 62.133 67.8378C61.9893 68.4314 61.8531 69.196 62.081 69.8474C62.2486 70.3279 62.7216 70.7993 63.217 70.7465C63.5687 70.7134 63.8726 70.9669 63.9056 71.3137C63.9394 71.6604 63.686 71.9684 63.3392 72.0022C63.2723 72.008 63.2046 72.0113 63.1394 72.0113Z" fill="#023575"/>
<path d="M66.428 65.1201C65.0649 66.6359 64.0849 68.4944 63.6052 70.475C63.4161 71.2528 63.3072 72.0858 63.5705 72.8413C63.8339 73.5967 64.5679 74.2366 65.3638 74.1589" fill="white"/>
<path d="M65.2238 74.7976C64.1472 74.7976 63.2877 73.9455 62.9748 73.0506C62.6388 72.0863 62.8072 71.0889 62.9922 70.3277C63.4974 68.2422 64.5237 66.2954 65.9594 64.6995C66.1931 64.4403 66.5918 64.4188 66.8503 64.6524C67.1087 64.8853 67.1301 65.284 66.8973 65.5433C65.6011 66.984 64.6748 68.7417 64.2182 70.6249C64.0745 71.2177 63.9391 71.9822 64.1662 72.6353C64.3338 73.1142 64.8036 73.5848 65.3014 73.5328C65.6523 73.5022 65.9569 73.7524 65.9908 74.0991C66.0255 74.4459 65.7712 74.7547 65.4244 74.7885C65.3575 74.7943 65.2907 74.7976 65.2238 74.7976Z" fill="#023575"/>
<path d="M68.4082 66.7764C67.0451 68.2922 66.0651 70.1498 65.5854 72.1305C65.3972 72.9082 65.2874 73.7412 65.5507 74.4967C65.8141 75.2521 66.5481 75.8928 67.344 75.8152C68.6683 75.6856 70.1849 75.4643 71.2483 74.6659C71.174 74.0269 70.795 73.2822 70.1866 73.07C69.6895 73.2236 69.048 73.2013 68.551 73.3549C70.0173 73.0981 71.3342 71.7449 71.7338 70.3108" fill="white"/>
<path d="M67.2034 76.4522C66.1268 76.4522 65.2674 75.601 64.9553 74.7061C64.6193 73.7409 64.7877 72.7436 64.9726 71.9832C65.4787 69.8969 66.5041 67.9501 67.9399 66.3541C68.1727 66.0957 68.5715 66.0743 68.8307 66.3071C69.0891 66.5399 69.1106 66.9387 68.8778 67.1979C67.5816 68.6386 66.6552 70.3964 66.1987 72.2796C66.055 72.8732 65.9196 73.6369 66.1467 74.2899C66.3143 74.7688 66.7832 75.2411 67.2827 75.1874C68.4567 75.0726 69.6514 74.8918 70.5406 74.3791C70.4473 74.1025 70.2912 73.8656 70.117 73.7409C69.8925 73.7888 69.6646 73.8152 69.4417 73.84C69.2939 73.8573 69.1511 73.8738 69.0198 73.8953C68.9001 73.9283 68.7804 73.9556 68.6598 73.9779C68.3312 74.0324 68.0158 73.8268 67.9374 73.504C67.8598 73.1795 68.0464 72.8517 68.3651 72.7543C68.4873 72.7155 68.6119 72.6874 68.7383 72.6651C69.8058 72.3415 70.8015 71.3087 71.1268 70.1437C71.2201 69.8085 71.5676 69.6104 71.9037 69.7061C72.2389 69.7994 72.4354 70.147 72.3421 70.4822C72.0993 71.3532 71.5891 72.1558 70.9336 72.7766C71.4859 73.2175 71.8005 73.9498 71.8748 74.5946C71.9004 74.8175 71.8062 75.0371 71.6271 75.1709C70.4696 76.0403 68.9141 76.2962 67.4049 76.4432C67.3372 76.4498 67.2695 76.4522 67.2034 76.4522Z" fill="#023575"/>
<path d="M75.6911 56.4241L68.4678 55.3128L68.6593 54.0653L73.7088 54.8422L72.382 51.4902H80.2922V52.7526H74.238L75.6911 56.4241Z" fill="#ED9329"/>
<path d="M56.9539 81.036L55.6816 75.1287H58.554L56.9795 70.9114L58.161 70.4697L60.372 76.3902H57.2437L58.1866 80.7701L56.9539 81.036Z" fill="#023575"/>
</g>
</svg>
