<svg width="21" height="21" viewBox="0 0 21 21" fill="none" xmlns="http://www.w3.org/2000/svg">
<path d="M20.2537 16.5809L18.0365 15.1027L16.0654 13.7889C15.685 13.5358 15.1738 13.6188 14.893 13.9793L13.6734 15.5472C13.4114 15.8874 12.9401 15.9852 12.5644 15.7772C11.7368 15.3168 10.7582 14.8834 8.59895 12.7213C6.43968 10.5593 6.00347 9.58345 5.54313 8.75588C5.33512 8.38018 5.43289 7.9089 5.77312 7.64695L7.34103 6.42732C7.70146 6.14654 7.78447 5.63533 7.53138 5.25491L6.25796 3.34458L4.73935 1.06664C4.48087 0.678907 3.96346 0.562502 3.56385 0.802148L1.81247 1.85284C1.33915 2.1317 0.991227 2.58201 0.84076 3.1104C0.36182 4.85659 0.265259 8.70862 6.43862 14.882C12.612 21.0553 16.4637 20.9585 18.2099 20.4795C18.7382 20.3291 19.1886 19.9811 19.4674 19.5078L20.5181 17.7564C20.7578 17.3568 20.6414 16.8394 20.2537 16.5809Z" fill="white"/>
<path d="M12.0216 3.78144C15.2575 3.78503 17.88 6.40742 17.8836 9.64344C17.8836 9.83387 18.0379 9.98828 18.2284 9.98828C18.4188 9.98828 18.5732 9.83391 18.5732 9.64344C18.5693 6.02672 15.6383 3.09578 12.0216 3.0918C11.8312 3.0918 11.6768 3.24617 11.6768 3.43664C11.6767 3.62703 11.8311 3.78144 12.0216 3.78144Z" fill="white"/>
<path d="M12.0216 5.84984C14.1154 5.8523 15.8122 7.54907 15.8146 9.64288C15.8146 9.83331 15.969 9.98772 16.1595 9.98772C16.3499 9.98772 16.5043 9.83334 16.5043 9.64288C16.5015 7.16834 14.4962 5.16301 12.0216 5.16016C11.8312 5.16016 11.6768 5.31453 11.6768 5.505C11.6768 5.69546 11.8311 5.84984 12.0216 5.84984Z" fill="white"/>
<path d="M12.0216 7.91913C12.9733 7.92027 13.7445 8.69151 13.7457 9.64325C13.7457 9.83368 13.9 9.98809 14.0905 9.98809C14.2809 9.98809 14.4354 9.83372 14.4354 9.64325C14.4338 8.31081 13.354 7.23102 12.0216 7.22949C11.8312 7.22949 11.6768 7.38386 11.6768 7.57433C11.6767 7.76476 11.8311 7.91913 12.0216 7.91913Z" fill="white"/>
</svg>
